<svg id="Ableton" xmlns="http://www.w3.org/2000/svg" viewBox="0 0 178.56 144"><title>Ableton-Quick-Preview</title><path d="M145.93,217.9c-28.32,0-49.12-24.16-49.12-58.88s21.6-58.72,49.44-58.72c21.76,0,38.88,12.32,45.92,36L182.41,139c-5.44-18.88-18.72-29.6-36.16-29.6-21.92,0-39.36,20-39.36,49.6s16.64,49.92,39,49.92c19.68,0,33.28-11.36,35.68-37H145.29v-9H192C191.85,200.3,173.61,217.9,145.93,217.9Z" transform="translate(-96.81 -100.3)"/><path d="M275.37,135.66V209.1c0,21.28-13.93,35.2-35.05,35.2-17.6,0-31-9.28-36.48-23.68l9-4c4.8,11.2,13.76,18.72,27.52,18.72,15.84,0,25.45-10.08,25.45-27V197.58c-5.45,8-13.77,12.64-24.81,12.64-20,0-33.28-16.16-33.28-38.24S221,133.58,241,133.58c10.88,0,19.36,4.64,24.81,12.64V135.66ZM266.25,172c0-18.4-10.25-29.6-24.49-29.6-14.4,0-24.48,12.16-24.48,29.6,0,17.28,10.08,29.6,24.48,29.6C256,201.58,266.25,189.26,266.25,172Z" transform="translate(-96.81 -100.3)"/></svg>