<svg id="Acne_Studios" data-name="Acne Studios" xmlns="http://www.w3.org/2000/svg" viewBox="0 0 171.68 115.52"><title>Acne-Studios-Quick-Preview</title><path d="M136.49,101.9h11.36L188.17,216H171.69l-7.36-22.08h-44.8L112.17,216H95.69Zm23,77.76-17.6-52.48-17.6,52.48Z" transform="translate(-95.69 -101.9)"/><path d="M251.85,206.06c-4,6.72-11,11.36-22.09,11.36-15.36,0-25.28-9.92-25.28-21.92,0-8.32,3.36-15.52,13-19.52,5.12-2.08,12-3.36,21.12-3.84l12.81-.8v-4.16c0-8.16-5.92-13.28-14.72-13.28-9,0-13.93,5.12-14.89,11.52H206.24c1.92-16.48,15-23.36,30.41-23.36,17.6,0,29.44,9.6,29.44,25.12v25.28A172,172,0,0,0,267.37,216H253.29Zm-.48-23.84-13.77,1C225.92,184,219,187.5,219,194.7c0,5.76,4.16,9.92,13,9.92,11,0,18.89-6.56,19.37-13.28Z" transform="translate(-95.69 -101.9)"/></svg>