<svg id="Acne_Studios" data-name="Acne Studios" xmlns="http://www.w3.org/2000/svg" viewBox="0 0 3420.28 371.6"><title>Acne-Studios-01</title><path d="M136.49,101.9h11.36L188.17,216H171.69l-7.36-22.08h-44.8L112.17,216H95.69Zm23,77.76-17.6-52.48-17.6,52.48Z" transform="translate(-95.69 -74.86)"/><path d="M212.16,101.9h39.53c20.48,0,33.6,13.12,33.6,31.2A29.57,29.57,0,0,1,271.05,159c8.8,5.28,14.24,14.56,14.24,25.76,0,18.08-13.12,31.2-33.6,31.2H212.16ZM251.69,152c10.56,0,17.92-7.2,17.92-17.92,0-10.56-7.36-17.92-17.92-17.92H228V152Zm0,49.76c10.56,0,17.92-7.36,17.92-17.92,0-10.72-7.36-17.92-17.92-17.92H228v35.84Z" transform="translate(-95.69 -74.86)"/><path d="M421.77,182.06c-9.12,19.36-27,36.16-54.72,36.16a59.2,59.2,0,1,1,0-118.4c27.68,0,45.6,16.8,54.72,36.16l-14.72,5.92c-6.56-14.4-19.84-27.36-40-27.36-23.68,0-43.2,20.32-43.2,44.64,0,24,19.52,44.32,43.2,44.32,20.16,0,33.28-12.8,40-27.36Z" transform="translate(-95.69 -74.86)"/><path d="M448.16,101.9h35c32.64,0,57.28,24,57.28,57S515.84,216,483.2,216h-35Zm35,99.84c23.68,0,41.12-18.08,41.12-42.88s-17.44-42.72-41.12-42.72H464v85.6Z" transform="translate(-95.69 -74.86)"/><path d="M568.48,101.9h67.36v14.24H584.32v35.68h49.92v14.24H584.32v35.68h51.52V216H568.48Z" transform="translate(-95.69 -74.86)"/><path d="M668.64,101.9H736v14.24H684.48v35.68H734.4v14.24H684.48V216H668.64Z" transform="translate(-95.69 -74.86)"/><path d="M813.76,151.82h53v36.32A59.31,59.31,0,1,1,815,99.82c17.44,0,33.12,6.4,44.48,19.84l-11.68,9.92c-7.84-8.32-17.76-15-32.8-15-24,0-43.2,20-43.2,44.64,0,24.48,19.2,44.32,43.2,44.32a43,43,0,0,0,35.84-19.36V166.06H813.76Z" transform="translate(-95.69 -74.86)"/><path d="M896.32,101.9h15.84v49.92h59.52V101.9h15.84V216H971.68V166.06H912.16V216H896.32Z" transform="translate(-95.69 -74.86)"/><path d="M1022.72,101.9h15.84V216h-15.84Z" transform="translate(-95.69 -74.86)"/><path d="M1080.8,180.78c1.28,14.4,8.8,22.72,20.8,22.72s20.32-8.48,20.32-22.88V101.9h15.84v78.72c0,22.72-15.36,37.6-36.16,37.6s-36-14.24-36.64-37.44Z" transform="translate(-95.69 -74.86)"/><path d="M1174.08,101.9h15.84V155L1236,101.9h18.4l-48.64,56.16L1255.52,216H1236l-46.08-53.12V216h-15.84Z" transform="translate(-95.69 -74.86)"/><path d="M1278.88,101.9h15.84v99.84h45.92V216h-61.76Z" transform="translate(-95.69 -74.86)"/><path d="M1364.64,101.9h22.88l36,90.56,35.68-90.56h22.72V216h-15.84v-91.2L1429.6,216H1417l-36.48-91.2V216h-15.84Z" transform="translate(-95.69 -74.86)"/><path d="M1517.11,101.9h16.64l61.12,89.6V101.9h15.84V216h-16.63L1533,126.86V216h-15.84Z" transform="translate(-95.69 -74.86)"/><path d="M1697.27,99.82a59.2,59.2,0,1,1-59.36,59.2A59.2,59.2,0,0,1,1697.27,99.82Zm43.2,59.2c0-24.64-19-44.48-43.2-44.48s-43.2,19.84-43.2,44.48,19,44.48,43.2,44.48S1740.47,183.66,1740.47,159Z" transform="translate(-95.69 -74.86)"/><path d="M1783.83,101.9h39c20.8,0,34.08,15,34.08,33.12s-13.28,33-34.08,33h-23.2v48h-15.84Zm39,51.84c11.36,0,18.4-7.84,18.4-18.72s-7-18.88-18.4-18.88h-23.2v37.6Z" transform="translate(-95.69 -74.86)"/><path d="M1967.67,208.3a60.08,60.08,0,0,1-33,9.92,59.2,59.2,0,1,1,59.36-59.2,58.15,58.15,0,0,1-15,39.36l12.64,12.8-10.56,10.56Zm-29.92-30.08,10.56-10.56L1968,187.5a46.21,46.21,0,0,0,9.92-28.48c0-24.64-19-44.48-43.2-44.48s-43.2,19.84-43.2,44.48,19,44.48,43.2,44.48a43.12,43.12,0,0,0,22.08-6.08Z" transform="translate(-95.69 -74.86)"/><path d="M2021.27,101.9h41.6c20.8,0,34.08,15.2,34.08,33.28,0,11.68-5.6,21.12-14.88,26.56,8,5.44,12.64,14.4,12.64,25.12V216H2079V186.86c0-11-7.2-18.88-18.4-18.88h-23.52v48h-15.84Zm41.6,52.16c11.2,0,18.4-8,18.4-18.88s-7.2-19-18.4-19h-25.76v37.92Z" transform="translate(-95.69 -74.86)"/><path d="M2139.83,184c1,12.16,8.48,18.88,18.88,18.88,10.88,0,19.36-7.68,19.36-17.92,0-6.88-2.72-11.52-7.2-14.24-3-1.92-7.84-3.2-13.92-4.48a73.38,73.38,0,0,1-16.32-5.12c-11.2-5-16.8-16-16.8-27.84,0-14.4,12.16-32.32,34.88-32.32,23.84,0,32.48,16.64,34.4,28.64l-15,2.72c-2.24-9.28-7.68-17.12-19.36-17.12-10.4,0-19.36,7.68-19.36,18.08a15.76,15.76,0,0,0,8.16,14.24c4.8,2.88,10.4,3.84,15.84,5,6.24,1.28,11.84,2.56,17.28,6.08,8.48,5.6,13.12,14.56,13.12,26.4,0,17.6-15.36,32.16-35,32.16-19.2,0-34.56-13.12-34.56-33.12Z" transform="translate(-95.69 -74.86)"/><path d="M2242.55,116.14h-29.28V101.9h74.4v14.24h-29.28V216h-15.84Z" transform="translate(-95.69 -74.86)"/><path d="M2314.07,101.9h15.84v77.6c0,14.56,9.92,24,23.68,24s23.52-9.44,23.52-24V101.9H2393v77.44c0,23-16.64,38.88-39.36,38.88s-39.52-15.84-39.52-38.88Z" transform="translate(-95.69 -74.86)"/><path d="M2416.15,101.9h16.64l34.88,90.88,35-90.88h16.16L2474.07,216H2461Z" transform="translate(-95.69 -74.86)"/><path d="M2534.06,101.9h16.64l24,88,24-88h15.05l23.83,87.52,23.85-87.52h16L2644.31,216h-13.44l-25-88.8-25,88.8H2567Z" transform="translate(-95.69 -74.86)"/><path d="M2730.38,158.7l-34.24-56.8h17.28l26.24,43.84,26.4-43.84h17l-34.4,57L2783.34,216h-17.28l-26.72-44-26.56,44h-17Z" transform="translate(-95.69 -74.86)"/><path d="M2836.46,167.34l-36.32-65.44h17.12L2844.62,152l27-50.08h17l-36.32,66.4V216h-15.84Z" transform="translate(-95.69 -74.86)"/><path d="M2907,200.46l62.88-84.32H2907V101.9h80.64v14.88l-63,85h63V216H2907Z" transform="translate(-95.69 -74.86)"/><path d="M3051.5,74.86a17,17,0,0,1,17.28,16.8,16.79,16.79,0,0,1-9.6,15.2L3097.74,216h-16.48l-7.36-22.08h-44.8L3021.74,216h-16.48l38.88-108.8a17,17,0,0,1-10.08-15.52C3034.06,82.22,3041.9,74.86,3051.5,74.86Zm17.6,104.8-17.6-52.48-17.6,52.48Zm-17.6-79.36a8.72,8.72,0,1,0-8.8-8.64C3042.7,96.62,3046.22,100.3,3051.5,100.3Z" transform="translate(-95.69 -74.86)"/><path d="M3151.34,101.9h11.36L3203,216h-16.48l-7.36-22.08h-44.8L3127,216h-16.48ZM3134.06,76h14.72V90.7h-14.72Zm40.32,103.68-17.6-52.48-17.6,52.48ZM3164.62,76h14.72V90.7h-14.72Z" transform="translate(-95.69 -74.86)"/><path d="M3273.58,99.82a59.2,59.2,0,1,1-59.36,59.2A59.2,59.2,0,0,1,3273.58,99.82Zm43.2,59.2c0-24.64-19-44.48-43.2-44.48s-43.2,19.84-43.2,44.48,19,44.48,43.2,44.48S3316.78,183.66,3316.78,159Zm-65.92-83h14.72V90.7h-14.72Zm30.56,0h14.72V90.7h-14.72Z" transform="translate(-95.69 -74.86)"/><path d="M146.57,396.06c-4,6.72-11,11.36-22.08,11.36-15.36,0-25.28-9.92-25.28-21.92,0-8.32,3.36-15.52,13-19.52,5.12-2.08,12-3.36,21.12-3.84l12.8-.8v-4.16c0-8.16-5.92-13.28-14.72-13.28-9,0-13.92,5.12-14.88,11.52H101c1.92-16.48,15-23.36,30.4-23.36,17.6,0,29.44,9.6,29.44,25.12v25.28A172,172,0,0,0,162.09,406H148Zm-.48-23.84-13.76,1c-11.68.8-18.56,4.32-18.56,11.52,0,5.76,4.16,9.92,13,9.92,11,0,18.88-6.56,19.36-13.28Z" transform="translate(-95.69 -74.86)"/><path d="M188.81,284.7h14.72v58.88c5.76-7,14.4-11.52,25.12-11.52,21,0,36.64,17,36.64,37.92s-15.68,37.92-36.64,37.92c-11,0-20-4.8-25.76-12.32V406H188.81ZM250.57,370c0-13.28-10.24-24.48-23.52-24.48S203.53,356.7,203.53,370s10.24,24.48,23.52,24.48S250.57,383.26,250.57,370Z" transform="translate(-95.69 -74.86)"/><path d="M354.72,388.06a37.92,37.92,0,1,1,0-36.16l-12,7c-4.8-7.52-11.68-13.44-21.6-13.44-13.28,0-23.52,11.2-23.52,24.48s10.24,24.48,23.52,24.48c9.92,0,16.8-5.92,21.6-13.44Z" transform="translate(-95.69 -74.86)"/><path d="M432.48,395.58a31.87,31.87,0,0,1-25.76,12.32c-21,0-36.64-17-36.64-37.92s15.68-37.92,36.64-37.92a32.08,32.08,0,0,1,25.12,11.52V284.7h14.72V406H432.48Zm-.64-25.6c0-13.28-10.24-24.48-23.52-24.48S384.8,356.7,384.8,370s10.24,24.48,23.52,24.48S431.84,383.26,431.84,370Z" transform="translate(-95.69 -74.86)"/><path d="M539.36,391.74c-7,9.76-17.76,16.16-30.72,16.16-23.84,0-38.88-18.72-38.88-38.56a37.44,37.44,0,0,1,74.88-.16,28.18,28.18,0,0,1-.48,5.28H484.64c1.92,10.56,10.24,20.16,24,20.16,8.8,0,14.88-4.8,19.68-11.36Zm-9.92-28.64C526.72,352.7,517.76,345,507.36,345s-19.84,7.36-22.56,18.08Z" transform="translate(-95.69 -74.86)"/><path d="M571,347.1h-7.68V334H571V307.9c0-15.52,9.6-23.68,23.2-23.68a27.51,27.51,0,0,1,5.44.48v12.64h-1.44c-8.32,0-12.48,3.84-12.48,11.68v25h13.92V347.1H585.76V406H571Z" transform="translate(-95.69 -74.86)"/><path d="M637.44,414.14c1.6,10.56,8.32,18.56,21.12,18.56s21.28-8.16,21.28-21.44V396.38a32.08,32.08,0,0,1-25.12,11.52c-21,0-36.64-17-36.64-37.92s15.68-37.92,36.64-37.92a31.87,31.87,0,0,1,25.76,12.32V334h14.08v77.28c0,21.28-15.84,34.72-36,34.72s-35.36-12.48-36.64-31.84ZM679.84,370c0-13.28-10.24-24.48-23.52-24.48S632.8,356.7,632.8,370s10.24,24.48,23.52,24.48S679.84,383.26,679.84,370Z" transform="translate(-95.69 -74.86)"/><path d="M724.48,284.7H739.2v57.12c4.32-5.76,11-9.76,20.64-9.76,14.4,0,28.8,10.24,28.8,29.76V406H773.92V361.82c0-9.6-7.52-16.32-17.44-16.32-9.6,0-17,6.4-17.28,15.68V406H724.48Z" transform="translate(-95.69 -74.86)"/><path d="M817.12,300.7h14.72v16H817.12Zm0,33.28h14.72v72H817.12Z" transform="translate(-95.69 -74.86)"/><path d="M847.68,433.34h1.44c8.32,0,12.48-3.84,12.48-11.68V334h14.72v88.8c0,15.52-9.6,23.68-23.2,23.68a27.51,27.51,0,0,1-5.44-.48ZM861.6,300.7h14.72v16H861.6Z" transform="translate(-95.69 -74.86)"/><path d="M905.6,284.7h14.72v81.76l27-32.48h17.28l-29.92,35.2L966.08,406h-18.4l-27.36-32.64V406H905.6Z" transform="translate(-95.69 -74.86)"/><path d="M986.88,284.7h14.72V406H986.88Z" transform="translate(-95.69 -74.86)"/><path d="M1030.4,334h14.08v8.16c4.16-6.08,10.56-10.08,20-10.08a26.8,26.8,0,0,1,22.72,12.32c4.48-7.36,12.48-12.32,23.84-12.32,14.08,0,27.84,10.24,27.84,29.76V406h-14.72V361.82c0-9.6-6.72-16.32-16.16-16.32-9.28,0-16,6.72-16,16.32V406h-14.72V361.82c0-9.6-6.72-16.32-16.16-16.32-9.12,0-16,6.88-16,16.16V406H1030.4Z" transform="translate(-95.69 -74.86)"/><path d="M1166.87,334H1181v8.8c4.32-6.4,11.21-10.72,21.29-10.72,14.4,0,28.8,10.24,28.8,29.76V406h-14.72V361.82c0-9.6-7.52-16.32-17.45-16.32-9.6,0-17.28,6.56-17.28,16.16V406h-14.72Z" transform="translate(-95.69 -74.86)"/><path d="M1290.87,332.06A37.92,37.92,0,1,1,1252.63,370,38.17,38.17,0,0,1,1290.87,332.06ZM1314.4,370c0-13.28-10.24-24.48-23.53-24.48s-23.52,11.2-23.52,24.48,10.24,24.48,23.52,24.48S1314.4,383.26,1314.4,370Z" transform="translate(-95.69 -74.86)"/><path d="M1352.31,334h14.08v10.4c5.76-7.52,14.72-12.32,25.76-12.32,21,0,36.65,17,36.65,37.92s-15.68,37.92-36.65,37.92c-10.72,0-19.36-4.48-25.12-11.52V446h-14.72Zm61.77,36c0-13.28-10.25-24.48-23.53-24.48S1367,356.7,1367,370s10.24,24.48,23.52,24.48S1414.08,383.26,1414.08,370Z" transform="translate(-95.69 -74.86)"/><path d="M1508.15,396.38A32.08,32.08,0,0,1,1483,407.9c-21,0-36.64-17-36.64-37.92s15.68-37.92,36.64-37.92a31.87,31.87,0,0,1,25.76,12.32V334h14.08V446h-14.72Zm0-26.4c0-13.28-10.24-24.48-23.52-24.48s-23.52,11.2-23.52,24.48,10.24,24.48,23.52,24.48S1508.15,383.26,1508.15,370Z" transform="translate(-95.69 -74.86)"/><path d="M1551.67,334h14.08v10.24c4.16-6.24,10.24-10.56,18.72-10.56a23.72,23.72,0,0,1,4.64.32V348.7a27.76,27.76,0,0,0-5.92-.64c-9.28,0-16.8,5.76-16.8,14.56V406h-14.72Z" transform="translate(-95.69 -74.86)"/><path d="M1608,384.54h13.6c.8,7.68,5.76,11,11.2,11s11-3.2,11-10.24a7.76,7.76,0,0,0-4.48-7.2c-2.24-1.28-7-2.24-10.24-2.72a33.13,33.13,0,0,1-13.6-5.12c-4.64-3.52-7.2-9.28-7.2-16.32,0-11.36,10.08-21.76,24.64-21.76s22.24,8,24.32,19.2l-13.12,2.4c-1.44-4.64-4-9.6-11.36-9.6s-10.72,5.6-10.72,9.92a7.14,7.14,0,0,0,3.52,6.4c2.08,1.44,6.24,2.4,11.52,3.36,4.64.8,8.8,2.08,11.84,4.16,5.6,3.84,8.64,9.6,8.64,17.12,0,14.4-12.48,22.72-24.8,22.72s-24.8-7.52-24.8-22.72Z" transform="translate(-95.69 -74.86)"/><path d="M1685.59,347.1h-7.68V334h7.68v-25.6h14.72V334h13.92V347.1h-13.92v35.2c0,7.84,4.16,11.68,12.48,11.68h1.44v12.64a27.51,27.51,0,0,1-5.44.48c-13.6,0-23.2-8.16-23.2-23.68Z" transform="translate(-95.69 -74.86)"/><path d="M1739.83,334h14.72v44.16c0,9.6,7.2,16.32,17,16.32,9.6,0,17.12-6.4,17.12-16.32V334h14.72v72h-14.08v-8.64c-4.32,6.24-11.2,10.56-21,10.56-14.4,0-28.48-10.24-28.48-29.76Z" transform="translate(-95.69 -74.86)"/><path d="M1822.54,334h16.17l22.56,53.44L1883.35,334H1899l-31.68,72h-13Z" transform="translate(-95.69 -74.86)"/><path d="M1913.42,334h15.36l16.48,51.36L1961.58,334h14.08l16.48,51.2,16.17-51.2h15.36l-25.29,72H1985.1l-16.8-52-16.48,52h-13Z" transform="translate(-95.69 -74.86)"/><path d="M2066.22,369l-28-35h17.6l19.68,25.12,20-25.12h16.8l-28.16,35,29.92,37H2096.3l-21.6-26.88L2053.42,406h-17Z" transform="translate(-95.69 -74.86)"/><path d="M2153.9,402.78,2123.66,334h15.84l22.4,52.64L2184.14,334h15.36l-49.12,112H2135Z" transform="translate(-95.69 -74.86)"/><path d="M2217.1,393.34l42.08-46.24h-41V334h59.84v12.8l-41.76,46.08h42.88V406H2217.1Z" transform="translate(-95.69 -74.86)"/><path d="M2349.26,396.06c-4,6.72-11,11.36-22.08,11.36-15.36,0-25.28-9.92-25.28-21.92,0-8.32,3.36-15.52,13-19.52,5.12-2.08,12-3.36,21.12-3.84l12.8-.8v-4.16c0-8.16-5.92-13.28-14.72-13.28-9,0-13.92,5.12-14.88,11.52h-15.52c1.92-16.48,15-23.36,30.4-23.36,17.6,0,29.44,9.6,29.44,25.12v25.28a172,172,0,0,0,1.28,23.52H2350.7Zm-.48-23.84-13.76,1c-11.68.8-18.56,4.32-18.56,11.52,0,5.76,4.16,9.92,13,9.92,11,0,18.88-6.56,19.36-13.28ZM2334.54,290a16.88,16.88,0,1,1,0,33.76c-9.6,0-17.44-7.36-17.44-17C2317.1,297.34,2324.94,290,2334.54,290Zm0,25.44a8.72,8.72,0,1,0-8.8-8.64C2325.74,311.74,2329.26,315.42,2334.54,315.42Z" transform="translate(-95.69 -74.86)"/><path d="M2434.38,396.06c-4,6.72-11,11.36-22.08,11.36-15.36,0-25.28-9.92-25.28-21.92,0-8.32,3.36-15.52,13-19.52,5.12-2.08,12-3.36,21.12-3.84l12.8-.8v-4.16c0-8.16-5.92-13.28-14.72-13.28-9,0-13.92,5.12-14.88,11.52h-15.52c1.92-16.48,15-23.36,30.4-23.36,17.6,0,29.44,9.6,29.44,25.12v25.28A172,172,0,0,0,2449.9,406h-14.08Zm-36.16-93.44h14.72v14.72h-14.72Zm35.68,69.6-13.76,1c-11.68.8-18.56,4.32-18.56,11.52,0,5.76,4.16,9.92,13,9.92,11,0,18.88-6.56,19.36-13.28Zm-6.72-69.6h14.72v14.72h-14.72Z" transform="translate(-95.69 -74.86)"/><path d="M2509.26,332.06A37.92,37.92,0,1,1,2471,370,38.17,38.17,0,0,1,2509.26,332.06ZM2532.78,370c0-13.28-10.24-24.48-23.52-24.48s-23.52,11.2-23.52,24.48,10.24,24.48,23.52,24.48S2532.78,383.26,2532.78,370Zm-45.44-67.36h14.72v14.72h-14.72Zm29,0H2531v14.72H2516.3Z" transform="translate(-95.69 -74.86)"/><path d="M2623.66,314.94l-16.8,11.52-7.53-12.32,24.81-17.76H2639V406h-15.36Z" transform="translate(-95.69 -74.86)"/><path d="M2674.69,395.9c0-18.88,15.21-29.92,35.69-43.52,16-10.56,18.24-18.08,18.24-26.72,0-8.8-6.72-16.8-17.92-16.8-11,0-18.24,9.12-18.24,16.8a17.42,17.42,0,0,0,.16,3h-15.69a21.44,21.44,0,0,1-.16-3.2c0-18.56,15.36-31.2,33.93-31.2,18.72,0,33.92,12.64,33.92,30.56,0,13.12-4,23.68-24.32,38.08-17.28,12.32-27.52,18.24-29,28.64h53.93V406h-70.57Z" transform="translate(-95.69 -74.86)"/><path d="M2781.57,372.54v1.92c0,9.76,7.68,19,20.48,19s20.16-9.44,20.16-19c0-9.76-7.2-18.88-20.32-18.88h-6.56v-14.4h6.24c8.8,0,17.6-5.76,17.6-15.84,0-10.24-8.64-16.48-17.6-16.48s-17,6.72-17,16.48v1h-15.36a10.92,10.92,0,0,1-.16-1.92c0-17.92,15.36-30.08,32.64-30.08s33,12.16,33,30.08a28.89,28.89,0,0,1-12.16,23.68c9.28,5.76,15.52,15.52,15.52,27.2,0,19.52-16.8,32.8-36,32.8-19.36,0-36.32-13-36.32-32.8a15.52,15.52,0,0,1,.16-2.72Z" transform="translate(-95.69 -74.86)"/><path d="M2859.17,369.82l49.28-73.44h16.32V368.7h15.52v14.4h-15.52V406h-15.36V383.1h-50.24Zm50.24-1.12V319.42L2876,368.7Z" transform="translate(-95.69 -74.86)"/><path d="M2973.09,373.18a22.12,22.12,0,0,0,44.16-1.28c0-12-9.12-21.76-22.08-21.76-11,0-17,5-20,9.12l-13.6-5,9.12-57.92h55.84v14.24h-43.84l-4.8,30.56a29.67,29.67,0,0,1,18.08-5.6c21.12,0,36.8,16.48,36.8,36.32s-17.12,36.16-37.76,36.16c-20.16,0-37.12-15.84-37.76-34.88Z" transform="translate(-95.69 -74.86)"/><path d="M3114.69,323.58c-4.48-9.76-10.56-14.72-20.16-14.72-16,0-23.36,15.36-25,37.44a33.73,33.73,0,0,1,24.64-10.24c21.76,0,36.8,16.64,36.8,35.68a36.7,36.7,0,0,1-36.8,36.32c-20.48,0-40.32-12.32-40.32-51.2,0-39.52,13.92-62.56,40.64-62.56,17.44,0,29.12,9,34.88,23.84Zm-21.44,69.92c12.8,0,22.24-9.44,22.24-21.76,0-12.16-9.76-21.6-22.24-21.6a21.89,21.89,0,0,0-21.92,21.6A21.61,21.61,0,0,0,3093.25,393.5Z" transform="translate(-95.69 -74.86)"/><path d="M3164.29,406c2.56-30.88,16.64-63.84,39.68-95.36h-54.72V296.38h71.84V310.3c-26.24,33.44-37.44,64.8-40.48,95.68Z" transform="translate(-95.69 -74.86)"/><path d="M3242.69,324.38c0-18.24,15.52-30.08,32.8-30.08s32.8,11.84,32.8,30.08a28.31,28.31,0,0,1-12.48,23.68c9.44,5.76,15.84,15.36,15.84,27.36,0,19.36-17,32.64-36.16,32.64s-36.16-13.28-36.16-32.64c0-12,6.4-21.6,15.68-27.36A28.57,28.57,0,0,1,3242.69,324.38Zm32.8,69.12c11.52,0,20.32-8.32,20.32-19s-8.8-19-20.32-19-20.32,8.16-20.32,19C3255.17,385.18,3264,393.5,3275.49,393.5Zm0-51.84c9.92,0,17.28-7.36,17.28-16.48s-7.36-16.32-17.28-16.32-17.28,7.2-17.28,16.32S3265.57,341.66,3275.49,341.66Z" transform="translate(-95.69 -74.86)"/><path d="M3350.53,375.1c1.6,13,9.6,18.4,19.52,18.4,16,0,23.2-15.2,24.8-37.28-6.4,6.88-15.52,10.08-24.48,10.08-21.76,0-36.8-16.48-36.8-35.68a36.81,36.81,0,0,1,36.8-36.32c20.48,0,40.32,12.32,40.32,51.2,0,39.52-13.92,62.56-40.64,62.56-17.44,0-33.92-10.24-35.52-33Zm20.8-22.72a21.92,21.92,0,0,0,21.92-21.76,21.61,21.61,0,0,0-21.92-21.76c-12.8,0-22.24,9.6-22.24,21.76S3358.85,352.38,3371.33,352.38Z" transform="translate(-95.69 -74.86)"/><path d="M3435,351.26c0-36.48,14.25-57,40.49-57s40.48,20.48,40.48,57c0,36.64-14.24,56.8-40.48,56.8S3435,387.9,3435,351.26Zm65.13,0c0-26.4-8.48-42.4-24.64-42.4s-24.64,16-24.64,42.4,8.48,42.4,24.64,42.4S3500.13,377.66,3500.13,351.26Z" transform="translate(-95.69 -74.86)"/></svg>