<?xml version="1.0" encoding="UTF-8"?> <svg xmlns="http://www.w3.org/2000/svg" id="Tele2_Slab_kopia_2" data-name="Tele2 Slab kopia 2" viewBox="0 0 3475 351.28"><title>AlfredSans_01</title><path d="M178.41,176.62h-52.8L105.45,216h-16L148,104h8.32l58.56,112H198.57Zm-6.88-13.44L152,125.26l-19.52,37.92Z" transform="translate(-89.45 -73.1)"></path><path d="M305.13,182.54c0,19.84-14.24,33.44-35,33.44h-39V104h35.52c20.64,0,33.44,10.24,33.44,26.88a25.37,25.37,0,0,1-15,23.84C297.29,159.18,305.13,169.1,305.13,182.54ZM245.77,117.1v32.16h20.48c10.4,0,19-6.4,19-16.8s-8.16-15.36-19-15.36Zm44.64,65.6c0-12.64-9.76-20.32-21.12-20.32H245.77v40.48h23.52C280.65,202.86,290.41,195.34,290.41,182.7Z" transform="translate(-89.45 -73.1)"></path><path d="M320.32,160c0-32.48,23-58.4,56-58.4a66.75,66.75,0,0,1,39.2,12.32l-6.71,12.32c-9.45-5.92-19.37-10.56-33-10.56-24.32,0-40.48,19.68-40.48,44.32s16.16,44.32,40.48,44.32c13.76,0,23.52-4.8,33-10.56l6.71,12.32a67.14,67.14,0,0,1-39.2,12.32C343.36,218.38,320.32,192.46,320.32,160Z" transform="translate(-89.45 -73.1)"></path><path d="M527.36,160c0,32.64-25.12,56-55.84,56H438.08V104h33.44C502.24,104,527.36,127.34,527.36,160Zm-15,0c0-25.12-18.72-42.56-41.6-42.56H452.8v85.12h17.92C493.6,202.54,512.32,185.1,512.32,160Z" transform="translate(-89.45 -73.1)"></path><path d="M617.6,202.54V216H551.36V104H616.8v13.44H566.08V149.1h47.2v13.44h-47.2v40Z" transform="translate(-89.45 -73.1)"></path><path d="M659.52,117.42V149.1h45.76v13.44H659.52V216H644.8V104h64.64v13.44Z" transform="translate(-89.45 -73.1)"></path><path d="M724.64,160c0-32.48,23.2-58.4,57.28-58.4,17.28,0,31.36,6.4,40.64,12.16L816,126.38c-10.08-5.44-21-10.72-34.88-10.72-25.28,0-41.44,19.36-41.44,44.32s17.44,44.32,44.64,44.32c8,0,15.84-1.28,22.24-4.16V170.22H777V156.78h44.32v52.16c-10.08,6.56-25,9.44-37,9.44C748.8,218.38,724.64,192.46,724.64,160Z" transform="translate(-89.45 -73.1)"></path><path d="M942.24,104V216H927.52V162.54H865.76V216H851V104h14.72V149.1h61.76V104Z" transform="translate(-89.45 -73.1)"></path><path d="M974.24,104H989V216H974.24Z" transform="translate(-89.45 -73.1)"></path><path d="M1014.71,198.22a58.84,58.84,0,0,0,24.65,5.76c11.2,0,18.08-5.28,18.08-19.84V104h15v80.48c0,23.52-13.92,33.6-32.8,33.6-9.92,0-20.64-1.76-29.77-5.92Z" transform="translate(-89.45 -73.1)"></path><path d="M1170.4,216l-52-57v57h-14.73V104h14.73v47.36L1165.76,104H1185l-51.36,50.4,56.16,61.6Z" transform="translate(-89.45 -73.1)"></path><path d="M1271.52,202.54V216h-65.45V104h14.72v98.56Z" transform="translate(-89.45 -73.1)"></path><path d="M1419.84,216l-20-89.76L1364.47,216h-9.6l-35.36-89.76-20,89.76h-15l25.92-112H1325l34.88,88.32L1394.71,104H1409l25.92,112Z" transform="translate(-89.45 -73.1)"></path><path d="M1548.47,104V216h-10.24l-66.88-86.72V216H1457V104h11.52l65.6,84.48V104Z" transform="translate(-89.45 -73.1)"></path><path d="M1572.47,160a58.56,58.56,0,1,1,58.56,58.4A58.55,58.55,0,0,1,1572.47,160Zm102.08,0c0-24.48-19.68-44.32-43.52-44.32s-43.52,19.84-43.52,44.32,19.68,44.32,43.52,44.32S1674.55,184.46,1674.55,160Z" transform="translate(-89.45 -73.1)"></path><path d="M1785.75,133.74c0,17.6-13.76,29.76-33.28,29.76h-24.16V216h-14.72V104h38.88C1772,104,1785.75,116.14,1785.75,133.74Zm-14.88,0c0-10.24-7.36-16.32-18.4-16.32h-24.16v32.64h24.16C1763.51,150.06,1770.87,144,1770.87,133.74Z" transform="translate(-89.45 -73.1)"></path><path d="M1895.51,205.74,1913,226.22h-16.48l-11.68-13.76a58.13,58.13,0,1,1,10.72-6.72ZM1875,201.1l-18.4-21.6h16.48l13,15.2A44.45,44.45,0,0,0,1902.55,160c0-24.48-19.68-44.32-43.52-44.32s-43.52,19.84-43.52,44.32,19.68,44.32,43.52,44.32A41.39,41.39,0,0,0,1875,201.1Z" transform="translate(-89.45 -73.1)"></path><path d="M1968,162.86h-11.68V216h-14.73V104h38.89c19.52,0,33.28,11.84,33.28,29.44,0,16.16-11.68,27.52-28.64,29.28L2025.59,216h-17.76Zm-11.68-13.44h24.16c11,0,18.4-5.76,18.4-16s-7.36-16-18.4-16h-24.16Z" transform="translate(-89.45 -73.1)"></path><path d="M2038.06,193.74c9.28,5.44,20.32,10.24,33.61,10.24,11.52,0,20.48-5.76,20.48-16.16,0-9.76-8.48-15.68-20.8-22.88l-9.93-5.76c-12.63-7.36-23.36-16.16-23.36-30.08,0-18.08,15.2-27.52,31.52-27.52a61.63,61.63,0,0,1,32.65,9.28l-6.24,12.8c-7.2-4-16.16-8-26.41-8-9.12,0-16.32,4.32-16.32,12.64,0,7.36,5.28,12,18.73,19.84l9.44,5.44c15.84,9.12,25.76,18.72,25.76,33.44,0,19.52-16.64,31-35.69,31-15,0-29.28-4.32-39.68-10.72Z" transform="translate(-89.45 -73.1)"></path><path d="M2196,117.42h-31.36V216H2149.9V117.42h-31.36V104H2196Z" transform="translate(-89.45 -73.1)"></path><path d="M2217.58,177.58V104h15v73c0,15.52,11.68,27,29.44,27s29.44-11.52,29.44-27V104h15v73.6c0,23.36-18.4,40.48-44.48,40.48S2217.58,200.94,2217.58,177.58Z" transform="translate(-89.45 -73.1)"></path><path d="M2448,104l-58.56,112h-8.32l-58.56-112h16.64l46.24,89.6,46.4-89.6Z" transform="translate(-89.45 -73.1)"></path><path d="M2620.94,104l-38.4,112H2568l-31.36-86.56L2505.26,216H2490.7l-38.4-112h16.16l30.08,90.88L2531.66,104h10.4l33,90.88L2605.26,104Z" transform="translate(-89.45 -73.1)"></path><path d="M2711.18,216l-33-47.52L2645.1,216h-16.64l40.48-58.24L2631.5,104h16.32l30.72,43,29.92-43h16.64l-37.44,53.76L2728.14,216Z" transform="translate(-89.45 -73.1)"></path><path d="M2789.58,163.34V216h-14.72V163.34L2733.57,104h17l31.84,45.92,32-45.92h16.48Z" transform="translate(-89.45 -73.1)"></path><path d="M2839,204.3l64.81-86.88h-58.57V104h77.61v10.88l-65.29,87.68h67V216H2839Z" transform="translate(-89.45 -73.1)"></path><path d="M3020.77,176.62H2968L2947.81,216h-16l58.56-112h8.32l58.56,112h-16.32Zm-6.88-13.44-19.52-37.92-19.52,37.92Zm-31-78.56a11.68,11.68,0,1,1,11.68,11.52A11.71,11.71,0,0,1,2982.85,84.62Z" transform="translate(-89.45 -73.1)"></path><path d="M3148.45,176.62h-52.8L3075.49,216h-16l58.56-112h8.32l58.56,112h-16.32Zm-52.32-92.16a9.92,9.92,0,1,1,9.92,9.76A9.83,9.83,0,0,1,3096.13,84.46Zm45.44,78.72-19.52-37.92-19.52,37.92Zm-13.12-78.72a9.92,9.92,0,1,1,9.92,9.76A9.83,9.83,0,0,1,3128.45,84.46Z" transform="translate(-89.45 -73.1)"></path><path d="M3189.89,160a58.56,58.56,0,1,1,58.56,58.4A58.55,58.55,0,0,1,3189.89,160ZM3292,160c0-24.48-19.68-44.32-43.52-44.32s-43.52,19.84-43.52,44.32,19.68,44.32,43.52,44.32S3292,184.46,3292,160Zm-69.6-75.52a9.92,9.92,0,1,1,9.92,9.76A9.83,9.83,0,0,1,3222.37,84.46Zm32.32,0a9.92,9.92,0,1,1,9.92,9.76A9.83,9.83,0,0,1,3254.69,84.46Z" transform="translate(-89.45 -73.1)"></path><path d="M165.77,330.62V390H152.33V378.46c-5.6,8-15.2,13.44-27,13.44-17.12,0-28.64-8.48-28.64-24,0-14.24,10.88-23.68,33.92-28l21.12-4v-3.2c0-10.08-8-12.32-16.48-12.32-9.92,0-19.84,4.8-27.52,10.56l-7.2-11.2c8.8-6.4,21.6-12.16,34.72-12.16C152,307.58,165.77,315.42,165.77,330.62Zm-14.08,24.64v-7.2l-16.16,3c-16.8,3.2-25,7.2-25,16.48,0,7,6.08,11.68,16,11.68C137.61,379.26,151.69,371.1,151.69,355.26Z" transform="translate(-89.45 -73.1)"></path><path d="M273.45,350c0,23.36-16.16,41.92-39.36,41.92a37.71,37.71,0,0,1-29.28-13.44V390H191.37V273.18h14.08V320.7a38.35,38.35,0,0,1,28.64-12.64C257.29,308.06,273.45,326.62,273.45,350Zm-14.4,0c0-16-11-28.8-27-28.8-15.52,0-27.2,12.8-27.2,28.8s11.68,28.8,27.2,28.8C248,378.78,259.05,366,259.05,350Z" transform="translate(-89.45 -73.1)"></path><path d="M286.56,350c0-23.68,16.48-42.4,41.76-42.4a53.13,53.13,0,0,1,29.93,8.8L352,328.54c-6.88-4.32-14.72-7.52-24-7.52-17,0-27,12.8-27,29s10.08,29,27,29c9.28,0,17.12-3.2,24-7.52l6.25,12.16c-7.84,4.64-17.13,8.8-29.93,8.8C303,392.38,286.56,373.66,286.56,350Z" transform="translate(-89.45 -73.1)"></path><path d="M450.73,273.18V390H437.29V378.46A37.73,37.73,0,0,1,408,391.9c-23.2,0-39.36-18.56-39.36-41.92S384.8,308.06,408,308.06a38.39,38.39,0,0,1,28.65,12.64V273.18ZM437.29,350c0-16-11.69-28.8-27.21-28.8-16,0-27,12.8-27,28.8s11,28.8,27,28.8C425.6,378.78,437.29,366,437.29,350Z" transform="translate(-89.45 -73.1)"></path><path d="M484.8,350.14v.48c0,16.16,9.44,28.32,26.72,28.32,11,0,20-5.28,27.52-11.36l7.52,11.36c-8.64,7-19.84,13.44-35.2,13.44-25.28,0-41-18.4-41-41.76s16.48-43,39.68-43c23.68,0,38.24,18.08,37.12,42.56Zm1.92-11.68h45.12c-2.56-11.84-9.12-18.08-21.76-18.08C498.08,320.38,490.08,328.22,486.72,338.46Z" transform="translate(-89.45 -73.1)"></path><path d="M589.6,298.14V310h20.64v12.8H589.6V390H575.52v-67.2h-17V310h17v-12.8c0-18.4,11.68-26.4,25.92-26.4a52.17,52.17,0,0,1,16.48,2.88L615,286.3a46.59,46.59,0,0,0-12.8-2.08C595,284.22,589.6,287.1,589.6,298.14Z" transform="translate(-89.45 -73.1)"></path><path d="M700.8,310v78.4c0,27.2-21.6,36-38.08,36a78.93,78.93,0,0,1-36.32-9.12l6.72-12.64c7.84,4.32,17.44,8.64,29.12,8.64,10.24,0,25.12-3.36,25.12-24.32v-8.48a37.71,37.71,0,0,1-29.28,13.44c-23.2,0-39.36-18.56-39.36-41.92s16.16-41.92,39.36-41.92A37.5,37.5,0,0,1,688,322.3V310Zm-13.44,40c0-16-11.68-28.8-27.2-28.8-16,0-27,12.8-27,28.8s11,28.8,27,28.8C675.68,378.78,687.36,366,687.36,350Z" transform="translate(-89.45 -73.1)"></path><path d="M797.28,336.54V390H783.2V339.42c0-11.84-5.28-17.92-16.8-17.92-13.12,0-25.28,11-25.28,29.44v39H727V273.18h14.08v49.76a31,31,0,0,1,26.72-15C786.56,307.9,797.28,318.94,797.28,336.54Z" transform="translate(-89.45 -73.1)"></path><path d="M820,287.26a9.92,9.92,0,1,1,9.92,9.76A9.83,9.83,0,0,1,820,287.26ZM822.88,310H837v80H822.88Z" transform="translate(-89.45 -73.1)"></path><path d="M860.32,287.26a9.92,9.92,0,1,1,9.92,9.76A9.83,9.83,0,0,1,860.32,287.26ZM863.2,310h14.08V422H863.2Z" transform="translate(-89.45 -73.1)"></path><path d="M957.44,390,917.6,350v40H903.52V273.18H917.6v69.28L951.2,310h18.56L931.52,345.5,975.68,390Z" transform="translate(-89.45 -73.1)"></path><path d="M989.75,273.18h14.08V390H989.75Z" transform="translate(-89.45 -73.1)"></path><path d="M1149.12,336.54V390H1135V339.42c0-11.84-4.48-17.92-14.88-17.92-12.32,0-23.52,11-23.52,29.44v39h-14.08V339.42c0-11.84-4.48-17.92-14.88-17.92-12.33,0-23.53,11-23.53,29.44v39h-14.08V310h13.44v13.44c5.76-10.08,15.36-15.52,25.61-15.52,13.12,0,21.44,5.6,25.28,15.2,7-9.6,17-15.2,27.2-15.2C1140,307.9,1149.12,318.94,1149.12,336.54Z" transform="translate(-89.45 -73.1)"></path><path d="M1245,336.54V390h-14.08V339.42c0-11.84-5.28-17.92-16.8-17.92-13.12,0-25.28,11-25.28,29.44v39h-14.08V310h13.44V323.9a31,31,0,0,1,27.36-16C1234.23,307.9,1245,318.94,1245,336.54Z" transform="translate(-89.45 -73.1)"></path><path d="M1264,350a42.24,42.24,0,1,1,42.24,42.4A42.23,42.23,0,0,1,1264,350Zm70.08,0c0-15.84-12-29-27.84-29s-27.84,13.12-27.84,29,12,29,27.84,29S1334.07,365.82,1334.07,350Z" transform="translate(-89.45 -73.1)"></path><path d="M1450.23,350c0,23.36-16.16,41.92-39.36,41.92a37.71,37.71,0,0,1-29.28-13.44V422h-13.44V310H1381V322.3a37.5,37.5,0,0,1,29.92-14.24C1434.07,308.06,1450.23,326.62,1450.23,350Zm-14.4,0c0-16-11-28.8-27-28.8-15.52,0-27.2,12.8-27.2,28.8s11.68,28.8,27.2,28.8C1424.79,378.78,1435.83,366,1435.83,350Z" transform="translate(-89.45 -73.1)"></path><path d="M1545.43,310V422H1532V378.46a37.71,37.71,0,0,1-29.28,13.44c-23.2,0-39.36-18.56-39.36-41.92s16.16-41.92,39.36-41.92a37.5,37.5,0,0,1,29.92,14.24V310ZM1532,350c0-16-11.68-28.8-27.2-28.8-16,0-27,12.8-27,28.8s11,28.8,27,28.8C1520.31,378.78,1532,366,1532,350Z" transform="translate(-89.45 -73.1)"></path><path d="M1623.19,310.78l-2.88,13.28a41.5,41.5,0,0,0-11.68-1.92c-16.8,0-22.88,14.24-22.88,33.92V390h-14.08V310h13.44V323.9c4.48-8.8,12.32-15.52,24.48-15.52A42.07,42.07,0,0,1,1623.19,310.78Z" transform="translate(-89.45 -73.1)"></path><path d="M1630.38,384.86l5.92-13c7.37,4.16,16,7.36,24.81,7.36,9.44,0,14.08-4.16,14.08-10.24,0-5.92-4.8-9.28-14.72-13.92l-7.52-3.52c-12.65-5.92-18.57-11.84-18.57-22.08,0-13,11-21.92,25.77-21.92a51.25,51.25,0,0,1,25.44,6.88l-5.44,12c-5.92-3.2-12.8-5.92-20.48-5.92-6.72,0-11.21,3.2-11.21,8.16,0,4.64,4,7.68,12.33,11.52l7,3.2c15.84,7.2,21.28,14.24,21.28,25,0,14.08-10.56,24-28.49,24A70.36,70.36,0,0,1,1630.38,384.86Z" transform="translate(-89.45 -73.1)"></path><path d="M1749.59,322.78h-18.24V390h-14.09v-67.2h-16.64V310h16.64v-36.8h14.09V310h18.24Z" transform="translate(-89.45 -73.1)"></path><path d="M1836.78,310v80h-13.44V376.06c-6.08,10.72-16.32,16-26.88,16-18.4,0-29-11-29-28.64V310h14.08v50.56c0,11.84,5.12,17.92,16.32,17.92,12.8,0,24.8-11,24.8-29.44V310Z" transform="translate(-89.45 -73.1)"></path><path d="M1944.46,310l-41.6,80h-9.76l-41.6-80H1867l31.2,60.64,31-60.64Z" transform="translate(-89.45 -73.1)"></path><path d="M2080,310l-28.8,80h-11.84l-24.64-59.2L1989.9,390h-11.84l-28.8-80h14.88l21.12,60.48,24.8-60.48h9.44l25,60.48,21-60.48Z" transform="translate(-89.45 -73.1)"></path><path d="M2150.7,390l-22.88-31.68L2104.62,390H2088.3l30.72-41.6L2090.54,310H2107l21,28.48,20.8-28.48h16.32l-28.48,38.4,30.72,41.6Z" transform="translate(-89.45 -73.1)"></path><path d="M2262.22,310l-58.4,112h-15.2l21.92-42.08L2174.06,310h15.52l28.64,55.36L2247,310Z" transform="translate(-89.45 -73.1)"></path><path d="M2271.66,378.78l44.8-56h-41.12V310h59.36v10.24l-45.6,57h45.76V390h-63.2Z" transform="translate(-89.45 -73.1)"></path><path d="M2420.94,330.62V390H2407.5V378.46c-5.6,8-15.2,13.44-27,13.44-17.12,0-28.64-8.48-28.64-24,0-14.24,10.88-23.68,33.92-28l21.12-4v-3.2c0-10.08-8-12.32-16.48-12.32-9.92,0-19.84,4.8-27.52,10.56l-7.2-11.2c8.8-6.4,21.6-12.16,34.72-12.16C2407.18,307.58,2420.94,315.42,2420.94,330.62Zm-14.08,24.64v-7.2l-16.16,3c-16.8,3.2-25,7.2-25,16.48,0,7,6.08,11.68,16,11.68C2392.78,379.26,2406.86,371.1,2406.86,355.26Zm-28.64-67.84a11.68,11.68,0,1,1,11.68,11.52A11.71,11.71,0,0,1,2378.22,287.42Z" transform="translate(-89.45 -73.1)"></path><path d="M2509.9,330.62V390h-13.44V378.46c-5.6,8-15.2,13.44-27,13.44-17.12,0-28.64-8.48-28.64-24,0-14.24,10.88-23.68,33.92-28l21.12-4v-3.2c0-10.08-8-12.32-16.48-12.32-9.92,0-19.84,4.8-27.52,10.56l-7.2-11.2c8.8-6.4,21.6-12.16,34.72-12.16C2496.14,307.58,2509.9,315.42,2509.9,330.62Zm-57.12-43.36a9.92,9.92,0,1,1,9.92,9.76A9.83,9.83,0,0,1,2452.78,287.26Zm43,68v-7.2l-16.16,3c-16.8,3.2-25,7.2-25,16.48,0,7,6.08,11.68,16,11.68C2481.74,379.26,2495.82,371.1,2495.82,355.26Zm-10.72-68A9.92,9.92,0,1,1,2495,297,9.83,9.83,0,0,1,2485.1,287.26Z" transform="translate(-89.45 -73.1)"></path><path d="M2528.94,350a42.24,42.24,0,1,1,42.24,42.4A42.23,42.23,0,0,1,2528.94,350Zm70.08,0c0-15.84-12-29-27.84-29s-27.84,13.12-27.84,29,12,29,27.84,29S2599,365.82,2599,350Zm-53.92-62.72A9.92,9.92,0,1,1,2555,297,9.83,9.83,0,0,1,2545.1,287.26Zm32.32,0a9.92,9.92,0,1,1,9.92,9.76A9.83,9.83,0,0,1,2577.42,287.26Z" transform="translate(-89.45 -73.1)"></path><path d="M2701.1,390h-14.4V291.42h-19.84V278h34.24Z" transform="translate(-89.45 -73.1)"></path><path d="M2807,376.54V390h-73v-10.4l30.56-34.08c15.36-17.44,25.92-28,25.92-40.16,0-10.4-8-16.16-18.24-16.16-11.84,0-21.44,8-28.8,16l-9.92-9.44c8-9.44,21.12-20,38.72-20,16,0,33,8.16,33,29.6,0,16.8-14.88,32-31,50.08l-19,21.12Z" transform="translate(-89.45 -73.1)"></path><path d="M2897.41,356.22c0,21.28-16,36.16-38.08,36.16a79.48,79.48,0,0,1-36.16-9l6.56-12.64c8.8,4.48,17.92,8.16,29.44,8.16,14.56,0,23.52-8.8,23.52-22.56,0-12.48-10.24-20.32-25.28-20.32a36.71,36.71,0,0,0-8.8,1.12l-5.76-7.2,31.84-38.56h-44V278h61.92v11.84l-28.16,34.08C2884.61,325.66,2897.41,338.94,2897.41,356.22Z" transform="translate(-89.45 -73.1)"></path><path d="M2968.45,368.22h-53.12V354.78l46.4-76.8h17l-47.36,76.8h37.12V327.1h14.4v27.68h16.64v13.44h-16.64V390h-14.4Z" transform="translate(-89.45 -73.1)"></path><path d="M3086.69,354.78c0,21.92-17.44,37.6-38.72,37.6a71.14,71.14,0,0,1-37.44-10.4l6.56-12.64c9.6,5.6,19.52,9.6,30.88,9.6,14.24,0,24-9.12,24-24,0-13.92-9.92-21.92-23.68-21.92a36.29,36.29,0,0,0-17.92,5l-11.84-2.08,9-57.92h52.32v13.44h-41.12l-5,32.16a45.21,45.21,0,0,1,16-3C3072.61,320.54,3086.69,335.26,3086.69,354.78Z" transform="translate(-89.45 -73.1)"></path><path d="M3182.05,353.82c0,21.76-16.8,38.56-38.72,38.56s-38.72-16.64-38.72-38.4c0-8.16,3.36-18.08,10.24-27.84l33.6-48.16h16.64l-28.8,40.32a28.48,28.48,0,0,1,10.24-1.92C3165.73,316.38,3182.05,332.22,3182.05,353.82Zm-14.4,0c0-14.08-10.08-24.64-24.32-24.64-14.08,0-24.32,10.56-24.32,24.64,0,14.24,10.24,24.8,24.32,24.8S3167.65,368.06,3167.65,353.82Z" transform="translate(-89.45 -73.1)"></path><path d="M3266.85,278v13.28L3216.93,390h-15.68l50.24-98.56h-50.73V278Z" transform="translate(-89.45 -73.1)"></path><path d="M3360.45,357.82c0,19.36-15.84,34.56-38.08,34.56s-38.09-15.2-38.09-34.56c0-12.64,7.2-23.68,18.56-29.6a27.72,27.72,0,0,1-12.8-23.36c0-16.32,13.13-29.28,32.33-29.28s32.32,13,32.32,29.28a27.24,27.24,0,0,1-12.8,23.2C3353.25,334,3360.45,345.18,3360.45,357.82Zm-14.24-.48c0-12.32-9.76-22.24-23.84-22.24s-23.85,9.92-23.85,22.24c0,12,9.6,21.76,23.85,21.76S3346.21,369.34,3346.21,357.34Zm-42.09-52.16c0,9.44,7.05,16.8,18.25,16.8s18.24-7.36,18.24-16.8c0-9.28-7-16.48-18.24-16.48S3304.12,295.9,3304.12,305.18Z" transform="translate(-89.45 -73.1)"></path><path d="M3455.32,313.18c0,8.16-3,17.76-9.28,26.88L3411.48,390h-16.32l29.92-42.08a26.41,26.41,0,0,1-10.56,2.08c-18.72,0-34.88-15.52-34.88-36.64,0-21.28,16.48-37.76,37.92-37.76S3455.32,291.9,3455.32,313.18Zm-14.24.16c0-13.76-9.92-24-23.52-24s-23.52,10.24-23.52,24c0,13.6,9.76,23.84,23.52,23.84C3431.16,337.18,3441.08,326.94,3441.08,313.34Z" transform="translate(-89.45 -73.1)"></path><path d="M3472.92,334c0-32.32,17.12-58.4,45.76-58.4s45.76,26.08,45.76,58.4-17.12,58.4-45.76,58.4S3472.92,366.3,3472.92,334Zm76.8,0c0-24.64-10.72-44.64-31-44.64s-31,20-31,44.64,10.72,44.64,31,44.64S3549.72,358.62,3549.72,334Z" transform="translate(-89.45 -73.1)"></path></svg> 