<svg id="Lager_9" data-name="Lager 9" xmlns="http://www.w3.org/2000/svg" viewBox="0 0 240.32 165.78"><title>Blocket-QP</title><path d="M517.92,297.87v32.46H407.86V168.07H517v32.45H445.49v32h56.67V264H445.49v33.86Z" transform="translate(-407.86 -168.07)"/><path d="M648.19,310.81c-9.41,13.87-30.57,23-53.38,23-38.1,0-62.32-25.63-62.32-66.08,0-39,22.34-63.25,58.08-63.25,35,0,54.56,23.28,54.56,64.67v6.11h-77.6c2.12,16.46,12.46,25.16,30.1,25.16A60.65,60.65,0,0,0,639,283.77ZM568,254.14h43.27c-1.18-12.7-8.7-20-20.93-20S570.59,241.2,568,254.14Z" transform="translate(-407.86 -168.07)"/></svg>