<svg id="KLarna" xmlns="http://www.w3.org/2000/svg" viewBox="0 0 3371.48 382.28"><title>Blocket-01</title><path d="M161.61,191.82H124.33c-2.56,7-5.28,15-8.48,24.16H90.25l41.44-110.4h23.36L196.65,216H169.93C166.73,206.86,164,198.86,161.61,191.82Zm-7.36-21.12c-7-20.64-9.44-28.64-11.2-36-1.92,7.36-4.32,15.36-11.52,36Z" transform="translate(-90.25 -62.1)"/><path d="M295.69,183.82c0,20.64-14.24,32.16-39.85,32.16h-47V105.58h44.8c22.89,0,36.49,11,36.49,29.44q0,15.6-13,22.08C289.61,161.42,295.69,170.22,295.69,183.82Zm-61.77-34.56h17.76c9.13,0,13.77-4,13.77-11.84s-4.64-11.84-13.77-11.84H233.92Zm35.85,33c0-8.48-5.6-13.12-15.85-13.12h-20v26.24h20C264.17,195.34,269.77,190.7,269.77,182.22Z" transform="translate(-90.25 -62.1)"/><path d="M307.52,160.62c0-35.52,20.16-57.6,52.16-57.6,16.32,0,30.4,5.76,39.36,16.48l-8.64,20.16c-8.8-8.8-18.24-13.12-28.48-13.12-17.6,0-28.16,12.48-28.16,34.08s10.4,34.4,28.8,34.4c11.2,0,21.44-4.64,29.6-13.6l8.64,20.16c-8,10.72-23.84,17-40.8,17C327.52,218.54,307.52,196,307.52,160.62Z" transform="translate(-90.25 -62.1)"/><path d="M510.24,160.78c0,35.2-18.88,55.2-52.16,55.2H416V105.58h42.08C491.36,105.58,510.24,125.58,510.24,160.78Zm-26.24,0c0-21.92-9.28-33.12-27.52-33.12H441.6V193.9h14.88C474.72,193.9,484,182.7,484,160.78Z" transform="translate(-90.25 -62.1)"/><path d="M604,193.9V216H529.12V105.58h74.24v22.08H554.72v21.76h38.56v21.44H554.72v23Z" transform="translate(-90.25 -62.1)"/><path d="M647.52,128v23h36.32V173.1H647.52V216h-25.6V105.58h72V128Z" transform="translate(-90.25 -62.1)"/><path d="M803.2,151.82v50.72c-8.32,9.6-26.08,16-44.32,16-33.44,0-54.08-21.92-54.08-57.6,0-35.84,20.64-57.92,53.92-57.92C776,103,791,109.1,799.36,119.5l-8.64,20c-8.8-8.48-19.36-13-30.72-13-18.72,0-29,12.32-29,35s10.08,34.24,29.92,34.24a37.52,37.52,0,0,0,17.92-4.16v-18.4H755.2V151.82Z" transform="translate(-90.25 -62.1)"/><path d="M915.84,105.58V216h-25.6v-45.6h-41V216h-25.6V105.58h25.6V148h41v-42.4Z" transform="translate(-90.25 -62.1)"/><path d="M964.16,105.58V216H938.55V105.58Z" transform="translate(-90.25 -62.1)"/><path d="M974.71,203.82l6.56-20.48c6.24,7.2,14.4,11.2,22.88,11.2,10.08,0,16.32-5.76,16.32-15.52V105.58h25.6V180.3c0,23.2-14.88,37.6-38.72,37.6C993,217.9,980.63,212.62,974.71,203.82Z" transform="translate(-90.25 -62.1)"/><path d="M1132.31,216l-39.52-53.12V216h-25.6V105.58h25.6v48.8l37-48.8H1160l-42.24,51.2,45.12,59.2Z" transform="translate(-90.25 -62.1)"/><path d="M1246.71,193.9V216h-73.28V105.58H1199V193.9Z" transform="translate(-90.25 -62.1)"/><path d="M1370.39,105.58V216h-25V174.86c0-11.68.16-23.52.8-35.36-4.8,9.28-10.4,18.72-29.6,48.16H1316c-20.16-31.2-25.44-39.2-29.76-48.64,1,12,1.12,24,1.12,35.84V216h-25V105.58H1289c16.8,26.56,22.88,36.32,27.68,45.28,5.44-9.6,11.68-19.52,28.16-45.28Z" transform="translate(-90.25 -62.1)"/><path d="M1485.75,105.58V216h-22.24c-34.24-50.4-40.8-60.32-46.88-71.36,1,11.52,1.12,22.88,1.12,34.08V216h-25V105.58h22.88c32.8,48.64,40,59.2,46.08,70.08-.8-12.64-1-25.44-1-37.92V105.58Z" transform="translate(-90.25 -62.1)"/><path d="M1504.63,160.78c0-36.8,18.72-57.76,51.52-57.76s51.52,21,51.52,57.76-18.72,57.76-51.52,57.76S1504.63,197.58,1504.63,160.78Zm76.8,0c0-23.2-8.48-35-25.28-35s-25.28,11.84-25.28,35,8.48,35,25.28,35S1581.43,184,1581.43,160.78Z" transform="translate(-90.25 -62.1)"/><path d="M1708.47,140.94c0,22.72-14.4,35.36-40,35.36h-16.32V216h-25.61V105.58h41.93C1694.07,105.58,1708.47,118.22,1708.47,140.94Zm-25.92,0c0-8.8-5.44-13.6-15.36-13.6h-15v27.2h15C1677.11,154.54,1682.55,149.74,1682.55,140.94Z" transform="translate(-90.25 -62.1)"/><path d="M1807.5,223a42,42,0,0,0,8.65-1l-2.72,19.68c-3.2,2.24-9,3.68-14.89,3.68-15.52,0-27.52-10.4-31.36-27-30.56-1.44-47.84-22.24-47.84-57.6,0-36.8,18.72-57.76,51.52-57.76s51.53,21,51.53,57.76c0,28.48-11.2,47.36-31.37,54.56C1793.26,220.14,1799.19,223,1807.5,223Zm-36.64-27.2c16.81,0,25.29-11.84,25.29-35s-8.48-35-25.29-35-25.28,11.84-25.28,35S1754.06,195.82,1770.86,195.82Z" transform="translate(-90.25 -62.1)"/><path d="M1932.3,216h-27.84L1891,189.1c-4.32-8.8-7.52-13.76-17.6-13.76h-6.72V216h-25.44V105.58h41.6c25.6,0,39.68,11.68,39.68,32.8,0,15.52-7.68,25-21.28,29,6.08,3.2,10.24,8.64,14.56,17.12Zm-35.52-74.88c0-9.28-5.12-13.92-16.48-13.92h-13.6V155.5h13.6C1891.34,155.5,1896.78,150.7,1896.78,141.1Z" transform="translate(-90.25 -62.1)"/><path d="M1938.7,199.82l8.16-19.52c9.92,10.08,22.08,15.84,33.6,15.84,9.92,0,15.84-4.16,15.84-10.4,0-5.6-4.48-10.08-13.6-13.28l-15-5.28c-17.28-6.08-27.36-16.48-27.36-32,0-19.36,15.84-32.16,39.84-32.16,16.32,0,31.36,5.92,39.68,16L2012,138.54c-8.16-8.32-20.48-13.6-31.52-13.6-9.28,0-14.24,3.68-14.24,9.28,0,4.48,3.36,8,13.44,11.52l15,5.28c19.2,6.72,28.16,17.28,28.16,32.8,0,21.12-16.32,34.72-41.76,34.72C1963,218.54,1947.5,211.66,1938.7,199.82Z" transform="translate(-90.25 -62.1)"/><path d="M2119.5,127.66h-31.84V216h-25.6V127.66h-31.84V105.58h89.28Z" transform="translate(-90.25 -62.1)"/><path d="M2133.26,175.34V105.58h25.6v68.64c0,14.4,6.88,21.6,20.8,21.6s20.8-7.2,20.8-21.6V105.58h25.6v69.76c0,27.36-16.8,43.2-46.4,43.2S2133.26,202.7,2133.26,175.34Z" transform="translate(-90.25 -62.1)"/><path d="M2339.66,105.58l-39,110.4h-24l-39-110.4h27.68c16.64,52.48,21.44,67.52,23.84,79.52,2.56-12,6.88-27,23.52-79.52Z" transform="translate(-90.25 -62.1)"/><path d="M2492.78,105.58,2460.14,216h-22.72c-13.44-52.8-16.32-67.84-18.24-79.84-1.92,12-4.48,27-18.09,79.84h-22.72l-32.64-110.4h25.76c13.76,49.44,17,65,18.88,76.48,1.92-11.52,4.8-27,18.09-76.48h22.88c12.16,46.08,15.68,62.72,17.76,74.08,1.92-11.36,5.6-28,18.72-74.08Z" transform="translate(-90.25 -62.1)"/><path d="M2572.46,216c-13-20.64-19.84-31.68-24-39.52-4,8-10.41,18.4-24.17,39.52H2496l36.8-56.8-35.2-53.6h28.8c12,19,18.57,29,22.25,36.48,4-7.52,10.4-17.12,22.72-36.48h28l-36,53.6,37.6,56.8Z" transform="translate(-90.25 -62.1)"/><path d="M2666.37,169.58V216h-25.6V169.9l-37-64.32h28c15.36,28,19.84,36.48,22.24,42.88,2.4-6.4,6.88-14.88,21.76-42.88h27.36Z" transform="translate(-90.25 -62.1)"/><path d="M2791,193.9V216h-79.84v-19.2l47.68-69.12h-46.08V105.58h77v19.2l-47.68,69.12Z" transform="translate(-90.25 -62.1)"/><path d="M2870.05,191.82h-37.28c-2.56,7-5.28,15-8.48,24.16h-25.6l41.44-110.4h23.36l41.6,110.4h-26.72C2875.17,206.86,2872.45,198.86,2870.05,191.82ZM2832,81.14c0-11.52,8-19,19.52-19,11.68,0,19.68,7.52,19.68,19s-8,19-19.68,19C2840,100.18,2832,92.66,2832,81.14Zm30.72,89.56c-7-20.64-9.44-28.64-11.2-36-1.92,7.36-4.32,15.36-11.52,36Zm-19.36-89.56c0,5,3,8,8.16,8s8-3,8-8c0-5.28-2.88-8.16-8-8.16S2843.33,75.86,2843.33,81.14Z" transform="translate(-90.25 -62.1)"/><path d="M2981.25,191.82H2944c-2.56,7-5.28,15-8.48,24.16h-25.6l41.44-110.4h23.36l41.6,110.4h-26.72C2986.37,206.86,2983.65,198.86,2981.25,191.82ZM2932.93,81.74c0-7.84,5.12-13.12,13.12-13.12s13.12,5.28,13.12,13.12-5.12,13.12-13.12,13.12S2932.93,89.58,2932.93,81.74Zm41,89c-7-20.64-9.44-28.64-11.2-36-1.92,7.36-4.32,15.36-11.52,36Zm-7.68-89c0-7.84,5.12-13.12,13.12-13.12s13.12,5.28,13.12,13.12-5.12,13.12-13.12,13.12S2966.21,89.58,2966.21,81.74Z" transform="translate(-90.25 -62.1)"/><path d="M3021.09,160.78c0-36.8,18.72-57.76,51.52-57.76s51.52,21,51.52,57.76-18.72,57.76-51.52,57.76S3021.09,197.58,3021.09,160.78Zm21.6-79c0-7.84,5.12-13.12,13.12-13.12s13.12,5.28,13.12,13.12-5.12,13.12-13.12,13.12S3042.69,89.58,3042.69,81.74Zm55.2,79c0-23.2-8.48-35-25.28-35s-25.28,11.84-25.28,35,8.48,35,25.28,35S3097.89,184,3097.89,160.78Zm-21.92-79c0-7.84,5.12-13.12,13.12-13.12s13.12,5.28,13.12,13.12-5.12,13.12-13.12,13.12S3076,89.58,3076,81.74Z" transform="translate(-90.25 -62.1)"/><path d="M165.45,356.06V406H144V394.62a27.76,27.76,0,0,1-24,13.28c-14.24,0-24.32-9.6-24.32-23.52,0-16.8,15-26.4,46.72-29.76-1.12-7.36-6.56-11.68-15.36-11.68-9.28,0-19,5-26.08,13.12l-6.24-17.44c6.88-11,20.64-18.08,36-18.08C152,320.54,165.45,334.14,165.45,356.06Zm-22.88,24V368.54c-16,1.6-23.84,5.6-23.84,12,0,4.32,3.52,7.2,9,7.2A19.61,19.61,0,0,0,142.57,380.06Z" transform="translate(-90.25 -62.1)"/><path d="M263.21,364.06c0,28.64-16,44.32-44.8,44.32-13.76,0-26.72-3.52-35.36-9.28V288.22h24.64v40.16a30.1,30.1,0,0,1,21-7.84C249.61,320.54,263.21,337.66,263.21,364.06Zm-24.8.8c0-15-6.4-23.52-18.08-23.52a20.67,20.67,0,0,0-12.64,4.16v39.2A21.53,21.53,0,0,0,220,388.22C232,388.22,238.41,380.06,238.41,364.86Z" transform="translate(-90.25 -62.1)"/><path d="M273.44,364.38c0-28.32,16.8-44,41-44,14.09,0,25.29,5.44,31.21,12.64l-6.56,18.56c-6.56-6.08-14.4-9.12-21.29-9.12-10.72,0-19.36,7.2-19.36,21.92,0,14.88,8.8,21.6,19.68,21.6a31.53,31.53,0,0,0,21.93-9.6l6.72,18.88c-5.92,7.52-18.08,13.12-32.49,13.12C289.6,408.38,273.44,392.22,273.44,364.38Z" transform="translate(-90.25 -62.1)"/><path d="M433.93,288.22V399.1c-8.48,5.92-21.93,9.28-35.37,9.28-29.28,0-44.8-16.32-44.8-43.68,0-26.56,14.72-43.84,36.8-43.84,7,0,13.61,1.76,18.73,5.28V288.22Zm-24.64,96v-40a24.19,24.19,0,0,0-11.53-2.88c-12,0-19.2,9-19.2,23.68,0,14.24,6.88,22.56,18.88,22.56A21,21,0,0,0,409.29,384.22Z" transform="translate(-90.25 -62.1)"/><path d="M527,392.7c-6.4,9.44-20.8,15.68-36.32,15.68-25.92,0-42.4-17.44-42.4-45,0-26.56,15.2-43,39.52-43,23.84,0,37.12,15.84,37.12,44v4.16h-52.8c1.44,11.2,8.48,17.12,20.48,17.12A41.23,41.23,0,0,0,520.8,374.3Zm-54.56-38.56h29.44c-.8-8.64-5.92-13.6-14.24-13.6S474.24,345.34,472.48,354.14Z" transform="translate(-90.25 -62.1)"/><path d="M567,321v1.76h17v20.16H567v63H542.4v-63H531.84V322.78H542.4v-2.72c0-20.32,11.52-33.12,29.76-33.12,9,0,16.64,3,21,8.16l-5,18.24a17.32,17.32,0,0,0-11-4C570.4,309.34,567,313.34,567,321Z" transform="translate(-90.25 -62.1)"/><path d="M670.4,416.06c0,17.76-17.44,28.32-44.16,28.32-25.92,0-40.16-10.08-40.16-23.52,0-9.76,7.36-17.6,20.8-21-7.68-2.24-11.52-6.24-11.52-11.68,0-5.92,4.48-10.88,12.48-13.6-11-3.52-17.44-12.16-17.44-24.32,0-17.92,13.6-29.92,36-29.92a43.93,43.93,0,0,1,15.2,2.4h28.16v17.76l-.64.48-14.72-3c4.32,3.84,6.08,8.8,6.08,14.72,0,13.44-9.28,23.2-28.32,26.72l-5.12,1c-4.32.8-9,1.92-9,5,0,2.4,2.72,3,10.88,3.84l6.4.64C658.08,392.06,670.4,401,670.4,416.06Zm-23.68,1.28c0-5.28-6.72-8.16-18.08-8.16-12.32,0-19,3.36-19,8.64,0,4.8,5.76,8.16,17.92,8.16C639.84,426,646.72,422.62,646.72,417.34Zm-32.48-66.08c0,8.48,4.16,12.8,12,12.8s12-4.32,12-12.8-4.16-13-12-13S614.24,342.78,614.24,351.26Z" transform="translate(-90.25 -62.1)"/><path d="M756.64,350v56H732V355.26c0-8.32-4.16-13-11.36-13-5.92,0-12,3.36-15.68,8.8V406H680.32V288.22H705v44c6.08-7.52,14.4-11.52,24.64-11.52C746.56,320.7,756.64,331.58,756.64,350Z" transform="translate(-90.25 -62.1)"/><path d="M772.64,298c0-8.8,5.44-14.24,14.4-14.24s14.4,5.44,14.4,14.24S796,312.22,787,312.22,772.64,306.78,772.64,298Zm2.08,24.8h24.64V406H774.72Z" transform="translate(-90.25 -62.1)"/><path d="M847.36,322.78V414c0,17.92-10.4,29-27,29-8,0-15.2-2.56-19.68-7l5.12-17.76A15.52,15.52,0,0,0,814.4,421c5.28,0,8.32-3.84,8.32-10.72V322.78Zm-27-24.8c0-8.8,5.44-14.24,14.4-14.24s14.4,5.44,14.4,14.24-5.44,14.24-14.4,14.24S820.32,306.78,820.32,298Z" transform="translate(-90.25 -62.1)"/><path d="M917.44,406l-26.88-40.16V406H865.91V288.22h24.65v67.36l24.8-32.8h29.28l-32.32,36,33.6,47.2Z" transform="translate(-90.25 -62.1)"/><path d="M953.59,288.22h24.64V406H953.59Z" transform="translate(-90.25 -62.1)"/><path d="M1118.39,350v56h-24.64V355.26c0-8-3.84-13-10.08-13-5.12,0-10.4,3.36-13.6,8.8V406h-24.64V355.26c0-8-3.84-13-10.08-13-5.12,0-10.24,3.36-13.6,8.8V406H997.11v-83.2h23v11a28.25,28.25,0,0,1,24.48-13.12c10.56,0,18.4,4.48,22.4,13.12,6.72-8.8,15-13.12,25.6-13.12C1109.11,320.7,1118.39,331.26,1118.39,350Z" transform="translate(-90.25 -62.1)"/><path d="M1212.47,350v56h-24.64V355.26c0-8.16-4.16-13-11.2-13-5.92,0-11.84,3.36-15.52,8.8V406h-24.64v-83.2h23V334.3c6.24-9.12,14.88-13.6,25.92-13.6C1202.55,320.7,1212.47,331.42,1212.47,350Z" transform="translate(-90.25 -62.1)"/><path d="M1226.39,364.38c0-28.16,15.36-44,41.6-44s41.6,15.84,41.6,44-15.36,44-41.6,44S1226.39,392.54,1226.39,364.38Zm58.24,0c0-15.68-5.76-22.88-16.64-22.88s-16.64,7.2-16.64,22.88,5.76,22.88,16.64,22.88S1284.63,380.06,1284.63,364.38Z" transform="translate(-90.25 -62.1)"/><path d="M1404.15,362.78c0,26.72-15.36,45.12-37.6,45.12a32.48,32.48,0,0,1-17.92-5v38.88H1324V330.46c9-6.4,22.56-10.08,36.48-10.08C1388.47,320.38,1404.15,335.58,1404.15,362.78Zm-24.8.48c0-14.72-6.56-22.72-18.56-22.72a22.61,22.61,0,0,0-12.16,3.36v39.68a24.5,24.5,0,0,0,12,3.2C1372.47,386.78,1379.35,378.3,1379.35,363.26Z" transform="translate(-90.25 -62.1)"/><path d="M1494.55,329.82v112h-24.64v-40a34.51,34.51,0,0,1-20.64,6.56c-21.12,0-34.88-17.28-34.88-43.68,0-28.48,16.16-44.32,45.28-44.32C1473.11,320.38,1485.91,323.74,1494.55,329.82Zm-24.64,53.12v-39.2a22.61,22.61,0,0,0-12.16-3.36c-12.16,0-18.56,8-18.56,23.36,0,15,6.24,23.2,18.08,23.2A20.53,20.53,0,0,0,1469.91,382.94Z" transform="translate(-90.25 -62.1)"/><path d="M1573,328.86l-9,24.64c-3.36-3.2-6.88-4.8-10.88-4.8-5.92,0-11.36,3.52-15.36,9.92V406H1513.1v-83.2h23.2V339.9c5.61-11.84,13.61-18.56,22.41-18.56A17.31,17.31,0,0,1,1573,328.86Z" transform="translate(-90.25 -62.1)"/><path d="M1576.3,394.14l5.76-17.76c7.84,7.68,18.08,12.32,27.36,12.32,6.72,0,10.56-2.4,10.56-6.08,0-2.88-2.56-4.8-9.6-7l-11.2-3.68c-14.08-4.64-21.28-13.76-21.28-25.28,0-15.52,13-26.08,31.84-26.08,13.13,0,25.6,5.12,31.53,12.64l-5.6,17.6c-6.88-6.4-17.29-10.72-25.61-10.72-5.6,0-9.12,2.08-9.12,5.44,0,2.88,2.56,4.64,9.44,6.88l11.2,3.68c14.09,4.64,21.77,12.16,21.77,25.28,0,16.64-12.64,27-33.45,27C1595.34,408.38,1583.34,403.26,1576.3,394.14Z" transform="translate(-90.25 -62.1)"/><path d="M1705.42,399.26c-4.48,5.12-13.6,8.48-23.2,8.48-16.64,0-25.92-10.4-25.92-29.76V300.06h24v22.72h22.4v20.64h-22.4v33.44c0,5.92,3,8.8,8.64,8.8a16.14,16.14,0,0,0,11.52-5Z" transform="translate(-90.25 -62.1)"/><path d="M1790.86,322.78V406h-23V394.46c-6.24,9.12-14.72,13.6-25.76,13.6-17,0-26.88-10.72-26.88-29.28v-56h24.64V373.5c0,8.16,4.16,13,11,13,5.76,0,11.52-3.36,15.36-8.8V322.78Z" transform="translate(-90.25 -62.1)"/><path d="M1882.7,322.78,1852.78,406h-21.44l-30.24-83.2h25.76c11.84,37,14.4,46.88,15.68,55.52,1.44-8.64,3.84-18.56,15.36-55.52Z" transform="translate(-90.25 -62.1)"/><path d="M2009.1,322.78,1982.54,406h-21c-10.72-40.8-11.84-48.32-13-57.92-1.28,9.6-2.56,17.12-13.12,57.92h-21.12l-26.56-83.2h24.32c10.08,37.12,12,47,13,56,1.28-9,3-18.88,13.12-56H1959c9.76,36.64,11.52,46.72,12.8,55.52,1.12-8.8,3.2-18.88,13.44-55.52Z" transform="translate(-90.25 -62.1)"/><path d="M2068.78,406c-7.2-11.36-13.28-21.28-16.32-27.52-3,6.24-8.8,15.68-16.64,27.52H2010.7l28.16-42.56L2012,322.78h27.52c6.88,10.72,12.32,19.2,14.88,24.48,2.88-5.28,8.16-13.28,15.36-24.48h25l-27.36,39.68,29,43.52Z" transform="translate(-90.25 -62.1)"/><path d="M2182.06,322.78l-43,119h-25.12l14.88-40-29.6-79h26.24c10.72,33,13.76,44.16,15.52,52.64,1.61-8.16,4.81-19.2,15.53-52.64Z" transform="translate(-90.25 -62.1)"/><path d="M2253.42,386.78V406h-65.93V388.7L2222.85,342h-34.24v-19.2h63.85v17.28l-35.37,46.72Z" transform="translate(-90.25 -62.1)"/><path d="M2334.05,356.06V406h-21.44V394.62a27.76,27.76,0,0,1-24,13.28c-14.24,0-24.32-9.6-24.32-23.52,0-16.8,15-26.4,46.72-29.76-1.12-7.36-6.56-11.68-15.36-11.68-9.28,0-19,5-26.08,13.12l-6.24-17.44c6.88-11,20.64-18.08,36-18.08C2320.61,320.54,2334.05,334.14,2334.05,356.06Zm-53.76-62.24c0-11.52,8-19,19.52-19,11.68,0,19.68,7.52,19.68,19s-8,19-19.68,19C2288.29,312.86,2280.29,305.34,2280.29,293.82Zm30.88,86.24V368.54c-16,1.6-23.84,5.6-23.84,12,0,4.32,3.52,7.2,9,7.2A19.61,19.61,0,0,0,2311.17,380.06Zm-19.52-86.24c0,5,3,8,8.16,8s8-3,8-8c0-5.28-2.88-8.16-8-8.16S2291.65,288.54,2291.65,293.82Z" transform="translate(-90.25 -62.1)"/><path d="M2418.53,356.06V406h-21.44V394.62a27.76,27.76,0,0,1-24,13.28c-14.24,0-24.32-9.6-24.32-23.52,0-16.8,15-26.4,46.72-29.76-1.12-7.36-6.56-11.68-15.36-11.68-9.28,0-19,5-26.08,13.12l-6.24-17.44c6.88-11,20.64-18.08,36-18.08C2405.09,320.54,2418.53,334.14,2418.53,356.06Zm-64-58.24c0-7.84,5.12-13.12,13.12-13.12s13.12,5.28,13.12,13.12-5.12,13.12-13.12,13.12S2354.53,305.66,2354.53,297.82Zm41.12,82.24V368.54c-16,1.6-23.84,5.6-23.84,12,0,4.32,3.52,7.2,9,7.2A19.61,19.61,0,0,0,2395.65,380.06Zm-7.84-82.24c0-7.84,5.12-13.12,13.12-13.12s13.12,5.28,13.12,13.12-5.12,13.12-13.12,13.12S2387.81,305.66,2387.81,297.82Z" transform="translate(-90.25 -62.1)"/><path d="M2432,364.38c0-28.16,15.36-44,41.6-44s41.6,15.84,41.6,44-15.36,44-41.6,44S2432,392.54,2432,364.38Zm11.84-66.72c0-7.84,5.12-13.12,13.12-13.12s13.12,5.28,13.12,13.12-5.12,13.12-13.12,13.12S2443.81,305.5,2443.81,297.66Zm46.4,66.72c0-15.68-5.76-22.88-16.64-22.88s-16.64,7.2-16.64,22.88,5.76,22.88,16.64,22.88S2490.21,380.06,2490.21,364.38Zm-13.12-66.72c0-7.84,5.12-13.12,13.12-13.12s13.12,5.28,13.12,13.12-5.12,13.12-13.12,13.12S2477.09,305.5,2477.09,297.66Z" transform="translate(-90.25 -62.1)"/><path d="M2594.05,295.58h20.64V406h-25.12V325.66l-19.36,14.56-12.16-16.32Z" transform="translate(-90.25 -62.1)"/><path d="M2662.85,382.78h51.36V406h-74.08V395.42c0-45.44,49.76-43.68,49.76-65.6,0-7.84-6.56-13-16.48-13-9.44,0-20,4.64-26.24,11.52l-8.32-18.56c7-10.08,21.6-16.64,37.6-16.64,23.36,0,39,13.76,39,34.56C2715.49,363.42,2669.09,365.66,2662.85,382.78Z" transform="translate(-90.25 -62.1)"/><path d="M2803.49,374.62c0,20.64-16.64,34.08-42.08,34.08-16.32,0-28.8-5.6-36.16-15.52l8.32-18.88A35.78,35.78,0,0,0,2760,386c11.68,0,19.2-5.44,19.2-13.6,0-8.32-8-13.6-22.24-13.6h-6.08v-17.6h6.08c12.8,0,19.84-4.32,19.84-12.48,0-7.84-6.4-12.8-16.48-12.8-9,0-18.08,3.84-25.44,10.72l-8.48-17.92c8.16-10.08,21-15.52,36.32-15.52,22.88,0,38.08,12.16,38.08,30.24,0,10.88-5.44,19.52-15.36,24.64C2797.25,353,2803.49,362,2803.49,374.62Z" transform="translate(-90.25 -62.1)"/><path d="M2901.73,385.5h-13.6v20.32h-24.32V385.5H2815V365.82l50.4-70.24h22.72V363.9h13.6Zm-37.92-21.6V328.06l-25.6,35.84Z" transform="translate(-90.25 -62.1)"/><path d="M2992,371.1c0,23.2-15.84,37.44-41.28,37.44-17.44,0-32-6.72-39.69-18.24l8-19c7.52,8.8,19.84,14.72,30.73,14.72,10.39,0,16.8-5.44,16.8-14.24,0-8.64-6.41-14.56-16-14.56a31.5,31.5,0,0,0-13.93,3.52l-20.64-8,6.08-57.12h62.89v23.36h-43l-2.71,25c4.63-4.48,11.2-6.72,19.52-6.72C2979,337.18,2992,350.3,2992,371.1Z" transform="translate(-90.25 -62.1)"/><path d="M3087.81,371.42c0,22.56-15.52,37.12-39.69,37.12-27.84,0-43-19.52-43-55.36,0-38.08,17.12-60.16,46.56-60.16,13.61,0,25.29,4.8,31.69,13l-5.92,19.52a34.27,34.27,0,0,0-23.53-9.28c-15.36,0-23,10.24-23.84,32.16,4.8-7.84,13-11.68,24-11.68C3074.53,336.7,3087.81,350.46,3087.81,371.42Zm-25.28,0c0-9.76-5.45-15.36-14.73-15.36s-14.72,5.6-14.72,14.88c0,9.76,5.76,15.68,15,15.68S3062.53,381,3062.53,371.42Z" transform="translate(-90.25 -62.1)"/><path d="M3175.49,295.58v19.84L3138,406h-27l37.29-87.36h-49.93v-23Z" transform="translate(-90.25 -62.1)"/><path d="M3269.56,374.3c0,21.12-15.84,34.24-41.6,34.24-25.44,0-41.6-13.28-41.6-34.24,0-12.32,5.6-21.28,16.16-26.4-8.32-4.8-12.64-12.64-12.64-23.2,0-19.36,14.88-31.68,38.08-31.68S3266,305.34,3266,324.7c0,10.56-4.32,18.4-12.64,23.2C3264,353,3269.56,362,3269.56,374.3Zm-24.64-2.08c0-9.44-6.4-15-17-15s-17,5.6-17,15,6.4,15,17,15S3244.92,381.66,3244.92,372.22Zm-31.52-45.28c0,8.48,5.44,13.6,14.56,13.6s14.56-5.12,14.56-13.6-5.44-13.6-14.56-13.6S3213.4,318.46,3213.4,326.94Z" transform="translate(-90.25 -62.1)"/><path d="M3364.12,348.38c0,38.24-17.12,60.16-46.08,60.16-13.44,0-25-4.8-31.2-12.8l6.56-19.2a32.16,32.16,0,0,0,22.24,8.8c15.52,0,23.36-11,23.68-31.84-4.64,7.52-13.12,11.36-23.84,11.36-20.64,0-34.08-14.08-34.08-34.88,0-22.24,15.52-37,39.68-37C3348.92,293,3364.12,312.54,3364.12,348.38Zm-28-17.76c0-9.76-5.76-15.68-15-15.68-9.12,0-14.4,5.6-14.4,15.2,0,9.76,5.44,15.36,14.72,15.36S3336.12,339.9,3336.12,330.62Z" transform="translate(-90.25 -62.1)"/><path d="M3378.84,350.78c0-37.6,14.4-57.76,41.44-57.76s41.44,20.16,41.44,57.76-14.4,57.76-41.44,57.76S3378.84,388.38,3378.84,350.78Zm57.44,0c0-25.28-4.64-35.68-16-35.68s-16,10.4-16,35.68,4.64,35.68,16,35.68S3436.28,376.06,3436.28,350.78Z" transform="translate(-90.25 -62.1)"/></svg>