<svg id="Tele2_Slab_kopia_2" data-name="Tele2 Slab kopia 2" xmlns="http://www.w3.org/2000/svg" viewBox="0 0 3666.69 348.4"><title>Dieline-01</title><path d="M175.05,189.9H123.53L114.41,216H90.73l40.64-113H168l40.48,113H184.17Zm-7.36-20.64-16-45.76h-4.8l-16,45.76Z" transform="translate(-90.73 -68.78)"/><path d="M313.93,170.38v26.4L291.05,216H223.53V103h64.8l22.88,19.2v25.44L299.05,157.9ZM246.41,123v26.56h31.52l10.72-9V132l-10.88-9Zm44.64,54.4-10.72-9.12H246.41V196h33.92l10.72-9Z" transform="translate(-90.73 -68.78)"/><path d="M375.69,194.86h43.84V216H364.81l-31-25.76V128.78l31-25.76h54.72v21.12H375.69l-18.88,15.68v39.52Z" transform="translate(-90.73 -68.78)"/><path d="M544.81,128.78v61.44l-31,25.76H441.92V103h71.85Zm-41.92-4.64H464.8v70.72h38.09l18.88-15.52V139.82Z" transform="translate(-90.73 -68.78)"/><path d="M591,124.14v24.64h42.08v20.64H591v25.44h59.52V216h-82.4V103h82.4v21.12Z" transform="translate(-90.73 -68.78)"/><path d="M696,124.14v27.52h40.8V172.3H696V216H673.12V103h79.2v21.12Z" transform="translate(-90.73 -68.78)"/><path d="M865.76,152.62v42.24L840.64,216H794.72l-31-25.76V128.78l31-25.76h59.52v21.12H805.6l-18.88,15.68v39.36l18.88,15.68h24.16l13-10.88V172.62H815v-20Z" transform="translate(-90.73 -68.78)"/><path d="M986.56,103V216H963.84v-46.4h-53V216H888V103h22.88v45.44h53V103Z" transform="translate(-90.73 -68.78)"/><path d="M1014.08,103h22.72V216h-22.72Z" transform="translate(-90.73 -68.78)"/><path d="M1055.52,194.86h31l13-10.88V103h22.72v91.84l-25,21.12h-41.76Z" transform="translate(-90.73 -68.78)"/><path d="M1195.36,158.54l54.4,57.44h-30.08l-42.56-46.4h-5.76V216h-22.88V103h22.88v45.44h5.44L1220.48,103h29.28Z" transform="translate(-90.73 -68.78)"/><path d="M1343.68,194.86V216h-80V103h22.89v91.84Z" transform="translate(-90.73 -68.78)"/><path d="M1502.08,103V216h-22.4V123.5h-4.8L1451.52,216H1415l-23.37-92.48h-4.8V216h-22.56V103h43.85l22.72,92.48h4.8L1458.24,103Z" transform="translate(-90.73 -68.78)"/><path d="M1635.52,103V216h-41.6l-37.45-92.64h-4.8V216h-22.4V103h41.6l37.45,92.64h4.8V103Z" transform="translate(-90.73 -68.78)"/><path d="M1770.08,128.78v61.44L1739,216h-49.12l-31-25.76V128.78l31-25.76H1739Zm-41.93-4.64h-27.36l-18.88,15.68v39.52l18.88,15.52h27.36L1747,179.34V139.82Z" transform="translate(-90.73 -68.78)"/><path d="M1883.35,124.14v33.6l-25.12,21.12h-41.92V216h-22.88V103h64.8Zm-22.88,10.24-12.8-10.88h-31.36v34.88h31.36l12.8-11Z" transform="translate(-90.73 -68.78)"/><path d="M2012.63,128.78v61.44L1996.15,204l14.24,19.68h-25l-5.6-7.68h-47.36l-31-25.76V128.78l31-25.76h49.12Zm-41.92-4.64h-27.36l-18.88,15.68v39.52l18.88,15.52h21.12l-16.16-22.08h25.12l9,12.48,7.2-5.92V139.82Z" transform="translate(-90.73 -68.78)"/><path d="M2081.91,178.54h-23V216H2036V103h64.49l25,21.12v32.48l-21,17.6L2132.15,216h-25.92Zm-23-20.16h30.89l13-11v-13l-13-10.88h-30.89Z" transform="translate(-90.73 -68.78)"/><path d="M2147.18,194.86h45.44l12.8-10.88v-7l-58.24-21.28V124.14L2172.3,103h48.49v21.12h-37.93L2170.06,135v5.28l58.25,21v33.6L2203.18,216h-56Z" transform="translate(-90.73 -68.78)"/><path d="M2336.31,124.14h-37.45V216h-22.72V124.14h-37.76V103h97.93Z" transform="translate(-90.73 -68.78)"/><path d="M2449.26,103v91.84l-25,21.12h-45.44l-25.12-21.12V103h22.88v81l12.8,10.88h24.16l13-10.88V103Z" transform="translate(-90.73 -68.78)"/><path d="M2463.34,103h24L2520,195.5h4.8L2557.26,103h24.16l-40.48,113h-37Z" transform="translate(-90.73 -68.78)"/><path d="M2588.78,103h23.84L2628,195.5h4.8l18.4-92.48h37.6l18.4,92.48h4.8L2727.34,103h23.84L2731.5,216h-41l-18.24-91.36h-4.8L2649.42,216h-41Z" transform="translate(-90.73 -68.78)"/><path d="M2786.86,216H2761.1l32.16-56.48-32-56.48H2787l25.92,45.76h4.64L2843.34,103h25.92l-32.32,56.48L2869.26,216h-25.92l-25.76-46.08h-4.64Z" transform="translate(-90.73 -68.78)"/><path d="M2957.74,103h25.76l-42.24,73.28V216h-22.88V176.3L2875.82,103h26.08l25.6,46.08h4.64Z" transform="translate(-90.73 -68.78)"/><path d="M2994.85,179.66l66.57-50.72v-4.8h-65.29V103h89v36.32l-66.73,50.72v4.8h66.73V216h-90.25Z" transform="translate(-90.73 -68.78)"/><path d="M3180.77,189.9h-51.52L3120.13,216h-23.68l40.16-111.68-5.12-4.32V78.86l12.64-10.08h22.4L3179,78.86V100l-5,4.16L3214.22,216h-24.33Zm-7.36-20.64-16-45.76h-4.8l-16,45.76Zm-29.6-75.52,6.24,5.12h10.56l6.08-5.12V85.26l-6.08-5h-10.56l-6.24,5Z" transform="translate(-90.73 -68.78)"/><path d="M3301.42,189.9h-51.53L3240.77,216h-23.68l40.64-113h36.64l40.49,113h-24.32Zm-33.77-96.16h-21.92V76.46h21.92Zm26.4,75.52-16-45.76h-4.8l-16,45.76Zm12-75.36h-21.77V76.62h21.77Z" transform="translate(-90.73 -68.78)"/><path d="M3455.66,128.78v61.44l-31,25.76h-49.13l-31-25.76V128.78l31-25.76h49.13Zm-41.92-4.64h-27.37l-18.88,15.68v39.52l18.88,15.52h27.37l18.88-15.52V139.82ZM3391.81,93.9h-21.92V76.62h21.92Zm38.41.16h-21.76V76.78h21.76Z" transform="translate(-90.73 -68.78)"/><path d="M172.65,321.66V390H153.29v-8.32L143.05,390H117L98.09,374.14V348.38L152,334.62v-4.16l-7.2-6.08H102.89V305.82h50.72ZM152,350.94l-32.8,8.32v7.36l7.2,6.24h20.16l5.44-4.64Z" transform="translate(-90.73 -68.78)"/><path d="M280.17,325.66V370l-23.84,20h-30.4l-11-9.28V390H195.05V277h21.12v37l9.76-8.16h30.4Zm-33.92-1.28H229l-12.8,9.6v27.84l12.8,9.44h17.28l12.8-10.56V335.1Z" transform="translate(-90.73 -68.78)"/><path d="M331.37,371.26H365V390H321.29l-23.85-20V325.66l23.85-19.84H365v18.56h-33.6l-12.8,10.72v25.6Z" transform="translate(-90.73 -68.78)"/><path d="M465.45,277V390h-20v-9.12L434.57,390h-30.4l-23.84-20V325.66l23.84-19.84h30.4l9.76,8.16V277Zm-21.12,84.8V334l-12.8-9.6H414.25l-12.8,10.72v25.6l12.8,10.56h17.28Z" transform="translate(-90.73 -68.78)"/><path d="M506.41,354.14v6.56l12.8,10.56h41.12V390H509.61l-23.84-20V325.66l23.84-19.84h35.52L569,325.66v28.48Zm0-20.16v5.28h41.92V334l-12.8-10.72H519.21Z" transform="translate(-90.73 -68.78)"/><path d="M617,300.7v5.12h19.68v17H617V390H595.85v-67.2H579.36v-17h16.49v-13.6L614.09,277h22.56v17.92H624.17Z" transform="translate(-90.73 -68.78)"/><path d="M732.33,305.82v91.36l-23.85,20H661.12V398.46H698.4l12.8-10.56V376.38l-9.76,8.16H671l-23.84-20V325.66L671,305.82h30.4l10.88,9.12v-9.12ZM711.2,356.38V334l-12.8-9.6H681.12l-12.8,10.72v20.16l12.8,10.56H698.4Z" transform="translate(-90.73 -68.78)"/><path d="M834.4,325.66V390H813.28V335.1l-12.8-10.72H789.6L776.8,334v56H755.68V277H776.8v37l9.76-8.16H810.4Z" transform="translate(-90.73 -68.78)"/><path d="M856.8,277h21.92V294.3H856.8Zm.32,28.8h21.12V390H857.12Z" transform="translate(-90.73 -68.78)"/><path d="M883.68,398.46H895l7.2-6.08V305.82h21.12v96L905,417.18H883.68ZM901.92,277h21.92V294.3H901.92Z" transform="translate(-90.73 -68.78)"/><path d="M973.6,356.38h-5.44V390H947V277h21.12v61h5.12l30.08-32.16h27.2l-39.68,41L1033,390h-27.84Z" transform="translate(-90.73 -68.78)"/><path d="M1043.52,277h21.12V390h-21.12Z" transform="translate(-90.73 -68.78)"/><path d="M1220,325.66V390h-21.12V335.1l-12.64-10.72h-9l-12.64,9.44V390h-21.12V335.1l-12.8-10.72h-8.8l-12.8,9.6v56H1088V305.82h19.84v9.12l11-9.12h21.92l16.8,13.92,16.8-13.92h21.76Z" transform="translate(-90.73 -68.78)"/><path d="M1321.28,325.66V390h-21.12V335.1l-12.8-10.72h-10.88l-12.8,9.6v56h-21.12V305.82h19.84v9.12l11-9.12h23.84Z" transform="translate(-90.73 -68.78)"/><path d="M1426.88,325.66V370L1403,390h-38.56l-23.84-20V325.66l23.84-19.84H1403Zm-33.76-1.28h-18.56l-12.8,10.72v25.6l12.8,10.56h18.56l12.64-10.56V335.1Z" transform="translate(-90.73 -68.78)"/><path d="M1532.32,325.66V370l-23.84,20h-30.41l-9.76-8.16v35.36h-21.12V305.82H1467v9.12l11-9.12h30.41Zm-33.92-1.28h-17.29l-12.8,9.6v27.84l12.8,9.44h17.29l12.8-10.56V335.1Z" transform="translate(-90.73 -68.78)"/><path d="M1634.71,305.82V417.18h-21.12V381.82l-9.76,8.16h-30.4l-23.84-20V325.66l23.84-19.84h30.4l10.88,9.12v-9.12Zm-21.12,56V334l-12.8-9.6h-17.28l-12.8,10.72v25.6l12.8,10.56h17.28Z" transform="translate(-90.73 -68.78)"/><path d="M1707.67,305.82v19.52h-15.36l-13.44,10.4V390h-21.12V305.82h19.84v9.28l10.72-9.28Z" transform="translate(-90.73 -68.78)"/><path d="M1721,371.26h35.84l7.2-6.08v-4.8l-43-11.2V321.66l19-15.84h40.8v18.56h-31.36l-7.36,6.08v4.16l43,10.88v28.64L1766.23,390H1721Z" transform="translate(-90.73 -68.78)"/><path d="M1834.07,322.78v42.4l7.2,6.08h13.92V390h-24L1813,374.62V322.78h-16.48v-17H1813V277h21.12v28.8h21.12v17Z" transform="translate(-90.73 -68.78)"/><path d="M1951,305.82V390h-19.84V380.7l-11,9.28h-23.84l-24-20V305.82h21.12V360.7l12.8,10.72h10.88l12.8-9.6v-56Z" transform="translate(-90.73 -68.78)"/><path d="M1964.15,305.82h22.72l20.64,65.76h4.16l20.64-65.76h22.08l-28,84.16h-34.24Z" transform="translate(-90.73 -68.78)"/><path d="M2200.15,305.82,2178.71,390h-33.12l-13.92-65.76h-3.52L2114.07,390H2081l-21.6-84.16h22.4l14.56,65.76h4.16l14.4-65.76h30.4l14.56,65.76H2164l14.4-65.76Z" transform="translate(-90.73 -68.78)"/><path d="M2230.87,390h-23.36l22.4-42.4-22.4-41.76h23.36l17,32.48h4.64l16.8-32.48h23.52l-22.4,41.76,22.4,42.4h-23.52l-16.8-33h-4.64Z" transform="translate(-90.73 -68.78)"/><path d="M2387.83,305.82l-37,111.36h-22.25L2339,390h-13.45l-28-84.16h22.73L2341,371.58h4.32l20.48-65.76Z" transform="translate(-90.73 -68.78)"/><path d="M2396.78,359.1l49.92-30.72V323.9h-49.12V305.82h70.24v30.56l-49.92,30.88v4.32h49.92V390h-71Z" transform="translate(-90.73 -68.78)"/><path d="M2558.86,321.66V390H2539.5v-8.32L2529.26,390h-26.08l-18.88-15.84V348.38l53.92-13.76v-4.16l-7.2-6.08H2489.1V305.82h50.72Zm-45.76-24.8-12.64-10.24V267.9l12.64-10.24H2532l12.32,10.24v18.72L2532,296.86Zm25.12,54.08-32.8,8.32v7.36l7.2,6.24h20.16l5.44-4.64ZM2512.3,281.5l6.08,5h8.32l6.08-5v-8.32l-6.08-5.12h-8.32l-6.08,5.12Z" transform="translate(-90.73 -68.78)"/><path d="M2652.94,321.66V390h-19.36v-8.32L2623.34,390h-26.08l-18.88-15.84V348.38l53.92-13.76v-4.16l-7.2-6.08h-41.92V305.82h50.72Zm-43-27.36H2588V277h21.92Zm22.4,56.64-32.8,8.32v7.36l7.2,6.24h20.16l5.44-4.64Zm13-56.64H2623.5V277h21.76Z" transform="translate(-90.73 -68.78)"/><path d="M2758.54,325.66V370l-23.84,20h-38.56l-23.84-20V325.66l23.84-19.84h38.56Zm-49.76-31.36h-21.92V277h21.92Zm16,30.08h-18.56l-12.8,10.72v25.6l12.8,10.56h18.56l12.64-10.56V335.1Zm19.36-30.08h-21.76V277h21.76Z" transform="translate(-90.73 -68.78)"/><path d="M2852.46,390h-22.08V295.74H2813.9V277h38.56Z" transform="translate(-90.73 -68.78)"/><path d="M2901.1,365.5v4.64h54.4V390h-77.12V355.9l54.24-35V307.74L2919.82,297h-39.36V277h49.92l25.12,21.12v33.12Z" transform="translate(-90.73 -68.78)"/><path d="M3048.78,341.18v29.6L3025.9,390h-53.77V370.14h43.53l10.88-9V349.66l-10.88-9.12h-25v-16l32.64-23v-4.64h-51.21V277h72.33V309.5l-18.24,12.8Z" transform="translate(-90.73 -68.78)"/><path d="M3158.22,347.1v19.68h-15.68V390h-22.25v-23.2h-55.68V344.7L3103,277h39.53V347.1Zm-37.93-50.24h-4.63l-28.49,50.24h33.12Z" transform="translate(-90.73 -68.78)"/><path d="M3251,338.46v32.32L3228.14,390h-53V370.14h42.72l10.72-9V348.06l-10.72-9h-42.72V277H3247v19.84h-50.24v22.4h31.36Z" transform="translate(-90.73 -68.78)"/><path d="M3356,336.06v34.72l-23,19.2h-40l-23-19.2v-31L3309.25,277h25.12l-25,39.84h23.52Zm-22.4,8.48-10.72-9.12h-25l-5.6,9v16.8l10.72,9h19.68l10.88-9Z" transform="translate(-90.73 -68.78)"/><path d="M3421.89,302.62v-5.76h-57.6V277H3444v29.76L3397.41,390h-25Z" transform="translate(-90.73 -68.78)"/><path d="M3547.17,343.58v27.2L3524.29,390h-40.16l-22.88-19.2v-27.2l14.4-12.32-12.32-10.4V296.22l22.88-19.2h36.16l22.88,19.2v24.64l-12.48,10.56Zm-22.24,6.4-10.72-9.12h-19.84L3483.65,350V362.3l10.72,9h19.68l10.88-9Zm-39.52-35.52,10.72,9h16.32l10.72-9V304.7l-10.88-9h-16.16l-10.72,9Z" transform="translate(-90.73 -68.78)"/><path d="M3651.33,296.22v31L3612,390h-25.12l25-39.84h-23.52l-23-19.2V296.22l23-19.2h40Zm-28,35.36,5.6-9v-16.8l-10.88-9h-19.68l-10.72,9v16.64l10.72,9.12Z" transform="translate(-90.73 -68.78)"/><path d="M3757.41,297v73l-23.84,20h-38.24l-23.84-20V297l23.84-20h38.24Zm-22.08,10.4-12.8-10.56h-16.16l-12.8,10.56v52.16l12.8,10.56h16.16l12.8-10.56Z" transform="translate(-90.73 -68.78)"/></svg>