<svg id="Fj채llr채ven_Text" data-name="Fj채llr채ven Text" xmlns="http://www.w3.org/2000/svg" viewBox="0 0 3219.01 371.96"><title>Ericsson_01</title><path d="M164.17,183h-47l-11.68,33H91.69l40.16-112h17.92l40.16,112H175.85Zm-4.48-12.8-19-54.24-19,54.24Z" transform="translate(-91.69 -73.74)"/><path d="M285.45,184.14c0,19.52-14.4,31.84-34.24,31.84h-45V104h43.52c18.88,0,32.32,11.36,32.32,29.76,0,10.72-5.44,19-14.24,23.52C278.57,161.9,285.45,171.34,285.45,184.14Zm-65.92-67.36v34.88h29.92c13,0,19.52-7.68,19.52-17.44s-6.56-17.44-19.52-17.44Zm52.64,67c0-10.72-7-19.36-21.28-19.36H219.53v38.72h31.36C265.13,203.18,272.17,194.54,272.17,183.82Z" transform="translate(-91.69 -73.74)"/><path d="M353,204.94a54.38,54.38,0,0,0,27.68-7.2v13.44c-5.6,3.52-16,6.56-27.52,6.56-34.72,0-50.56-24.16-50.56-53.92v-7.68c0-29.76,15.84-53.92,50.72-53.92,11.36,0,21.76,3,27.36,6.56v13.44A54.38,54.38,0,0,0,353,115c-25.76,0-37,17.92-37,41.44v7C316,187,327.21,204.94,353,204.94Z" transform="translate(-91.69 -73.74)"/><path d="M487.05,157.1v5.76c0,30.4-15.53,53.12-47.21,53.12H404.16V104h35.68C471.52,104,487.05,126.7,487.05,157.1Zm-13.45.16c0-22.88-10.08-40.48-33.76-40.48h-22.4v86.56h22.4c23.68,0,33.76-17.44,33.76-40.64Z" transform="translate(-91.69 -73.74)"/><path d="M581.12,203.18V216h-70.4V104H580.8v12.8H524V151.5h51.68v12.8H524v38.88Z" transform="translate(-91.69 -73.74)"/><path d="M605.44,104h69v12.8H618.72v36h50.56v12.8H618.72V216H605.44Z" transform="translate(-91.69 -73.74)"/><path d="M777.44,156.46v48.8c-9.44,8.16-24.16,12.48-37.44,12.48-34.4,0-50.72-24.16-50.72-53.92v-7.68c0-29.76,17.28-53.92,51.84-53.92,14.72,0,26.24,5,31.52,8.8v13.44A58.7,58.7,0,0,0,740.8,115c-25.44,0-38.08,17.92-38.08,41.44v7c0,23.52,11.84,41.44,37,41.44,9.44,0,17.6-2.08,24.48-6.08v-29.6H736.8v-12.8Z" transform="translate(-91.69 -73.74)"/><path d="M882.4,104V216H869.12V164.3H817V216H803.68V104H817V151.5h52.16V104Z" transform="translate(-91.69 -73.74)"/><path d="M934.08,115v89.92h14.24v11h-41.6v-11H920.8V115H906.72V104h41.6v11Z" transform="translate(-91.69 -73.74)"/><path d="M1015.36,184.3c0,20.16-10.08,33-32.64,33-7.52,0-16-1.44-21.92-4V199.5c6.08,3.2,14.56,5,21.76,5,15.2,0,19.68-8.48,19.68-22.08V104h13.12Z" transform="translate(-91.69 -73.74)"/><path d="M1111.68,216l-54.24-54.72V216h-13.28V104h13.28V155.5L1108.32,104h17.44L1072,157.9,1129.6,216Z" transform="translate(-91.69 -73.74)"/><path d="M1143.83,104h13.28v99.2h53V216h-66.25Z" transform="translate(-91.69 -73.74)"/><path d="M1330.07,104V216H1317V120.3l-32.64,71.52h-9l-32.48-71V216h-12.8V104H1248l32.16,71.52L1312.31,104Z" transform="translate(-91.69 -73.74)"/><path d="M1441.11,104V216h-14.88l-53.6-92.64V216h-12.8V104H1375l53.28,92.32V104Z" transform="translate(-91.69 -73.74)"/><path d="M1559.35,157.1v5.76c0,31.36-15.52,54.88-47.2,54.88-31.84,0-47.36-23.52-47.36-54.88V157.1c0-31.36,15.52-54.88,47.36-54.88C1543.83,102.22,1559.35,125.74,1559.35,157.1ZM1512.15,115c-23.84,0-33.92,18.24-33.92,42.24v5.44c0,24,10.08,42.24,33.92,42.24,23.68,0,33.92-18.24,33.92-42.24v-5.44C1546.07,133.26,1535.83,115,1512.15,115Z" transform="translate(-91.69 -73.74)"/><path d="M1659.83,137.9c0,21-15,34.08-36,34.08h-27.36v44h-13.28V104h40.64C1644.79,104,1659.83,117.1,1659.83,137.9Zm-13.28,0c0-11.68-7.68-21.12-23-21.12h-27v42.4h27C1638.87,159.18,1646.55,149.74,1646.55,137.9Z" transform="translate(-91.69 -73.74)"/><path d="M1751,209.1l17.44,20.8h-15.84L1740.15,215a52.91,52.91,0,0,1-17.28,2.72c-31.84,0-47.37-23.52-47.37-54.88V157.1c0-31.36,15.53-54.88,47.37-54.88,31.68,0,47.2,23.52,47.2,54.88v5.76C1770.07,182.86,1763.83,199.5,1751,209.1Zm-28.16-4.16c23.68,0,33.92-18.24,33.92-42.24v-5.44c0-24-10.24-42.24-33.92-42.24C1699,115,1689,133.26,1689,157.26v5.44C1689,186.7,1699,204.94,1722.87,204.94Z" transform="translate(-91.69 -73.74)"/><path d="M1825.43,169.58h-18.25V216H1793.9V104h41.61c20.48,0,35.52,12.64,35.52,32.8,0,17.92-12.16,30.24-29.6,32.48L1880.15,216h-16.8Zm-18.25-12.8h28c15,0,22.56-9.12,22.56-20,0-11-7.52-20-22.56-20h-28Z" transform="translate(-91.69 -73.74)"/><path d="M1889.1,207.82v-13.6c8.32,5.92,20.8,11,37.12,11,17.28,0,25.76-7.84,25.76-18.72,0-11-7.52-15.52-21.6-20.48l-7.84-2.72c-17.92-6.4-31.2-12.48-31.2-31,0-19.52,17.28-30.08,37.92-30.08,12.32,0,22.56,2.56,29.12,6.56v13.44c-8.16-5-18.72-7.36-29.12-7.36-15,0-24.64,5.92-24.64,17,0,10.4,8.16,14.4,22.88,19.52l7.52,2.72c16.16,5.76,30.24,12.64,30.24,32.16,0,21.28-17.6,31.68-39,31.68C1909.58,217.9,1895.66,212.78,1889.1,207.82Z" transform="translate(-91.69 -73.74)"/><path d="M2010.54,216.14V116.78h-35.2V104h83.84v12.8h-35.36v99.36Z" transform="translate(-91.69 -73.74)"/><path d="M2077.74,177.42V104h13.44v73.28c0,15.84,7.68,28,26.72,28,18.89,0,26.56-12.16,26.56-28V104h13.45v73.44c0,23-13,40.48-40,40.48C2090.7,217.9,2077.74,200.46,2077.74,177.42Z" transform="translate(-91.69 -73.74)"/><path d="M2272,104,2231.5,216H2215l-40.48-112h14.08l34.88,97.6,34.72-97.6Z" transform="translate(-91.69 -73.74)"/><path d="M2422.38,104l-28.32,112H2376l-24.8-94.72L2326.38,216H2308.3l-28.16-112h13.92l24,99.52L2344,104h14.72l25.92,99.52L2408.78,104Z" transform="translate(-91.69 -73.74)"/><path d="M2510.38,216,2479,168.46,2447.66,216h-15l37.76-57.28L2434.22,104h15.2l29.76,45.12,29.6-45.12h15.36l-36.32,54.72L2525.74,216Z" transform="translate(-91.69 -73.74)"/><path d="M2583.82,165.74V216h-13.28V165.74L2532.62,104h15l29.76,48.64L2607,104h14.72Z" transform="translate(-91.69 -73.74)"/><path d="M2629.25,203.82l65.13-87h-60.8V104h77v12.16l-65,87h65.12V216h-81.45Z" transform="translate(-91.69 -73.74)"/><path d="M2793.26,183h-47l-11.68,33h-13.76l39.52-110.24A17.69,17.69,0,0,1,2752,91c0-9.44,7.84-17.28,17.92-17.28,10.24,0,17.92,7.84,17.92,17.28a17.12,17.12,0,0,1-8.32,14.72L2819,216h-14.08Zm-4.48-12.8-19-54.24-19,54.24ZM2760.3,91c0,5.44,3.84,9.76,9.6,9.76a9.68,9.68,0,1,0,0-19.36A9.33,9.33,0,0,0,2760.3,91Z" transform="translate(-91.69 -73.74)"/><path d="M2897.09,183h-47l-11.68,33h-13.76l40.16-112h17.92l40.17,112h-14.09Zm-49-98.72a8.65,8.65,0,1,1,8.64,8.32A8.57,8.57,0,0,1,2848.13,84.3Zm44.48,85.92-19-54.24-19,54.24ZM2881.89,84.3a8.56,8.56,0,1,1,8.48,8.32A8.43,8.43,0,0,1,2881.89,84.3Z" transform="translate(-91.69 -73.74)"/><path d="M3026.54,157.1v5.76c0,31.36-15.52,54.88-47.2,54.88-31.84,0-47.37-23.52-47.37-54.88V157.1c0-31.36,15.53-54.88,47.37-54.88C3011,102.22,3026.54,125.74,3026.54,157.1ZM2979.34,115c-23.84,0-33.92,18.24-33.92,42.24v5.44c0,24,10.08,42.24,33.92,42.24,23.68,0,33.92-18.24,33.92-42.24v-5.44C3013.26,133.26,3003,115,2979.34,115Zm-25.6-30.72a8.65,8.65,0,1,1,8.64,8.32A8.57,8.57,0,0,1,2953.74,84.3Zm33.76,0a8.56,8.56,0,1,1,8.48,8.32A8.43,8.43,0,0,1,2987.5,84.3Z" transform="translate(-91.69 -73.74)"/><path d="M164.33,333.86V415H152.65v-8.8c-4.8,5.76-12.8,10.08-22.88,10.08-21.76,0-33.44-17.44-33.44-39.2v-5.28c0-21.76,11.68-39.2,33.44-39.2,10.08,0,18.08,4.32,22.88,10.08v-8.8Zm-12.8,59.2V355.78a23.88,23.88,0,0,0-20.32-10.72c-15,0-21.92,11.52-21.92,27v4.64c0,15.52,6.88,27,21.92,27A23.88,23.88,0,0,0,151.53,393.06Z" transform="translate(-91.69 -73.74)"/><path d="M258.73,371.78v5.28c0,21.76-11.68,39.2-33.44,39.2-10.24,0-18.24-4.48-23-10.24v9H190.56V298.18h12.81v43.36a30.13,30.13,0,0,1,21.92-9C247.05,332.58,258.73,350,258.73,371.78Zm-13,.32c0-15.52-6.88-27-21.92-27a24.09,24.09,0,0,0-20.48,10.88v37a24.09,24.09,0,0,0,20.48,10.88c15,0,21.92-11.52,21.92-27Z" transform="translate(-91.69 -73.74)"/><path d="M272.8,377.06v-5.28c0-21.76,12.8-39.52,37.12-39.52,8,0,15.84,2.08,20,4.64v12.64a42.87,42.87,0,0,0-19.52-4.8c-17.12,0-24.64,11.68-24.64,27.36v4.64c0,15.68,7.52,27.36,24.64,27.36a42.87,42.87,0,0,0,19.52-4.8v12.64c-4.16,2.56-12,4.64-20,4.64C285.6,416.58,272.8,398.82,272.8,377.06Z" transform="translate(-91.69 -73.74)"/><path d="M412.16,298.18V415H400.48v-9c-4.8,5.76-12.8,10.24-23,10.24-21.76,0-33.44-17.44-33.44-39.2v-5.28c0-21.76,11.68-39.2,33.44-39.2a30.13,30.13,0,0,1,21.92,9V298.18Zm-12.8,94.72v-37a24.09,24.09,0,0,0-20.48-10.88c-15,0-21.92,11.52-21.92,27v4.64c0,15.52,6.88,27,21.92,27A24.09,24.09,0,0,0,399.36,392.9Z" transform="translate(-91.69 -73.74)"/><path d="M499.36,376.9H445c0,16.32,8.48,27.2,27.36,27.2a40.79,40.79,0,0,0,22.56-6.24v12.8c-4.8,3.36-13.6,5.92-22.88,5.92-25.44,0-39.68-15.68-39.68-39.52v-5.28c0-22.88,13-39.84,34.72-39.84,21.6,0,32.32,14.56,32.32,36.48ZM445.28,366h41.28c-.32-13.76-6.56-22.08-19.84-22.08C454.24,343.94,446.88,352.58,445.28,366Z" transform="translate(-91.69 -73.74)"/><path d="M536,323.3v10.56h19.2v11.52H536V415H523.2v-69.6H510.72V333.86H523.2v-12.8c0-16.32,9-24.32,22.88-24.32a29.77,29.77,0,0,1,10.4,1.76v11.84a24.67,24.67,0,0,0-8-1.28C539.36,309.06,536,313.7,536,323.3Z" transform="translate(-91.69 -73.74)"/><path d="M633.28,333.86v77.92c0,18.08-9,33.44-34.88,33.44-9.6,0-19.84-2.08-25.76-5.76v-12.8c7.36,4.32,17.44,6.24,25.12,6.24,16,0,22.72-7.36,22.72-21.92V405.7c-4.8,5-12.48,8.64-21.92,8.64-21.6,0-33.28-17.12-33.28-38.4v-4.8c0-21.44,11.68-38.56,33.28-38.56,10.08,0,17.92,4.16,22.72,9.6v-8.32Zm-12.8,57.92V355.3A24.38,24.38,0,0,0,600,345.06c-14.88,0-21.76,11.2-21.76,26.4v4c0,15.2,6.88,26.56,21.76,26.56A24.38,24.38,0,0,0,620.48,391.78Z" transform="translate(-91.69 -73.74)"/><path d="M722.56,359.3V415h-12.8V362.34c0-12-5.28-17.6-16.32-17.6a29.14,29.14,0,0,0-21.76,10.08V415h-12.8V298.18h12.8V341.7a35,35,0,0,1,24-9.44C712.8,332.26,722.56,342.5,722.56,359.3Z" transform="translate(-91.69 -73.74)"/><path d="M744.48,308.9a8.88,8.88,0,1,1,9,8.64A8.78,8.78,0,0,1,744.48,308.9Zm2.56,25h12.8V415H747Z" transform="translate(-91.69 -73.74)"/><path d="M798.72,333.86v86.4c0,17.44-9,25.44-22.88,25.44-4.16,0-8.32-.64-10.72-1.76V432.26a26,26,0,0,0,8.32,1.28c9,0,12.48-5,12.48-15V333.86Zm-15.36-25a8.88,8.88,0,1,1,9,8.64A8.78,8.78,0,0,1,783.36,308.9Z" transform="translate(-91.69 -73.74)"/><path d="M873.44,415l-35.84-40.8V415H824.8V298.18h12.8v71.36L871,333.86H887.2l-35.52,37.28L890.24,415Z" transform="translate(-91.69 -73.74)"/><path d="M903.51,298.18h12.8V415h-12.8Z" transform="translate(-91.69 -73.74)"/><path d="M1050.4,359.3V415h-12.8V362.34c0-12-4.64-17.6-14.56-17.6a27.79,27.79,0,0,0-20.48,9.76c.16,1.6.31,3.2.31,4.8V415h-12.8V362.34c0-12-4.8-17.6-14.72-17.6a27.13,27.13,0,0,0-20.16,9.76V415h-12.8V333.86h11.68v8.8a31.86,31.86,0,0,1,23.52-10.4c10.08,0,17.6,4,21.6,11.2a36.7,36.7,0,0,1,25.93-11.2C1041.44,332.26,1050.4,342.5,1050.4,359.3Z" transform="translate(-91.69 -73.74)"/><path d="M1138.71,359.3V415h-12.8V362.34c0-12-5.28-17.6-16.32-17.6a29.14,29.14,0,0,0-21.76,10.08V415H1075V333.86h11.68v9a34.92,34.92,0,0,1,25.12-10.56C1129,332.26,1138.71,342.5,1138.71,359.3Z" transform="translate(-91.69 -73.74)"/><path d="M1157.11,377.06v-5.28c0-21.92,12.48-39.84,36.16-39.84s36.32,17.92,36.32,39.84v5.28c0,21.92-12.64,39.84-36.32,39.84S1157.11,399,1157.11,377.06Zm59.52-.32V372.1c0-15.68-7.52-27.84-23.36-27.84s-23.2,12.16-23.2,27.84v4.64c0,15.68,7.36,27.84,23.2,27.84S1216.63,392.42,1216.63,376.74Z" transform="translate(-91.69 -73.74)"/><path d="M1317.75,371.78v5.28c0,21.76-11.68,39.2-33.44,39.2a30.13,30.13,0,0,1-21.92-9v36.48h-12.8V333.86h11.68v9c4.8-5.76,12.8-10.24,23-10.24C1306.07,332.58,1317.75,350,1317.75,371.78Zm-13,.32c0-15.52-6.88-27-21.92-27a24.09,24.09,0,0,0-20.48,10.88v37a24.09,24.09,0,0,0,20.48,10.88c15,0,21.92-11.52,21.92-27Z" transform="translate(-91.69 -73.74)"/><path d="M1400,333.86V443.78h-12.8V407.3a30.13,30.13,0,0,1-21.92,9c-21.76,0-33.44-17.44-33.44-39.2v-5.28c0-21.76,11.68-39.2,33.44-39.2,10.24,0,18.24,4.48,23,10.24v-9Zm-12.8,59v-37a24.09,24.09,0,0,0-20.48-10.88c-15,0-21.92,11.52-21.92,27v4.64c0,15.52,6.88,27,21.92,27A24.09,24.09,0,0,0,1387.19,392.9Z" transform="translate(-91.69 -73.74)"/><path d="M1464.15,333.22v13.12c-9.28.32-19.68,4.64-25.12,13.12V415h-12.8V333.86h11.68v12.32C1443.35,338.66,1453.27,333.54,1464.15,333.22Z" transform="translate(-91.69 -73.74)"/><path d="M1474.23,409.38V396.74a51.23,51.23,0,0,0,27.2,8c11.36,0,16.16-5,16.16-11.68s-4.32-9.28-13.28-12.64l-6.08-2.08c-13-4.64-22.72-9.44-22.72-23,0-14.56,12-23,28.64-23,8.64,0,16.64,1.92,21.28,4.64v12.64A45.39,45.39,0,0,0,1504,344.1c-9.92,0-15.84,4-15.84,10.72,0,6.24,5.12,8.48,14.24,12l5.76,1.92c12.64,4.64,22.24,9.6,22.24,23.68,0,15.52-11.84,24.32-29.28,24.32C1489.11,416.74,1479.19,413.22,1474.23,409.38Z" transform="translate(-91.69 -73.74)"/><path d="M1565.91,345.38v47.2c0,8.64,3.52,11.2,10.72,11.2a22.38,22.38,0,0,0,8.48-1.44V414c-2.56,1.28-6.72,2.08-11,2.08-13.92,0-21-6.88-21-19.68v-51h-12.48V333.86h12.48V313.7l12.8-4.32v24.48h19.2v11.52Z" transform="translate(-91.69 -73.74)"/><path d="M1665,333.86V415h-11.84v-8.8a34.24,34.24,0,0,1-24.64,10.4c-17,0-26.4-10.24-26.4-27V333.86h12.8V386.5c0,12,5,17.6,15.84,17.6A29,29,0,0,0,1652.15,394V333.86Z" transform="translate(-91.69 -73.74)"/><path d="M1755.35,333.86,1727.19,415h-17.28l-28.16-81.12h13.76l23,69.28,23-69.28Z" transform="translate(-91.69 -73.74)"/><path d="M1878.55,333.86l-21,81.12h-17l-18.88-63.36L1802.87,415h-17.12l-21.13-81.12h13.6L1795,402l20.32-68.16h13l20.32,68.32,16.64-68.32Z" transform="translate(-91.69 -73.74)"/><path d="M1947.67,415l-21.77-32.8L1904,415h-15l28.32-41.6-26.88-39.52h15l20.48,30.72,20.32-30.72h15l-26.89,39.52,28.33,41.6Z" transform="translate(-91.69 -73.74)"/><path d="M2043.18,333.86l-29.12,81.44c-7.2,20-14.56,30.24-30.56,30.24a33.36,33.36,0,0,1-9-1.28V432.1a25.65,25.65,0,0,0,7.36,1c8.8,0,14.88-5,19.2-17.44l-29.92-81.76h13.76l22.56,63.36,22.08-63.36Z" transform="translate(-91.69 -73.74)"/><path d="M2054.86,403.78l45.92-58.4h-43.84V333.86h59.84v11.2l-46.08,58.4h46.08V415h-61.92Z" transform="translate(-91.69 -73.74)"/><path d="M2199.66,333.86V415H2188v-8.8c-4.8,5.76-12.8,10.08-22.88,10.08-21.76,0-33.44-17.44-33.44-39.2v-5.28c0-21.76,11.68-39.2,33.44-39.2,10.08,0,18.08,4.32,22.88,10.08v-8.8Zm-12.8,59.2V355.78a23.88,23.88,0,0,0-20.32-10.72c-15,0-21.92,11.52-21.92,27v4.64c0,15.52,6.88,27,21.92,27A23.88,23.88,0,0,0,2186.86,393.06Zm-34.72-87a17,17,0,1,1,17,16.48A16.67,16.67,0,0,1,2152.14,306Zm8,0a9,9,0,1,0,9-9A8.75,8.75,0,0,0,2160.14,306Z" transform="translate(-91.69 -73.74)"/><path d="M2287.82,333.86V415h-11.68v-8.8c-4.8,5.76-12.8,10.08-22.88,10.08-21.76,0-33.44-17.44-33.44-39.2v-5.28c0-21.76,11.68-39.2,33.44-39.2,10.08,0,18.08,4.32,22.88,10.08v-8.8Zm-12.8,59.2V355.78a23.88,23.88,0,0,0-20.32-10.72c-15,0-21.92,11.52-21.92,27v4.64c0,15.52,6.88,27,21.92,27A23.88,23.88,0,0,0,2275,393.06Zm-41.6-84.16a8.65,8.65,0,1,1,8.64,8.32A8.57,8.57,0,0,1,2233.42,308.9Zm30.24,0a8.56,8.56,0,1,1,8.64,8.32A8.47,8.47,0,0,1,2263.66,308.9Z" transform="translate(-91.69 -73.74)"/><path d="M2308,377.06v-5.28c0-21.92,12.48-39.84,36.16-39.84s36.32,17.92,36.32,39.84v5.28c0,21.92-12.64,39.84-36.32,39.84S2308,399,2308,377.06Zm12.32-68.16a8.65,8.65,0,1,1,8.64,8.32A8.57,8.57,0,0,1,2320.3,308.9Zm47.2,67.84V372.1c0-15.68-7.52-27.84-23.36-27.84s-23.2,12.16-23.2,27.84v4.64c0,15.68,7.36,27.84,23.2,27.84S2367.5,392.42,2367.5,376.74Zm-17-67.84a8.56,8.56,0,1,1,8.64,8.32A8.47,8.47,0,0,1,2350.54,308.9Z" transform="translate(-91.69 -73.74)"/><path d="M2504.62,404.26V415h-67.2V404.26h28.16V317.54l-26.72,8.16v-12l33.92-11.52h5.6V404.26Z" transform="translate(-91.69 -73.74)"/><path d="M2591.66,403v12h-70.24v-6.24c0-15.68,8.16-26.56,25.76-40.64l9-7.2c15.2-12.16,21.76-19.68,21.76-29.6,0-10.56-7.2-17.6-22.56-17.6a46.83,46.83,0,0,0-29.76,10.56V310.82c4.64-3.84,15.2-9.6,30.56-9.6,23,0,34.72,12.8,34.72,30.08,0,13.44-7.36,23-26.72,38.72l-7.84,6.4c-14.08,11.36-19.52,17.28-21.12,26.56Z" transform="translate(-91.69 -73.74)"/><path d="M2681.74,379.94c0,21.6-15.52,37-39.36,37-11,0-22.24-2.4-30.88-7.84V395.62c9.12,6.08,20.48,8.8,30.72,8.8,17.76,0,26.72-11.36,26.72-24.16,0-12.64-8.32-21.44-24.48-21.44-4.48,0-8.8.64-11.68,2.08l-5.44-8.48L2661.42,315h-47.36V303h62.4v11.36L2646.54,347C2665.9,347.14,2681.74,358.34,2681.74,379.94Z" transform="translate(-91.69 -73.74)"/><path d="M2777.1,378.66V390.5h-16.64V415h-12.8V390.5h-50.72V379.14L2741.26,303h19.2v75.68Zm-29.44,0V315.14l-37.12,63.52Z" transform="translate(-91.69 -73.74)"/><path d="M2861.74,379.94c0,21.76-15.2,37-40,37-9.92,0-21.45-2.4-30.24-7.84V395.62c9.12,6.08,21.12,8.8,30.24,8.8,18.72,0,27.2-11.52,27.2-24.48,0-12.8-8.16-21.6-24.32-21.6-8,0-14.25,2.08-18.72,5.12l-10.4-3.68,6.4-56.8h55.36v12h-44.48l-4,34.4A42.77,42.77,0,0,1,2825.9,346C2846.06,346,2861.74,357.86,2861.74,379.94Z" transform="translate(-91.69 -73.74)"/><path d="M2953.1,378.18c0,20.32-11.68,38.72-36,38.72s-37.45-16.48-37.45-40.16v-4.8c0-30.88,24-57,40-69h19c-15,11-32.16,26.4-40.81,45.44a35.27,35.27,0,0,1,20.48-6.08C2940.78,342.34,2953.1,355.94,2953.1,378.18Zm-12.8.8c0-16.48-8.32-24.48-23.68-24.48-8.33,0-17.61,3.52-23.53,9.92a48.36,48.36,0,0,0-.63,8.32v3.2c0,17.28,8.32,28.8,24.64,28.8C2932.62,404.74,2940.3,394.18,2940.3,379Z" transform="translate(-91.69 -73.74)"/><path d="M3042.22,303v11.68C3020.94,340.74,3004,380.1,2999.33,415h-14.08c3.2-32,21.61-72.8,41.77-100h-57.61V303Z" transform="translate(-91.69 -73.74)"/><path d="M3132.62,383.78c0,18.88-13.29,33.12-37.93,33.12s-37.92-14.24-37.92-33.12c0-12.48,6.08-22.88,17.92-28.16a27,27,0,0,1-13.92-24.16c0-17,12.8-30.24,33.92-30.24s33.93,13.28,33.93,30.24a27,27,0,0,1-13.92,24.16C3126.54,360.9,3132.62,371.3,3132.62,383.78Zm-12.8-.32c0-12.32-8.32-21.6-25.13-21.6-16.64,0-25.12,9.28-25.12,21.6s8.48,21.6,25.12,21.6S3119.82,395.78,3119.82,383.46Zm-46.25-51.84c0,10.4,7.68,18.56,21.12,18.56s21.13-8.16,21.13-18.56-7.53-18.56-21.13-18.56C3081.25,313.06,3073.57,321.22,3073.57,331.62Z" transform="translate(-91.69 -73.74)"/><path d="M3220.13,341.22V346c0,30.88-24,57-40,69h-18.4c15-11,31.84-26.4,40.32-45.44a36.53,36.53,0,0,1-21,6.08c-20.8,0-34.4-13.92-34.4-35.84,0-20.48,11.52-38.72,36.32-38.72C3206.69,301.06,3220.13,317.54,3220.13,341.22Zm-13.44,12.32a47.37,47.37,0,0,0,.64-8.32V342c0-17.28-8.32-28.8-24.64-28.8-15.52,0-23.2,10.4-23.2,25.76,0,16.48,8.8,24.48,23,24.48C3192,363.46,3200.77,359.94,3206.69,353.54Z" transform="translate(-91.69 -73.74)"/><path d="M3310.69,355.78v6.4c0,31.2-10.56,54.56-36.8,54.56s-36.8-23.36-36.8-54.56v-6.4c0-31.2,10.56-54.56,36.8-54.56S3310.69,324.58,3310.69,355.78Zm-60.8,6.24a100.62,100.62,0,0,0,.64,12.32l44.16-44c-3.52-10.4-9.92-17.12-20.8-17.12-18.08,0-24,18.56-24,42.72Zm48-6.08a103.31,103.31,0,0,0-.64-12.48l-44.16,44.16c3.52,10.4,9.92,17.12,20.8,17.12,18.08,0,24-18.56,24-42.72Z" transform="translate(-91.69 -73.74)"/></svg>