<svg id="Fj채llr채ven_Text" data-name="Fj채llr채ven Text" xmlns="http://www.w3.org/2000/svg" viewBox="0 0 342.47 243.9"><title>Ericsson_Preview</title><path d="M260.69,242.92v12.87c0,66.06-22.36,115.51-76.56,115.51s-76.55-49.45-76.55-115.51V242.92c0-66.06,22.35-115.51,76.55-115.51S260.69,176.86,260.69,242.92ZM129.26,255.45a256.08,256.08,0,0,0,2,33.2L231.9,188c-7.8-24.39-22.7-40-47.77-40-40.65,0-54.87,41.33-54.87,95.19ZM239,243.26a257.86,257.86,0,0,0-2-33.2L136.37,310.67c7.79,24.39,22.7,40,47.76,40,40.65,0,54.88-41.33,54.88-95.19Z" transform="translate(-107.58 -127.41)"/><path d="M450.05,349.62v18.29H312.18V349.62h60.3V154.84l-57.25,18.3V152.47l70.46-23.71h8.47V349.62Z" transform="translate(-107.58 -127.41)"/></svg>