<svg id="Acne_Studios" data-name="Acne Studios" xmlns="http://www.w3.org/2000/svg" viewBox="0 0 339.96 210.75"><title>Everlane-QP</title><path d="M153.73,178.61V221h82.52v41.1H153.73v42.41h124v41.1h-166V137.51h166v41.1Z" transform="translate(-111.64 -137.51)"/><path d="M342.78,281.18v9.21c0,13.48,7.56,21.7,21.37,21.7h28.27c10.85,0,17.76-3.62,19.07-13.15h39.78c-2,32.22-27.61,49.32-60.16,49.32H364.48c-35.51,0-60.5-22.36-60.5-59.18V247c0-36.82,25-59.18,60.5-59.18h26.63c35.51,0,60.49,22.36,60.49,59.18v34.19Zm0-35.5v5.26h70v-5.26c0-12.83-7.24-21.7-21.37-21.7H364.15C350.34,224,342.78,232.2,342.78,245.68Z" transform="translate(-111.64 -137.51)"/></svg>