<svg id="Acne_Studios" data-name="Acne Studios" xmlns="http://www.w3.org/2000/svg" viewBox="0 0 3507.39 359.83"><title>Everlane-02</title><path d="M167.31,193h-48.1L110,216H90.48l43.85-107.61h18.19L196.21,216H176.49Zm-7.14-18-17-42.5L126.35,175Z" transform="translate(-90.48 -75.73)"/><path d="M300.08,184.53c0,18.53-13.77,31.45-32.13,31.45H209.81V108.37h56.61c18.53,0,32.3,12.92,32.3,30.94a27.44,27.44,0,0,1-9.86,21.59A29.12,29.12,0,0,1,300.08,184.53Zm-71.57-58v26.35h37.91c7.82,0,13.77-5.1,13.77-13.26,0-8-5.61-13.09-13.77-13.09Zm53,57.63c0-8.16-5.61-13.6-13.6-13.6H228.51v27.2H268C275.6,197.79,281.55,192.35,281.55,184.19Z" transform="translate(-90.48 -75.73)"/><path d="M317.42,185.89V138.46c0-18.36,13.94-31.28,31.79-31.28h27.88c17.85,0,32,12.92,32,31.28h-18.7c0-8-5.78-13.09-13.43-13.09H349.38c-7.65,0-13.43,5.1-13.43,13.09v47.43c0,8,5.78,13.09,13.43,13.09h27.54c7.65,0,13.43-5.1,13.43-13.09h18.7c0,18.36-14.11,31.28-32,31.28H349.21C331.36,217.17,317.42,204.25,317.42,185.89Z" transform="translate(-90.48 -75.73)"/><path d="M520.23,139.65v45c0,18.36-14.11,31.28-32,31.28H427.58V108.37h60.69C506.12,108.37,520.23,121.29,520.23,139.65Zm-18.7,0c0-8-5.78-13.09-13.43-13.09H446.28v71.23H488.1c7.65,0,13.43-5.1,13.43-13.09Z" transform="translate(-90.48 -75.73)"/><path d="M561.37,126.56v26.52h43.86v18.19H561.37v26.52h65.45V216H542.67V108.37h84.15v18.19Z" transform="translate(-90.48 -75.73)"/><path d="M665.58,126.56v26.52h43.86v18.19H665.58V216h-18.7V108.37H731v18.19Z" transform="translate(-90.48 -75.73)"/><path d="M743.1,185.89V138.46c0-18.36,14.11-31.28,32-31.28h29.58c17.85,0,32,12.92,32,31.28H817.9c0-8-5.78-13.09-13.43-13.09H775.06c-7.65,0-13.43,5.1-13.43,13.09v47.43c0,8,5.78,13.09,13.43,13.09h29.58c7.65,0,13.26-5.1,13.26-13.09V176H793.08V158.35H836.6v27.54c0,18.36-14.11,31.28-32,31.28H775.06C757.21,217.17,743.1,204.25,743.1,185.89Z" transform="translate(-90.48 -75.73)"/><path d="M953.56,108.37V216H935V171.27H877.74V216H859V108.37h18.7v44.71H935V108.37Z" transform="translate(-90.48 -75.73)"/><path d="M978.88,108.37h18.53V216H978.88Z" transform="translate(-90.48 -75.73)"/><path d="M1015.94,185.89V171.78h18.7v14.11c0,8,5.61,13.09,13.43,13.09H1062c7.65,0,13.6-5.1,13.6-13.09V108.37h18.53v77.52c0,18.36-13.94,31.28-31.79,31.28h-14.28C1030.05,217.17,1015.94,204.25,1015.94,185.89Z" transform="translate(-90.48 -75.73)"/><path d="M1149.56,167.87l-13.77,13.43V216h-18.7V108.37h18.7V157.5l49.47-49.13h25.16l-47.77,46.75L1212.12,216h-23.8Z" transform="translate(-90.48 -75.73)"/><path d="M1302.39,197.79V216h-77V108.37h18.7v89.42Z" transform="translate(-90.48 -75.73)"/><path d="M1424.28,108.37V216h-18.53V133.53l-33.15,33.83-33-33.66V216h-18.7V108.37h18.7l33,33.66,33.15-33.66Z" transform="translate(-90.48 -75.73)"/><path d="M1543.45,108.37V216h-18.53l-57.29-77.35V216h-18.7V108.37h18.7l57.29,77.35V108.37Z" transform="translate(-90.48 -75.73)"/><path d="M1566.06,185.89V138.46c0-18.36,14.11-31.28,32-31.28h32c17.85,0,32,12.92,32,31.28v47.43c0,18.36-14.11,31.28-32,31.28h-32C1580.17,217.17,1566.06,204.25,1566.06,185.89ZM1629.81,199c7.65,0,13.43-5.1,13.43-13.09V138.46c0-8-5.78-13.09-13.43-13.09h-31.62c-7.65,0-13.6,5.1-13.6,13.09v47.43c0,8,6,13.09,13.6,13.09Z" transform="translate(-90.48 -75.73)"/><path d="M1775,139.65c0,18.7-13.94,31.62-32.3,31.62h-39.6V216h-18.7V108.37h58.3C1761,108.37,1775,121.29,1775,139.65Zm-18.69,0c0-8.16-5.79-13.09-13.61-13.09h-39.6v26.52h39.6C1750.33,153.08,1756.29,148,1756.29,139.65Z" transform="translate(-90.48 -75.73)"/><path d="M1871.2,212.58l9,13.77h-20.57l-6-9.18H1821.9c-17.85,0-32-12.92-32-31.28V138.46c0-18.36,14.1-31.28,32-31.28h32c17.85,0,32,12.92,32,31.28v47.43A30.65,30.65,0,0,1,1871.2,212.58ZM1861,197.11a12.52,12.52,0,0,0,6.12-11.22V138.46c0-8-5.78-13.09-13.43-13.09h-31.62c-7.65,0-13.6,5.1-13.6,13.09v47.43c0,8,6,13.09,13.6,13.09h19.72l-11.9-18.36h20.4Z" transform="translate(-90.48 -75.73)"/><path d="M1952.12,171.27H1927V216h-18.7V108.37h59.33c18.36,0,32.3,12.92,32.3,31.28,0,16.83-11.39,29.07-27,31.28l27.54,45h-21.25ZM1927,153.08h40.63c7.65,0,13.6-5.1,13.6-13.43,0-8.16-5.61-13.09-13.6-13.09H1927Z" transform="translate(-90.48 -75.73)"/><path d="M2015.53,185.21h18.7c0,8.5,6.29,13.77,14.28,13.77h28c7.82,0,13.94-5.27,13.94-13.77s-6.29-13.94-13.94-13.94H2049c-18.36,0-32.47-13.26-32.47-32.13,0-18.7,14.11-32,32.47-32h25.33c18.53,0,32.47,13.09,32.47,31.79h-18.53c0-8.5-6.29-13.6-14.28-13.6h-25c-7.82,0-13.94,5.27-13.94,13.77s6.29,13.94,13.94,13.94h27.54c18.36,0,32.47,13.26,32.47,32.13s-14.11,32-32.47,32h-28.39C2029.64,217.17,2015.53,204.08,2015.53,185.21Z" transform="translate(-90.48 -75.73)"/><path d="M2209.5,126.56H2173V216h-18.7V126.56H2117.7V108.37h91.8Z" transform="translate(-90.48 -75.73)"/><path d="M2225.82,185.89V108.37h18.7v77.52c0,8,5.61,13.09,13.43,13.09h25c7.82,0,13.43-5.1,13.43-13.09V108.37h18.7v77.52c0,18.36-14.11,31.28-32,31.28h-25.33C2239.93,217.17,2225.82,204.25,2225.82,185.89Z" transform="translate(-90.48 -75.73)"/><path d="M2434.58,108.37,2390.89,216h-18.53L2328.5,108.37h20.23L2381.88,191l33-82.62Z" transform="translate(-90.48 -75.73)"/><path d="M2585.71,108.37,2555.79,216h-20.57L2513,137.1,2490.68,216h-20.91L2440,108.37h19.55l21.76,79.9,22.27-79.9h19l22.44,79.9,21.59-79.9Z" transform="translate(-90.48 -75.73)"/><path d="M2672.92,216,2644,174.5,2615,216h-22.1L2632,160.9l-37.4-52.53h22.1l27.54,38.93,27-38.93h21.93l-37.23,52.36L2695.19,216Z" transform="translate(-90.48 -75.73)"/><path d="M2801.61,108.37l-42.5,62.56v45h-18.7v-45l-42.33-62.56H2720l29.75,44,29.92-44Z" transform="translate(-90.48 -75.73)"/><path d="M2902.75,126.56l-67.65,71.23h67.65V216h-92.3V197.79l67.66-71.23h-67.66V108.37h92.3Z" transform="translate(-90.48 -75.73)"/><path d="M2989.45,193h-48.11L2932.17,216h-19.55l43.17-105.91a18,18,0,0,1-9.35-15.81c0-10,8.16-18.53,19.21-18.53a18.8,18.8,0,0,1,19,18.53,18.37,18.37,0,0,1-9.35,15.81l43,105.91h-19.72Zm-7.14-18-17-42.5L2948.48,175Zm-26-80.75a9.27,9.27,0,1,0,18.53,0,9.27,9.27,0,1,0-18.53,0Z" transform="translate(-90.48 -75.73)"/><path d="M3097.74,193h-48.11L3040.45,216H3020.9l43.86-107.61H3083L3126.64,216h-19.72ZM3046.4,89.5a10.63,10.63,0,0,1,21.25,0,10.63,10.63,0,0,1-21.25,0ZM3090.6,175l-17-42.5L3056.77,175ZM3079.89,89.5A10.63,10.63,0,1,1,3090.6,100,10.74,10.74,0,0,1,3079.89,89.5Z" transform="translate(-90.48 -75.73)"/><path d="M3138.2,185.89V138.46c0-18.36,14.11-31.28,32-31.28h32c17.85,0,32,12.92,32,31.28v47.43c0,18.36-14.11,31.28-32,31.28h-32C3152.31,217.17,3138.2,204.25,3138.2,185.89ZM3202,199c7.65,0,13.43-5.1,13.43-13.09V138.46c0-8-5.78-13.09-13.43-13.09h-31.62c-7.65,0-13.6,5.1-13.6,13.09v47.43c0,8,5.95,13.09,13.6,13.09ZM3158.77,89.5a10.63,10.63,0,0,1,21.25,0,10.63,10.63,0,0,1-21.25,0Zm33.49,0A10.63,10.63,0,1,1,3203,100,10.74,10.74,0,0,1,3192.26,89.5Z" transform="translate(-90.48 -75.73)"/><path d="M170.37,349.37V406H154.23v-6.12c-3.58,4.59-9.19,7.14-16.67,7.14H122.44c-14.79,0-25.67-10.88-25.67-25s10.88-24.14,25.5-24.14h31.27V349.2c0-5.1-3.56-8.33-9-8.33H125.67c-5.27,0-9.18,3.23-9.18,8.33h-17c0-14.28,10.88-24.31,25.33-24.31h20.57C159.83,324.89,170.37,335.09,170.37,349.37Zm-16.83,22.95H123.8c-6.46,0-10.2,4.42-10.2,9.35s3.74,9.35,10.2,9.35h18.7c7.13,0,11-3.57,11-8.84Z" transform="translate(-90.48 -75.73)"/><path d="M270.84,355.15v21.76c0,18.7-12.75,30.26-30.77,30.26h-9.69c-8.33,0-15.3-3.06-19.72-8.84V406h-17V293.27h17.51v39.78c4.42-5.27,11.22-8.16,19.21-8.16h9.69C258.09,324.89,270.84,336.45,270.84,355.15Zm-17.68-.51c0-8.5-4.76-13.43-13.26-13.43H226.3c-10.2,0-15.64,6.12-15.64,15.81v18c0,9.69,5.44,16,15.64,16h13.6c8.5,0,13.26-5.1,13.26-13.43Z" transform="translate(-90.48 -75.73)"/><path d="M287.84,376.91V355.15c0-18.7,12.58-30.26,30.77-30.26h13.94c18.19,0,30.77,11.56,30.77,29.92H345.64c0-8.5-4.59-13.6-13.26-13.6h-13.6c-8.5,0-13.26,4.93-13.26,13.43v22.95c0,8.33,4.76,13.43,13.26,13.43h13.6c8.67,0,13.26-5.1,13.26-13.77h17.68c0,18.36-12.58,29.92-30.77,29.92H318.61C300.42,407.17,287.84,395.61,287.84,376.91Z" transform="translate(-90.48 -75.73)"/><path d="M456,293.27V406H439v-7.65c-4.42,5.78-11.39,8.84-19.72,8.84h-9.69c-18,0-30.77-11.56-30.77-30.26V355.15c0-18.7,12.75-30.26,30.77-30.26h9.69c8,0,14.79,2.89,19.21,8.16V293.27ZM439,375V357c0-9.69-5.44-15.81-15.64-15.81h-13.6c-8.5,0-13.26,4.93-13.26,13.43v22.95c0,8.33,4.76,13.43,13.26,13.43h13.6C433.53,391,439,384.73,439,375Z" transform="translate(-90.48 -75.73)"/><path d="M493.71,371.64v5.95c0,8.33,4.76,13.43,13.26,13.43h14.45c6.8,0,11.22-2.72,12.07-8.67h17.85c-1.19,16-13.94,24.82-30.6,24.82h-13.6c-18.19,0-30.77-11.56-30.77-30.26V355.15c0-18.7,12.58-30.26,30.77-30.26h13.6c18.19,0,30.77,11.56,30.77,30.26v16.49Zm0-17v3.23h40.46v-3.23c0-8.16-4.59-13.43-13.26-13.43H507C498.47,341.21,493.71,346.14,493.71,354.64Z" transform="translate(-90.48 -75.73)"/><path d="M594.35,321.83v4.25H611v15.47H594.35V406H576.67V341.55H563.75V326.08h12.92V322c0-18.7,10.54-29.24,29.24-29.24a39.62,39.62,0,0,1,6.8.51v15.64h-5.27C599.11,308.91,594.35,313.5,594.35,321.83Z" transform="translate(-90.48 -75.73)"/><path d="M700.09,326.08v84.83c0,14.62-11.05,24.65-26,24.65H648.41c-14.79,0-25.84-10-25.84-24.31h17c0,5.1,4.08,8.5,10,8.5h22.27c7,0,11-3.4,11-10.2V395.44c-4.59,5.78-11.39,8.84-19.72,8.84h-9.86c-18.19,0-30.77-11.73-30.77-30.26V355.15c0-18.7,12.58-30.26,30.77-30.26h9.86c8.33,0,15.13,3.06,19.72,8.84v-7.65Zm-17.17,46.07V357c0-9.69-5.61-15.81-15.81-15.81h-13.6c-8.5,0-13.26,4.93-13.26,13.43v19.89c0,8.5,4.76,13.43,13.26,13.43h13.6C677.31,388,682.92,381.84,682.92,372.15Z" transform="translate(-90.48 -75.73)"/><path d="M796.82,350.05V406H779.14v-52.7c0-8.16-3.74-12.07-12.07-12.07H756.7c-9.86,0-15.47,6.12-15.47,15.47V406H723.72V293.27h17.51v40c4.25-5.44,10.88-8.33,18.87-8.33h11.22C786.11,324.89,796.82,334.58,796.82,350.05Z" transform="translate(-90.48 -75.73)"/><path d="M818.41,303a10.63,10.63,0,0,1,21.25,0,10.63,10.63,0,0,1-21.25,0Zm2,23.12H838V406H820.45Z" transform="translate(-90.48 -75.73)"/><path d="M847.81,435.05V418.9h1.7c8,0,13.09-4.76,13.09-12.92v-79.9h17.51V406c0,18.53-9.86,29.24-28.9,29.24A26.45,26.45,0,0,1,847.81,435.05ZM860.56,303A10.72,10.72,0,0,1,882,303a10.71,10.71,0,0,1-21.42,0Z" transform="translate(-90.48 -75.73)"/><path d="M931.11,369.77l-9.35,9V406H904.25V293.27h17.51V358l32.13-32H976.5l-33,31.79L978.71,406H957.46Z" transform="translate(-90.48 -75.73)"/><path d="M990.61,293.27h17.51V406.15H990.61Z" transform="translate(-90.48 -75.73)"/><path d="M1152.62,350.05V406h-17.68v-52.7c0-8.16-3.57-12.07-11.9-12.07h-6.63c-9.86,0-15.47,6.12-15.47,15.47V406h-17.68v-52.7c0-8.16-3.57-12.07-11.9-12.07h-6.63c-9.86,0-15.47,6.12-15.47,15.47V406h-17.51v-79.9h17v7.82c4.25-5.78,11-9,19.38-9h7.31c9.35,0,17,3.74,21.42,10.54,4.42-6.8,12.07-10.54,21.42-10.54h8.84C1141.91,324.89,1152.62,334.58,1152.62,350.05Z" transform="translate(-90.48 -75.73)"/><path d="M1249,350.05V406h-17.68v-52.7c0-8.16-3.74-12.07-12.07-12.07h-10.37c-9.86,0-15.47,6.12-15.47,15.47V406h-17.51v-79.9h17v7.82c4.25-5.78,11-9,19.38-9h11.22C1238.3,324.89,1249,334.58,1249,350.05Z" transform="translate(-90.48 -75.73)"/><path d="M1268.73,376.91V355.15c0-18.7,12.58-30.26,30.77-30.26h16.32c18.19,0,30.77,11.56,30.77,30.26v21.76c0,18.7-12.58,30.26-30.77,30.26H1299.5C1281.31,407.17,1268.73,395.61,1268.73,376.91ZM1315.65,391c8.5,0,13.43-5.1,13.43-13.43V354.64c0-8.5-4.93-13.43-13.43-13.43h-16c-8.5,0-13.26,4.93-13.26,13.43v22.95c0,8.33,4.76,13.43,13.26,13.43Z" transform="translate(-90.48 -75.73)"/><path d="M1444.17,355.15v21.76c0,18.7-12.75,30.26-30.77,30.26h-9.69c-8,0-14.79-2.89-19.21-8.16v35.87H1367V326.08h17v7.65c4.42-5.78,11.39-8.84,19.72-8.84h9.69C1431.42,324.89,1444.17,336.45,1444.17,355.15Zm-17.68-.51c0-8.5-4.76-13.43-13.26-13.43h-13.6c-10.2,0-15.64,6.12-15.64,15.81v18c0,9.69,5.44,16,15.64,16h13.6c8.5,0,13.26-5.1,13.26-13.43Z" transform="translate(-90.48 -75.73)"/><path d="M1538.34,326.08v108.8h-17.51V399c-4.41,5.27-11.21,8.16-19.21,8.16h-9.68c-18,0-30.77-11.56-30.77-30.26V355.15c0-18.7,12.75-30.26,30.77-30.26h9.68c8.34,0,15.3,3.06,19.72,8.84v-7.65Zm-17,49V357c0-9.69-5.43-15.81-15.63-15.81h-13.6c-8.5,0-13.26,4.93-13.26,13.43v22.95c0,8.33,4.76,13.43,13.26,13.43h13.6C1515.91,391,1521.34,384.73,1521.34,375Z" transform="translate(-90.48 -75.73)"/><path d="M1606.34,325.57v18.19h-9.17c-12.08,0-17.68,6.63-17.68,18.36V406H1562v-79.9h17v12.24c2.9-7.31,10.88-13.09,22.28-13.09A35.87,35.87,0,0,1,1606.34,325.57Z" transform="translate(-90.48 -75.73)"/><path d="M1616.88,382.52h17.17c0,5.27,4.25,8.84,10.2,8.84h19c5.61,0,9.52-3.57,9.52-8.67s-3.91-8.67-9.52-8.67h-20.4c-14.45,0-25.33-10.54-25.33-24.65,0-14.45,10.88-24.48,25.5-24.48h19.21c15.13,0,25.67,10,25.67,24.48h-16.83c0-5.27-4.25-8.67-9.86-8.67h-17.51c-5.44,0-9.52,3.4-9.52,8.67,0,5.1,4.08,8.67,9.52,8.67h20.4c14.45,0,25.5,10.37,25.5,24.65,0,14.45-10.88,24.48-25.67,24.48h-21.08C1627.59,407.17,1616.88,397,1616.88,382.52Z" transform="translate(-90.48 -75.73)"/><path d="M1729.76,341.55V378.1c0,7.65,4.93,12.24,12.58,12.24h4.08v16a24.64,24.64,0,0,1-5.44.51c-18.87,0-28.9-10.88-28.9-28.73V341.55h-12.91V326.08h12.91V301.77h17.68v24.31h16.66v15.47Z" transform="translate(-90.48 -75.73)"/><path d="M1835.84,326.08V406h-17v-8.16c-4.25,6.12-11,9.35-19.55,9.35h-9.86c-15,0-25.5-9.69-25.5-25.16V326.08h17.51v52.7c0,8.16,3.74,12.24,12.07,12.24h9.18c10,0,15.47-6.29,15.47-15.64v-49.3Z" transform="translate(-90.48 -75.73)"/><path d="M1932.57,326.08,1900.44,406h-19.38l-31.79-79.9h18.53l23.29,59.5,23.29-59.5Z" transform="translate(-90.48 -75.73)"/><path d="M2062.28,326.08l-25.5,79.9h-18.36l-18.36-57-18.53,57h-18.36l-25.33-79.9h18.36l17.17,58,18.36-58h17l18.36,57.63,17.17-57.63Z" transform="translate(-90.48 -75.73)"/><path d="M2125.86,406l-18.7-28.39L2088.29,406h-19.72l28-41.14-26.35-38.76h19.89l17.34,26,17.17-26h19.55l-26.35,38.76L2145.92,406Z" transform="translate(-90.48 -75.73)"/><path d="M2229.22,326.08l-34.34,86.7c-7.14,17.85-11.22,22.1-28.22,22.1h-8.33V418.73h5.78c8.5,0,12.07-2,15.13-10l1.87-4.59-31.11-78h18.36L2190,381.33l21.42-55.25Z" transform="translate(-90.48 -75.73)"/><path d="M2304.36,342.23l-45.05,47.6h45.05V406H2237V389.83l45.39-47.6H2237V326.08h67.32Z" transform="translate(-90.48 -75.73)"/><path d="M2391.73,349.37V406h-16.15v-6.12c-3.57,4.59-9.18,7.14-16.66,7.14h-15.13c-14.79,0-25.67-10.88-25.67-25s10.88-24.14,25.5-24.14h31.28V349.2c0-5.1-3.57-8.33-9-8.33H2347c-5.27,0-9.18,3.23-9.18,8.33h-17c0-14.28,10.88-24.31,25.33-24.31h20.57C2381.19,324.89,2391.73,335.09,2391.73,349.37Zm-16.83,22.95h-29.75c-6.46,0-10.2,4.42-10.2,9.35s3.74,9.35,10.2,9.35h18.7c7.14,0,11.05-3.57,11.05-8.84Zm-37.06-73.44c0-10,8.16-18.53,19.21-18.53a18.8,18.8,0,0,1,19,18.53c0,10-8.33,18.36-19,18.36C2346,317.24,2337.84,308.91,2337.84,298.88Zm9.86,0a9.27,9.27,0,1,0,18.53,0,9.27,9.27,0,1,0-18.53,0Z" transform="translate(-90.48 -75.73)"/><path d="M2484.21,349.37V406h-16.15v-6.12c-3.57,4.59-9.18,7.14-16.66,7.14h-15.13c-14.79,0-25.67-10.88-25.67-25s10.88-24.14,25.5-24.14h31.28V349.2c0-5.1-3.57-8.33-9-8.33H2439.5c-5.27,0-9.18,3.23-9.18,8.33h-17c0-14.28,10.88-24.31,25.33-24.31h20.57C2473.67,324.89,2484.21,335.09,2484.21,349.37Zm-62.05-46.07a10.63,10.63,0,0,1,21.25,0,10.63,10.63,0,0,1-21.25,0Zm45.22,69h-29.75c-6.46,0-10.2,4.42-10.2,9.35s3.74,9.35,10.2,9.35h18.7c7.14,0,11.05-3.57,11.05-8.84Zm-11.73-69a10.63,10.63,0,1,1,10.71,10.54A10.74,10.74,0,0,1,2455.65,303.3Z" transform="translate(-90.48 -75.73)"/><path d="M2504.1,376.91V355.15c0-18.7,12.58-30.26,30.77-30.26h16.32c18.19,0,30.77,11.56,30.77,30.26v21.76c0,18.7-12.58,30.26-30.77,30.26h-16.32C2516.68,407.17,2504.1,395.61,2504.1,376.91Zm11.73-73.61a10.63,10.63,0,0,1,21.25,0,10.63,10.63,0,0,1-21.25,0ZM2551,391c8.5,0,13.43-5.1,13.43-13.43V354.64c0-8.5-4.93-13.43-13.43-13.43h-16c-8.5,0-13.26,4.93-13.26,13.43v22.95c0,8.33,4.76,13.43,13.26,13.43Zm-1.7-87.72A10.63,10.63,0,1,1,2560,313.84,10.74,10.74,0,0,1,2549.32,303.3Z" transform="translate(-90.48 -75.73)"/><path d="M2660.16,313.33h-18.53v-15h36.72V406h-18.19Z" transform="translate(-90.48 -75.73)"/><path d="M2727.14,389h64.09v17h-82.79V395.1c0-18.7,5.44-28.56,22.27-36l24.14-10.71c12.58-5.78,19.38-10.71,19.38-20.23,0-8.5-4.93-13.94-14.11-13.94H2740.4c-7.65,0-13.26,5.44-13.26,13.77h-17.68c0-18.36,13.6-30.6,31.79-30.6h18.87c18.36,0,31.79,12.75,31.79,31.28,0,19-15,27.37-29.24,33.83l-21.08,9.35C2731.05,376.57,2727.82,381,2727.14,389Z" transform="translate(-90.48 -75.73)"/><path d="M2895.27,375.72c0,18.36-13.77,31.28-32.47,31.28h-22.1c-18.7,0-32.47-12.92-32.47-31.28h17.68c0,8.84,6,14.45,14.45,14.45h22.95c8.67,0,14.45-6.12,14.45-14.79,0-8.84-5.78-15.13-14.45-15.13h-22.44V343.76h20.06c8.33,0,14.28-6.12,14.28-15,0-8.5-5.78-14.62-14.28-14.62h-19c-7.82,0-13.43,5.78-13.43,14.11h-17.68c0-18.36,13.6-30.94,32.3-30.94h17.17c18.7,0,32.47,12.92,32.47,31.11,0,9.52-3.91,17.34-10.37,22.61C2890.34,355.83,2895.27,364.84,2895.27,375.72Z" transform="translate(-90.48 -75.73)"/><path d="M3001.18,382.35h-15.81V406h-17.85V382.35h-56.27V365.52l42-67.15h20.57l-42.16,67.15h35.87V337.64h17.85v27.88h15.81Z" transform="translate(-90.48 -75.73)"/><path d="M3099.43,366.54v9.69c0,18-13.6,30.77-32.64,30.77h-19c-18.87,0-32.29-12.58-32.29-30.26h17.85c0,8,5.61,13.43,13.6,13.43h20.73c8.16,0,13.94-5.78,13.94-14.11v-9.18c0-8.33-5.61-14.11-13.94-14.11h-19.55c-7.47,0-11.38,2.38-13.42,8h-16.15V298.37h75V315.2h-58v27.54c3.4-4.59,9.18-6.8,17.33-6.8H3067C3085.83,335.94,3099.43,348.69,3099.43,366.54Z" transform="translate(-90.48 -75.73)"/><path d="M3201.43,364v11.73c0,18.7-13.94,31.28-32.64,31.28h-18.7c-18.7,0-32.64-12.58-32.64-31.28V364a31.89,31.89,0,0,1,5.61-18.53l34-47.09h20.4l-25,34.34h16.32C3187.49,332.71,3201.43,345.29,3201.43,364Zm-17.85,0c0-8.67-5.78-14.45-13.94-14.45h-20.4c-8.16,0-13.94,5.78-13.94,14.45v11.73c0,8.67,5.78,14.45,13.94,14.45h20.4c8.16,0,13.94-5.78,13.94-14.45Z" transform="translate(-90.48 -75.73)"/><path d="M3294.59,298.37v15.3l-53,92.31h-20.4l52.53-90.78h-63.07V298.37Z" transform="translate(-90.48 -75.73)"/><path d="M3395.4,375.72c0,18.19-13.6,31.28-32.47,31.28h-22.1c-18.87,0-32.47-13.09-32.47-31.28,0-11.05,5.27-19.89,13.77-24.82a27.81,27.81,0,0,1-10.88-22.61c0-18,13.6-30.94,32.47-30.94H3360c18.87,0,32.47,12.92,32.47,30.94a27.81,27.81,0,0,1-10.88,22.61C3390.13,355.83,3395.4,364.67,3395.4,375.72Zm-17.51-.68c0-9-5.78-15.3-14.45-15.3h-23.12c-8.67,0-14.45,6.29-14.45,15.3s5.78,15.47,14.45,15.47h23.12C3372.11,390.51,3377.89,384.05,3377.89,375ZM3328.76,329c0,8.84,5.78,15,14.28,15h17.68c8.5,0,14.28-6.12,14.28-15s-5.78-15.13-14.28-15.13H3343C3334.54,313.84,3328.76,320.13,3328.76,329Z" transform="translate(-90.48 -75.73)"/><path d="M3495.53,328.63v11.73a31.89,31.89,0,0,1-5.61,18.53l-34,47.09h-20.4l25-34.34h-16.32c-18.7,0-32.64-12.58-32.64-31.28V328.63c0-18.7,13.94-31.28,32.64-31.28h18.7C3481.59,297.35,3495.53,309.93,3495.53,328.63Zm-17.85,0c0-8.67-5.78-14.45-13.94-14.45h-20.4c-8.16,0-13.94,5.78-13.94,14.45v11.73c0,8.67,5.78,14.45,13.94,14.45h20.4c8.16,0,13.94-5.78,13.94-14.45Z" transform="translate(-90.48 -75.73)"/><path d="M3513.89,375.72V328.63c0-18.7,13.94-31.28,32.64-31.28h18.7c18.7,0,32.64,12.58,32.64,31.28v47.09c0,18.7-13.94,31.28-32.64,31.28h-18.7C3527.83,407,3513.89,394.42,3513.89,375.72Zm52.19,14.45c8.16,0,13.94-5.78,13.94-14.45V328.63c0-8.67-5.78-14.45-13.94-14.45h-20.4c-8.16,0-13.94,5.78-13.94,14.45v47.09c0,8.67,5.78,14.45,13.94,14.45Z" transform="translate(-90.48 -75.73)"/></svg>