<svg id="Fjällräven" xmlns="http://www.w3.org/2000/svg" viewBox="0 0 104.96 123.36"><title>Fjallraven-Quick-Preview</title><path d="M195.37,199.34c0,9.28-6.88,16.64-16.48,16.64-7.52,0-13.44-4.16-15.84-10.88l-2.24-6.56H125l-2.24,6.56A16.11,16.11,0,0,1,107.05,216c-9.92,0-16.64-7.36-16.64-16.64a21,21,0,0,1,1.6-8l31.2-73.76c3.52-8.16,9.44-13.6,19.68-13.6s16.32,5.44,19.84,13.6l31,73.76A21,21,0,0,1,195.37,199.34Zm-84.32-98.72a8.16,8.16,0,1,1,8.16,8A8,8,0,0,1,111.05,100.62Zm40.16,70.88L142.89,148l-8.32,23.52Zm7.2-70.88a8.16,8.16,0,1,1,8.16,8A8,8,0,0,1,158.41,100.62Z" transform="translate(-90.41 -92.62)"/></svg>