<svg id="Fjällräven" xmlns="http://www.w3.org/2000/svg" viewBox="0 0 3011.02 134.73"><title>Fjallraven-01</title><path d="M195.37,199.34c0,9.28-6.88,16.64-16.48,16.64-7.52,0-13.44-4.16-15.84-10.88l-2.24-6.56H125l-2.24,6.56A16.11,16.11,0,0,1,107.05,216c-9.92,0-16.64-7.36-16.64-16.64a21,21,0,0,1,1.6-8l31.2-73.76c3.52-8.16,9.44-13.6,19.68-13.6s16.32,5.44,19.84,13.6l31,73.76A21,21,0,0,1,195.37,199.34ZM151.21,171.5,142.89,148l-8.32,23.52Z" transform="translate(-90.41 -84.3)"/><path d="M290.89,183.66c0,20.48-17.44,32.32-38.56,32.32h-32a16.8,16.8,0,0,1-16.8-16.8v-78.4a16.8,16.8,0,0,1,16.8-16.8h30.4c22.56,0,38.4,11.84,38.4,32.16a29.33,29.33,0,0,1-10.88,23.2A29,29,0,0,1,290.89,183.66ZM237.13,148h11.36c5.76,0,8.48-3.36,8.48-7.52s-2.72-7.52-8.48-7.52H237.13Zm20.16,31.36c0-4.16-2.88-7.68-8.64-7.68H237.13V187h11.52C254.41,187,257.29,183.5,257.29,179.34Z" transform="translate(-90.41 -84.3)"/><path d="M297.44,160c0-32,24.81-57.6,57.29-57.6,14.24,0,27.36,3.84,37.76,13,4.32,3.84,6.08,8.32,6.08,12.48,0,8.8-7.2,16.8-16.48,16.8a16.48,16.48,0,0,1-8.64-2.4c-5.76-3.52-10.56-6.24-18.72-6.24-13.6,0-23.52,10.56-23.52,24s9.92,24,23.52,24c8.16,0,13-2.72,18.72-6.24a16.24,16.24,0,0,1,8.64-2.24,16.7,16.7,0,0,1,16.48,16.64c0,4.32-1.76,8.64-6.08,12.48-10.4,9.12-23.52,13-37.76,13C322.25,217.58,297.44,192,297.44,160Z" transform="translate(-90.41 -84.3)"/><path d="M509.76,160a55.58,55.58,0,0,1-55.68,56H425.76a16.8,16.8,0,0,1-16.8-16.8v-78.4a16.8,16.8,0,0,1,16.8-16.8h28.32C485.44,104,509.76,129.1,509.76,160Zm-33.6,0c0-12.48-9.44-22.4-22.08-22.4H442.56v44.8h11.52C466.72,182.38,476.16,172.46,476.16,160Z" transform="translate(-90.41 -84.3)"/><path d="M599.84,200.14A15.77,15.77,0,0,1,584,216H537.76a16.8,16.8,0,0,1-16.8-16.8v-78.4a16.8,16.8,0,0,1,16.8-16.8H584a15.76,15.76,0,1,1,0,31.52H554.56v10.4h24.16a13.6,13.6,0,1,1,0,27.2H554.56v11.36H584A15.74,15.74,0,0,1,599.84,200.14Z" transform="translate(-90.41 -84.3)"/><path d="M643,135.5v11.2H667.2a13.6,13.6,0,0,1,0,27.2H643v25.28a16.8,16.8,0,0,1-33.6,0v-78.4a16.8,16.8,0,0,1,16.8-16.8h46.24a15.76,15.76,0,1,1,0,31.52Z" transform="translate(-90.41 -84.3)"/><path d="M798.73,167.34c0,29.28-21.61,50.24-52,50.24A57.12,57.12,0,0,1,689.28,160c0-32,24.8-57.6,57.28-57.6,14.24,0,27.37,3.84,37.77,13,4.32,3.84,6.08,8.32,6.08,12.64,0,9-7.36,16.64-16.33,16.64a17.07,17.07,0,0,1-8.8-2.4c-5.76-3.52-10.4-6.24-18.72-6.24C733,136,723,146.7,723,160.46c0,14.88,9.28,26.88,24,26.88,9.28,0,15.52-4,18.88-9.12h-16a13.28,13.28,0,1,1,0-26.56h35.69C793.13,151.66,798.73,158.86,798.73,167.34Z" transform="translate(-90.41 -84.3)"/><path d="M902.72,120.78v78.4a16.8,16.8,0,0,1-33.6,0V175.5H842.56v23.68a16.8,16.8,0,1,1-33.6,0v-78.4a16.8,16.8,0,1,1,33.6,0V144h26.56v-23.2a16.8,16.8,0,0,1,33.6,0Z" transform="translate(-90.41 -84.3)"/><path d="M950.4,120.78v78.4a16.8,16.8,0,1,1-33.6,0v-78.4a16.8,16.8,0,1,1,33.6,0Z" transform="translate(-90.41 -84.3)"/><path d="M964.16,206.7a16.52,16.52,0,0,1-5-11.68A16,16,0,0,1,975,179a17.42,17.42,0,0,1,8.8,2.4c4.16,2.24,7.2,4.16,12.16,4.16,4.64,0,7.84-2.56,7.84-7.68V120.78a16.8,16.8,0,0,1,33.6,0v57.28c0,20.8-15.2,39.36-41.28,39.36C981.12,217.42,970.4,212.94,964.16,206.7Z" transform="translate(-90.41 -84.3)"/><path d="M1143.68,199.18a16.69,16.69,0,0,1-16.8,16.8,17,17,0,0,1-13.92-7.36l-20.64-29.44-8.16,8.64v11.36a16.8,16.8,0,0,1-33.6,0v-78.4a16.8,16.8,0,0,1,33.6,0v19.84l28-31A16.82,16.82,0,1,1,1137,132.3l-21.76,22.88,25.12,33.92A17,17,0,0,1,1143.68,199.18Z" transform="translate(-90.41 -84.3)"/><path d="M1230.24,200.14A15.77,15.77,0,0,1,1214.4,216h-44.32a16.8,16.8,0,0,1-16.8-16.8v-78.4a16.8,16.8,0,0,1,33.6,0v63.68h27.52A15.74,15.74,0,0,1,1230.24,200.14Z" transform="translate(-90.41 -84.3)"/><path d="M1350.88,120.3v79.36a16.32,16.32,0,0,1-32.64,0V167l-12.64,20.32a13,13,0,0,1-22.4,0L1270.56,167v32.64a16.32,16.32,0,0,1-32.64,0V120.3A16.36,16.36,0,0,1,1254.56,104c8.64,0,13.12,4.64,16.8,10.72l23,38.56,23.2-38.56c3.68-6.08,8-10.72,16.64-10.72A16.36,16.36,0,0,1,1350.88,120.3Z" transform="translate(-90.41 -84.3)"/><path d="M1458.72,120.78v78.4a16.56,16.56,0,0,1-16.64,16.8c-6.4,0-11.68-3.68-14.88-8.48l-28.64-43.36v35a16.8,16.8,0,1,1-33.6,0v-78.4a16.8,16.8,0,0,1,16.8-16.8c6.88,0,11.52,3.68,14.72,8.48l28.64,42.88V120.78a16.8,16.8,0,1,1,33.6,0Z" transform="translate(-90.41 -84.3)"/><path d="M1469.92,160c0-31.68,25-57.6,57.28-57.6s57.28,25.92,57.28,57.6-25,57.6-57.28,57.6S1469.92,191.66,1469.92,160Zm81,0c0-13.44-10.08-24-23.68-24s-23.68,10.56-23.68,24,10.08,24,23.68,24S1550.88,173.42,1550.88,160Z" transform="translate(-90.41 -84.3)"/><path d="M1683.68,143.34c0,24.8-19,39.36-42.4,39.36h-12v16.48a16.81,16.81,0,0,1-33.61,0v-78.4a16.81,16.81,0,0,1,16.81-16.8h28.8C1664.64,104,1683.68,118.54,1683.68,143.34Zm-33.6,0c0-4.64-3.2-8.48-9.6-8.48h-11.2v17h11.2C1646.88,151.82,1650.08,148,1650.08,143.34Z" transform="translate(-90.41 -84.3)"/><path d="M1796,209.58a5.36,5.36,0,0,1-.64,8,6.39,6.39,0,0,1-8.64-.48l-7.2-8.48a57.87,57.87,0,0,1-31,9c-32.32,0-57.28-25.92-57.28-57.6s25-57.6,57.28-57.6,57.29,25.92,57.29,57.6a57.92,57.92,0,0,1-17,41.12Zm-38.57-27.2L1749,172.3a5.36,5.36,0,0,1,.79-8c2.56-2.08,6.56-2.08,8.64.48l8.65,10.4a24.85,24.85,0,0,0,5.12-15.2c0-13.44-10.08-24-23.69-24s-23.68,10.56-23.68,24,10.08,24,23.68,24A27,27,0,0,0,1757.43,182.38Z" transform="translate(-90.41 -84.3)"/><path d="M1901.91,189.26c8,10.88.64,26.88-13.44,26.88a17,17,0,0,1-13.92-7.36l-22.4-32h-1.6v22.4a16.8,16.8,0,0,1-33.6,0v-78.4a16.8,16.8,0,0,1,16.8-16.8H1864c22.88,0,41.92,13.76,41.92,37.28,0,13.6-7,23.84-17.6,29.6Zm-51.36-38.4h12.64c5.92,0,9.12-3.84,9.12-8,0-4.48-3.2-8-9.12-8h-12.64Z" transform="translate(-90.41 -84.3)"/><path d="M1914.71,202.06a16.11,16.11,0,0,1-2.72-8.8c0-8.32,7.2-14.88,15.36-14.88a16.79,16.79,0,0,1,10.56,4c5.12,4.32,9.44,6.88,14.56,6.88,4.48,0,7.84-2.4,7.84-6.56s-2.72-6.4-9.28-7.84l-6.4-1.44c-21.92-5-33-17.28-33-35.84,0-19.52,17.6-35.2,39.84-35.2,21.28,0,30.88,8.8,34.88,14.72a16.88,16.88,0,0,1,2.88,9c0,8.16-6.88,14.72-15.36,14.72a17.33,17.33,0,0,1-11-4.16c-5.12-4.32-8.32-5.92-12.8-5.92-4.64,0-7.52,2.56-7.52,6.56,0,3.52,2.72,5.92,9.12,7.36l6.56,1.44c22.24,4.8,33,17.92,33,36.16,0,19.68-17.92,35.36-40.32,35.36C1929,217.58,1918.55,208,1914.71,202.06Z" transform="translate(-90.41 -84.3)"/><path d="M2092.79,119.66A15.77,15.77,0,0,1,2077,135.5h-16.48v63.68a16.8,16.8,0,1,1-33.6,0V135.5h-16.48a15.76,15.76,0,0,1,0-31.52H2077A15.74,15.74,0,0,1,2092.79,119.66Z" transform="translate(-90.41 -84.3)"/><path d="M2193.59,120.78V172c0,25.12-19,45.6-46.88,45.6s-46.88-20.48-46.88-45.6v-51.2a16.8,16.8,0,1,1,33.6,0v48.16c0,9.92,6.08,15,13.28,15,7.36,0,13.28-5.12,13.28-15V120.78a16.8,16.8,0,0,1,33.6,0Z" transform="translate(-90.41 -84.3)"/><path d="M2304.15,128.62,2273,202.38c-3.52,8.16-9.44,13.6-19.68,13.6s-16.32-5.44-19.84-13.6l-31-73.76c-5.12-12.32,2.88-24.64,15-24.64a16.52,16.52,0,0,1,16,10.88l19.84,50.4,19.84-50.4A16.46,16.46,0,0,1,2289,104C2301.59,104,2309.27,116.62,2304.15,128.62Z" transform="translate(-90.41 -84.3)"/><path d="M2462.07,126.54,2436,201.74c-2.88,8.32-9.44,14.24-19.68,14.24s-17.12-5.92-19.52-14.08l-10.4-35.68-10.56,35.68c-2.4,8.16-9.28,14.08-19.52,14.08s-16.8-5.92-19.68-14.24l-26.08-75.2c-3.68-10.56,3.52-22.56,15.52-22.56a16.47,16.47,0,0,1,16.16,12l13.92,51,14.08-51a16.67,16.67,0,0,1,32,0l14.24,51,13.92-51a16.47,16.47,0,0,1,16.16-12C2458.55,104,2465.75,116,2462.07,126.54Z" transform="translate(-90.41 -84.3)"/><path d="M2569.27,199a16.82,16.82,0,0,1-29.76,10.88l-20-23.84-20,23.84a16.61,16.61,0,0,1-12.8,6.08,16.79,16.79,0,0,1-16.8-16.8,17.38,17.38,0,0,1,3.84-10.88L2497.59,160l-23.84-28.32a17.38,17.38,0,0,1-3.84-10.88,16.89,16.89,0,0,1,16.8-16.8,16.61,16.61,0,0,1,12.8,6.08l20,23.84,20-23.84a16.61,16.61,0,0,1,12.8-6.08,16.8,16.8,0,0,1,16.8,16.8,17.38,17.38,0,0,1-3.84,10.88L2541.43,160l23.84,28.32A16.56,16.56,0,0,1,2569.27,199Z" transform="translate(-90.41 -84.3)"/><path d="M2672.62,128.62l-31.36,47.68v22.88a16.8,16.8,0,0,1-33.6,0V175.66l-30.72-47a16.33,16.33,0,0,1-2.56-8.64c0-8.8,7.84-16,17.28-16,7.52,0,12,4.16,16,10.88l17.12,28.48,17.12-28.48c4-6.72,8.48-10.88,15.85-10.88,9.75,0,17.44,7.36,17.44,16A16.34,16.34,0,0,1,2672.62,128.62Z" transform="translate(-90.41 -84.3)"/><path d="M2768.3,200.14A15.77,15.77,0,0,1,2752.46,216h-57.12a15.74,15.74,0,0,1-15.68-15.84,17,17,0,0,1,3.52-9.92l40-54.72h-27.84a15.76,15.76,0,0,1,0-31.52h57.12a15.74,15.74,0,0,1,15.84,15.68,15.41,15.41,0,0,1-3.2,9.6l-40.48,55.2h27.84A15.74,15.74,0,0,1,2768.3,200.14Z" transform="translate(-90.41 -84.3)"/><path d="M2877.58,199.34c0,9.28-6.88,16.64-16.48,16.64-7.52,0-13.44-4.16-15.84-10.88l-2.24-6.56h-35.84l-2.24,6.56A16.11,16.11,0,0,1,2789.26,216c-9.92,0-16.64-7.36-16.64-16.64a21,21,0,0,1,1.6-8l31.2-73.76c2.24-5,5.28-9,9.6-11.36a13.44,13.44,0,1,1,20.16,0c4.32,2.4,7.36,6.4,9.6,11.36l31.2,73.76A21,21,0,0,1,2877.58,199.34Zm-44.16-27.84L2825.1,148l-8.32,23.52Zm-14.56-74.08a6.24,6.24,0,1,0,6.24-6.24A6.15,6.15,0,0,0,2818.86,97.42Z" transform="translate(-90.41 -84.3)"/><path d="M2986.38,199.34c0,9.28-6.88,16.64-16.48,16.64-7.52,0-13.44-4.16-15.84-10.88l-2.24-6.56H2916l-2.24,6.56A16.11,16.11,0,0,1,2898.06,216c-9.92,0-16.64-7.36-16.64-16.64a21,21,0,0,1,1.6-8l31.2-73.76c3.52-8.16,9.44-13.6,19.68-13.6s16.32,5.44,19.84,13.6l31,73.76A21,21,0,0,1,2986.38,199.34Zm-84.32-98.72a8.16,8.16,0,1,1,8.16,8A8,8,0,0,1,2902.06,100.62Zm40.16,70.88L2933.9,148l-8.32,23.52Zm7.2-70.88a8.16,8.16,0,1,1,8.16,8A8,8,0,0,1,2949.42,100.62Z" transform="translate(-90.41 -84.3)"/><path d="M2986.86,160c0-31.68,25-57.6,57.28-57.6s57.28,25.92,57.28,57.6-25,57.6-57.28,57.6S2986.86,191.66,2986.86,160Zm14.56-61a8.16,8.16,0,1,1,8.16,8A8,8,0,0,1,3001.42,99Zm66.4,61c0-13.44-10.08-24-23.68-24s-23.68,10.56-23.68,24,10.08,24,23.68,24S3067.82,173.42,3067.82,160Zm2.72-61a8.16,8.16,0,1,1,8.16,8A8,8,0,0,1,3070.54,99Z" transform="translate(-90.41 -84.3)"/></svg>