<svg id="Lager_8" data-name="Lager 8" xmlns="http://www.w3.org/2000/svg" viewBox="0 0 174.41 289.9"><title>Forsvarsmakten-Quick-Preview</title><path d="M447.67,339V321.68c0-24,10.21-44.78,29.07-58.92C462.2,249.8,454,231.33,454,210.51v-8.64c0-40.85,28.29-72.28,75.82-74.24v47.53c-16.11,2-23.18,14.14-23.18,29.07v9.82c0,16.5,9,29.85,28.28,29.85s28.29-13.35,28.29-29.85v-9.82c0-14.93-7.07-27.11-23.18-29.07V127.63c47.53,2,75.82,33,75.82,74.24v8.64c0,20.82-8.25,39.29-22.79,52.25,18.86,14.14,29.07,35,29.07,58.92V339c0,43.6-30.64,76.2-82.1,78.56V370c20-2,29.46-15.71,29.46-33.39V321.29c0-18.86-11-33.78-34.57-33.78s-34.56,14.92-34.56,33.78v15.32c0,17.68,9,31.43,29.46,33.39v47.53C478.31,415.17,447.67,382.18,447.67,339Z" transform="translate(-447.67 -127.63)"/></svg>