<?xml version="1.0" encoding="UTF-8"?> <svg xmlns="http://www.w3.org/2000/svg" id="Tele2_Slab_kopia_2" data-name="Tele2 Slab kopia 2" viewBox="0 0 400.06 267.5"><title>Klarna_QP</title><path d="M499.18,241.94v6c0,66.57-44.49,114-106.88,114-62.1,0-110.47-47.17-110.47-108.37,0-60.91,48.37-108.38,110.17-108.38,32.24,0,63,13.14,81.2,34.64L440.36,209.4c-13.43-14.93-29.85-22.39-49-22.39-37,0-65.38,28.66-65.38,66.58,0,37.62,28.36,66.58,65.08,66.58,27.77,0,51.35-16.42,58.22-38.82h-60V241.94Z" transform="translate(-281.83 -145.21)"></path><path d="M660.69,257.17c5.08,12.54,7.76,27.77,7.76,45.68,0,49.56-21.49,109.87-94.64,109.87-11.34,0-21.49-1.49-26.87-3V372.11a101.65,101.65,0,0,0,25.38,3c24.18,0,45.08-7.46,52.54-33.74-8.65,8.06-21.79,11.95-36.12,11.95-41.5,0-72-30.76-72-70.17,0-40.3,32.24-72.54,75.53-72.54,16.42,0,31.35,4.47,43.89,13.73,3.58-6,6-13.73,6-24.48h39.71C681.89,224.33,673.83,241.65,660.69,257.17Zm-34.33,25.38c0-19.11-14.33-34.63-34.93-34.63s-34.93,15.52-34.93,34.63,14.33,34.63,34.93,34.63S626.36,301.66,626.36,282.55Z" transform="translate(-281.83 -145.21)"></path></svg> 