<?xml version="1.0" encoding="UTF-8"?> <svg xmlns="http://www.w3.org/2000/svg" id="Tele2_Slab_kopia_2" data-name="Tele2 Slab kopia 2" viewBox="0 0 3545.4 344.76"><title>Klarna-01</title><path d="M176,216l-10.72-29c-4,2.08-9.6,3.84-17.6,5.28l-9.12,1.6c-13.44,2.4-18.56,6.08-22.88,17.44L113.93,216H91.37l41.28-112h25.28l41.28,112Zm-17.76-48.16L145,131.66l-16.32,44.16a59.79,59.79,0,0,1,8.48-2.08l6.56-1.12C150.57,171.34,155.21,169.74,158.25,167.82Z" transform="translate(-91.37 -67.5)"></path><path d="M300.33,185.1c0,18.88-14.88,30.88-38.56,30.88h-47V104h44.32c21.6,0,35.68,11.68,35.68,29.28a27,27,0,0,1-10.88,22.24C295.05,164.14,300.33,173.74,300.33,185.1Zm-62.88-60.64V156c3.84-3,9.28-5.6,17-8l5.6-1.76c8.64-2.72,12.16-6.24,12.16-11.84,0-6.72-5.12-9.92-15.68-9.92Zm40,58.24c0-7-5.28-13.44-14.24-17.6l-3.52,1.12c-17.92,5.6-22.24,10.56-22.24,25.44v3.84h20.8C270.41,195.5,277.45,190.7,277.45,182.7Z" transform="translate(-91.37 -67.5)"></path><path d="M312.65,160c0-32.48,25.28-58.08,58.72-58.08,23.52,0,44.48,12.64,52.48,33.28l-22.24,7.68c-5.44-11.2-17.44-18.56-30.72-18.56-19.36,0-34.56,15.68-34.56,35.68s15.2,35.68,34.56,35.68c13.28,0,25.28-7.36,30.72-18.56l22.24,7.68c-8,20.64-29,33.28-52.48,33.28C337.93,218.06,312.65,192.46,312.65,160Z" transform="translate(-91.37 -67.5)"></path><path d="M537.93,160c0,32.16-24.16,56-58.25,56h-37V104h37C513.77,104,537.93,127.66,537.93,160Zm-23.68,0c0-20.16-13.45-34.24-34.57-34.24H465.76v68.48h13.92C500.8,194.22,514.25,180.14,514.25,160Z" transform="translate(-91.37 -67.5)"></path><path d="M628.48,194.86V216H557.6V104h70.24V125.1h-47.2v27.52c6.56-3.68,14.56-5.6,23.68-5.6h7.52v21.44h-6.56c-15.84,0-24.64,6.56-24.64,21v5.44Z" transform="translate(-91.37 -67.5)"></path><path d="M673.76,125.1v27.52c6.56-3.68,14.56-5.6,23.68-5.6H705v21.44H698.4c-15.84,0-24.64,6.56-24.64,21V216h-23V104H721V125.1Z" transform="translate(-91.37 -67.5)"></path><path d="M845,153.74v3.2c0,35.68-23.84,61.12-57.28,61.12-33.28,0-59.2-25.28-59.2-58.08,0-32.64,25.92-58.08,59-58.08,17.28,0,33.76,7,43.52,18.56l-17.6,15.84c-7.2-8-16-12-26.24-12-19.84,0-35,15.36-35,35.68,0,20.16,15.2,35.68,34.88,35.68,14.88,0,27.52-8.8,31.2-20.8H786.08V153.74Z" transform="translate(-91.37 -67.5)"></path><path d="M947.68,104V216h-23V161.42a120,120,0,0,1-11.52,5.12L901.92,171c-11.84,4.8-16.48,7.84-16.48,16.48V216h-23V104h23v51A120,120,0,0,1,897,149.9l11.2-4.48c11.84-4.8,16.48-7.84,16.48-16.48V104Z" transform="translate(-91.37 -67.5)"></path><path d="M974.56,104h23V216h-23Z" transform="translate(-91.37 -67.5)"></path><path d="M1012.16,195.5l20-10.88A17.07,17.07,0,0,0,1048.48,196c9.28,0,15.2-6.56,15.2-16.48V104h23v76.8c0,21.28-16.32,37-38.4,37C1032.16,217.74,1018.4,209.26,1012.16,195.5Z" transform="translate(-91.37 -67.5)"></path><path d="M1151.19,179.18a118.19,118.19,0,0,1-15,6.56V216h-23V104h23V161.9c27.37-11.52,39.37-35.84,39.37-57.92h22.88a82.89,82.89,0,0,1-28.32,62.56L1206.4,216h-28.32Z" transform="translate(-91.37 -67.5)"></path><path d="M1286.08,194.86V216h-65.45V104h23v90.88Z" transform="translate(-91.37 -67.5)"></path><path d="M1407.67,216l-6.56-73.12c-9.76,13.76-22.08,48-25.76,73.12h-17.6c-3.68-25.12-16-59.36-25.76-73.12L1325.43,216h-23.36l11.68-112h2.56c18.24,0,39,25.76,50.24,61.28,11.68-35.52,32.32-61.28,50.24-61.28h2.56L1431,216Z" transform="translate(-91.37 -67.5)"></path><path d="M1544.15,104V216H1524c-6.56-28.32-26.56-60.8-47.2-77v77h-23V104h3.84c19.68,0,44.64,20.16,63.52,50.72V104Z" transform="translate(-91.37 -67.5)"></path><path d="M1563.83,160a58.4,58.4,0,1,1,58.4,58.08A57.94,57.94,0,0,1,1563.83,160Zm93.12,0c0-19.84-15-35.68-34.72-35.68s-34.72,15.84-34.72,35.68,15,35.68,34.72,35.68S1657,179.82,1657,160Z" transform="translate(-91.37 -67.5)"></path><path d="M1781.75,138.38c0,18.4-10.08,28.16-29,34.72l-6.88,2.4c-16,5.6-22.56,9-22.56,26.72V216h-23V104h41.6C1767.83,104,1781.75,117.74,1781.75,138.38Zm-22.88-.32c0-8.32-5.92-13-17.44-13h-18.08v37.44c4.32-3.36,9.76-5.44,15.68-7.2l4.8-1.44C1754.71,150.7,1758.87,145.42,1758.87,138.06Z" transform="translate(-91.37 -67.5)"></path><path d="M1897,197.1a59,59,0,0,1,9.6,32.64h-21.76a38.67,38.67,0,0,0-4.48-18.88,58.8,58.8,0,0,1-28.48,7.2,57.84,57.84,0,1,1,45.12-21Zm-45.12-1.44a33.35,33.35,0,0,0,13.92-2.88c-1.76-1.76-3.52-3.52-5.6-5.28L1847.51,176l14.56-15.84,13.92,12.8c2.08,1.92,4,3.68,5.76,5.44a37.07,37.07,0,0,0,4.8-18.4c0-19.84-15-35.68-34.72-35.68s-34.72,15.84-34.72,35.68S1832.15,195.66,1851.83,195.66Z" transform="translate(-91.37 -67.5)"></path><path d="M1992.31,216,1972,177.1c-15.52,5.6-19,10.88-19,24.32V216h-23V104h42.72c25.12,0,39.84,12.8,39.84,34.72,0,14.08-6.08,23.84-19.36,30.56L2017.75,216Zm-22.72-60.32,4.8-1.6c10.56-3.52,15.2-8.16,15.2-15.68,0-8.64-6.08-13.28-17.44-13.28H1953v38.24C1956.79,160.46,1962.07,158.22,1969.59,155.66Z" transform="translate(-91.37 -67.5)"></path><path d="M2027.83,200.14l15-15.2c4.48,5.76,11.84,12,21.6,12,9.12,0,15.36-5.44,15.36-14.08,0-9.28-7.36-11.52-19-14.88-21.44-6.24-30.08-17.44-30.08-31.84,0-18.08,13.76-33.76,35.52-33.76,13.76,0,26.4,6.4,32,18.88l-18.08,11.36c-3.36-5.6-8.16-9.28-14.56-9.28-7.52,0-12.32,5.12-12.32,11.68,0,7.84,6.88,10.24,17.92,13.44,17.28,5.12,31.36,13.76,31.36,33.6,0,21.44-16.64,36-38.4,36A44.64,44.64,0,0,1,2027.83,200.14Z" transform="translate(-91.37 -67.5)"></path><path d="M2141.27,125.1h-28V104h79V125.1h-28V216h-23Z" transform="translate(-91.37 -67.5)"></path><path d="M2211.66,174.54V104h23.05v70.4c0,15.36,9.28,21.92,20.32,21.92s20.32-6.56,20.32-21.92V104h23v70.56c0,27.52-18.08,43.52-43.36,43.52S2211.66,202.06,2211.66,174.54Z" transform="translate(-91.37 -67.5)"></path><path d="M2421.27,104,2380,216h-25.28l-41.29-112h25.28l29,81,29-81Z" transform="translate(-91.37 -67.5)"></path><path d="M2586.87,104l-32.32,112h-25.13c-9.43-20.8-17.75-42.88-22.71-60.8-5,17.44-12.81,38.4-22.41,60.8h-24.8L2427,104h24.8l22.56,81c10.72-26.4,18.72-55.84,21.92-81h21.92c3.2,25.6,11.2,55.36,21.77,82.08L2562.71,104Z" transform="translate(-91.37 -67.5)"></path><path d="M2661.58,160l35.53,56h-26.73l-24-38.88-24,38.88h-26.72l35.52-56-35.68-56h26.88l24,38.88,24-38.88h26.89Z" transform="translate(-91.37 -67.5)"></path><path d="M2765.58,170.86V216h-23v-45.6l-39-66.4h26.72l24.32,41.28L2778.86,104H2805Z" transform="translate(-91.37 -67.5)"></path><path d="M2845.42,194.86h56.48V216h-86.4v-1.44c0-22.24,24.8-63.36,53.76-89.44H2817.1V104h84.8v20.16C2874.06,148.14,2853.1,174.54,2845.42,194.86Z" transform="translate(-91.37 -67.5)"></path><path d="M3021.1,216h-23.2l-10.72-29c-4,2.08-9.6,3.84-17.6,5.28l-9.12,1.6c-13.44,2.4-18.56,6.08-22.88,17.44l-1.76,4.64h-22.56l40.48-109.76a20.84,20.84,0,0,1-8.64-17.12c0-12.48,10.24-21.6,22.08-21.6s22.08,9.12,22.08,21.6a20.84,20.84,0,0,1-8.64,17.12Zm-41-48.16-13.28-36.16-16.32,44.16a59.79,59.79,0,0,1,8.48-2.08l6.56-1.12C2972.46,171.34,2977.1,169.74,2980.14,167.82Zm-22.4-78.72a9.44,9.44,0,1,0,9.44-9.28A9.22,9.22,0,0,0,2957.74,89.1Z" transform="translate(-91.37 -67.5)"></path><path d="M3109.9,216l-10.72-29c-4,2.08-9.6,3.84-17.6,5.28l-9.12,1.6c-13.44,2.4-18.56,6.08-22.88,17.44l-1.76,4.64h-22.56l41.28-112h25.28l41.28,112Zm-63-133.28a13.44,13.44,0,1,1,13.44,13.44A13.63,13.63,0,0,1,3046.86,82.7Zm45.28,85.12-13.28-36.16-16.32,44.16a59.79,59.79,0,0,1,8.48-2.08l6.56-1.12C3084.46,171.34,3089.1,169.74,3092.14,167.82Zm-7.52-85.12a13.44,13.44,0,1,1,13.44,13.44A13.63,13.63,0,0,1,3084.62,82.7Z" transform="translate(-91.37 -67.5)"></path><path d="M3137.1,160a58.4,58.4,0,1,1,58.4,58.08A57.94,57.94,0,0,1,3137.1,160Zm93.12,0c0-19.84-15-35.68-34.72-35.68s-34.72,15.84-34.72,35.68,15,35.68,34.72,35.68S3230.22,179.82,3230.22,160Zm-67-77.28a13.44,13.44,0,1,1,13.44,13.44A13.63,13.63,0,0,1,3163.18,82.7Zm37.76,0a13.44,13.44,0,1,1,13.44,13.44A13.63,13.63,0,0,1,3200.94,82.7Z" transform="translate(-91.37 -67.5)"></path><path d="M178.89,305.54V383H157.77v-7.52c-5.6,5.92-13.28,9.12-22.88,9.12a40.32,40.32,0,0,1,0-80.64c9.6,0,17.28,3.2,22.88,9.12v-7.52Zm-21.12,38.72c0-11.2-9.12-20-20.64-20s-20.64,8.8-20.64,20,9.12,20,20.64,20S157.77,355.46,157.77,344.26Z" transform="translate(-91.37 -67.5)"></path><path d="M286.41,344.26a40,40,0,0,1-40.16,40.32c-9.6,0-17.28-3.2-22.88-9.12V383H202.25V271H224v41.44c5.6-5.6,13.12-8.48,22.24-8.48A40,40,0,0,1,286.41,344.26Zm-21.76,0c0-11.2-9.12-20-20.64-20s-20.64,8.8-20.64,20,9.12,20,20.64,20S264.65,355.46,264.65,344.26Z" transform="translate(-91.37 -67.5)"></path><path d="M298.08,344.26c0-22.24,18.56-40.8,41.76-40.8,15.52,0,30.4,7.36,36.16,20.48l-19,9.76a19.37,19.37,0,0,0-17.12-9.44,20,20,0,1,0,0,40A19.37,19.37,0,0,0,357,354.82l19,9.76c-5.76,13.12-20.64,20.48-36.16,20.48C316.64,385.06,298.08,366.5,298.08,344.26Z" transform="translate(-91.37 -67.5)"></path><path d="M469.44,271V383H448.32v-7.52c-5.6,5.92-13.28,9.12-22.88,9.12a40.32,40.32,0,0,1,0-80.64c9.12,0,16.64,2.88,22.24,8.48V271Zm-21.12,73.28c0-11.2-9.12-20-20.64-20s-20.64,8.8-20.64,20,9.12,20,20.64,20S448.32,355.46,448.32,344.26Z" transform="translate(-91.37 -67.5)"></path><path d="M564.48,349.06c-20.8.16-40.64,2.56-54.4,6.4,3.52,6.24,9.92,10.08,18.4,10.08a29.47,29.47,0,0,0,20.64-8.64l11.36,14.88c-7.84,8.48-19.52,13.28-32,13.28-24,0-41.92-17.6-41.92-41,0-23,17.44-40.64,40.48-40.64,22.24,0,37.6,16.16,37.76,40.16A34.88,34.88,0,0,1,564.48,349.06Zm-56.64-9.28a151.43,151.43,0,0,1,34.88-5.44c-2.08-7-8.16-11.36-16.32-11.36C516.48,323,509.44,329.7,507.84,339.78Z" transform="translate(-91.37 -67.5)"></path><path d="M603.36,310.5v8.32c4.8-5.12,11.68-7.68,20.32-7.68v20.8c-12,.32-20.32,8-20.32,18.72V383H581.6v-73.6c0-20.8,13-38.4,39.52-38.4h3.2v20.48C612.16,291,603.36,297.06,603.36,310.5Z" transform="translate(-91.37 -67.5)"></path><path d="M712.48,328.9c2.72,6.72,4.16,14.88,4.16,24.48,0,26.56-11.52,58.88-50.72,58.88a59.59,59.59,0,0,1-14.4-1.6V390.5a54.67,54.67,0,0,0,13.6,1.6c13,0,24.16-4,28.16-18.08-4.64,4.32-11.68,6.4-19.36,6.4-22.24,0-38.56-16.48-38.56-37.6,0-21.6,17.28-38.88,40.48-38.88a38.8,38.8,0,0,1,23.52,7.36c1.92-3.2,3.2-7.36,3.2-13.12h21.28C723.84,311.3,719.52,320.58,712.48,328.9Zm-18.4,13.6a18.72,18.72,0,1,0-18.72,18.56A18.21,18.21,0,0,0,694.08,342.5Z" transform="translate(-91.37 -67.5)"></path><path d="M820.48,338.34V383H798.72V342.34c0-11.36-6.88-18.72-17.6-18.72s-17.6,7.36-17.6,18.72V383H741.76V271h21.76V312.9c5.6-5.92,13.28-9.12,22.88-9.12C806.72,303.78,820.48,317.86,820.48,338.34Z" transform="translate(-91.37 -67.5)"></path><path d="M840,279.94a13.68,13.68,0,1,1,13.76,13.76A13.83,13.83,0,0,1,840,279.94Zm2.88,25.6h21.76V383H842.88Z" transform="translate(-91.37 -67.5)"></path><path d="M869.27,391.46c11.2.48,19.36-5.6,19.36-19V305.54H910.4v68c0,20.8-13,38.4-39.53,38.4h-1.6Zm16.48-111.52a13.69,13.69,0,1,1,13.76,13.76A13.83,13.83,0,0,1,885.75,279.94Z" transform="translate(-91.37 -67.5)"></path><path d="M965.59,351.46l-9.76,9.76V383H934.07V271h21.76v65.28l29.61-30.72h26.72l-31.68,32L1014.24,383H988.79Z" transform="translate(-91.37 -67.5)"></path><path d="M1025.27,271h22.08V383h-22.08Z" transform="translate(-91.37 -67.5)"></path><path d="M1200,336.74V383h-21.77V340.74c0-10.4-6.24-17.12-16-17.12s-16,6.72-16,17.12V383h-21.76V340.74c0-10.4-6.24-17.12-16-17.12s-16,6.72-16,17.12V383h-21.76V305.54h21.12V314c5.6-6.72,13.28-10.24,23-10.24,11.2,0,20.32,4.64,25.6,12.64,6.08-8.16,15.2-12.64,26.72-12.64C1187,303.78,1200,316.9,1200,336.74Z" transform="translate(-91.37 -67.5)"></path><path d="M1300.79,338.34V383H1279V342.34c0-12-7.52-18.72-17.6-18.72s-17.6,6.72-17.6,18.72V383h-21.76V305.54h21.12v8.32c5.44-6.24,13.28-10.08,23.84-10.08C1288.31,303.78,1300.79,319,1300.79,338.34Z" transform="translate(-91.37 -67.5)"></path><path d="M1316.63,344.26c0-22.4,18.72-40.8,41.76-40.8s41.76,18.4,41.76,40.8-18.72,40.8-41.76,40.8S1316.63,366.66,1316.63,344.26Zm61.76,0a20,20,0,1,0-20,20.32A19.88,19.88,0,0,0,1378.39,344.26Z" transform="translate(-91.37 -67.5)"></path><path d="M1501.43,344.26a40,40,0,0,1-40.16,40.32c-9.12,0-16.64-2.88-22.24-8.48v34.08h-21.76V305.54h21.12v7.52c5.6-5.92,13.28-9.12,22.88-9.12A40,40,0,0,1,1501.43,344.26Zm-21.76,0c0-11.2-9.12-20-20.64-20s-20.64,8.8-20.64,20,9.12,20,20.64,20S1479.67,355.46,1479.67,344.26Z" transform="translate(-91.37 -67.5)"></path><path d="M1597.27,305.54V410.18h-21.76V376.1c-5.6,5.6-13.12,8.48-22.24,8.48a40.32,40.32,0,0,1,0-80.64c9.6,0,17.28,3.2,22.88,9.12v-7.52Zm-21.12,38.72c0-11.2-9.12-20-20.64-20s-20.64,8.8-20.64,20,9.12,20,20.64,20S1576.15,355.46,1576.15,344.26Z" transform="translate(-91.37 -67.5)"></path><path d="M1663,304.26v23.36c-13.12,0-20.64,7.2-20.64,20V383h-21.76V305.54h21.12v8.8C1646.07,307.3,1653.11,303.94,1663,304.26Z" transform="translate(-91.37 -67.5)"></path><path d="M1675.5,373.06l12.65-13.76a21.75,21.75,0,0,0,16.64,7.84c6.24,0,10.08-3,10.08-7.36,0-4.8-5.28-6.08-12.16-7.68-8.16-1.92-25.44-6.24-25.44-23.68,0-13.92,11-25,29-25,12.64,0,22.4,5.6,26.72,14.4l-16.16,8.8a11.8,11.8,0,0,0-10.08-5c-5.76,0-8.48,3.2-8.48,6.24,0,4.64,5.92,5.76,13.12,7.2,13,2.56,24,9.6,24,24,0,16-13.12,25.92-30.72,25.92C1695.19,385.06,1684,382.18,1675.5,373.06Z" transform="translate(-91.37 -67.5)"></path><path d="M1793.91,362.5V383h-3.2c-26.56,0-39.52-17.6-39.52-38.4v-64H1773v12.16c0,10.56,8.48,18.4,20.32,18.72v20.8c-8.64,0-15.52-2.56-20.32-7.68v18.88C1773,356.9,1781.75,363,1793.91,362.5Z" transform="translate(-91.37 -67.5)"></path><path d="M1889.27,305.54V383h-21.12V375.3c-5.28,6.08-12.8,9.44-22.57,9.44-19.52,0-33.44-13.44-33.44-33.76V305.54h21.77V347c0,10.88,6.55,17.92,16.8,17.92s16.8-7,16.8-17.92V305.54Z" transform="translate(-91.37 -67.5)"></path><path d="M1990.71,305.54,1960,383h-25.44l-30.72-77.44H1928l19.52,52.32L1967,305.54Z" transform="translate(-91.37 -67.5)"></path><path d="M2129.75,305.54,2105.91,383h-24.8a267,267,0,0,1-17.77-40,247.94,247.94,0,0,1-17.44,40h-24.32l-23.84-77.44h23l15.84,54.56c7.52-14.56,14.88-37.92,17.12-54.56h20c2.24,17.12,9.59,39.84,17.28,54.24l15.68-54.24Z" transform="translate(-91.37 -67.5)"></path><path d="M2196.14,383l-17.28-24.32L2162.22,383H2137.1l28.16-39.84-27.36-37.6h25.92L2180,329.06l16.16-23.52h25.44L2193.9,343.3l28,39.68Z" transform="translate(-91.37 -67.5)"></path><path d="M2310.38,305.54,2287.82,363c-11.84,30.08-19.2,48.16-47.36,48.16a29.32,29.32,0,0,1-7-.64V390a40.66,40.66,0,0,0,5,.32c10.4,0,15.84-3.84,20.16-11.52l-30.24-73.28h24.32l17.6,44.64,16.64-44.64Z" transform="translate(-91.37 -67.5)"></path><path d="M2348.3,363.46H2388V383h-66.72v-1.44c0-17.28,13.92-39.84,34.24-56.48h-32.8V305.54H2388v17.92C2372.62,332.9,2355.5,349.7,2348.3,363.46Z" transform="translate(-91.37 -67.5)"></path><path d="M2485.42,305.54V383H2464.3v-7.52c-5.6,5.92-13.28,9.12-22.88,9.12a40.32,40.32,0,0,1,0-80.64c9.6,0,17.28,3.2,22.88,9.12v-7.52Zm-21.12,38.72c0-11.2-9.12-20-20.64-20s-20.64,8.8-20.64,20,9.12,20,20.64,20S2464.3,355.46,2464.3,344.26Zm-40.16-68.48c0-12,9.92-20.8,21.28-20.8s21.28,8.8,21.28,20.8-9.92,20.8-21.28,20.8S2424.14,287.78,2424.14,275.78Zm12.48,0a8.8,8.8,0,1,0,8.8-8.64A8.54,8.54,0,0,0,2436.62,275.78Z" transform="translate(-91.37 -67.5)"></path><path d="M2586.7,305.54V383h-21.12v-7.52c-5.6,5.92-13.28,9.12-22.88,9.12a40.32,40.32,0,0,1,0-80.64c9.6,0,17.28,3.2,22.88,9.12v-7.52Zm-71.84-25.6a13.44,13.44,0,1,1,13.44,13.44A13.63,13.63,0,0,1,2514.86,279.94Zm50.72,64.32c0-11.2-9.12-20-20.64-20s-20.64,8.8-20.64,20,9.12,20,20.64,20S2565.58,355.46,2565.58,344.26Zm-13.92-64.32a13.44,13.44,0,1,1,13.44,13.44A13.63,13.63,0,0,1,2551.66,279.94Z" transform="translate(-91.37 -67.5)"></path><path d="M2603.82,344.26c0-22.4,18.72-40.8,41.76-40.8s41.76,18.4,41.76,40.8-18.72,40.8-41.76,40.8S2603.82,366.66,2603.82,344.26Zm9.92-64.32a13.44,13.44,0,1,1,13.44,13.44A13.63,13.63,0,0,1,2613.74,279.94Zm51.84,64.32a20,20,0,1,0-20,20.32A19.88,19.88,0,0,0,2665.58,344.26Zm-15-64.32A13.44,13.44,0,1,1,2664,293.38,13.63,13.63,0,0,1,2650.54,279.94Z" transform="translate(-91.37 -67.5)"></path><path d="M2785.58,271V383h-21.76V304.26c-4.8,4-11.52,6.08-20,6.08V289.7c11.52,0,20-7.84,20-18.72Z" transform="translate(-91.37 -67.5)"></path><path d="M2840.94,362.5h48.32V383H2816V372.9c0-23.36,15.84-32,33.12-42.24,14.4-8.48,21.6-13.92,21.6-24.32,0-10.24-7.68-17-17-17a17.07,17.07,0,0,0-17.28,17.12v2.4l-21,2.72a27.35,27.35,0,0,1-.49-5.28c0-20.64,17-37.44,38.89-37.44,21.12,0,38.24,15.68,38.24,37.12,0,23.2-20.16,34.24-33,41.6C2848.78,353.54,2842.7,357.7,2840.94,362.5Z" transform="translate(-91.37 -67.5)"></path><path d="M2986.06,345.86c0,21.6-17.76,39-39.52,39-21.92,0-39.53-17.6-39.53-38.88h21.45c0,10.24,7.52,18.4,18.08,18.4,10.24,0,18.08-8,18.08-18.4a17.76,17.76,0,0,0-18.08-18.08,18.26,18.26,0,0,0-11.21,3.68l-10.87-15.2c7.2-5.76,18.87-16.16,25-24.64h-30.73V271h54.25v20.64a101.2,101.2,0,0,1-16,18.24C2974.54,313.38,2986.06,328.26,2986.06,345.86Z" transform="translate(-91.37 -67.5)"></path><path d="M3077.89,339.78V359.3h-9.6V383h-21.76V359.3h-46.08v-19c13.76-16.8,25.92-49.28,25.92-69.28h22.4c0,21.76-10.08,50.88-23.68,68.8h21.44V320.9h21.76v18.88Z" transform="translate(-91.37 -67.5)"></path><path d="M3169.09,344.9c0,22.88-17.76,40.16-40.64,40.16-16.48,0-30.4-9-37-23.68l18.72-9.6a18.58,18.58,0,0,0,18.08,12.8c11.2,0,19.36-8.16,19.36-19.36s-8-19-19.36-19c-6.88,0-12.48,2.88-16.16,8.48l-16.64-11.2c5-10.4,8.32-28.32,8.32-44V271h51.36v20.8h-32.64a58.77,58.77,0,0,1-3,16.64,33.65,33.65,0,0,1,10.72-1.6C3152.61,306.82,3169.09,323,3169.09,344.9Z" transform="translate(-91.37 -67.5)"></path><path d="M3265.73,345.22c0,21.76-17.92,39.84-40.48,39.84s-40.48-18.08-40.48-39.84c0-32.32,33.6-52.16,36.8-74.24h22.08c-1.28,15.2-9.6,26.24-18.24,36a21.49,21.49,0,0,1,3-.16C3249.25,306.82,3265.73,323.94,3265.73,345.22Zm-21.44,0a19,19,0,1,0-38.08,0c0,10.72,8,19.36,19,19.36S3244.29,355.94,3244.29,345.22Z" transform="translate(-91.37 -67.5)"></path><path d="M3355.33,271c0,21.12-5.92,30.24-23.2,53.76-11.68,16-21.28,30.72-23.52,58.24h-21.76c1.6-34.72,17.44-56.32,29.76-72,5.6-7.2,10.56-13.28,12.48-19.2h-48.8V271Z" transform="translate(-91.37 -67.5)"></path><path d="M3441.57,347.78c0,20.48-17,37.28-37.92,37.28s-37.92-16.8-37.92-37.28A34.18,34.18,0,0,1,3380,320.42a28.43,28.43,0,0,1-9.28-21c0-17.28,14.4-30.56,33-30.56s33,13.28,33,30.56a27.75,27.75,0,0,1-9.44,21C3436,326.82,3441.57,336.74,3441.57,347.78Zm-21.44,0a16.48,16.48,0,0,0-33,0,16.48,16.48,0,1,0,33,0Zm-28.64-48.32a12.16,12.16,0,1,0,24.32,0,12.16,12.16,0,0,0-24.32,0Z" transform="translate(-91.37 -67.5)"></path><path d="M3536,307.78c0,30.4-31.52,46.72-36.8,75.2h-21.12c1.12-15.68,9.92-27.36,18.88-38.08a28.32,28.32,0,0,1-3.68.16c-20.16,0-36.32-16.48-36.32-37.28,0-21.28,17.6-38.88,39.52-38.88S3536,286.5,3536,307.78Zm-21.44,0c0-10.08-7.68-18.4-18.08-18.4s-18.08,8.32-18.08,18.4a18.08,18.08,0,0,0,36.16,0Z" transform="translate(-91.37 -67.5)"></path><path d="M3551.33,327c0-35.52,16.64-58.08,42.72-58.08s42.72,22.56,42.72,58.08-16.64,58.08-42.72,58.08S3551.33,362.5,3551.33,327Zm63.68,0c0-22.4-8.16-36.64-21-36.64s-21,14.24-21,36.64,8.16,36.64,21,36.64S3615,349.38,3615,327Z" transform="translate(-91.37 -67.5)"></path></svg> 