<svg id="Tele2_Slab_kopia_2" data-name="Tele2 Slab kopia 2" xmlns="http://www.w3.org/2000/svg" viewBox="0 0 3327.15 350.32"><title>Lantmannen_06</title><path d="M207.85,202.22V216H155.69V202.22H160c6.24,0,8.16-2.24,6.4-7.2l-3-9H124.81l-3.2,9c-1.76,5,.16,7.2,6.4,7.2h4.32V216H91.85V202.22h3.84c5.92,0,8.32-2.08,10.24-7.2l31.52-85.76h24.8L193.77,195c1.92,5.12,4.32,7.2,10.24,7.2ZM158.57,172.3l-14.24-40.8-14.56,40.8Z" transform="translate(-91.85 -72.62)"/><path d="M313.16,185.42c0,19.2-17.12,30.56-40,30.56h-58.4V202.22h4.64c6.4,0,8.32-1.76,8.32-7V130.06c0-5.28-1.92-7-8.32-7h-4.64V109.26H271.4c22.24,0,37.12,10.08,37.12,26.72,0,11.2-6.72,19-17.76,23.2C304.52,163.34,313.16,172.46,313.16,185.42ZM252.68,153.9h14.88c9.12,0,15.36-4.32,15.36-15.36,0-11.2-6.24-15.52-15.36-15.52H252.68Zm33.92,30.88c0-11.84-6.88-17.28-16.8-17.28H252.68v34.72H269.8C279.72,202.22,286.6,197.42,286.6,184.78Z" transform="translate(-91.85 -72.62)"/><path d="M417.94,179.18c-4.16,26.72-22.4,39.68-45.12,39.68-29.44,0-51.68-21.28-51.68-56,0-33.92,22.4-56.32,50.4-56.32,11.2,0,22.4,4,27.52,11.52l2.56-8.8h12.64v33.92h-12.8c-3.2-11.84-11-22.4-25.92-22.4-14.56,0-26.88,11.36-26.88,41.92s14.08,40.16,27.84,40.16c16.48,0,23.84-11.52,26.08-23.68Z" transform="translate(-91.85 -72.62)"/><path d="M531.78,162.7c0,32.48-23.52,53.28-53.12,53.28h-55V202.22h4.64c6.4,0,8.32-1.76,8.32-7V130.06c0-5.28-1.92-7-8.32-7h-4.64V109.26h55C508.26,109.26,531.78,130.22,531.78,162.7Zm-27.52,0c0-28.64-11.2-39.68-27.2-39.68H461.54v79.2h15.52C493.06,202.22,504.26,191.18,504.26,162.7Z" transform="translate(-91.85 -72.62)"/><path d="M574.85,153.9h8.32c6.56,0,9.28-2.88,9.28-10.56v-4h13.76v43H592.45v-4c0-7.68-2.72-10.72-9.28-10.72h-8.32v34.56h20.48c15,0,22.08-2.4,23-22.88l.16-3.2h13.92V216H536.93V202.22h4.64c6.4,0,8.32-1.76,8.32-7V130.06c0-5.28-1.92-7-8.32-7h-4.64V109.26h95.52V147.5H618.53l-.16-3.2c-1-19-6.4-21.28-21.44-21.28H574.85Z" transform="translate(-91.85 -72.62)"/><path d="M738.55,147.5H724.63l-.16-3.2c-1-19-8-21.28-23-21.28H681V153.9h8.32c6.56,0,9.28-2.88,9.28-10.56v-4h13.76v43H698.55v-4c0-7.68-2.72-10.72-9.28-10.72H681v27.52c0,5.28,1.92,7,8.32,7h4.64V216H643V202.22h4.64c6.4,0,8.32-1.76,8.32-7V130.06c0-5.28-1.92-7-8.32-7H643V109.26h95.52Z" transform="translate(-91.85 -72.62)"/><path d="M851.4,160v13.76h-1.77c-6.4,0-8.32,1.76-8.32,7V216H829.47l-5.12-7.2c-7.36,6.88-17.28,10.08-28.32,10.08-28.32,0-49.92-21.28-49.92-56,0-33.92,21.44-56.16,51-56.16,11.52,0,23.36,4.8,28.8,12l2.72-9.44h12.64v33.92h-12.8c-3.36-12.48-13.12-22.4-27.36-22.4-15.52,0-27.52,11.36-27.52,41.92,0,31.68,14.08,41.6,27.84,41.6,12.8,0,16.48-6.08,16.48-11.84V180.78c0-5.28-1.92-7-8.32-7h-7.84V160Z" transform="translate(-91.85 -72.62)"/><path d="M958.11,130.06v65.12c0,5.28,1.92,7,8.32,7h4.64V216H920.19V202.22h4.64c6.4,0,8.32-1.76,8.32-7V167.66h-39v27.52c0,5.28,1.92,7,8.32,7h4.64V216H856.19V202.22h4.64c6.4,0,8.32-1.76,8.32-7V130.06c0-5.28-1.92-7-8.32-7h-4.64V109.26h50.88V123h-4.64c-6.4,0-8.32,1.76-8.32,7V153.9h39V130.06c0-5.28-1.92-7-8.32-7h-4.64V109.26h50.88V123h-4.64C960,123,958.11,124.78,958.11,130.06Z" transform="translate(-91.85 -72.62)"/><path d="M978.7,202.22h4.64c6.4,0,8.32-1.76,8.32-7V130.06c0-5.28-1.92-7-8.32-7H978.7V109.26h50.88V123h-4.64c-6.4,0-8.32,1.76-8.32,7v65.12c0,5.28,1.92,7,8.32,7h4.64V216H978.7Z" transform="translate(-91.85 -72.62)"/><path d="M1120.77,109.26V123h-4.64c-6.4,0-8.32,1.76-8.32,7V187.5c0,20.8-13.76,31.36-38.56,31.36-23.85,0-33.13-11-33.13-23.84,0-13.28,11.36-18.72,23.85-15.68-1.44,2.4-2.4,7.52-2.4,11.2,0,8.48,3.52,15.2,12.8,15.2,8.64,0,12.48-5.6,12.48-17.12V130.06c0-5.28-1.92-7-8.32-7h-6.24V109.26Z" transform="translate(-91.85 -72.62)"/><path d="M1243.29,202.22V216h-53.6V202.22h4.64c6.24,0,8-2.56,4.64-7.2l-18.08-25.92-15,14.24v11.84c0,5.28,1.92,7,8.32,7h4.64V216h-50.88V202.22h4.64c6.4,0,8.32-1.76,8.32-7V130.06c0-5.28-1.92-7-8.32-7h-4.64V109.26h50.88V123h-4.64c-6.4,0-8.32,1.76-8.32,7V166.7l36.48-36.48c4.32-4.32,3.2-7.2-4.64-7.2h-3.36V109.26h46.4V123h-3.36c-5.92,0-9.76,1.76-17,8.64L1198,152.78l29.76,41.44c3.68,5.28,7,8,13,8Z" transform="translate(-91.85 -72.62)"/><path d="M1342.46,174.54V216h-92.32V202.22h4.64c6.4,0,8.32-1.76,8.32-7V130.06c0-5.28-1.92-7-8.32-7h-4.64V109.26H1301V123h-4.64c-6.4,0-8.32,1.76-8.32,7v65.12c0,5.28,1.92,7,8.32,7h9c15,0,22.08-4,23-24.48l.16-3.2Z" transform="translate(-91.85 -72.62)"/><path d="M1478,130.06v65.12c0,5.28,1.92,7,8.32,7H1491V216h-50.88V202.22h4.64c6.4,0,8.32-1.76,8.32-7V127l-29.6,89h-15l-29.6-89v68.16c0,5.28,1.92,7,8.32,7h4.64V216H1350V202.22h4.64c6.4,0,8.32-1.76,8.32-7V130.06c0-5.28-1.92-7-8.32-7H1350V109.26h46.88l24,72,23.68-72H1491V123h-4.64C1479.93,123,1478,124.78,1478,130.06Z" transform="translate(-91.85 -72.62)"/><path d="M1612,109.26V123h-4.64c-6.4,0-8.32,1.76-8.32,7V216h-29.28l-42.24-85.6v64.8c0,5.28,1.92,7,8.32,7h4.64V216H1498.7V202.22h4.64c6.4,0,8.32-1.76,8.32-7V130.06c0-5.28-1.92-7-8.32-7h-4.64V109.26h45.92l38.56,78.08V130.06c0-5.28-1.92-7-8.32-7h-4.64V109.26Z" transform="translate(-91.85 -72.62)"/><path d="M1616.65,162.7c0-34.24,24.32-56.32,55-56.32,30.56,0,54.72,22.08,54.72,56.32s-24.16,56.16-54.72,56.16C1641,218.86,1616.65,196.94,1616.65,162.7Zm82.24,0c0-30.24-11.2-41.92-27.2-41.92s-27.52,11.68-27.52,41.92c0,30.08,11.52,41.76,27.52,41.76S1698.89,192.78,1698.89,162.7Z" transform="translate(-91.85 -72.62)"/><path d="M1828.14,139.82c0,19.2-17.12,30.4-40,30.4h-18.56v25c0,5.28,1.92,7,8.32,7h4.64V216h-50.88V202.22h4.63c6.41,0,8.33-1.76,8.33-7V130.06c0-5.28-1.92-7-8.33-7h-4.63V109.26h56.48C1811,109.26,1828.14,120.62,1828.14,139.82Zm-26.56,0c0-12.16-6.88-16.8-16.8-16.8h-15.2v33.44h15.2C1794.7,156.46,1801.58,151.82,1801.58,139.82Z" transform="translate(-91.85 -72.62)"/><path d="M1939.93,217.26a9.48,9.48,0,0,0,4.32-.8c-.64,12.48-7.68,17.44-17.92,17.44-7.68,0-14.24-3.84-21.12-16.8v-.16a57.83,57.83,0,0,1-15,1.92c-30.72,0-55.05-21.92-55.05-56.16s24.33-56.32,55.05-56.32c30.56,0,54.72,22.08,54.72,56.32,0,18.72-7.2,33.6-18.72,43.52C1929.85,212.62,1933.37,217.26,1939.93,217.26Zm-77.28-54.56c0,10.72,1.44,19,4,25.44a30.73,30.73,0,0,1,23.52-11.2c10.88,0,17.92,3.52,23.68,10.08,2.24-6.24,3.52-14.24,3.52-24.32,0-30.24-11.2-41.92-27.2-41.92S1862.65,132.46,1862.65,162.7Zm27.52,41.76a25.82,25.82,0,0,0,7.84-1.12c-3.84-7-7.36-12.48-16.48-12.48a15.36,15.36,0,0,0-10.88,4.32C1875.61,201.58,1882.33,204.46,1890.17,204.46Z" transform="translate(-91.85 -72.62)"/><path d="M2059.53,200.78c-.64,12.48-7.84,17.44-18.08,17.44-9,0-16-3.52-21.92-16.8l-5.76-12.8c-5.44-12.16-8.65-19.68-21.13-19.68h-1.76v26.24c0,5.28,1.92,7,8.33,7h4.63V216H1953V202.22h4.64c6.4,0,8.32-1.76,8.32-7V130.06c0-5.28-1.92-7-8.32-7H1953V109.26h56.49c22.88,0,40,10.88,40,29,0,15.84-11.52,25.92-28.33,29.44,7.69,2.08,12.65,7,17.29,16l4,7.52c3.52,6.72,6.24,10.4,12.8,10.4A9.48,9.48,0,0,0,2059.53,200.78Zm-53.45-45.6c9.92,0,16.81-4.48,16.81-16,0-11.68-6.89-16.16-16.81-16.16h-15.2v32.16Z" transform="translate(-91.85 -72.62)"/><path d="M2155.14,184.78c0,21-16,34.08-37,34.08-14.4,0-27-5.28-33.6-15.2l-4,12.32h-12.64v-37.6h14.88c3,13.92,12.64,25.44,31.2,25.44,11.36,0,17.28-6.08,17.28-15,0-7.84-5-12.48-16.8-15.36l-13.92-3.36c-18.72-4.48-32.32-12.8-32.32-30.56,0-20.48,16-32.8,36.48-32.8,13.28,0,24.64,3.84,30.4,12l2.72-9.6h12.64V143h-12.8c-3.36-13.44-13.76-22.24-28.48-22.24-11.36,0-16.8,6.4-16.8,13.76,0,8,5.28,10.72,17.6,13.92l11,2.88C2141.86,156.78,2155.14,164.14,2155.14,184.78Z" transform="translate(-91.85 -72.62)"/><path d="M2264.56,109.26V147.5h-13.92l-.16-3.2c-1-19-8.32-21.28-23-21.28h-1.92v72.16c0,5.28,1.92,7,8.32,7h4.64V216H2187.6V202.22h4.64c6.4,0,8.32-1.76,8.32-7V123h-3.68c-15,0-20.48,2.24-21.44,21.28l-.16,3.2h-13.92V109.26Z" transform="translate(-91.85 -72.62)"/><path d="M2285.07,182.38V130.06c0-5.28-1.92-7-8.32-7h-4.64V109.26H2323V123h-4.64c-6.4,0-8.32,1.76-8.32,7v52.32c0,15,9.44,22.08,22.72,22.08s22.72-7,22.72-22.08V130.06c0-5.28-1.92-7-8.32-7h-4.64V109.26H2387V123h-4.64c-6.4,0-8.32,1.76-8.32,7v52.32c0,24.16-18.56,36.48-42.88,36.48C2303.31,218.86,2285.07,206.54,2285.07,182.38Z" transform="translate(-91.85 -72.62)"/><path d="M2508.14,109.26V123h-3.35c-5.93,0-8.33,2.08-10.25,7.2L2463,216h-24.8l-31.52-85.76c-1.92-5.12-4-7.2-9.92-7.2h-2.88V109.26h50.88V123h-4.32c-6.24,0-8.16,2.24-6.4,7.2l22.08,63.52,22.72-63.52c1.76-5-.16-7.2-6.4-7.2h-4.32V109.26Z" transform="translate(-91.85 -72.62)"/><path d="M2680,109.26V123h-3.52c-5.92,0-8.48,2.24-10.24,7.36L2638,216h-22.72l-18.08-55.52L2578.75,216h-23.84l-27.52-85.76c-1.76-5.44-3.84-7.2-9.76-7.2h-2.72V109.26h48.8V123h-4.32c-6.24,0-7.84,2.24-6.4,7.2l19.2,63.36L2590,138.7l-2.08-6.4c-2.56-7.84-5.12-9.28-10.88-9.28h-2.24V109.26h50.08V123h-6.08c-6.24,0-8,2.24-6.56,7.2l19,63,20.16-63c1.6-5-.16-7.2-6.24-7.2h-4.64V109.26Z" transform="translate(-91.85 -72.62)"/><path d="M2777.57,133.1l-23.2,28.32,23.36,30.24c4.16,5.28,7.36,10.24,15.68,10.24h1.44V216h-53V201.9H2744c8.16,0,10.88-3.2,5.76-9.76l-14.08-18.24-14.57,18.24c-5.12,6.56-3.36,9.76,4.81,9.76h2.23V216h-41V201.9h1.44c7.52,0,11.52-4.48,15.84-9.76l23.21-28.48-23.36-30.08c-4.49-5.76-8.17-10.4-14.57-10.4h-1.6V109.26h52.33v13.92h-2.4c-9.44,0-10.56,3.36-5.6,9.92l14.08,18.08,14.4-18.08c5.12-6.4,4.8-9.92-4.64-9.92h-2.4V109.26h41.28v13.92h-1.6C2785.89,123.18,2781.89,127.82,2777.57,133.1Z" transform="translate(-91.85 -72.62)"/><path d="M2910.57,109.26V123h-2.72c-5,0-8.32,2.56-12.16,8.64l-27,43.68v19.84c0,5.28,1.92,7,8.32,7h4.64V216h-50.88V202.22h4.64c6.4,0,8.32-1.76,8.32-7V176.94l-26.88-45.28c-3.84-6.4-6.72-8.64-12-8.64h-2.24V109.26h51.68V123h-4.32c-6.08,0-9.12,2.24-6.24,7.2l18.4,31.52,18.4-31.52c2.88-5,0-7.2-6.08-7.2h-4.32V109.26Z" transform="translate(-91.85 -72.62)"/><path d="M3009.4,122.22l-62.24,80h26.72c15,0,20.48-2.4,21.44-22.88l.16-3.2h13.92V216h-92.16V203l62.08-80h-24.16c-15,0-20.48,2.24-21.44,21.28l-.16,3.2h-13.92V109.26h89.76Z" transform="translate(-91.85 -72.62)"/><path d="M3132.81,202.22V216h-52.16V202.22H3085c6.24,0,8.16-2.24,6.4-7.2l-3-9h-38.56l-3.2,9c-1.76,5,.16,7.2,6.4,7.2h4.32V216h-40.48V202.22h3.84c5.92,0,8.32-2.08,10.24-7.2l31.52-85.76h24.8L3118.73,195c1.92,5.12,4.32,7.2,10.24,7.2Zm-49.28-29.92-14.24-40.8-14.56,40.8Zm-25.6-83.52c0-9,7.52-16.16,17-16.16s17,7.2,17,16.16-7.52,16.16-17,16.16S3057.93,97.74,3057.93,88.78Zm8.48,0a8.48,8.48,0,1,0,8.48-8.32A8.3,8.3,0,0,0,3066.41,88.78Z" transform="translate(-91.85 -72.62)"/><path d="M3255,202.22V216h-52.16V202.22h4.32c6.24,0,8.16-2.24,6.4-7.2l-3-9H3172l-3.2,9c-1.76,5,.16,7.2,6.4,7.2h4.32V216H3139V202.22h3.84c5.92,0,8.32-2.08,10.24-7.2l31.52-85.76h24.8L3240.92,195c1.92,5.12,4.32,7.2,10.24,7.2ZM3168.44,91.34c0-6.08,5.28-11.2,11.68-11.2s11.68,5.12,11.68,11.2-5.28,11.2-11.68,11.2S3168.44,97.42,3168.44,91.34Zm37.28,81-14.24-40.8-14.56,40.8Zm-3.36-81c0-6.08,5.28-11.2,11.68-11.2s11.68,5.12,11.68,11.2-5.28,11.2-11.68,11.2S3202.36,97.42,3202.36,91.34Z" transform="translate(-91.85 -72.62)"/><path d="M3255.67,162.7c0-34.24,24.32-56.32,55-56.32,30.56,0,54.72,22.08,54.72,56.32s-24.16,56.16-54.72,56.16C3280,218.86,3255.67,196.94,3255.67,162.7Zm26.24-71.36c0-6.08,5.28-11.2,11.68-11.2s11.68,5.12,11.68,11.2-5.28,11.2-11.68,11.2S3281.91,97.42,3281.91,91.34Zm56,71.36c0-30.24-11.2-41.92-27.2-41.92s-27.52,11.68-27.52,41.92c0,30.08,11.52,41.76,27.52,41.76S3337.91,192.78,3337.91,162.7Zm-22.08-71.36c0-6.08,5.28-11.2,11.68-11.2s11.68,5.12,11.68,11.2-5.28,11.2-11.68,11.2S3315.83,97.42,3315.83,91.34Z" transform="translate(-91.85 -72.62)"/><path d="M175.05,377.34c-.48,10.72-6.72,14.88-16.64,14.88-11.52,0-17-7-18.08-14.88l-4.32,7c-3.2,5.44-9.92,7.84-18.88,7.84-14.4,0-23.68-8.48-23.68-20.32,0-13,6.88-20,31.36-25.6,13.44-3,15.52-8.8,15.52-14.56,0-5.92-4-10.56-11-10.56-7.36,0-11,5.44-11,12.8a20.69,20.69,0,0,0,.64,5.28,24.8,24.8,0,0,1-8,1.12c-10.08,0-13.6-5.44-13.6-10.72,0-9.6,10.4-19.68,32.32-19.68,23.2,0,33.12,9.28,33.12,24.64v34.56c0,7.2,3.68,9.12,7.84,9.12A9.09,9.09,0,0,0,175.05,377.34Zm-35.68-14.72V351.1l-11.52,4.64c-8.48,3.52-10.72,7.36-10.72,12.16,0,4.48,3.2,8.8,10.24,8.8C134.73,376.7,139.37,372.06,139.37,362.62Z" transform="translate(-91.85 -72.62)"/><path d="M259.83,351.1c0,25.12-14.24,40.64-33.12,40.64-11.68,0-20.48-4.48-25.6-12.32L195.19,390H181.43V303.26c0-5.44-1.92-7-8.16-7h-1.44v-13h33v44l5.6-9.44c2.56-4.32,9.12-7.2,16.48-7.2C248.15,310.62,259.83,326.3,259.83,351.1Zm-25,0c0-16.32-5.76-24.64-15.2-24.64-9.6,0-14.88,8.64-14.88,21.76v5.92c0,14.08,5.76,24,14.88,24C228.63,378.14,234.87,368.54,234.87,351.1Z" transform="translate(-91.85 -72.62)"/><path d="M290.2,351.26c0,20.16,9,27,18.4,27,11,0,15.68-7.68,16.8-15.84h13.76c-2.56,20-16.64,30.08-34.4,30.08-22.08,0-38.72-15.36-38.72-41.12,0-25,15.52-41.6,39.68-41.6,20.64,0,32,10.24,32,21.44,0,10.88-10.88,13.44-21,10.88a24.84,24.84,0,0,0,.48-5c0-7.84-4-14.24-11.52-14.24C296.76,322.94,290.2,330.62,290.2,351.26Z" transform="translate(-91.85 -72.62)"/><path d="M431.88,377.18V390H399.72V373.5l-6.4,11.2c-2.4,4.32-9.12,7.2-16.48,7.2-21.28,0-33-15.68-33-40.48,0-25.12,15-40.64,34.4-40.64,10.24,0,17,3.84,20.64,10.56V303.26c0-5.44-1.92-7.2-8.32-7.2h-1.28v-12.8h33V370c0,5.44,1.92,7.2,8.16,7.2Zm-33-23v-9c0-14.08-5.12-20.8-14.56-20.8-9,0-15.52,9.6-15.52,27,0,16.32,5.76,24.64,15.2,24.64C393.64,376.06,398.92,367.42,398.92,354.14Z" transform="translate(-91.85 -72.62)"/><path d="M478.37,378.3c11.52,0,16.48-7.52,17.6-15.84h13.76c-3.2,20.48-17.92,30.08-35.2,30.08C452,392.54,435,377.18,435,351.42c0-25,17-41.6,38.24-41.6,23.84,0,37.28,16.48,37.28,37.28,0,2.08,0,4-.16,6.88h-51.2C460,373.34,468.93,378.3,478.37,378.3Zm-18.72-35.84h28c-.64-11.84-5-19.52-13.44-19.52C466.37,322.94,461.09,328.38,459.65,342.46Z" transform="translate(-91.85 -72.62)"/><path d="M559.57,304.06a12.58,12.58,0,0,0,1.76-7c0-4.16-2.08-6.56-5.92-6.56-4.32,0-7.68,3.68-7.68,13.12v9h19.36l-7,12.8H547.73V370c0,5.44,1.92,7.2,8.32,7.2h6.08V390H514.77v-12.8h1.44c6.24,0,8.16-1.76,8.16-7.2V325.34h-9.6v-12.8h9.6v-1.28c0-18.24,9-30.88,30.08-30.88,16,0,23.52,6.72,23.52,14.72C578,304.7,567.89,306.62,559.57,304.06Z" transform="translate(-91.85 -72.62)"/><path d="M640,328.22a9.67,9.67,0,0,0,.8-3.84c0-3.52-2.24-5.6-5.92-5.6a5.79,5.79,0,0,0-4.16,1.6,25,25,0,0,1,6.56,17.44c0,17.12-15.2,28-33.44,28a41,41,0,0,1-14.88-2.72,5.86,5.86,0,0,0-3.52,5.28c0,3.52,3.36,5.44,11.36,5.44h18.4c17.12,0,32.8,4.64,32.8,21,0,20-19.52,28.16-45.76,28.16-19,0-38.08-3.68-38.08-17.12,0-5.6,4.16-10.88,13.92-10.88a18.71,18.71,0,0,1,7.2,1.28c-1.28,1-2.24,3.52-2.24,5.6,0,5.76,5.28,10.72,21.6,10.72,14.24,0,23-4.32,23-12,0-5-4.16-6.56-12.32-6.56h-19c-15.2,0-27.36-4.16-27.36-16.48,0-7.36,5.92-14.24,15.2-16.8-8.48-4.8-13.92-13-13.92-22.88,0-17.12,15.2-28,33.6-28,9,0,17,2.56,23,7l3.36-5.6c1.76-2.88,5.44-4.8,10.88-4.8,7.2,0,13,4.16,13,11.36,0,7-5,10.72-11,10.72A13.5,13.5,0,0,1,640,328.22Zm-26.08,9.6c0-12.48-3.52-17.28-10.08-17.28s-10.24,4.8-10.24,17.28,3.68,17.44,10.24,17.44S613.89,350.3,613.89,337.82Z" transform="translate(-91.85 -72.62)"/><path d="M745.68,377.18V390H703.12v-12.8h1.44c6.24,0,8.16-1.76,8.16-7.2V340.7c0-9.12-4.8-14.08-12.32-14.08-9.12,0-13.6,5.92-13.6,15V370c0,5.44,1.92,7.2,8.32,7.2h1.28V390H653.84v-12.8h1.44c6.24,0,8.16-1.76,8.16-7.2V303.26c0-5.44-1.92-7-8.16-7h-1.44v-13h33v43l5-8.48c2.56-4.32,8.64-7.52,17.12-7.52,17.12,0,27.2,9.76,27.2,28V370c0,5.44,1.92,7.2,8.32,7.2Z" transform="translate(-91.85 -72.62)"/><path d="M792,377.18h1.28V390H750.7v-12.8h1.44c6.24,0,8.16-1.76,8.16-7.2v-37.6c0-5.28-1.92-7-8.16-7H750.7v-12.8h33V370C783.66,375.42,785.58,377.18,792,377.18Zm-33.76-85.92A12.81,12.81,0,1,1,771,303.58,12.64,12.64,0,0,1,758.22,291.26Z" transform="translate(-91.85 -72.62)"/><path d="M773.39,407.74c0-9.44,9.44-12.32,18.56-9.76-1.28,1.92-1.76,4-1.76,7,0,4.16,2.4,7,6.72,7s6.72-2.88,6.72-9V332.38c0-5.28-1.92-7-8.16-7H794v-12.8h33V398.3c0,15.68-11.84,24-30.4,24C779.63,422.3,773.39,414.94,773.39,407.74Zm28.16-116.48a12.81,12.81,0,1,1,12.8,12.32A12.64,12.64,0,0,1,801.55,291.26Z" transform="translate(-91.85 -72.62)"/><path d="M926.67,377.18V390H884.75v-12.8h.8c5.76,0,7.36-2.88,4.32-7l-10.4-14.4-10.72,9.44V370c0,5.44,1.92,7.2,8.32,7.2h1.28V390H835.79v-12.8h1.44c6.24,0,8.16-1.76,8.16-7.2V303.26c0-5.44-1.92-7-8.16-7h-1.44v-13h33v68.48l20.64-19c4-3.68,2.72-7.36-2.4-7.36h-3v-12.8h39.52v12.8h-1.92c-5.44,0-10.72,2.88-18.72,9.92l-8.8,7.68,20.16,27c3.36,4.48,6.08,7.2,11.52,7.2Z" transform="translate(-91.85 -72.62)"/><path d="M972.25,377.18h1.28V390H931v-12.8h1.44c6.24,0,8.16-1.76,8.16-7.2V303.26c0-5.44-1.92-7-8.16-7H931v-13h33V370C963.93,375.42,965.85,377.18,972.25,377.18Z" transform="translate(-91.85 -72.62)"/><path d="M1111.92,377.18V390h-39.36v-12.8H1074c4.64,0,6.56-1.76,6.56-7.2V339.1c0-8.16-4.16-12.48-10.72-12.48-6.88,0-11,4.16-11.84,10.72V370c0,5.44,1.92,7.2,6.72,7.2H1066V390h-39.37v-12.8h1.44c4.64,0,6.56-1.76,6.56-7.2V339.1c0-8.16-4.16-12.48-10.72-12.48-7.84,0-12,5.28-12,13.44V370c0,5.44,1.92,7.2,6.72,7.2h1.28V390H979v-12.8h1.44c6.24,0,8.16-1.76,8.16-7.2v-37.6c0-5.28-1.92-7-8.16-7H979v-12.8h32.16v14.72l5.6-9.44c2.56-4.32,8-7.52,15.68-7.52,13,0,21.61,6.08,24.48,17.28l5.77-9.76c2.56-4.32,8-7.52,15.68-7.52,16.16,0,25.6,9.28,25.6,26.24V370c0,5.44,1.92,7.2,6.72,7.2Z" transform="translate(-91.85 -72.62)"/><path d="M1209,377.18V390h-42.56v-12.8h1.44c6.24,0,8.16-1.76,8.16-7.2V340.7c0-9.12-4.8-14.08-12.32-14.08-9.12,0-13.6,5.92-13.6,15V370c0,5.44,1.92,7.2,8.32,7.2h1.28V390h-42.56v-12.8h1.44c6.24,0,8.16-1.76,8.16-7.2v-37.6c0-5.28-1.92-7-8.16-7h-1.44v-12.8h32.16v14.88l5.6-9.6c2.56-4.32,8.8-7.52,17.28-7.52,17.12,0,27.2,9.76,27.2,28V370c0,5.44,1.92,7.2,8.32,7.2Z" transform="translate(-91.85 -72.62)"/><path d="M1211,351.1c0-25.28,17.77-41.28,40.65-41.28s40.48,16,40.48,41.28-17.6,41.44-40.48,41.44S1211,376.38,1211,351.1Zm55.85,0c0-20.32-5.28-28-15.2-28s-15.36,7.68-15.36,28c0,20.48,5.44,28.16,15.36,28.16S1266.86,371.58,1266.86,351.1Z" transform="translate(-91.85 -72.62)"/><path d="M1382.18,351.1c0,25.12-15,40.64-34.4,40.64-10.24,0-17-3.84-20.64-10.56v19.36c0,5.28,1.92,7.2,8.32,7.2h1.28v12.64h-42.56V407.74h1.44c6.24,0,8.16-1.92,8.16-7.2V332.38c0-5.28-1.92-7-8.16-7h-1.44v-12.8h32.16V329l6.4-11.2c2.4-4.32,9.12-7.2,16.48-7.2C1370.5,310.62,1382.18,326.3,1382.18,351.1Zm-25,0c0-16.32-5.76-24.64-15.2-24.64-9.6,0-14.88,8.64-14.88,21.92v9c0,14.08,5.12,20.8,14.56,20.8C1350.66,378.14,1357.22,368.54,1357.22,351.1Z" transform="translate(-91.85 -72.62)"/><path d="M1466.89,332.38v68c0,5.44,1.92,7.2,8.16,7.2h1.44v12.8h-42.57v-12.8h1.28c6.4,0,8.32-1.76,8.32-7.2v-25.6l-5.6,9.92c-2.4,4.32-9.12,7.2-16.48,7.2-21.28,0-33-15.68-33-40.48,0-25.12,15-40.64,34.4-40.64,11,0,17.92,4.48,21.44,12.16v-10.4h32.17v12.8h-1.44C1468.81,325.34,1466.89,327.1,1466.89,332.38Zm-23.37,21.76v-9c0-14.08-5.12-20.8-14.56-20.8-9,0-15.52,9.6-15.52,27,0,16.32,5.76,24.64,15.2,24.64C1438.24,376.06,1443.52,367.42,1443.52,354.14Z" transform="translate(-91.85 -72.62)"/><path d="M1551.52,327.1c0,11.68-8.8,15.68-19.68,14.4a13.07,13.07,0,0,0,1.12-5.28c0-4.8-2.88-8.16-8-8.16-6.88,0-9.92,6.08-9.92,15V370c0,5.44,1.92,7.2,8.32,7.2h6.24V390h-47.52v-12.8h1.44c6.24,0,8.16-1.76,8.16-7.2v-37.6c0-5.28-1.92-7-8.16-7h-1.44v-12.8h32.16v15l5.6-9.6c2.56-4.32,8.32-6.72,14.24-6.72C1544.16,311.26,1551.52,317.66,1551.52,327.1Z" transform="translate(-91.85 -72.62)"/><path d="M1625.81,366.78c0,15.84-12.64,25.76-28.8,25.76-10.72,0-20.16-3-25.28-10.4l-2.88,8.48H1557V361.5h13.44c2.24,9.76,9,17.76,22.08,17.76,7.36,0,10.88-3.84,10.88-9.12,0-4.32-3.2-6.88-10.24-8.64l-11-2.72c-14.56-3.52-25-9.76-25-23.68,0-15.68,12.48-25.12,28.64-25.12,9.92,0,18.4,2.72,22.88,8.64l2.08-6.56h11.36V338.3h-11.52c-2.4-9.44-9.6-15.68-20-15.68-7.36,0-10.72,3.52-10.72,7.84,0,4.48,3.2,6.24,11.52,8.48l7.84,2.08C1615.73,345.34,1625.81,351.1,1625.81,366.78Z" transform="translate(-91.85 -72.62)"/><path d="M1638.93,369.5V325.34h-9.6V313.18c12.8,0,17.12-9.12,18.88-20.64h14.08v20h20.64l-7,12.8h-13.6v39.2c0,9.6,5,12.32,12.8,12.32,2.56,0,5.6-.48,7-1.44-.48,10.88-6.72,17-19.68,17C1645.33,392.38,1638.93,381.5,1638.93,369.5Z" transform="translate(-91.85 -72.62)"/><path d="M1777.76,377.18V390H1745.6v-15l-5.6,9.76c-2.4,4.32-8.8,7.52-17,7.52-16.8,0-26.88-9.76-26.88-27.52V332.38c0-5.28-1.92-7-8.16-7h-1.44v-12.8h33v49.6c0,8.64,5,13.6,11.84,13.6,9,0,13.44-5.92,13.44-15V332.38c0-5.28-1.92-7-8.16-7h-1.44v-12.8h33V370c0,5.44,1.92,7.2,8.32,7.2Z" transform="translate(-91.85 -72.62)"/><path d="M1862.08,312.54v12.8h-1c-5.44,0-7.52,1.92-9.28,7L1832.16,390h-25.92l-19.68-57.6c-1.76-5.12-3.52-7-9-7h-1v-12.8h42.88v12.8h-1.12c-5.76,0-8.48,1.92-6.88,7l12.8,41.44,12.8-41.44c1.6-5.12-1.12-7-6.72-7h-1v-12.8Z" transform="translate(-91.85 -72.62)"/><path d="M1994.38,312.54v12.8h-1c-5.44,0-7.68,1.92-9.28,7L1966.22,390H1940.3l-10.56-34.08L1919.34,390h-25.92l-17.92-57.6c-1.6-5.12-3.52-7-9-7h-1v-12.8h41.28v12.8h-.8c-5.76,0-8.32,1.92-6.88,7l12,41.6,11.68-40.32-.48-1.28c-1.6-5.12-2.4-7-7.84-7h-.32v-12.8h41.12v12.8h-2.72c-5.76,0-8.32,1.92-6.88,7l12.16,42.08,12.16-42.08c1.44-5.12-1.12-7-6.72-7h-1v-12.8Z" transform="translate(-91.85 -72.62)"/><path d="M2069.8,332.38l-16.64,17.76,17,19.36c3.2,3.68,5.6,7.68,12,7.68h1.28V390h-44.16v-12.8h1.44c6.24,0,8.48-2.56,4.48-7.2L2036,359.74,2026.6,370c-4.16,4.48-2.08,7.2,4.16,7.2h1.44V390h-33.28v-12.8h1.28c5.6,0,9-3.36,12.32-7l16.64-18.24L2012.52,333c-3.36-3.84-6.88-7.68-12.16-7.68h-1.44v-12.8h44.48v12.8h-1.6c-5.92,0-8.16,2.56-4.32,7l8.8,9.92,9.44-9.92c4-4.32,1.92-7-4-7h-1.6v-12.8h33.6v12.8h-1.44C2076.52,325.34,2073.16,328.7,2069.8,332.38Z" transform="translate(-91.85 -72.62)"/><path d="M2173.16,312.54v12.8h-1c-5.44,0-7.36,1.92-9.28,7l-25.6,67c-7,18.72-14.4,22.88-24.48,22.88-15.2,0-17.92-11.2-15.36-18.88,2.24,1.44,6.08,2.08,9.6,2.08,5.44,0,12-1,16.48-9.12l-25.92-64c-2.08-5.12-3.52-7-9-7h-1v-12.8h42.88v12.8h-1.12c-5.76,0-8.8,1.92-6.88,7l12.8,33.6,12.8-33.6c1.92-5.12-1.12-7-6.72-7h-1v-12.8Z" transform="translate(-91.85 -72.62)"/><path d="M2249.21,323.58l-43,53.76h13.44c11.2,0,16.64-1.76,17.76-16.64l.16-2.24h11.68V390H2178v-11l43-53.92h-11.68c-11.2,0-17.12,1.76-18.08,15.52l-.16,2.24h-11.36V312.54h69.44Z" transform="translate(-91.85 -72.62)"/><path d="M2339,377.34c-.48,10.72-6.72,14.88-16.64,14.88-11.52,0-17-7-18.08-14.88l-4.32,7c-3.2,5.44-9.92,7.84-18.88,7.84-14.4,0-23.68-8.48-23.68-20.32,0-13,6.88-20,31.36-25.6,13.44-3,15.52-8.8,15.52-14.56,0-5.92-4-10.56-11-10.56-7.36,0-11,5.44-11,12.8a20.69,20.69,0,0,0,.64,5.28,24.8,24.8,0,0,1-8,1.12c-10.08,0-13.6-5.44-13.6-10.72,0-9.6,10.4-19.68,32.32-19.68,23.2,0,33.12,9.28,33.12,24.64v34.56c0,7.2,3.68,9.12,7.84,9.12A9.09,9.09,0,0,0,2339,377.34Zm-61.28-90.56c0-9,7.52-16.16,17-16.16s17,7.2,17,16.16-7.52,16.16-17,16.16S2277.69,295.74,2277.69,286.78Zm25.6,75.84V351.1l-11.52,4.64c-8.48,3.52-10.72,7.36-10.72,12.16,0,4.48,3.2,8.8,10.24,8.8C2298.65,376.7,2303.29,372.06,2303.29,362.62Zm-17.12-75.84a8.48,8.48,0,1,0,8.48-8.32A8.3,8.3,0,0,0,2286.17,286.78Z" transform="translate(-91.85 -72.62)"/><path d="M2424.54,377.34c-.48,10.72-6.72,14.88-16.64,14.88-11.53,0-17-7-18.09-14.88l-4.32,7c-3.2,5.44-9.92,7.84-18.88,7.84-14.4,0-23.68-8.48-23.68-20.32,0-13,6.88-20,31.36-25.6,13.44-3,15.52-8.8,15.52-14.56,0-5.92-4-10.56-11-10.56-7.36,0-11,5.44-11,12.8a20.69,20.69,0,0,0,.64,5.28,24.8,24.8,0,0,1-8,1.12c-10.08,0-13.6-5.44-13.6-10.72,0-9.6,10.4-19.68,32.32-19.68,23.2,0,33.12,9.28,33.12,24.64v34.56c0,7.2,3.69,9.12,7.85,9.12A9.09,9.09,0,0,0,2424.54,377.34Zm-71.37-86.4c0-6.08,5.28-11.2,11.68-11.2s11.68,5.12,11.68,11.2-5.28,11.2-11.68,11.2S2353.17,297,2353.17,290.94Zm35.68,71.68V351.1l-11.52,4.64c-8.48,3.52-10.72,7.36-10.72,12.16,0,4.48,3.2,8.8,10.24,8.8C2384.21,376.7,2388.85,372.06,2388.85,362.62Zm-5-71.68c0-6.08,5.28-11.2,11.69-11.2s11.67,5.12,11.67,11.2-5.28,11.2-11.67,11.2S2383.89,297,2383.89,290.94Z" transform="translate(-91.85 -72.62)"/><path d="M2424.66,351.1c0-25.28,17.76-41.28,40.64-41.28s40.48,16,40.48,41.28-17.6,41.44-40.48,41.44S2424.66,376.38,2424.66,351.1Zm13.6-60.16c0-6.08,5.28-11.2,11.68-11.2s11.68,5.12,11.68,11.2-5.28,11.2-11.68,11.2S2438.26,297,2438.26,290.94Zm42.24,60.16c0-20.32-5.28-28-15.2-28s-15.36,7.68-15.36,28c0,20.48,5.44,28.16,15.36,28.16S2480.5,371.58,2480.5,351.1ZM2469,290.94c0-6.08,5.28-11.2,11.68-11.2s11.68,5.12,11.68,11.2-5.28,11.2-11.68,11.2S2469,297,2469,290.94Z" transform="translate(-91.85 -72.62)"/><path d="M2592.82,370.14c0,5.28,2.08,7,8.48,7h7.84V390H2553.3v-12.8h7.84c6.4,0,8.32-1.76,8.32-7V322.78c0-5.12-1-6.56-7-6.56h-9.12v-12.8c11.52-.64,21.92-6.24,26.72-15.2h12.8Z" transform="translate(-91.85 -72.62)"/><path d="M2697.76,373.18c0,12-8,19.2-21.12,19.2-13,0-25.92-6.88-36.16-6.88-5.76,0-9.76,1.76-12.16,4.48H2616.8v-4c0-21.6,10.88-32.8,29.28-43,18.08-10.08,24.16-17.6,24.16-28.64,0-10.24-5.28-15.52-14.24-15.52-11.84,0-15.52,10.24-15.52,19a21.89,21.89,0,0,0,1.6,9,40.5,40.5,0,0,1-6.08.48c-9.92,0-17.76-4.48-17.76-15,0-13,11.84-26.88,37.92-26.88,25,0,39.68,12.16,39.68,30.72,0,20.32-18.08,32.48-38.08,41.44-13,5.92-21.28,10.88-23.84,17.6,4.32-4.8,11.84-7.84,19-7.84,10.24,0,16.32,2.56,26.72,2.56,6.24,0,11.68-1.92,15.2-8.16A24.12,24.12,0,0,1,2697.76,373.18Z" transform="translate(-91.85 -72.62)"/><path d="M2786.82,359.26c0,19.36-16,33.44-42.73,33.44-27.84,0-38.88-12.48-38.88-23.52,0-11.84,10.08-17.28,23.52-15.84a24.46,24.46,0,0,0-1.44,8.64c0,8.64,5,17.28,17.13,17.28,10.24,0,16.64-6.4,16.64-17.76,0-12.8-11.2-17.44-24.81-17.44v-13c16.65,0,22.57-8.48,22.57-18.24,0-9.28-5.28-14.24-14.24-14.24-10.25,0-13.92,8-13.92,15.2a17,17,0,0,0,1.76,7.84c-11.85,2.24-23.37-1.12-23.37-13.44,0-10.4,12-22.88,36.32-22.88,24.49,0,38.09,10.08,38.09,24.64,0,12.48-8,19.68-18.08,23.2C2777.7,336.86,2786.82,345.82,2786.82,359.26Z" transform="translate(-91.85 -72.62)"/><path d="M2872.22,377.18h6.08V390h-54.08v-12.8h7.84c6.4,0,8.32-1.76,8.32-7v-7.68h-45.6V345.18l33.76-57H2861L2811.9,345h28.48V322h23.36v23h22.08l-10.08,17.44h-12v7.68C2863.74,375.42,2865.82,377.18,2872.22,377.18Z" transform="translate(-91.85 -72.62)"/><path d="M2965.88,356.7c0,21.12-16.16,35.84-42.4,35.84-25.6,0-35.2-12-35.2-22.56,0-12.16,9.6-17,23-15.36a19.63,19.63,0,0,0-1.44,8.16c0,7.36,3.52,16.64,14.88,16.64,10.24,0,15.52-7.84,15.52-21.44,0-15.84-8.8-19.52-16.48-19.52-5.92,0-11.52,2.24-14.4,5.12L2892.28,341l6.72-52.8h67.52L2955,307.9h-44.16l-3.36,24.64c4.64-5,11.52-8.48,22.56-8.48C2952,324.06,2965.88,336.7,2965.88,356.7Z" transform="translate(-91.85 -72.62)"/><path d="M3059.2,357.82c0,20.16-16.49,35-41.29,35-24.64,0-43.36-14.88-43.36-48,0-33,14.56-59.52,48.32-59.52,21.6,0,32.8,9.6,32.8,20.32,0,10.88-9.28,15.68-21.76,12.16a19,19,0,0,0,.8-6.24c0-5.92-3.36-12.64-13.12-12.64-15.52,0-21.76,18.08-21.92,36.48,5.44-6.56,14.24-10.08,24-10.08C3046.39,325.34,3059.2,337.5,3059.2,357.82Zm-24.65,1.28c0-14.4-7.52-20.32-16.16-20.32-8.48,0-18.08,6.08-18.08,20.48,0,13.6,8.16,20.32,17.12,20.32C3026.71,379.58,3034.55,373.18,3034.55,359.1Z" transform="translate(-91.85 -72.62)"/><path d="M3141.5,288.22V294c0,26.08-30.4,35-34.88,96h-28.16c3.84-53.12,36.16-64.32,46.08-86.4-4.32,4.8-10.4,7.84-18.88,7.84-9.12,0-17-2.24-24.8-2.24-6.57,0-11.69,2.08-14.73,6.4a23.52,23.52,0,0,1-1.92-9.12c0-12.8,8.81-19.36,20.17-19.36,14.88,0,23,5.6,34.24,5.6,5.28,0,9.6-2.24,11.2-4.48Z" transform="translate(-91.85 -72.62)"/><path d="M3226.89,362c0,18.88-15.36,30.88-42.24,30.88-25.92,0-39.84-11.2-39.84-28.16,0-9.76,6.72-20.32,19.84-26.08-9.6-5.92-15.84-13.44-15.84-25.12,0-14.72,12.32-28.16,37.28-28.16h.16c25.28,0,37.44,11.52,37.44,26.24,0,8.8-3.84,16.32-16.48,23.2C3218.73,341.34,3226.89,349.82,3226.89,362Zm-25,4c0-9-6.4-12.16-16.8-17.12l-9.44-4.48a22.19,22.19,0,0,0-9.44,18.4c0,11,8.64,16.48,19.84,16.48C3195.21,379.26,3201.93,374.62,3201.93,366Zm-30.24-55.68c0,6.72,6.72,10.56,15.2,14.56l8.8,4.16c6.24-4.32,8.8-9.6,8.8-16.16,0-9.28-8-14.4-17.6-14.4C3178.57,298.46,3171.69,302.3,3171.69,310.3Z" transform="translate(-91.85 -72.62)"/><path d="M3320.09,333.34c0,33-13,59.52-48,59.52-21.76,0-33.76-9.76-33.76-21.28,0-10.88,10.08-14.88,21.76-11.2a19,19,0,0,0-.8,6.24c0,5.92,3.84,12.64,13.76,12.64,16.16,0,21.76-17.92,21.76-36.32-5.6,6.56-14.4,9.92-24.16,9.92-22.88,0-35.84-12.16-35.84-32.48,0-19.36,16.64-35,41.6-35C3301.21,285.34,3320.09,300.22,3320.09,333.34Zm-25.76-14.4c0-13.6-8.32-20.32-17.44-20.32-9.44,0-17.44,6.4-17.44,20.48,0,14.4,7.68,20.32,16.48,20.32C3284.57,339.42,3294.33,333.34,3294.33,318.94Z" transform="translate(-91.85 -72.62)"/><path d="M3330,339.1c0-32.64,18.88-53.6,44.64-53.6s44.32,21,44.32,53.6-18.56,53.76-44.32,53.76S3330,371.74,3330,339.1Zm62.4,0c0-28.8-6.56-39.84-17.76-39.84s-18.08,11-18.08,39.84,6.88,39.84,18.08,39.84C3385.72,378.94,3392.44,367.9,3392.44,339.1Z" transform="translate(-91.85 -72.62)"/></svg>