<svg id="Tele2_Slab_kopia_2" data-name="Tele2 Slab kopia 2" xmlns="http://www.w3.org/2000/svg" viewBox="0 0 3073.23 340.88"><title>Lindex_01</title><path d="M164.65,185.58H116.33L104.65,216H91.85l42.56-108.8h12.48L189.45,216H176.17Zm-4.48-11.36-19.68-51.84-19.84,51.84Z" transform="translate(-91.85 -78.22)"/><path d="M279.05,185.9c0,17.44-13.6,30.08-34.4,30.08H206.09V107.18h37.76c19.2,0,31.84,11.52,31.84,27.36,0,11.68-6.56,20.32-16.64,24.32C271.53,163,279.05,172.94,279.05,185.9Zm-60.64-67.36v35.2h24c11.52,0,20.8-5.44,20.8-17.92,0-12.16-9.28-17.28-20.64-17.28Zm48.16,66.4c0-13.92-10.4-20-22.88-20H218.41v39.68h25.12C256.17,204.62,266.57,198.54,266.57,184.94Z" transform="translate(-91.85 -78.22)"/><path d="M293.13,161.74c0-33.6,24-56.64,53.28-56.64,15.36,0,27.36,4.48,36.64,13.6l-3.2,12.64c-7.52-8.32-17.28-14.4-33.6-14.4-22.08,0-40.48,17.76-40.48,44.8s18.4,44.64,40.48,44.64c17,0,27-6.72,34.88-15.36l3,12.64c-9.12,9.6-21.6,14.56-37.76,14.56C317.13,218.22,293.13,195.34,293.13,161.74Z" transform="translate(-91.85 -78.22)"/><path d="M491.37,161.58c0,32.64-24.32,54.4-54.4,54.4H404.65V107.18H437C467.05,107.18,491.37,128.94,491.37,161.58Zm-12.8,0c0-25.6-18.24-42.72-41.6-42.72H417.29V204.3H437C460.33,204.3,478.57,187.18,478.57,161.58Z" transform="translate(-91.85 -78.22)"/><path d="M579.05,204.46V216H512.8V107.18h65.29V118.7H525.44v35.52h48.49v11.52H525.44v38.72Z" transform="translate(-91.85 -78.22)"/><path d="M616,118.7v37.44h45.76v11.52H616V216H603.36V107.18H669.6V118.7Z" transform="translate(-91.85 -78.22)"/><path d="M734.08,218.22c-30.08,0-54.24-22.72-54.24-56.48,0-33.44,24.48-56.64,55.2-56.64,17,0,31.68,5.12,40.32,14.08l-3.2,12.8c-7.36-8.64-19.52-15-37.44-15-23.68,0-42.24,17.92-42.24,44.8,0,27,18.24,44.8,41.28,44.8,18.4,0,34.56-9.6,38.24-31.2H734.72V164H784.8C786.08,197.42,763.84,218.22,734.08,218.22Z" transform="translate(-91.85 -78.22)"/><path d="M892.32,107.18V216H879.84V165.74H817.92V216H805.28V107.18h12.64v47h61.92v-47Z" transform="translate(-91.85 -78.22)"/><path d="M920.48,107.18h12.64V216H920.48Z" transform="translate(-91.85 -78.22)"/><path d="M950.08,208.62,953.44,196c6.4,7.52,16.32,10.56,25,10.56,12.8,0,20.64-7,20.64-22.56v-76.8h12.32v78.4c0,20.64-13.28,32.64-32.48,32.64Q961.12,218.22,950.08,208.62Z" transform="translate(-91.85 -78.22)"/><path d="M1101.28,216l-49.77-53.6V216h-12.64V107.18h12.64v50.24l49.93-50.24h16.16l-52.81,52.16,53,56.64Z" transform="translate(-91.85 -78.22)"/><path d="M1200,204.46V216h-67.2V107.18h12.64v97.28Z" transform="translate(-91.85 -78.22)"/><path d="M1331.83,216l-17-92-31.52,92h-9.12l-31.68-92.32L1225.75,216h-12.64l20.8-108.8h14.56l30.4,88.16,30.24-88.16h14.56l21,108.8Z" transform="translate(-91.85 -78.22)"/><path d="M1453.75,107.18V216h-12.64l-62.88-89v89h-12.64V107.18h12.64l62.88,89v-89Z" transform="translate(-91.85 -78.22)"/><path d="M1475.19,161.58c0-32.32,23.68-56.64,53.92-56.64,30.08,0,53.76,24.32,53.76,56.64s-23.68,56.64-53.76,56.64C1498.87,218.22,1475.19,193.9,1475.19,161.58Zm95,0c0-25.28-17.44-44.8-41.12-44.8-23.84,0-41.12,19.52-41.12,44.8s17.28,44.8,41.12,44.8C1552.79,206.38,1570.23,186.86,1570.23,161.58Z" transform="translate(-91.85 -78.22)"/><path d="M1680,141.1c0,20.32-15,35-35.84,35h-27V216h-12.64V107.18h39.68C1664.63,107.18,1680,121.26,1680,141.1Zm-12.48.48c0-16.16-12.32-23-24.8-23h-25.6v46.08h25.6C1655.19,164.62,1667.51,157.74,1667.51,141.58Z" transform="translate(-91.85 -78.22)"/><path d="M1780.15,207.34l13.76,18.4h-14.08l-9.28-12.64a51.45,51.45,0,0,1-22.72,5.12c-30.24,0-53.92-24.32-53.92-56.64s23.68-56.64,53.92-56.64c30.08,0,53.76,24.32,53.76,56.64C1801.59,180.78,1793.27,197.1,1780.15,207.34Zm-16.8-4-19-25.76h13.76l14.88,20c9.92-8.16,16-21,16-36,0-25.28-17.44-44.8-41.12-44.8-23.84,0-41.12,19.52-41.12,44.8s17.28,44.8,41.12,44.8A41.28,41.28,0,0,0,1763.35,203.34Z" transform="translate(-91.85 -78.22)"/><path d="M1862.07,173.58l32.16,42.4h-15l-31.84-42.4h-11.52V216h-12.65V107.18h36.65c20.8,0,36.16,14.24,36.16,33C1896,157.9,1881.91,172.62,1862.07,173.58Zm-26.24-10.88h22.4c12.8,0,25.28-7,25.28-22.08s-12.48-22.08-25.28-22.08h-22.4Z" transform="translate(-91.85 -78.22)"/><path d="M1912.78,205.42l3.52-13.76c7.2,9.76,19.2,14.88,30.72,14.88,13.28,0,23-8.32,23-19.68,0-11-7.52-15.68-20.32-19.68l-5.12-1.6c-19.52-5.92-29.28-14.72-29.28-30.24,0-16.16,13.28-30.56,34.88-30.56,13.12,0,25.12,5.12,30.4,11.84l-3.2,12.32c-6.72-8.64-16.32-12.8-27.2-12.8-13.12,0-22.4,7.84-22.4,18.56,0,11.2,8.32,15.84,21,19.68l4.32,1.12c15.68,4.64,29.76,11.68,29.76,31.2,0,17.92-15.84,31.52-35.68,31.52C1931.5,218.22,1920.14,213.1,1912.78,205.42Z" transform="translate(-91.85 -78.22)"/><path d="M2077.42,118.7H2043V216h-12.48V118.7H1996V107.18h81.44Z" transform="translate(-91.85 -78.22)"/><path d="M2096,177.26V107h12.64v69.44c0,16.8,9.44,30.08,28.32,30.08s28.48-13.28,28.48-30.08V107h12.48v70.24c0,23.52-15.36,41-41,41C2111.5,218.22,2096,200.78,2096,177.26Z" transform="translate(-91.85 -78.22)"/><path d="M2291.18,107.18,2248.94,216h-12.8l-42.24-108.8h13.28l35.68,92.64,35.52-92.64Z" transform="translate(-91.85 -78.22)"/><path d="M2442.38,107.18,2412.46,216h-15.84l-25.44-91.2-25.6,91.2h-15.84l-29.92-108.8h13.12l25.28,95,26.88-95h12.48l26.88,95.36,25.44-95.36Z" transform="translate(-91.85 -78.22)"/><path d="M2535.18,216l-35-47.36-35,47.36h-14.4L2492,160.46l-39.52-53.28h14.72l33.44,45.12,33.44-45.12h14.4l-39.68,53.28L2549.9,216Z" transform="translate(-91.85 -78.22)"/><path d="M2609.42,172.78V216h-12.64V173.1l-42.08-65.92h14.4l34.24,53.12,33.76-53.12h14.08Z" transform="translate(-91.85 -78.22)"/><path d="M2743.34,117.74l-67.52,86.72h67.52V216h-82.88V205.26l67-86.56h-65.92V107.18h81.76Z" transform="translate(-91.85 -78.22)"/><path d="M2825.26,185.58h-48.32L2765.26,216h-12.8l41.92-107.2a15.57,15.57,0,0,1-10.08-14.56c0-8.8,7.2-16,16.8-16,9.92,0,17,7.2,17,16a15.43,15.43,0,0,1-9.92,14.56L2850.06,216h-13.28Zm-4.48-11.36-19.68-51.84-19.84,51.84Zm-28.16-80c0,4.64,3.2,8.32,8.48,8.32s8.48-3.68,8.48-8.32a8.48,8.48,0,0,0-17,0Z" transform="translate(-91.85 -78.22)"/><path d="M2928,185.58h-48.32L2868,216h-12.8l42.56-108.8h12.48L2952.78,216H2939.5Zm-48-96.64a8.24,8.24,0,1,1,8.16,8A8.16,8.16,0,0,1,2880,88.94Zm43.52,85.28-19.68-51.84L2884,174.22Zm-12.16-85.28a8.31,8.31,0,0,1,8.32-8,8,8,0,1,1,0,16A8.31,8.31,0,0,1,2911.34,88.94Z" transform="translate(-91.85 -78.22)"/><path d="M2959.82,161.58c0-32.32,23.68-56.64,53.92-56.64,30.08,0,53.76,24.32,53.76,56.64s-23.68,56.64-53.76,56.64C2983.5,218.22,2959.82,193.9,2959.82,161.58Zm95,0c0-25.28-17.44-44.8-41.12-44.8-23.84,0-41.12,19.52-41.12,44.8s17.28,44.8,41.12,44.8C3037.42,206.38,3054.86,186.86,3054.86,161.58Zm-65.12-72.64a8.24,8.24,0,1,1,8.16,8A8.16,8.16,0,0,1,2989.74,88.94Zm31.36,0a8.31,8.31,0,0,1,8.32-8,8,8,0,1,1,0,16A8.31,8.31,0,0,1,3021.1,88.94Z" transform="translate(-91.85 -78.22)"/><path d="M147.21,390a48.15,48.15,0,0,1-1.76-12.16c-2.88,8-12,14.24-23,14.24-17.12,0-26.24-9.92-26.24-22.56,0-14.72,11.68-21.6,28.64-24,11.52-1.6,20-3.2,20-11.52,0-6.72-4.64-13-17.92-13-12.32,0-21.28,6.72-24.8,12.32l-2.88-11.52c4.48-5.76,14.72-11.52,28.16-11.52,19.68,0,29.12,10.4,29.12,23.84V371.9c0,9.92,1,16.64,1.44,18.08Zm-2.4-41.92c-2.88,3.68-8.32,5.28-17.76,6.72-11.68,1.6-19.2,5.28-19.2,14.56,0,6.88,6.08,12.48,16,12.48,11.68,0,21-6.72,21-21.12Z" transform="translate(-91.85 -78.22)"/><path d="M254.89,351.42c0,22.56-13.92,40.48-35.68,40.48-12.17,0-22.57-5.28-28.33-17.76V390H180.16V281.18H192V326.3c5.92-10.88,15.84-15.52,27.21-15.52C241,310.78,254.89,328.7,254.89,351.42Zm-12,0c0-16.8-9.92-29.76-25.61-29.76S191,334.62,191,351.42c0,16.64,10.56,29.6,26.24,29.6S242.89,368.06,242.89,351.42Z" transform="translate(-91.85 -78.22)"/><path d="M267,351.42c0-24.32,17-41.12,39-41.12,11.36,0,20.16,3.36,26.4,9.44l-2.88,11.52c-4.8-5.44-11.68-9.76-23.2-9.76-15.2,0-27.52,11.68-27.52,29.92S291.2,381,306.4,381c11.84,0,19-4.64,24-10.24l2.88,11.36c-6.56,6.56-15.52,10.08-27.2,10.08C284,392.22,267,375.58,267,351.42Z" transform="translate(-91.85 -78.22)"/><path d="M418.24,281.18V390H407.36V374.46c-5.76,12.16-16.16,17.44-28.16,17.44-21.76,0-35.68-17.92-35.68-40.48,0-22.72,13.92-40.64,35.68-40.64,11.36,0,21.28,4.64,27.2,15.52V281.18Zm-11,70.24c0-16.8-10.4-29.76-26.08-29.76s-25.6,13-25.6,29.76c0,16.64,9.92,29.6,25.6,29.6S407.2,368.06,407.2,351.42Z" transform="translate(-91.85 -78.22)"/><path d="M506.08,352.86H447.84c.32,17.44,10.88,28.32,27,28.32,12.48,0,21-5.76,25.92-11.68l2.88,11.2c-6.24,7.2-16.8,11.52-29.12,11.52-23,0-38.4-16.16-38.4-40,0-23,14.56-41.76,36.16-41.76s34.08,15.36,34.08,37A30.86,30.86,0,0,1,506.08,352.86Zm-57.44-9.6h46.08c-1.6-13.6-9-22.08-22.72-22.08C459.36,321.18,451.2,330.3,448.64,343.26Z" transform="translate(-91.85 -78.22)"/><path d="M542.08,306.3v6.4h18.4v10.4h-18.4V390H530.24V323.1H515.68V312.7h14.56V306c0-16.64,8.48-26.88,24.48-26.88,4.64,0,8.48.8,10.08,1.76v10.88A20.51,20.51,0,0,0,556,290C545.92,290,542.08,296.38,542.08,306.3Z" transform="translate(-91.85 -78.22)"/><path d="M641.28,312.7v71c0,23.68-16.32,35.36-36.48,35.36-15,0-25.6-5-30.4-10.24L577,397.18c5,6.24,15.2,11.2,27.52,11.2,15.52,0,25-8.8,25-24.8v-9.92c-5.76,10.24-15.36,14.72-26.08,14.72-21.28,0-34.72-17.12-34.72-38.72,0-21.92,13.44-38.88,34.72-38.88,11.52,0,21.6,5,27.2,16.8V312.7Zm-11,37c0-15.84-10.08-28.16-25.12-28.16-15.2,0-24.48,12.32-24.48,28.16,0,15.52,9.28,27.84,24.48,27.84C620.16,377.5,630.24,365.18,630.24,349.66Z" transform="translate(-91.85 -78.22)"/><path d="M727.68,338.46V390H715.84V343.1c0-13.12-5.44-21.44-17.92-21.44s-21.6,9.6-21.6,22.88V390H664.48V281.18h11.84v44.16c4.64-9.92,13.76-14.56,24.16-14.56C716.32,310.78,727.68,322.3,727.68,338.46Z" transform="translate(-91.85 -78.22)"/><path d="M748.64,291.42a8.32,8.32,0,1,1,8.32,8.16A8.33,8.33,0,0,1,748.64,291.42ZM751,312.7h11.84V390H751Z" transform="translate(-91.85 -78.22)"/><path d="M768.63,417.66V406.94a26,26,0,0,0,5.29.48c10.4,0,13.28-6.08,13.28-15.52V312.7H799V393c0,15-7.2,25.44-23.21,25.44A31.87,31.87,0,0,1,768.63,417.66ZM784.8,291.42a8.32,8.32,0,1,1,8.32,8.16A8.33,8.33,0,0,1,784.8,291.42Z" transform="translate(-91.85 -78.22)"/><path d="M870.24,390l-35.36-38.56V390H823V281.18h11.84V346.3l32.48-33.6h15L847,348.22,885.92,390Z" transform="translate(-91.85 -78.22)"/><path d="M897.11,281.18H909V390H897.11Z" transform="translate(-91.85 -78.22)"/><path d="M1041.92,338v52h-11.84V342.3c0-12.64-5-20.64-16.48-20.64-11.68,0-20.33,9.6-20.33,22.88V390H981.43V342.3c0-12.64-5.28-20.64-16.64-20.64-11.68,0-20.16,9.6-20.16,22.88V390H932.79V312.7H944v13.6c4.32-10.4,13.28-15.52,23.52-15.52a24.74,24.74,0,0,1,23.68,16c5.6-10.08,14.08-16,25-16C1031.2,310.78,1041.92,322,1041.92,338Z" transform="translate(-91.85 -78.22)"/><path d="M1128.31,338.46V390h-11.84V343.1c0-13.12-5.44-21.44-17.92-21.44s-21.6,9.6-21.6,22.88V390h-11.84V312.7h11.2v14.08c4.48-10.88,13.92-16,24.8-16C1117,310.78,1128.31,322.3,1128.31,338.46Z" transform="translate(-91.85 -78.22)"/><path d="M1145.59,351.42c0-22.88,15.84-41,38.24-41s38.08,18.08,38.08,41c0,22.72-15.68,40.8-38.08,40.8S1145.59,374.14,1145.59,351.42Zm64.32,0c0-17-10.4-29.92-26.08-29.92s-26.24,13-26.24,29.92c0,16.8,10.56,29.76,26.24,29.76S1209.91,368.22,1209.91,351.42Z" transform="translate(-91.85 -78.22)"/><path d="M1314.71,351.42c0,22.56-13.92,40.48-35.68,40.48-11.36,0-21.28-4.64-27.2-15.52v40.8H1240V312.7h10.72v15.84c5.76-12.48,16.16-17.76,28.32-17.76C1300.79,310.78,1314.71,328.7,1314.71,351.42Zm-12,0c0-16.8-9.92-29.76-25.6-29.76s-26.24,13-26.24,29.76c0,16.64,10.56,29.6,26.24,29.6S1302.71,368.06,1302.71,351.42Z" transform="translate(-91.85 -78.22)"/><path d="M1401.59,312.7V417.18h-11.84v-40.8c-5.92,10.88-15.84,15.52-27.2,15.52-21.76,0-35.68-17.92-35.68-40.48,0-22.72,13.92-40.64,35.68-40.64,12,0,22.4,5.28,28.16,17.44V312.7Zm-11,38.72c0-16.8-10.4-29.76-26.08-29.76s-25.6,13-25.6,29.76c0,16.64,9.92,29.6,25.6,29.6S1390.55,368.06,1390.55,351.42Z" transform="translate(-91.85 -78.22)"/><path d="M1464.79,312.7v12.16a26,26,0,0,0-6.56-.64c-13.12,0-21.12,9.6-21.12,28.64V390h-11.84V312.7h11.2v16.16c2.88-10.72,11-17,21.6-17A22.4,22.4,0,0,1,1464.79,312.7Z" transform="translate(-91.85 -78.22)"/><path d="M1475,382.94l2.88-11.68c5.44,6.88,14.56,10.24,23.52,10.24,9.92,0,15.84-5,15.84-12.48,0-7.68-5.76-10.08-13.92-12.32l-4-1.12c-14.24-3.84-23-9.92-23-22.56,0-12.16,10.24-22.72,27.2-22.72,9.76,0,19,3.2,23.68,8.32l-2.88,11.2c-5-6.08-13.12-9-20.64-9-9.12,0-15.52,4.8-15.52,11.68,0,7.2,5.76,10.08,14.56,12.48l3.52,1c12.8,3.2,22.89,8.32,22.89,22.72,0,13.6-11.69,23.52-27.69,23.52C1489.26,392.22,1480,388.06,1475,382.94Z" transform="translate(-91.85 -78.22)"/><path d="M1564.3,323.1v44.8c0,6.88,2.4,12.32,11.52,12.32a17,17,0,0,0,8.48-1.92v11a21.64,21.64,0,0,1-10.4,2.4c-16.64,0-21.44-9.76-21.44-22.24V323.1h-13.12v-8.64c10.24-1,14.24-5.6,16.48-22.72h8.48v21h20v10.4Z" transform="translate(-91.85 -78.22)"/><path d="M1662.38,312.7V390h-11.2V376.7c-4.16,10.4-13.76,15.36-24.16,15.36-15.2,0-27-10.56-27-26.4v-53h11.84V361c0,12.32,6.24,20,18.08,20,12.32,0,20.64-9.12,20.64-21.92V312.7Z" transform="translate(-91.85 -78.22)"/><path d="M1750.54,312.7,1719.18,390h-11.36l-31.36-77.28h12.64l24.64,61.76,24.64-61.76Z" transform="translate(-91.85 -78.22)"/><path d="M1868.46,312.7,1844.94,390h-12.48l-19.84-61.6L1792.78,390H1780L1756.3,312.7h12.32l18.56,63.68,20.32-63.68h10.24l20.64,64,18.4-64Z" transform="translate(-91.85 -78.22)"/><path d="M1931.66,390,1909.1,358.3,1886.38,390h-13.12l29-39.68-26.88-37.6h13.6l20.64,29.12,20.48-29.12h13.12l-26.56,37L1945.26,390Z" transform="translate(-91.85 -78.22)"/><path d="M2021.26,312.7l-33.6,80.48c-6.56,15.84-14.72,24.8-28,24.8-3.2,0-7.68-.64-10.24-2.24v-10.4a20.78,20.78,0,0,0,8.64,1.6c7.68,0,13.76-3.84,19.52-17.76l1-2.24-29.92-74.24h12.64l23.36,59.36,24.32-59.36Z" transform="translate(-91.85 -78.22)"/><path d="M2088.62,322.3l-44.8,57.12h44.8V390h-59.36v-9.6l44.8-57.12h-44V312.7h58.56Z" transform="translate(-91.85 -78.22)"/><path d="M2152.94,390a48.15,48.15,0,0,1-1.76-12.16c-2.88,8-12,14.24-23,14.24-17.12,0-26.24-9.92-26.24-22.56,0-14.72,11.68-21.6,28.64-24,11.52-1.6,20-3.2,20-11.52,0-6.72-4.64-13-17.92-13-12.32,0-21.28,6.72-24.8,12.32l-2.88-11.52c4.48-5.76,14.72-11.52,28.16-11.52,19.68,0,29.12,10.4,29.12,23.84V371.9c0,9.92,1,16.64,1.44,18.08Zm-2.4-41.92c-2.88,3.68-8.32,5.28-17.76,6.72-11.68,1.6-19.2,5.28-19.2,14.56,0,6.88,6.08,12.48,16,12.48,11.68,0,21-6.72,21-21.12ZM2117.9,287.9c0-8,6.56-14.56,15.36-14.56,9,0,15.36,6.56,15.36,14.56s-6.4,14.4-15.36,14.4C2124.46,302.3,2117.9,295.9,2117.9,287.9Zm7.52,0c0,4.16,3,7.52,7.84,7.52a7.26,7.26,0,0,0,7.68-7.52,7.39,7.39,0,0,0-7.68-7.68A7.52,7.52,0,0,0,2125.42,287.9Z" transform="translate(-91.85 -78.22)"/><path d="M2232,390a48.15,48.15,0,0,1-1.76-12.16c-2.88,8-12,14.24-23,14.24-17.12,0-26.24-9.92-26.24-22.56,0-14.72,11.68-21.6,28.64-24,11.52-1.6,20-3.2,20-11.52,0-6.72-4.65-13-17.93-13-12.32,0-21.28,6.72-24.8,12.32L2184,321.82c4.48-5.76,14.72-11.52,28.16-11.52,19.69,0,29.12,10.4,29.12,23.84V371.9c0,9.92,1,16.64,1.45,18.08Zm-42.08-98.4a8.24,8.24,0,1,1,8.16,8A8.3,8.3,0,0,1,2189.89,291.58Zm39.69,56.48c-2.88,3.68-8.33,5.28-17.77,6.72-11.68,1.6-19.2,5.28-19.2,14.56,0,6.88,6.08,12.48,16,12.48,11.68,0,21-6.72,21-21.12Zm-11.53-56.48a8.44,8.44,0,0,1,8.32-8.16,8.08,8.08,0,1,1,0,16.16A8.42,8.42,0,0,1,2218.05,291.58Z" transform="translate(-91.85 -78.22)"/><path d="M2259.17,351.42c0-22.88,15.84-41,38.24-41s38.08,18.08,38.08,41c0,22.72-15.68,40.8-38.08,40.8S2259.17,374.14,2259.17,351.42Zm64.32,0c0-17-10.4-29.92-26.08-29.92s-26.24,13-26.24,29.92c0,16.8,10.56,29.76,26.24,29.76S2323.49,368.22,2323.49,351.42ZM2275,291.58a8.24,8.24,0,1,1,8.16,8A8.3,8.3,0,0,1,2275,291.58Zm28.16,0a8.44,8.44,0,0,1,8.32-8.16,8.08,8.08,0,1,1,0,16.16A8.42,8.42,0,0,1,2303.17,291.58Z" transform="translate(-91.85 -78.22)"/><path d="M2416.45,281.18V390h-11.84V300.06a35,35,0,0,1-19.36,8.16V298.3c7.68-1,18.4-7.68,22.72-17.12Z" transform="translate(-91.85 -78.22)"/><path d="M2507.33,379.26V390h-67.52v-2.24c0-19.2,13.6-31.52,28.16-43.2l8.8-7.2c10.88-8.8,17.44-16.8,17.44-28.16,0-10.72-7.2-19.2-22.08-19.2-10.24,0-20.32,5.44-27.2,15.68l-2.88-11.84c6.24-9.44,18.56-15,30.4-15,21.6,0,33.76,13.28,33.76,30.24,0,15.52-9.12,26.08-21.76,36.32l-8.8,7.36c-10.4,8.64-19.84,16.48-22.72,26.56Z" transform="translate(-91.85 -78.22)"/><path d="M2586,359.58c0,18.88-14.08,32.8-34.88,32.8-12.64,0-23.84-2.88-32.32-11.68l3-12c6.56,8.48,17.12,12.48,29.12,12.48,14.41,0,23.21-9.12,23.21-21.6,0-12.64-10.09-21.28-26.41-21.92l-4.16-.16v-9.44l4.16-.16c15.37-.64,23.69-9.76,23.69-20.8,0-9.76-7.37-17-20.33-17a33.13,33.13,0,0,0-26.88,13.12l-2.88-11.84c6.72-8,17.92-12.48,30.24-12.48,19.2,0,31.69,11.52,31.69,27.36a27.22,27.22,0,0,1-17.45,25.76C2578,336.22,2586,346.3,2586,359.58Z" transform="translate(-91.85 -78.22)"/><path d="M2674.68,364.54h-15.2V390H2648V364.54h-50.08v-9.76l45.28-73.6h16.32V354.3h15.2ZM2648,354.3V293.18l-37.6,61.12Z" transform="translate(-91.85 -78.22)"/><path d="M2752.28,356.06c0,20.32-13.6,36.32-36.32,36.32-12.64,0-25.76-4.32-32.16-12l3-12c6.24,7.84,17.12,12.8,28.8,12.8,16.32,0,24.8-11.52,24.8-25.12,0-14.4-9.28-23.68-25-23.68-7.52,0-14.24,3-17.44,5.76l-8.16-2.08,7.52-54.88h51.68V291.9h-42.4l-4.48,33.6a38.75,38.75,0,0,1,15.68-3.2C2737.4,322.3,2752.28,335.26,2752.28,356.06Z" transform="translate(-91.85 -78.22)"/><path d="M2838.2,356.86c0,20.32-14.56,35.52-35.2,35.52s-36-15.36-36-41.76c0-42.08,24.64-71.68,60.48-70.08v11c-24.32-1-44,17-47.2,43.52,6.24-9.76,16.64-12.8,25.28-12.8C2824.6,322.3,2838.2,336.7,2838.2,356.86Zm-11.84,0c0-13.92-8.8-24.16-23-24.16s-24,10.56-24,24.16c0,13.76,9.44,24.32,23.52,24.32C2817.08,381.18,2826.36,370.94,2826.36,356.86Z" transform="translate(-91.85 -78.22)"/><path d="M2911.16,281.18V291.9c-21.6,25.6-38.72,71.68-40.8,98.08h-12.8c1.92-26.88,19.84-72,40-98.08h-52.32V281.18Z" transform="translate(-91.85 -78.22)"/><path d="M2991,359.74c0,18.4-14.88,32.64-35.68,32.64-21,0-35.84-14.24-35.84-32.64,0-12.32,7.68-23.36,19.52-28.8-9.12-4.8-14.88-13.44-14.88-23.36,0-15.84,12.8-28.64,31.2-28.64,18.24,0,31,12.8,31,28.64,0,9.92-5.76,18.56-14.88,23.36C2983.32,336.38,2991,347.26,2991,359.74Zm-11.68-.64c0-12.48-10.24-22.4-24-22.4-13.92,0-24,9.92-24,22.4,0,12.32,9.76,22.24,24,22.24S2979.32,371.42,2979.32,359.1Zm-43.68-51.2c0,9.92,8.32,17.92,19.68,17.92,11.2,0,19.68-8,19.68-17.92s-8.16-18.08-19.68-18.08S2935.64,298,2935.64,307.9Z" transform="translate(-91.85 -78.22)"/><path d="M3074.36,320.54c0,42.08-24.64,71.68-60.48,70.08v-11c24.32,1,44-17,47.2-43.52-6.24,9.76-16.64,12.8-25.28,12.8-19,0-32.64-14.4-32.64-34.56,0-20.32,14.56-35.52,35.2-35.52S3074.36,294.14,3074.36,320.54ZM3062,314.3c0-13.76-9.44-24.32-23.52-24.32-14.24,0-23.52,10.24-23.52,24.32,0,13.92,8.8,24.16,23,24.16S3062,327.9,3062,314.3Z" transform="translate(-91.85 -78.22)"/><path d="M3165.08,334.94v1.28c0,34.4-14.88,56.16-37.44,56.16s-37.6-21.76-37.6-56.16v-1.28c0-34.4,15-56.16,37.6-56.16S3165.08,300.54,3165.08,334.94Zm-37.44-44.8c-15.52,0-25.28,16.48-25.28,44.8v1.28c0,28,9.76,44.8,25.28,44.8,15.36,0,25.12-16.8,25.12-44.8v-1.28C3152.76,306.62,3143,290.14,3127.64,290.14Z" transform="translate(-91.85 -78.22)"/></svg>