<svg id="Tele2_Slab_kopia_2" data-name="Tele2 Slab kopia 2" xmlns="http://www.w3.org/2000/svg" viewBox="0 0 259.94 211.84"><title>Lindex_QP</title><path d="M104.22,312.83l6.58-25.69c13.44,18.22,35.85,27.78,57.36,27.78,24.8,0,43-15.53,43-36.75,0-20.61-14-29.28-37.95-36.75l-9.56-3C127.23,227.38,109,211,109,182c0-30.17,24.79-57.06,65.13-57.06,24.5,0,46.91,9.56,56.77,22.11l-6,23c-12.55-16.13-30.47-23.9-50.79-23.9-24.5,0-41.83,14.64-41.83,34.66,0,20.91,15.54,29.58,39.14,36.75l8.07,2.09c29.28,8.67,55.57,21.81,55.57,58.26,0,33.47-29.58,58.86-66.63,58.86C139.18,336.73,118,327.17,104.22,312.83Z" transform="translate(-104.22 -124.9)"/><path d="M263.17,319.4l5.38-21.81c10.16,12.85,27.19,19.13,43.92,19.13,18.53,0,29.58-9.27,29.58-23.31,0-14.34-10.76-18.82-26-23l-7.47-2.09c-26.59-7.17-43-18.52-43-42.13,0-22.7,19.12-42.42,50.79-42.42,18.23,0,35.56,6,44.23,15.53l-5.38,20.92c-9.27-11.35-24.5-16.73-38.55-16.73-17,0-29,9-29,21.81,0,13.44,10.76,18.82,27.19,23.3l6.57,1.8c23.91,6,42.73,15.53,42.73,42.42,0,25.4-21.81,43.92-51.69,43.92C289.76,336.73,272.43,329,263.17,319.4Z" transform="translate(-104.22 -124.9)"/></svg>