<svg id="Lager_9" data-name="Lager 9" xmlns="http://www.w3.org/2000/svg" viewBox="0 0 275.39 205.16"><title>LM_QP</title><path d="M605.07,213.82v12.94h-3.7c-9.24,0-12,2.54-12,10.17V291H576.19l-5.54-13.63c-10.4,12.24-25.65,17.56-42.74,17.56-41.59,0-71.16-31.66-71.16-80.63,0-48.75,32.11-80.87,71.85-80.87,20.56,0,37.2,9.25,44.36,19.64l4.16-16.17h12.24v44.82H576.65c-6.7-19.64-22.41-34.19-45.28-34.19-25.87,0-49.21,18.25-49.21,66.77,0,51.52,26.57,66.3,49.44,66.3,22.64,0,35.81-12.7,35.81-26.8V236.93c0-7.63-2.77-10.17-12-10.17H544.08V213.82Z" transform="translate(-456.75 -133.42)"/><path d="M718,197.65a10,10,0,0,0,.69-3.93c0-4.39-2.77-8.08-8.77-8.08a9.43,9.43,0,0,0-8.32,4.85,37.46,37.46,0,0,1,9.7,25.64c0,24.26-20.79,39.74-44.13,39.74A52.42,52.42,0,0,1,648,252.18c-6,2.54-9.94,6.69-9.94,12.24,0,6.24,5.55,9.24,18.26,9.24h24.72c24.49,0,43.66,6.7,43.66,28.42,0,25.64-24.72,36.5-58,36.5-28.88,0-51.52-7.16-51.52-25.41,0-9.24,6.47-17.1,18.48-17.1a19,19,0,0,1,6,.93c-3.23,2.07-5.54,6.93-5.54,11.78,0,10.63,9.24,18.71,33.5,18.71,25.64,0,38.12-7.39,38.12-20.56,0-9.93-8.32-14.09-25.19-14.09H655c-21,0-33.5-6.7-33.5-20.57,0-10.62,8.32-19.17,20.33-23.33-11.32-6.7-18.94-18.25-18.94-32.81,0-24.25,21-39.73,44.35-39.73,11.32,0,22.18,3.69,30,10.16l3.93-6.47c2.54-4.39,7.16-7.62,14.78-7.62,9,0,16.17,5.08,16.17,13.63,0,7.62-5.31,12-11.32,12A14,14,0,0,1,718,197.65Zm-28.65,18.48c0-20.33-10.16-28.88-22.18-28.88s-22.41,8.55-22.41,28.88S655.2,245,667.21,245,689.39,236.46,689.39,216.13Z" transform="translate(-456.75 -133.42)"/></svg>