<svg id="Acne_Studios" data-name="Acne Studios" xmlns="http://www.w3.org/2000/svg" viewBox="0 0 3269.88 365.68"><title>NilssonType-01</title><path d="M143.69,185.58h-35L99.53,216H92.17l30.24-101.6-3.2-10.4h27.68l33.28,112H152.81Zm-1.92-6.4L126.09,127l-15.52,52.16Z" transform="translate(-92.17 -64.3)"/><path d="M278.73,184.78c0,17.28-11.84,31.2-38.4,31.2H195V104h38.89c20.32,0,34.24,10.56,34.24,27.84a25.53,25.53,0,0,1-13.92,23.36C271.05,159.18,278.73,170.86,278.73,184.78Zm-56.48-74.72v43.68H233c15,0,17.44-9,17.44-21.92S248,110.06,233,110.06Zm29.28,74.72c0-13-.16-25-15.36-25H222.25V209.9h13.92C249.93,209.9,251.53,197.74,251.53,184.78Z" transform="translate(-92.17 -64.3)"/><path d="M288.32,159.82c0-34.72,14.08-55.84,45.28-55.84h21.12v6.4H338.24c-16.32,0-21.6,7-21.6,41.92,0,36.48,4.48,44.48,21.6,44.48h16.48V216H333.6C302.24,216,288.32,194.54,288.32,159.82Z" transform="translate(-92.17 -64.3)"/><path d="M374.88,104H409.6c33.6,0,51.84,21.12,51.84,55.84S443.36,216,409.6,216H374.88ZM409,209.9c13.28,0,24.32-11.36,24.32-50.08s-11-49.76-24.32-49.76h-6.88V209.9Z" transform="translate(-92.17 -64.3)"/><path d="M479.68,104h63.84v19.2H506.88v33.6h35.2v6.4h-35.2v33.6H544.8V216H479.68Z" transform="translate(-92.17 -64.3)"/><path d="M565,104H627.2v19.2h-35v33.6h33.6v6.4h-33.6V216H565Z" transform="translate(-92.17 -64.3)"/><path d="M638.4,159.82c0-34.72,14.08-55.84,47.68-55.84h28.64v19.2H686.88c-15.68,0-20.48,10.24-20.48,45.12,0,35.2,6.24,41.6,20.32,41.6h8.64V163H681.12v-6.08h38.72v59H686.08C652.32,216,638.4,194.54,638.4,159.82Z" transform="translate(-92.17 -64.3)"/><path d="M741.12,104h27.2v52.8h34.24V104h27.2V216h-27.2v-52.8H768.32V216h-27.2Z" transform="translate(-92.17 -64.3)"/><path d="M847.52,210.54h11.36V109.42H847.52V104h49.92v5.44H886.08V210.54h11.36V216H847.52Z" transform="translate(-92.17 -64.3)"/><path d="M958.24,187.5c0,18.88-7.53,28.48-34.57,28.48H905.91V209.9h9c13.12,0,16.32-1.6,16.32-17V109.42H919.83V104h38.41Z" transform="translate(-92.17 -64.3)"/><path d="M1066.23,216h-30.08l-27.68-52v52h-27.2V104h27.2v50.56L1047.19,104h8.8l-28.8,38.08Z" transform="translate(-92.17 -64.3)"/><path d="M1078.07,104h27.2v92.8h35.52V216h-62.72Z" transform="translate(-92.17 -64.3)"/><path d="M1260.79,104V216h-26.4V126.86l-32,65.12H1199l-35-64v88h-7.36V114.54L1150.87,104h28.8l30.4,55.52L1236.79,104Z" transform="translate(-92.17 -64.3)"/><path d="M1365.59,104V216h-16.8l-57-88.64V216h-7.36V116l-7.68-12h31.36l50.08,77.6V104Z" transform="translate(-92.17 -64.3)"/><path d="M1383.83,159.82c0-33.92,14.4-57.92,47.2-57.92,32.64,0,46.88,24,46.88,57.92s-14.24,58.24-46.88,58.24C1398.23,218.06,1383.83,193.74,1383.83,159.82Zm65.92,0c0-41.92-7.84-51.84-18.72-51.84s-19.2,9.92-19.2,51.84S1420.15,212,1431,212,1449.75,201.74,1449.75,159.82Z" transform="translate(-92.17 -64.3)"/><path d="M1569.27,138.86c0,22.08-14.72,37.76-33.92,37.76h-12V216h-27.2V104h39.2C1554.87,104,1569.27,116.78,1569.27,138.86Zm-17-5.44c0-13-1.6-23.36-17.44-23.36h-11.52v47.68h11.52C1550.71,157.74,1552.31,146.38,1552.31,133.42Z" transform="translate(-92.17 -64.3)"/><path d="M1653.11,211.5l12.48,15.2h-8.16l-10.08-12.16a51,51,0,0,1-19.36,3.52c-32.8,0-47.2-24.32-47.2-58.24s14.4-57.92,47.2-57.92c32.64,0,46.88,24,46.88,57.92C1674.87,183.18,1668.15,202.06,1653.11,211.5Zm-44.32-53.92,33.76,41.12c2.56-8,4.16-20.32,4.16-38.88,0-41.92-7.84-51.84-18.72-51.84C1617.27,108,1609.11,117.58,1608.79,157.58Zm30.88,47.52L1609,167.5c1,35.52,8.8,44.48,19,44.48C1632.47,212,1636.63,210.22,1639.67,205.1Z" transform="translate(-92.17 -64.3)"/><path d="M1746.71,216l-26.4-53.12V216h-27.2V104h39.2c19.52,0,33.92,12.16,33.92,29.44,0,12.32-7.36,22.24-18.72,26.72L1775.83,216Zm-26.4-105.92v46.88H1731c15.68,0,17.44-10.56,17.44-23.52s-1.76-23.36-17.44-23.36Z" transform="translate(-92.17 -64.3)"/><path d="M1782.87,209.58h20c12.32,0,15.68-7,15.68-13.92,0-5.44-2.56-12.8-11.36-24l-8.48-10.88c-8.8-11.36-13.44-19-13.44-29,0-18.24,13-27.84,35.84-27.84h23v6.4h-18.4c-10.72,0-13.44,7-13.44,12.48,0,4.64,2.08,10.72,9.6,20.48l6.56,8.64c8.64,11.52,17.12,20.48,17.12,34.72,0,17.92-11.68,29.28-38.24,29.28h-24.48Z" transform="translate(-92.17 -64.3)"/><path d="M1881,123.18h-24.8V104h77.12v19.2h-25.12V216H1881Z" transform="translate(-92.17 -64.3)"/><path d="M1949.27,179.82V104h27.2v74.08c0,11,7.68,19.36,20.32,19.36,12.16,0,19.52-8.16,19.52-19.36V104h7.36V178.7c0,20.64-7.2,39.2-35.2,39.2C1962.39,217.9,1949.27,202.06,1949.27,179.82Z" transform="translate(-92.17 -64.3)"/><path d="M2124.15,104,2091,216h-19.69L2037.9,104h27.2L2091,189.1,2116.31,104Z" transform="translate(-92.17 -64.3)"/><path d="M2267.83,104l-30.72,112h-19.68l-17.6-63.52L2182.38,216H2162.7l-31-112h27.2l23.52,84.48,13.61-49.6L2186.38,104h27.21l23.52,84.32,23-84.32Z" transform="translate(-92.17 -64.3)"/><path d="M2327.34,216,2307,171.66,2283.5,216h-8.16l27.84-52.64L2275.82,104h29.12l16.81,36.48L2341,104h8.16l-23.69,44.48L2356.63,216Z" transform="translate(-92.17 -64.3)"/><path d="M2417.58,166.54V216h-27.2V170.54L2362.7,104h29.44l21.6,53.12L2435.5,104h7.84Z" transform="translate(-92.17 -64.3)"/><path d="M2523.66,209.58l.16,6.4H2449.9v-3.84l45-101.76h-40.32V104h69.28l-.16,3.84L2479,209.58Z" transform="translate(-92.17 -64.3)"/><path d="M2581.74,185.58h-35l-9.12,30.4h-7.36l30.24-101.6-3.2-10.4h27.68l33.28,112h-27.36Zm-1.92-6.4L2564.14,127l-15.52,52.16Zm-23.2-97.6a17.44,17.44,0,1,1,17.44,17.28A17.55,17.55,0,0,1,2556.62,81.58Zm5.92,0a11.61,11.61,0,0,0,11.52,11.68,11.41,11.41,0,0,0,11.52-11.68,11.61,11.61,0,0,0-11.52-11.68A11.82,11.82,0,0,0,2562.54,81.58Z" transform="translate(-92.17 -64.3)"/><path d="M2675.66,185.58h-35L2631.5,216h-7.36l30.24-101.6-3.2-10.4h27.68l33.28,112h-27.36ZM2641.9,82.06a11.28,11.28,0,1,1,11.36,11A11.24,11.24,0,0,1,2641.9,82.06Zm31.84,97.12L2658.06,127l-15.52,52.16Zm-2.4-97.12a11.28,11.28,0,1,1,11.2,11A11.31,11.31,0,0,1,2671.34,82.06Z" transform="translate(-92.17 -64.3)"/><path d="M2718.86,159.82c0-33.92,14.4-57.92,47.2-57.92,32.64,0,46.88,24,46.88,57.92s-14.24,58.24-46.88,58.24C2733.26,218.06,2718.86,193.74,2718.86,159.82ZM2740,82.06a11.28,11.28,0,1,1,11.36,11A11.24,11.24,0,0,1,2740,82.06Zm44.8,77.76c0-41.92-7.84-51.84-18.72-51.84s-19.2,9.92-19.2,51.84,8.32,52.16,19.2,52.16S2784.78,201.74,2784.78,159.82Zm-15.36-77.76a11.28,11.28,0,1,1,11.2,11A11.31,11.31,0,0,1,2769.42,82.06Z" transform="translate(-92.17 -64.3)"/><path d="M167.85,400.54V406H156.17c-11.84,0-16.64-1.92-19.68-6.88-4.8,4.64-11.68,7.84-21.12,7.84-13.28,0-21.6-6.08-21.6-17.12,0-10.4,7.68-15.84,19-22.72l13-7.84c5.28-3.2,9.12-6.08,9.12-12.48,0-4.64-2.24-8.8-11.84-8.8H99.85v-19.2h28.48c24.16,0,30.88,9.12,30.88,24.8v48.16c0,7,1,8.8,7.36,8.8Zm-33.28-12.32V360.86l-12.64,8.48c-7.68,5.12-12,9.92-12,18.08,0,8,5.28,11.84,12.48,11.84C130.57,399.26,134.57,395.26,134.57,388.22Z" transform="translate(-92.17 -64.3)"/><path d="M259.05,362.3c0,32.8-15.2,44.8-32.32,44.8-10.08,0-17.28-3.68-21.77-8.64V406H180.32V289.18h25.6v36.48c4.33-4.64,11.05-8,20.81-8C243.85,317.66,259.05,330.3,259.05,362.3Zm-26.88,0c0-24.8-4.64-35.2-14.24-35.2-6.41,0-12,4.32-12,10.72v48.64c0,6.88,5.6,11.2,12,11.2C227.53,397.66,232.17,387.9,232.17,362.3Z" transform="translate(-92.17 -64.3)"/><path d="M270.08,362.14c0-27,11.52-43.36,39.52-43.36h16.64v5.44H314.72c-13.76,0-17.76,6.56-17.76,31,0,23,2.24,31.52,18.88,31.52h10.4V406H309.6C281.44,406,270.08,390.14,270.08,362.14Z" transform="translate(-92.17 -64.3)"/><path d="M415.53,289.18V406H390.88v-7.52c-4.48,5-11.68,8.64-21.76,8.64-17.12,0-32.32-12-32.32-44.8,0-32,15.2-44.64,32.32-44.64,9.76,0,16.48,3.36,20.8,8V289.18Zm-25.61,48.64c0-6.4-5.6-10.72-12-10.72-9.6,0-14.24,10.4-14.24,35.2,0,25.6,4.64,35.36,14.24,35.36,6.4,0,12-4.32,12-11.2Z" transform="translate(-92.17 -64.3)"/><path d="M458.24,354.14v4.32c0,22.56,5.12,28.32,20.8,28.32h19.84V406H473.44c-30.24,0-42.08-15.68-42.08-44.8,0-27.84,16.16-44.48,39.52-44.32,22.4.16,29.44,14.24,29.44,31.52v5.76Zm.16-5.92h27c0-18.56-4-25.92-12.8-25.92C461.76,322.3,459,333.5,458.4,348.22Z" transform="translate(-92.17 -64.3)"/><path d="M521.6,324.22H509v-5.44H521.6v-5c0-14.4,3.52-24.64,26.88-24.64H566.4v5.44h-7.52c-9.44,0-11.68,2.08-11.68,8.8v15.36h19.2v5.44H547.2V406H521.6Z" transform="translate(-92.17 -64.3)"/><path d="M647.36,318.78v84.48c0,17.6-7.68,26.72-35.68,26.72H579v-5.44h20.8c17.44,0,21.92-3.84,21.92-17.6v-11c-4.32,4.64-11,8-20.8,8-17.12,0-32-12.16-32-43,0-31.68,14.88-43.2,32-43.2,10.08,0,17.28,3.68,21.76,8.64v-7.52Zm-25.6,65V338.3c0-6.88-5.6-11.2-12-11.2-9.6,0-13.92,9.28-13.92,33.76,0,23.68,4.32,33.6,13.92,33.6C616.16,394.46,621.76,390.14,621.76,383.74Z" transform="translate(-92.17 -64.3)"/><path d="M743.84,337.82V406h-25.6V337c0-7.36-2.4-10.08-8.16-10.08-8.32,0-16,5.28-16,11.52V406h-25.6V289.18h25.6v37.6c5.92-5.44,14.56-9.28,25.6-9.28C736.8,317.5,743.84,325.82,743.84,337.82Z" transform="translate(-92.17 -64.3)"/><path d="M791.84,318.78V406h-25.6V324.22H756.8v-5.44Zm-25.92-22.4A13.12,13.12,0,1,1,779,309.18,12.91,12.91,0,0,1,765.92,296.38Z" transform="translate(-92.17 -64.3)"/><path d="M839.84,318.78V406c0,14.88-6.56,24-30.88,24H799v-5.44h2.88c9.28,0,12.32-2.88,12.32-9.6V324.22H804.8v-5.44Zm-25.92-22.4A13.12,13.12,0,1,1,827,309.18,12.91,12.91,0,0,1,813.92,296.38Z" transform="translate(-92.17 -64.3)"/><path d="M909.76,406l-23.21-42.72V406H861V289.18h25.6v66.08l32.81-36.48h9.12L904.8,345.5,937,406Z" transform="translate(-92.17 -64.3)"/><path d="M946.71,289.18h25.6V406h-25.6Z" transform="translate(-92.17 -64.3)"/><path d="M1109.75,337.82V406h-25.6V337c0-7.36-2.4-10.08-8.16-10.08-8.32,0-14.4,5.28-14.4,11.52V406h-20V337c0-7.36-2.4-10.08-8.16-10.08-8.32,0-14.4,5.28-14.4,11.52V406h-25.6v-87.2h24.8v8.8c5.12-5.6,13.76-10.08,24.8-10.08,11.84,0,16.32,4.64,17.92,10.08,5.44-5.6,13.44-10.08,25.44-10.08C1103.51,317.5,1109.75,325.82,1109.75,337.82Z" transform="translate(-92.17 -64.3)"/><path d="M1206.23,337.82V406h-25.6V337c0-7.36-2.4-10.08-8.16-10.08-8.32,0-16,5.28-16,11.52V406h-25.6v-87.2h24.8v8.8c5.92-5.92,14.88-10.08,26.4-10.08C1199.19,317.5,1206.23,325.82,1206.23,337.82Z" transform="translate(-92.17 -64.3)"/><path d="M1222.07,362.46c0-28.48,14.4-45.76,41.44-45.76S1305,334,1305,362.46s-14.4,45.6-41.44,45.6S1222.07,390.94,1222.07,362.46Zm56,0c0-30.24-4.8-40.16-14.56-40.16S1249,332.22,1249,362.46s4.8,40,14.56,40S1278.07,392.7,1278.07,362.46Z" transform="translate(-92.17 -64.3)"/><path d="M1399.51,362.46c0,32-15.2,44.64-32.32,44.64-9.76,0-16.48-3.36-20.8-8V430h-25.6V318.78h24.64v7.52c4.48-5,11.68-8.64,21.76-8.64C1384.31,317.66,1399.51,329.66,1399.51,362.46Zm-26.88,0c0-25.6-4.64-35.36-14.24-35.36-6.4,0-12,4.32-12,11.2v48.64c0,6.4,5.6,10.72,12,10.72C1368,397.66,1372.63,387.26,1372.63,362.46Z" transform="translate(-92.17 -64.3)"/><path d="M1489.75,318.78V430h-25.6V399.1c-4.32,4.64-11,8-20.8,8-17.12,0-32.32-12.64-32.32-44.64,0-32.8,15.2-44.8,32.32-44.8,10.08,0,17.28,3.68,21.76,8.64v-7.52Zm-25.6,68.16V338.3c0-6.88-5.6-11.2-12-11.2-9.6,0-14.24,9.76-14.24,35.36,0,24.8,4.64,35.2,14.24,35.2C1458.55,397.66,1464.15,393.34,1464.15,386.94Z" transform="translate(-92.17 -64.3)"/><path d="M1575.83,334v18.56h-20v-17c0-5.92-1.44-8.64-6.88-8.64-6.4,0-12.48,5.28-12.48,11.52V406h-25.6v-87.2h24.8v8.8A30.68,30.68,0,0,1,1559,317.5C1573,317.5,1575.83,325.82,1575.83,334Z" transform="translate(-92.17 -64.3)"/><path d="M1585.11,400.54h16.8c8.64,0,12.64-1.92,12.64-8.32,0-5.12-4.48-10.88-10.72-20l-7-10.24c-6.4-9.44-9.12-14.4-9.12-21.92,0-12.48,9.28-21.28,25.6-21.28h23.52v5.44h-13.92c-8.64,0-11.36,3.52-11.36,8.32,0,4.48,3.2,8.8,8.48,16.64l6.08,9c6.4,9.28,12.32,17,12.32,26.4,0,12.48-7.84,21.44-27.36,21.44h-25.92Z" transform="translate(-92.17 -64.3)"/><path d="M1655.67,385.82v-61.6h-12.48v-5.44h12.48v-18.4l25.6-6.4v24.8h18.08v5.44h-18.08v67.52c0,6.88,2.56,8.8,11,8.8h7V406H1681C1659.51,406,1655.67,398.46,1655.67,385.82Z" transform="translate(-92.17 -64.3)"/><path d="M1788,318.78V406h-24.81v-8.8c-5.92,5.92-14.88,10.08-26.4,10.08-17.12,0-24.16-8.32-24.16-20.32V318.78h25.6v69c0,7.36,2.4,10.08,8.16,10.08,8.33,0,16-5.28,16-11.52V318.78Z" transform="translate(-92.17 -64.3)"/><path d="M1873.59,318.78l-27,87.2h-18.87l-26.89-87.2h26.4l19,63.36,19.85-63.36Z" transform="translate(-92.17 -64.3)"/><path d="M1991.67,318.62,1965.42,406H1952L1935.5,351.1,1919,406h-13.44l-26.24-87.36h26.4L1923,371.26l9.12-31-6.4-21.6h26.4l17.28,52.64L1985,318.62Z" transform="translate(-92.17 -64.3)"/><path d="M2039.82,406l-16.32-34.4-19,34.4h-7.36l23-41.6-21.76-45.76h26.24l12.8,26.88,14.72-26.88h7.68l-19,34.24L2066.06,406Z" transform="translate(-92.17 -64.3)"/><path d="M2140,318.62l-33.12,92.16c-5.92,16.32-8.32,19.2-19.68,19.2h-10.56v-19.2h11.68c10.24,0,14.88-3.52,14.88-10.4,0-7-4.64-16-16-41.44l-17.92-40.32h26.56l19.52,47.52,17.12-47.52Z" transform="translate(-92.17 -64.3)"/><path d="M2212.78,321.5l-39,79h39V406h-66.56v-2.72l38.72-79h-34.08v-5.44h61.92Z" transform="translate(-92.17 -64.3)"/><path d="M2296.14,400.54V406h-11.68c-11.84,0-16.64-1.92-19.68-6.88-4.8,4.64-11.69,7.84-21.12,7.84-13.29,0-21.61-6.08-21.61-17.12,0-10.4,7.68-15.84,19-22.72l13-7.84c5.28-3.2,9.12-6.08,9.12-12.48,0-4.64-2.23-8.8-11.84-8.8h-23.2v-19.2h28.49c24.16,0,30.88,9.12,30.88,24.8v48.16c0,7,1,8.8,7.36,8.8Zm-33.28-12.32V360.86l-12.65,8.48c-7.67,5.12-12,9.92-12,18.08,0,8,5.29,11.84,12.49,11.84C2258.86,399.26,2262.86,395.26,2262.86,388.22Zm-24-91.84a17.45,17.45,0,1,1,17.44,17.28A17.55,17.55,0,0,1,2238.85,296.38Zm5.92,0a11.61,11.61,0,0,0,11.52,11.68,11.41,11.41,0,0,0,11.53-11.68,11.61,11.61,0,0,0-11.53-11.68A11.82,11.82,0,0,0,2244.77,296.38Z" transform="translate(-92.17 -64.3)"/><path d="M2376.61,400.54V406h-11.68c-11.84,0-16.64-1.92-19.68-6.88-4.8,4.64-11.68,7.84-21.12,7.84-13.28,0-21.6-6.08-21.6-17.12,0-10.4,7.68-15.84,19-22.72l13-7.84c5.28-3.2,9.12-6.08,9.12-12.48,0-4.64-2.24-8.8-11.84-8.8h-23.2v-19.2h28.48c24.16,0,30.88,9.12,30.88,24.8v48.16c0,7,1,8.8,7.36,8.8Zm-65.92-103.68a11.28,11.28,0,1,1,11.36,11A11.24,11.24,0,0,1,2310.69,296.86Zm32.64,91.36V360.86l-12.64,8.48c-7.68,5.12-12,9.92-12,18.08,0,8,5.28,11.84,12.48,11.84C2339.33,399.26,2343.33,395.26,2343.33,388.22Zm-3.2-91.36a11.28,11.28,0,1,1,11.2,11A11.31,11.31,0,0,1,2340.13,296.86Z" transform="translate(-92.17 -64.3)"/><path d="M2383.81,362.46c0-28.48,14.4-45.76,41.44-45.76s41.44,17.28,41.44,45.76-14.4,45.6-41.44,45.6S2383.81,390.94,2383.81,362.46Zm15.36-65.6a11.28,11.28,0,1,1,11.36,11A11.24,11.24,0,0,1,2399.17,296.86Zm40.64,65.6c0-30.24-4.8-40.16-14.56-40.16s-14.56,9.92-14.56,40.16,4.8,40,14.56,40S2439.81,392.7,2439.81,362.46Zm-11.2-65.6a11.28,11.28,0,1,1,11.2,11A11.31,11.31,0,0,1,2428.61,296.86Z" transform="translate(-92.17 -64.3)"/><path d="M2564.77,400.54V406h-49.12v-5.44H2527V310.46l-11.36,5.12v-7.2L2551,291.9h2.4V400.54Z" transform="translate(-92.17 -64.3)"/><path d="M2586.21,386.78h63.2V406h-69.76V393c0-16.8,5.28-25.6,21.6-40.64l6.24-5.76c9.92-9.12,14.72-14.88,14.72-21.76,0-6.72-3.68-11.68-14.4-11.68h-22.08V294H2615c22.72,0,34.4,11.52,34.4,27,0,14.72-7.52,24.8-24.32,35.2l-16.48,10.24C2591.81,376.86,2587.33,379.26,2586.21,386.78Z" transform="translate(-92.17 -64.3)"/><path d="M2733.57,374.62c0,19.2-11.52,31.36-40.16,31.36h-28.64v-19.2H2688c15,0,19.2-4.32,19.2-18.88,0-16.16-4.16-19.36-19.2-19.36h-9.76v-6.4H2688c13.92,0,17.92-4.64,17.92-14.4,0-10.56-3.36-14.56-17.28-14.56h-20.48V294h25.92c25.76,0,35.2,10.4,35.2,25.28,0,10.4-5.6,20.8-20,25.76C2727,350.14,2733.57,362,2733.57,374.62Z" transform="translate(-92.17 -64.3)"/><path d="M2826.69,378.78h-13.92V406h-27.2v-27.2h-40.32v-6.4l53-78.4h14.56v78.4h13.92Zm-41.12-6.4V324.22l-32.8,48.16Z" transform="translate(-92.17 -64.3)"/><path d="M2838.05,386.78h19.2c19,0,22.72-6.24,22.72-21.44,0-15.36-5.6-20.16-21.76-20.16h-16.32L2847,294h54.72v19.2h-50.88l-2.72,26.56h13c28.8,0,44.16,5.6,44.16,31.52,0,24.16-13.12,34.72-44.8,34.72h-22.4Z" transform="translate(-92.17 -64.3)"/><path d="M3000.92,369.34c0,21.44-14.08,38.24-40,38.24-26.08,0-40-17.28-40-49.12,0-25.6,10.56-64.48,41.12-64.48h32.48v19.2h-33.6c-20.16,0-29.28,6.88-33.28,33.6,6.56-9.6,18.24-15.52,33.28-15.52C2986.84,331.26,3000.92,348.06,3000.92,369.34Zm-26.56.16c0-22.56-3.84-32.16-13.44-32.16s-13.6,9.28-13.6,32c0,22.88,4,32.16,13.6,32.16S2974.36,391.74,2974.36,369.5Z" transform="translate(-92.17 -64.3)"/><path d="M3083.65,294V311.1c-23.53,26.4-31.69,51.2-32.16,94.88h-28.81c1.6-42.24,20.16-67.68,51.37-92.8H3011V294Z" transform="translate(-92.17 -64.3)"/><path d="M3174,374.94c0,19-14.88,32.64-40.32,32.64-25.6,0-40.32-14.08-40.32-32.48,0-13.92,8-25.12,22.72-30.08-11.2-4.64-17.6-13.76-17.6-24.64,0-16.32,13.6-28.16,35.2-28.16s35.2,11.68,35.2,28c0,11.2-6.4,20.32-17.44,25C3165.88,350,3174,361,3174,374.94Zm-26.56.16c0-19.84-4.16-26.56-13.76-26.56s-13.92,6.56-13.92,26.4c0,20,4.32,26.56,13.92,26.56S3147.48,394.46,3147.48,375.1Zm-25.76-54.88c0,14.72,3.52,22.08,12,22.08s11.84-7.84,11.84-21.92c0-15-3.36-22.08-11.84-22.08S3121.72,305.5,3121.72,320.22Z" transform="translate(-92.17 -64.3)"/><path d="M3267.64,341.5c0,25.6-10.56,64.48-41.12,64.48H3194v-19.2h33.6c20.16,0,29.28-6.88,33.28-33.6-6.56,9.6-18.24,15.52-33.28,15.52-25.92,0-40-16.8-40-38.08,0-21.44,14.08-38.24,40-38.24C3253.72,292.38,3267.64,309.66,3267.64,341.5Zm-26.4-10.88c0-22.88-4-32.16-13.6-32.16s-13.44,9.76-13.44,32c0,22.56,3.84,32.16,13.44,32.16S3241.24,353.34,3241.24,330.62Z" transform="translate(-92.17 -64.3)"/><path d="M3282,349.82c0-33.92,12.32-57.92,40-57.92,27.52,0,40,24,40,57.92s-12.48,58.24-40,58.24C3294.36,408.06,3282,383.74,3282,349.82Zm53.44,0c0-41.92-3.84-51.84-13.44-51.84s-13.6,9.92-13.6,51.84,4,52.16,13.6,52.16S3335.48,391.74,3335.48,349.82Z" transform="translate(-92.17 -64.3)"/></svg>