<svg id="Acne_Studios" data-name="Acne Studios" xmlns="http://www.w3.org/2000/svg" viewBox="0 0 148.36 256.03"><title>Nilsson_QP</title><path d="M1047.33,407.42v10.9h-23.39c-23.71,0-33.33-3.85-39.41-13.78-9.62,9.29-23.4,15.7-42.3,15.7-26.6,0-43.26-12.18-43.26-34.29,0-20.83,15.38-31.72,38.13-45.5l26-15.7c10.57-6.41,18.26-12.18,18.26-25,0-9.3-4.48-17.63-23.71-17.63H911.15V243.68h57c48.39,0,61.85,18.26,61.85,49.67V389.8c0,14.1,1.92,17.62,14.74,17.62Zm-66.65-24.67V328l-25.31,17c-15.38,10.25-24,19.86-24,36.21,0,16,10.58,23.71,25,23.71C972.67,404.86,980.68,396.85,980.68,382.75ZM932.62,198.82c0-18.91,16-34.61,34.92-34.61s34.93,15.7,34.93,34.61-16,34.6-34.93,34.6S932.62,217.72,932.62,198.82Zm11.85,0a23.25,23.25,0,0,0,23.07,23.39c13.14,0,23.07-10.25,23.07-23.39a23.24,23.24,0,0,0-23.07-23.39C955.05,175.43,944.47,186.32,944.47,198.82Z" transform="translate(-898.97 -164.21)"/></svg>