<svg id="Nordea_Sans" data-name="Nordea Sans" xmlns="http://www.w3.org/2000/svg" viewBox="0 0 3446.52 367.28"><title>Nordea_01</title><path d="M169,196.14H123.05c-2.4,6.88-4.48,13.44-6.24,19.84H88.49c7.52-32,29.28-75,42.24-112.8h32.8L205.29,216H176.17Zm-9-24.64-13.12-36.64c-4.8,12.32-9.76,24.64-14.56,36.64Z" transform="translate(-88.49 -69.1)"/><path d="M304.81,183.82c0,19.36-13.6,32.16-39,32.16H212.33V103.18h53.6c22.08,0,35.52,12.64,35.52,29.92,0,13.6-7.68,21.28-15.52,24.32C296.33,160.94,304.81,169.9,304.81,183.82ZM241.13,147.5h17.92c8.64,0,14.4-3.36,14.4-11.2s-6.24-10.4-14.4-10.4H241.13Zm35.2,33.76c0-8.48-6.56-11.52-15.68-11.52H241.13v23.52h19.52C270.25,193.26,276.33,190.22,276.33,181.26Z" transform="translate(-88.49 -69.1)"/><path d="M369.45,218.22c-33.6,0-56.17-20-56.17-58.56s22.57-58.56,56.33-58.56c15.36,0,28.8,4.64,37.12,12.64l-15.2,20.32a30.71,30.71,0,0,0-21-8c-20.64,0-27.84,16.32-27.84,33.6s7.2,33.6,27.84,33.6a29,29,0,0,0,21.28-8.64l16.64,17.76C400.65,211.66,386.41,218.22,369.45,218.22Z" transform="translate(-88.49 -69.1)"/><path d="M515.21,159.66c0,37.12-22.09,56.32-56.65,56.32H416.48V103.18h42.08C493.12,103.18,515.21,122.54,515.21,159.66Zm-29.45,0c0-16.32-6.72-31.84-27.2-31.84H445.28v63.52h13.28C479,191.34,485.76,176,485.76,159.66Z" transform="translate(-88.49 -69.1)"/><path d="M610.24,191.34V216H528.32V103.18h80.16v24.64H557.12v18.56h46.56V170.7H557.12v20.64Z" transform="translate(-88.49 -69.1)"/><path d="M654.56,127.82v19.52H701V172h-46.4v44h-28.8V103.18H705v24.64Z" transform="translate(-88.49 -69.1)"/><path d="M813.6,149.58v52.16c-8,10.24-25.12,16.48-42.56,16.48-35.2,0-57.6-20-57.6-58.56s23.36-58.56,58.24-58.56c15.68,0,29.92,4.48,38.24,12.32L795,133.74c-4.8-3.84-12.48-7.68-23.2-7.68-21.6,0-29,16.32-29,33.6s6.4,33.92,28.48,33.92c6.56,0,11.36-1.12,15.2-2.88V172.94h-23V149.58Z" transform="translate(-88.49 -69.1)"/><path d="M926.08,103.18V216h-28.8V170.86H857.6V216H828.8V103.18h28.8v43h39.68v-43Z" transform="translate(-88.49 -69.1)"/><path d="M945,103.18h28.8V216H945Z" transform="translate(-88.49 -69.1)"/><path d="M984,212.78l6.56-21.6a42.5,42.5,0,0,0,13.12,2.08c10.4,0,15.68-4.64,15.68-15.84V103.18h28.8v77.76c0,26.56-16.8,36.64-39.36,36.64C999.68,217.58,989.92,216,984,212.78Z" transform="translate(-88.49 -69.1)"/><path d="M1164.16,195v20.32a30,30,0,0,1-10.08,1.76c-13.12,0-19.84-3.2-34.56-26.72L1107.2,170.7c-4.64,3.68-9.12,6.72-13.28,9.44V216h-28.8V103.18h28.8v48.48c14.88-12.8,30.08-29.6,40.48-48.48h31.68c-9.92,19.2-24,36.16-38.4,50.08L1143,177.1C1153.44,193.26,1157.76,195.18,1164.16,195Z" transform="translate(-88.49 -69.1)"/><path d="M1252.64,191.34V216h-76.33V103.18h28.81v88.16Z" transform="translate(-88.49 -69.1)"/><path d="M1392.48,103.18V216h-27.2V141.1c-8,25.44-17.92,51.2-27.52,74.88H1319c-9.61-23.68-19.37-49.44-27.37-74.88V216h-27.2V103.18h38.24c7.68,23,16.48,47.68,25.93,72.16,9.44-24.48,18.24-49.12,25.92-72.16Z" transform="translate(-88.49 -69.1)"/><path d="M1509.27,103.18V216h-24.48c-6.24-7.52-29.92-36.48-47.84-67.68V216h-27.2V103.18h29.12c15.68,27.68,32.16,52.16,43.2,67.68V103.18Z" transform="translate(-88.49 -69.1)"/><path d="M1522.39,159.66c0-38.56,22.24-58.56,55-58.56s55,20,55,58.56-22.24,58.56-55,58.56S1522.39,198.22,1522.39,159.66Zm80.64,0c0-17.44-6.4-33.92-25.6-33.92s-25.6,16.48-25.6,33.92,6.4,33.92,25.6,33.92S1603,177.1,1603,159.66Z" transform="translate(-88.49 -69.1)"/><path d="M1737.43,140.78c0,24.64-18.4,37.44-42.08,37.44h-21V216h-28.8V103.18h49.76C1719,103.18,1737.43,116,1737.43,140.78Zm-28.48,0c0-9.44-6.56-14.08-17.28-14.08h-17.28v28h17.28C1702.39,154.7,1709,150.06,1709,140.78Z" transform="translate(-88.49 -69.1)"/><path d="M1856.15,214.54v20.32a56,56,0,0,1-8.64.8c-16,0-23.68-9.12-29.12-19.84a69.38,69.38,0,0,1-18.56,2.4c-32.8,0-55-20-55-58.56s22.24-58.56,55-58.56,55,20,55,58.56c0,18.4-5.12,32.64-13.92,42.4C1845.27,209.26,1849.75,214.54,1856.15,214.54Zm-81.92-54.88c0,2.08.16,4,.32,5.92a35.93,35.93,0,0,1,18.56-4.8c14.08,0,23.36,5.92,30.4,13.76a56.61,56.61,0,0,0,1.92-14.88c0-17.44-6.4-33.92-25.6-33.92S1774.23,142.22,1774.23,159.66Zm33,33c-4-6.72-9.44-11.36-18.4-11.36a23.54,23.54,0,0,0-9,1.76c4,6.4,10.4,10.56,20,10.56A25.65,25.65,0,0,0,1807.19,192.62Z" transform="translate(-88.49 -69.1)"/><path d="M1960.47,195v20.32a30,30,0,0,1-10.08,1.76c-12,0-19.2-3.2-31.2-22.24l-11.52-18.56h-10.88V216H1868V103.18h50.4c22.56,0,41.44,12.64,41.44,37,0,16.8-9.44,28-23,33l4.48,6.88C1949.75,192.78,1954.07,195.34,1960.47,195Zm-63.68-41.6h17.92c10.4,0,16.64-4.48,16.64-13.28,0-9-6.24-13.44-16.48-13.44h-18.08Z" transform="translate(-88.49 -69.1)"/><path d="M1965.9,202.38l13.92-20.64c5.76,5.44,18.09,11.84,31.21,11.84,10.24,0,16-3.2,16-10.08,0-6.72-7.36-9-20-12.16-27.21-7-37.45-16.64-37.45-35.36,0-18.24,13.92-35,44.65-35,16.48,0,31.68,5,39.2,12.64L2040,134.22c-8-6.4-17-8.64-26.41-8.64-9.75,0-15.2,3.36-15.2,9.28,0,6.08,7.37,8,22.25,12.16,26.72,7.36,35.2,18.08,35.2,35.2,0,20.32-16.16,36-44.16,36C1991,218.22,1974.86,210.86,1965.9,202.38Z" transform="translate(-88.49 -69.1)"/><path d="M2090.71,127.82h-31.36V103.18h91.52v24.64h-31.36V216h-28.8Z" transform="translate(-88.49 -69.1)"/><path d="M2162.06,173.42V103.18h28.8v70.4c0,12.48,6.24,20,18.56,20s18.41-7.52,18.41-20v-70.4h28.8v70.24c0,30.72-17.6,44.8-47.21,44.8C2179.66,218.22,2162.06,204.14,2162.06,173.42Z" transform="translate(-88.49 -69.1)"/><path d="M2378.87,103.18c-8,40.64-32.65,85.44-41.45,112.8h-32.48l-41.12-112.8h30.56l27.68,78.4c8-22.4,20.16-48.32,26.56-78.4Z" transform="translate(-88.49 -69.1)"/><path d="M2537.42,103.18c-3.68,36.16-23,81.28-29.6,112.8H2476l-18.56-68-18.72,68H2407l-28.64-112.8H2408l16.48,70.56,19.68-70.56H2472l19.2,71.36c4.8-21.44,13.76-45.6,17-71.36Z" transform="translate(-88.49 -69.1)"/><path d="M2642.22,195v20.32c-3.36,1.44-8.32,1.76-11.52,1.76-14.72,0-22.08-9.12-31.84-24.8l-8.16-13.12c-9.44,12.8-15.52,24.48-21.12,36.8h-31.2c7.2-19.36,20.16-38.56,35.84-58.88l-34.08-53.92h31.52l21.76,34.72a155.56,155.56,0,0,0,19.52-34.72h31.2c-7.52,20-20,38.4-34.24,56.48L2620.46,176C2630.38,191.34,2635.34,195.5,2642.22,195Z" transform="translate(-88.49 -69.1)"/><path d="M2749.26,103.18c-8.64,23.52-25,48.16-37.76,68V216h-28.8V171.34l-37.28-68.16h30.88l21.28,40.64c8-13.12,15.84-27.36,21.12-40.64Z" transform="translate(-88.49 -69.1)"/><path d="M2843.66,191.34V216h-90.4V193.74c19.52-21.12,38.4-42.88,55.84-65.92h-53.28V103.18h87.36v22.4c-14.24,22.08-33.44,44.8-52.64,65.76Z" transform="translate(-88.49 -69.1)"/><path d="M2928,196.14h-45.93c-2.4,6.88-4.48,13.44-6.24,19.84h-28.32c7.36-31.68,28.8-74.08,41.76-111.52a19.68,19.68,0,0,1-6.08-14.56c0-12,9.45-20.8,22.89-20.8s22.88,8.8,22.88,20.8a20.42,20.42,0,0,1-5.92,14.56L2964.3,216h-29.12Zm-9-24.64-13.12-36.64c-4.81,12.32-9.77,24.64-14.57,36.64Zm-23.69-81.6c0,5.44,3.68,10.24,10.73,10.24s10.72-4.8,10.72-10.24-3.68-10.24-10.72-10.24S2895.33,84.46,2895.33,89.9Z" transform="translate(-88.49 -69.1)"/><path d="M3042.38,196.14h-45.92c-2.41,6.88-4.49,13.44-6.25,19.84h-28.32c7.52-32,29.28-75,42.25-112.8h32.8L3078.7,216h-29.12ZM2987,82.7c0-7.68,6.08-13.28,13.77-13.28,8,0,13.92,5.6,13.92,13.28,0,7.84-5.92,13.12-13.92,13.12C2993.09,95.82,2987,90.54,2987,82.7Zm46.41,88.8-13.12-36.64c-4.8,12.32-9.76,24.64-14.56,36.64Zm-8.16-88.8c0-7.68,6.08-13.28,13.76-13.28,8.16,0,13.92,5.6,13.92,13.28,0,7.84-5.76,13.12-13.92,13.12C3031.34,95.82,3025.26,90.54,3025.26,82.7Z" transform="translate(-88.49 -69.1)"/><path d="M3078.38,159.66c0-38.56,22.24-58.56,55-58.56s55,20,55,58.56-22.24,58.56-55,58.56S3078.38,198.22,3078.38,159.66Zm22.4-77c0-7.68,6.08-13.28,13.76-13.28,8,0,13.92,5.6,13.92,13.28,0,7.84-5.92,13.12-13.92,13.12C3106.86,95.82,3100.78,90.54,3100.78,82.7Zm58.24,77c0-17.44-6.4-33.92-25.6-33.92s-25.6,16.48-25.6,33.92,6.4,33.92,25.6,33.92S3159,177.1,3159,159.66Zm-20-77c0-7.68,6.08-13.28,13.76-13.28,8.16,0,13.92,5.6,13.92,13.28,0,7.84-5.76,13.12-13.92,13.12C3145.1,95.82,3139,90.54,3139,82.7Z" transform="translate(-88.49 -69.1)"/><path d="M175.21,386.62V405.5a41.38,41.38,0,0,1-11.36,1.6c-10.72,0-16.16-4.16-18.72-9.28-4.16,5.92-11.36,9.92-22.56,9.92-17.92,0-29.44-10.08-29.44-26.56,0-17.6,13.44-27.84,34.72-27.84a50.48,50.48,0,0,1,14.72,1.92v-1.92c0-7.68-4.48-12.16-14.72-12.16s-17.76,4.48-21.12,7.84L96.49,330.94c6.56-6.88,19-12.16,34.56-12.16,24,0,38.24,10.72,38.24,31.68v28.48C169.29,385.34,170.25,386.62,175.21,386.62Zm-32.64-10.88v-4.16a28,28,0,0,0-9-1.28c-8.8,0-13.28,3.52-13.28,9.76,0,5.44,4,9,10.08,9C138.57,389,142.57,383.9,142.57,375.74Z" transform="translate(-88.49 -69.1)"/><path d="M274.09,363.58c0,30.72-16.16,44.64-36.8,44.64-10.4,0-19.21-4.16-25-13V406H186.4V288.38h27.2v41.76c5.77-7.52,13.93-11.2,23.69-11.2C257.93,318.94,274.09,332.86,274.09,363.58Zm-27.52,0c0-15.36-6.24-22.24-16.48-22.24s-16.49,6.88-16.49,22.24,6.25,22.24,16.49,22.24S246.57,378.94,246.57,363.58Z" transform="translate(-88.49 -69.1)"/><path d="M327.53,408.22c-25.29,0-44.81-13.92-44.81-44.64s20.32-44.64,45-44.64c12.64,0,23.2,4.16,30.08,11.2l-12.64,17.12a22.13,22.13,0,0,0-15.84-5.92c-10.88,0-19.05,6.72-19.05,22.24,0,15.36,8,21.92,18.73,21.92a22.82,22.82,0,0,0,16.64-6.88l13.12,15.84C351.21,403.9,340.65,408.22,327.53,408.22Z" transform="translate(-88.49 -69.1)"/><path d="M448.33,288.38V406H422.41V395.26c-5.76,8.8-14.56,13-25,13-20.65,0-36.81-13.92-36.81-44.64s16.16-44.64,36.81-44.64c9.76,0,17.92,3.68,23.68,11.2V288.38Zm-27.2,75.2c0-15.36-6.24-22.24-16.48-22.24s-16.48,6.88-16.48,22.24,6.24,22.24,16.48,22.24S421.13,378.94,421.13,363.58Z" transform="translate(-88.49 -69.1)"/><path d="M539.05,394.94c-8.16,9-19.68,13.28-33.92,13.28-25.61,0-44.81-14.08-44.81-44.32,0-30.88,20-45,43.37-45,20.8,0,35,10.72,35,28.32,0,18.88-15.2,27.52-39.68,27.52a86.75,86.75,0,0,1-11.36-.64c3.19,8.16,10.24,11.84,19.68,11.84a28.94,28.94,0,0,0,20.16-7.68Zm-52.8-38.56a77.91,77.91,0,0,0,8.64.48c12.8,0,18.4-2.88,18.4-9.28,0-5.6-4.32-8-10.4-8C494.25,339.58,487.84,345.34,486.25,356.38Z" transform="translate(-88.49 -69.1)"/><path d="M584.8,321h15v20.8h-15V406H557.6V341.82H545.12V321H557.6v-3c0-21.12,11.52-31.68,32.32-31.68,6.72,0,13,1.6,15.36,3L601.6,309a22.25,22.25,0,0,0-6.72-1C587,308.06,584.8,312.54,584.8,321Z" transform="translate(-88.49 -69.1)"/><path d="M689,404.22c0,19.68-18.41,32.16-45,32.16-23.2,0-37.12-8-42.72-14.88l14.24-15c3.84,4.8,15.52,9.92,27.68,9.92,13.6,0,20.16-3.52,20.16-8.64,0-2.72-1.92-4.32-7.36-4.32-8,0-16.8,2.56-27.36,2.56-17.12,0-23.84-8-23.84-17.44,0-8.32,4.8-14.88,13.28-19.36-6.56-4.64-10.72-11.84-10.72-21.6,0-19.68,17.12-28.64,37-28.64a59.17,59.17,0,0,1,14.4,1.76c2.72-6.4,8.8-13.28,21.45-13.28,4.16,0,7.84.8,9.44,1.92l-3.2,18.24a19.36,19.36,0,0,0-6.41-.8,14.83,14.83,0,0,0-6.71,1.6c5,4.64,8,10.88,8,19.2,0,19.84-17.13,28.8-37,28.8a55,55,0,0,1-13.76-1.6c-2.72,1.44-3.68,2.88-3.68,4.64,0,2.88,2.56,3.52,7.2,3.52,6.4,0,17.12-2.08,25.76-2.08C680.33,380.86,689,390.94,689,404.22Zm-55.85-56.64c0,7,4.48,11.68,11.2,11.68s11.2-4.64,11.2-11.68-4.48-11.52-11.2-11.52S633.12,340.54,633.12,347.58Z" transform="translate(-88.49 -69.1)"/><path d="M782.24,386.62V405.5a41,41,0,0,1-11.36,1.6c-14.4,0-21.76-6.88-21.76-25.28V355.74c0-9.28-4.16-14.4-12.16-14.4-8.16,0-13.28,5.28-13.28,14.56V406h-27.2V288.38h27.2v42.4c3.36-5.92,10.24-11.68,22.72-11.68,18.88,0,29.92,11.2,29.92,29.92v30.24C776.32,385,777.28,386.62,782.24,386.62Z" transform="translate(-88.49 -69.1)"/><path d="M792.32,300.54c0-7.84,6.24-13.6,14.56-13.6,8.48,0,14.56,5.76,14.56,13.6,0,8-6.08,13.6-14.56,13.6C798.56,314.14,792.32,308.54,792.32,300.54Zm34.08,86.08V405.5A41,41,0,0,1,815,407.1c-14.4,0-21.76-6.88-21.76-25.28V321h27.2v58.24C820.48,385,821.44,386.62,826.4,386.62Z" transform="translate(-88.49 -69.1)"/><path d="M830.56,412.54c5.92,0,8.64-5.12,8.64-10.08V321h27.2v85c0,20.64-13.6,28-35.84,28Zm7.68-111.36c0-7.84,6.24-13.6,14.56-13.6,8.48,0,14.56,5.76,14.56,13.6,0,8-6.08,13.6-14.56,13.6C844.48,314.78,838.24,309.18,838.24,301.18Z" transform="translate(-88.49 -69.1)"/><path d="M962.24,386.62V405.5a26.51,26.51,0,0,1-9.12,1.6c-12.16,0-18.24-4-28.16-19.52l-9.12-14.4q-3.84,2.4-7.2,4.32V406h-27.2V288.38h27.2V352.7c10.24-8.32,20.32-19.36,25.92-31.68h27.36c-4.32,14.88-14.4,27.36-25.92,37.44l8,12.16C951.36,381.82,955.36,386.94,962.24,386.62Z" transform="translate(-88.49 -69.1)"/><path d="M972.16,378.62V288.38h27.2V375.9c0,7.68,1.6,11,10.72,10.4v19.36a38,38,0,0,1-10.24,1.28C981.44,406.94,972.16,399.9,972.16,378.62Z" transform="translate(-88.49 -69.1)"/><path d="M1154.4,386.62V405.5a41,41,0,0,1-11.36,1.6c-14.4,0-21.76-6.88-21.76-25.28V355.9c0-8.48-3.36-14.08-11.2-14.08s-12.16,5.76-12.16,14.24V406h-27.2V355.9c0-8.48-3.36-14.08-11.2-14.08s-12.17,5.76-12.17,14.24V406h-27.2V321h25.93v11.2c2.88-6.4,10.4-12.8,23-12.8,11.36,0,20.16,5,24.8,13.44,4-6.88,12.16-13.44,24.48-13.44,18.72,0,30.08,12,30.08,30.08v29.76C1148.48,385,1149.44,386.62,1154.4,386.62Z" transform="translate(-88.49 -69.1)"/><path d="M1251.36,386.62V405.5a41,41,0,0,1-11.36,1.6c-14.4,0-21.76-6.88-21.76-25.28V355.74c0-9.28-4.16-14.4-12.17-14.4s-13.28,5.28-13.28,14.56V406h-27.2V321h25.92V333.5c2.72-6.88,9.76-14.4,24-14.4,18.88,0,29.92,11.2,29.92,29.92v30.24C1245.44,385,1246.4,386.62,1251.36,386.62Z" transform="translate(-88.49 -69.1)"/><path d="M1258.55,363.58c0-30.72,19.2-44.64,44-44.64s44,13.92,44,44.64-19.2,44.64-44,44.64S1258.55,394.3,1258.55,363.58Zm60.48,0c0-15.36-6.24-22.24-16.48-22.24s-16.48,6.88-16.48,22.24,6.24,22.24,16.48,22.24S1319,378.94,1319,363.58Z" transform="translate(-88.49 -69.1)"/><path d="M1446.23,363.58c0,30.72-16.16,44.64-36.8,44.64-9.76,0-18.08-3.52-23.68-11.2v34.56h-27.2V321h25.92V331.9c5.76-8.8,14.4-13,25-13C1430.07,318.94,1446.23,332.86,1446.23,363.58Zm-27.52,0c0-15.36-6.24-22.24-16.48-22.24s-16.48,6.88-16.48,22.24,6.24,22.24,16.48,22.24S1418.71,378.94,1418.71,363.58Z" transform="translate(-88.49 -69.1)"/><path d="M1543.19,321V431.58H1516V397c-5.6,7.68-13.92,11.2-23.68,11.2-20.64,0-36.8-13.92-36.8-44.64s16.16-44.64,36.8-44.64c10.56,0,19.2,4.16,25,13V321ZM1516,363.58c0-15.36-6.24-22.24-16.48-22.24S1483,348.22,1483,363.58s6.24,22.24,16.48,22.24S1516,378.94,1516,363.58Z" transform="translate(-88.49 -69.1)"/><path d="M1618.71,321.66l-5.12,27.2a34.87,34.87,0,0,0-8.32-1c-9,0-18.88,4.64-18.88,24.8V406h-27.2V321h25.92v20.16c2.08-9.28,8-21.44,23.2-21.44C1612.63,319.74,1616.79,320.54,1618.71,321.66Z" transform="translate(-88.49 -69.1)"/><path d="M1620.15,396.54l11.2-18.24a32.85,32.85,0,0,0,22.56,9.12c6.72,0,10.08-1.92,10.08-6.08,0-4.32-4.32-5.6-12.48-8-21.92-6.56-28.8-13.76-28.8-27.52,0-13.6,10.88-27,35.52-27,13.44,0,24.48,3.84,30.88,9.76L1679,346.14c-6.24-5-13.12-6.4-20-6.4-5.6,0-8.8,2.24-8.8,5.76s4.32,5,13.44,7.68c22.72,6.72,27.2,15.84,27.2,27.52,0,16.48-12.8,27.52-35.2,27.52C1638.71,408.22,1627.19,402.94,1620.15,396.54Z" transform="translate(-88.49 -69.1)"/><path d="M1707.19,379.1V341.82h-12.48V321h12.48V298.46h27.2V321h16v20.8h-16V374c0,8.16,3.2,11,10.88,11a30.51,30.51,0,0,0,5.12-.48v20.8a37,37,0,0,1-12.64,2.08C1717,407.42,1707.19,398.3,1707.19,379.1Z" transform="translate(-88.49 -69.1)"/><path d="M1846.71,386.62V405.5a41,41,0,0,1-11.36,1.6c-10.72,0-17.12-3.84-20.16-12.48-2.88,6.72-10.56,13.44-23.68,13.44-18.08,0-29.44-11.36-29.44-30.08V321h27.2v50.56c0,9.12,3.68,14.08,11.68,14.08s12.64-5.12,12.64-14.24V321h27.2v58.24C1840.79,385,1841.75,386.62,1846.71,386.62Z" transform="translate(-88.49 -69.1)"/><path d="M1940.79,321c-7.2,28.32-18.4,59.2-29.76,85h-30.72l-28.8-85H1879l17.6,57.12A557.75,557.75,0,0,0,1913.91,321Z" transform="translate(-88.49 -69.1)"/><path d="M2080.15,321c-6.56,29.92-16,58.24-26.4,85h-28.64l-13.6-51-13.6,51h-28.64l-25.44-85h27.68l13.6,53.6,14.08-53.6h25.44l14.72,54.88A387.57,387.57,0,0,0,2053,321Z" transform="translate(-88.49 -69.1)"/><path d="M2169,386.62V405.5c-3,1.28-7.52,1.6-10.56,1.6-12.16,0-18.4-6.56-24.16-15.52l-9.12-14.08A110,110,0,0,0,2110.87,406h-29.12c4.47-15.2,15-30.08,26.4-45L2083,321h30.08L2128,346.94A76.85,76.85,0,0,0,2141.27,321h29.12c-4.8,14.72-13.76,28.8-24.64,42.08l7.84,11.68C2161.27,386.14,2165,386.62,2169,386.62Z" transform="translate(-88.49 -69.1)"/><path d="M2260.31,321c-6.56,27.36-16.8,58.72-27.2,81.76-9,19.84-17.93,31.2-39.05,31.2-7.84,0-15.68-1.92-21-5.44l7.36-21a25.72,25.72,0,0,0,13.12,3.36c4.48,0,7.52-1,9.92-3L2173.58,321h27.52l16.81,55.36c6.08-17.92,11.2-37.44,15.51-55.36Z" transform="translate(-88.49 -69.1)"/><path d="M2339,383.9V406h-73.77V385.82c14.4-13.76,28.64-27.36,40.8-42.72h-38.72V321h71v20.16c-8.32,12.16-23.84,29.28-38.4,42.72Z" transform="translate(-88.49 -69.1)"/><path d="M2428.3,386.62V405.5a41.38,41.38,0,0,1-11.36,1.6c-10.72,0-16.16-4.16-18.72-9.28-4.16,5.92-11.36,9.92-22.56,9.92-17.92,0-29.44-10.08-29.44-26.56,0-17.6,13.44-27.84,34.72-27.84a50.48,50.48,0,0,1,14.72,1.92v-1.92c0-7.68-4.48-12.16-14.72-12.16s-17.76,4.48-21.12,7.84l-10.24-18.08c6.56-6.88,19-12.16,34.56-12.16,24,0,38.24,10.72,38.24,31.68v28.48C2422.38,385.34,2423.34,386.62,2428.3,386.62Zm-63.36-90.88c0-10.56,8.64-18.88,20.64-18.88s20.64,8.32,20.64,18.88-8.64,18.88-20.64,18.88S2364.94,306.3,2364.94,295.74Zm30.72,80v-4.16a28,28,0,0,0-9-1.28c-8.8,0-13.28,3.52-13.28,9.76,0,5.44,4,9,10.08,9C2391.66,389,2395.66,383.9,2395.66,375.74Zm-19.2-80c0,4.8,3.2,9,9.12,9s9.12-4.16,9.12-9-3.2-9-9.12-9S2376.46,290.94,2376.46,295.74Z" transform="translate(-88.49 -69.1)"/><path d="M2517.42,386.62V405.5a41.38,41.38,0,0,1-11.36,1.6c-10.72,0-16.16-4.16-18.72-9.28-4.16,5.92-11.36,9.92-22.56,9.92-17.92,0-29.44-10.08-29.44-26.56,0-17.6,13.44-27.84,34.72-27.84a50.48,50.48,0,0,1,14.72,1.92v-1.92c0-7.68-4.48-12.16-14.72-12.16s-17.76,4.48-21.12,7.84l-10.24-18.08c6.56-6.88,19-12.16,34.56-12.16,24,0,38.24,10.72,38.24,31.68v28.48C2511.5,385.34,2512.46,386.62,2517.42,386.62Zm-72.48-85.44a12.67,12.67,0,0,1,13-12.8c7.52,0,13.12,5.44,13.12,12.8,0,7.52-5.6,12.64-13.12,12.64C2450.7,313.82,2444.94,308.7,2444.94,301.18Zm39.84,74.56v-4.16a28,28,0,0,0-9-1.28c-8.8,0-13.28,3.52-13.28,9.76,0,5.44,4,9,10.08,9C2480.78,389,2484.78,383.9,2484.78,375.74Zm-6.4-74.56a12.67,12.67,0,0,1,13-12.8c7.68,0,13.12,5.44,13.12,12.8,0,7.52-5.44,12.64-13.12,12.64C2484.14,313.82,2478.38,308.7,2478.38,301.18Z" transform="translate(-88.49 -69.1)"/><path d="M2524.3,363.58c0-30.72,19.2-44.64,44-44.64s44,13.92,44,44.64-19.2,44.64-44,44.64S2524.3,394.3,2524.3,363.58Zm14.24-62.4a12.67,12.67,0,0,1,13-12.8c7.52,0,13.12,5.44,13.12,12.8,0,7.52-5.6,12.64-13.12,12.64C2544.3,313.82,2538.54,308.7,2538.54,301.18Zm46.24,62.4c0-15.36-6.24-22.24-16.48-22.24s-16.48,6.88-16.48,22.24,6.24,22.24,16.48,22.24S2584.78,378.94,2584.78,363.58Zm-12.8-62.4a12.67,12.67,0,0,1,13-12.8c7.68,0,13.12,5.44,13.12,12.8,0,7.52-5.44,12.64-13.12,12.64C2577.74,313.82,2572,308.7,2572,301.18Z" transform="translate(-88.49 -69.1)"/><path d="M2708.62,293.18V406h-27.68V325.5l-23.68,16.16V315.9l31-22.72Z" transform="translate(-88.49 -69.1)"/><path d="M2804,382.62V406h-74.24V385c12.63-9.44,45.44-34.56,45.44-56.64,0-8.8-5.6-13.92-15.84-13.92-8.48,0-16,4.48-21.28,9.76l-12.17-17.92c7.36-8.8,21-15.52,36.33-15.52,27.52,0,40.8,15.36,40.8,34.72,0,25.44-20.16,44.8-38.4,57.12Z" transform="translate(-88.49 -69.1)"/><path d="M2892.29,373.34c0,19.36-15.67,35-43.36,35-17.12,0-33.12-6.88-39.2-14.24l11.84-17.76c5.44,5.12,13.6,9.6,25.12,9.6,11.36,0,17.6-5.44,17.6-14.08s-7.52-13.6-23.2-13.6h-3.36V338h3.2c14.24,0,20.48-5.92,20.48-13.92,0-6.56-5-10.88-14.08-10.88-11.52,0-18.88,6.08-22.72,9.76l-12.32-17.12c5.92-6.72,18.72-15,38.56-15,23.84,0,38.24,13,38.24,29.92,0,13.6-7.51,21.44-16.16,25.76C2884.29,350.62,2892.29,359.9,2892.29,373.34Z" transform="translate(-88.49 -69.1)"/><path d="M2990.05,384.38h-12V406h-27.36v-21.6h-49V362.62l41.92-69.44h34.4v68.64h12Zm-39.36-22.56V319.1l-25.6,42.72Z" transform="translate(-88.49 -69.1)"/><path d="M3077.57,370c0,19.84-15.2,38.4-44.32,38.4-17.6,0-31.84-6.4-38.72-13.92l12.16-17.76A38.56,38.56,0,0,0,3032,386c11.2,0,17.76-6.56,17.76-15.68,0-8-5.28-14.08-15.36-14.08a19.9,19.9,0,0,0-11.68,3.68l-22.56-3.36,5.76-63.36h66.24v23.36h-45.28l-2.08,22.24a31,31,0,0,1,15.84-3.84C3061.89,334.94,3077.57,348.06,3077.57,370Z" transform="translate(-88.49 -69.1)"/><path d="M3172.13,368.38c0,23.68-16.64,40-40.48,40-29.28,0-45.6-18.56-45.6-52.32,0-20.32,7.68-64.8,54.24-64.8,11.36,0,21.6,2.72,28.16,8.64l-10.08,19.36a30.37,30.37,0,0,0-16.16-4.32c-17.44,0-26.4,12.64-28.48,27.2,3.84-5.12,10.72-9.76,23.52-9.76C3157.25,332.38,3172.13,346,3172.13,368.38Zm-27.68.48c0-10.08-5.6-16.48-15.2-16.48-9.76,0-15.36,7.52-15.36,17.28,0,10.4,6.08,17,15.2,17C3138.53,386.62,3144.45,379.58,3144.45,368.86Z" transform="translate(-88.49 -69.1)"/><path d="M3255,293.18v21.28c-15,24.16-31,62.08-33.92,91.52h-30.4c1.76-27.36,20.64-65.76,37.28-89.44h-50.72V293.18Z" transform="translate(-88.49 -69.1)"/><path d="M3348.13,374c0,22.4-18.4,34.4-43.36,34.4s-43.36-12-43.36-34.4c0-12.48,6.4-21.92,16.8-27.36-8-5.44-13-13.76-13-23.84,0-19.36,16.32-31.84,39.52-31.84,23,0,39.52,12.48,39.52,31.84,0,10.08-5,18.4-13,23.84C3341.73,352.06,3348.13,361.5,3348.13,374Zm-27.84-1.6c0-9.44-6.4-15.36-15.52-15.36s-15.52,5.92-15.52,15.36c0,9.6,6.4,15.36,15.52,15.36S3320.29,382,3320.29,372.38Zm-28.64-47.52c0,7.84,4.8,13,13.12,13s13.12-5.12,13.12-13c0-7.68-4.8-13-13.12-13C3296.29,311.9,3291.65,317.34,3291.65,324.86Z" transform="translate(-88.49 -69.1)"/><path d="M3440.93,343.1c0,20.32-7.68,64.8-54.24,64.8-11.36,0-21.6-2.72-28.16-8.64l10.08-19.36a30.37,30.37,0,0,0,16.16,4.32c17.44,0,26.4-12.64,28.48-27.2-3.84,5.12-10.72,9.76-23.52,9.76-20,0-34.88-13.6-34.88-36,0-23.68,16.64-40,40.48-40C3424.61,290.78,3440.93,309.34,3440.93,343.1Zm-27.84-13.6c0-10.4-6.08-17-15.2-17-9.44,0-15.36,7-15.36,17.76,0,10.08,5.6,16.48,15.2,16.48C3407.49,346.78,3413.09,339.26,3413.09,329.5Z" transform="translate(-88.49 -69.1)"/><path d="M3448.92,349.66c0-38.56,15-58.56,43-58.56s43,20,43,58.56-15,58.56-43,58.56S3448.92,388.22,3448.92,349.66Zm58.25,0c0-18.56-1.44-36.16-15.2-36.16s-15.2,17.6-15.2,36.16,1.44,36.16,15.2,36.16S3507.17,368.22,3507.17,349.66Z" transform="translate(-88.49 -69.1)"/></svg>