<svg id="Lager_8" data-name="Lager 8" xmlns="http://www.w3.org/2000/svg" viewBox="0 0 455.61 257.05"><title>Nordea-Quick-Preview</title><path d="M847.65,189.22V443.74H792.42c-14.08-17-67.51-82.31-107.95-152.71V443.74H623.1V189.22h65.7c35.38,62.46,72.57,117.69,97.48,152.71V189.22Z" transform="translate(-623.1 -189.22)"/><path d="M1078.7,400.06v42.6a92.7,92.7,0,0,1-25.63,3.61c-32.49,0-49.1-15.52-49.1-57V330.38c0-20.94-9.39-32.49-27.44-32.49-18.41,0-30,11.91-30,32.85v113H885.2V252h58.48V280.2c6.14-15.52,22-32.49,54.15-32.49,42.61,0,67.52,25.27,67.52,67.51v68.23C1065.35,396.45,1067.51,400.06,1078.7,400.06Z" transform="translate(-623.1 -189.22)"/></svg>