<svg id="Lager_9" data-name="Lager 9" xmlns="http://www.w3.org/2000/svg" viewBox="0 0 143.78 190.06"><title>Ostberga-Quick-Preview</title><path d="M301.19,212.31a61,61,0,0,0-7.06.49c-2.44,0-4.88.49-7.8.25a17.07,17.07,0,0,1-3.17-.49c-.73-.25-1-1-.49-1.46a5.18,5.18,0,0,0,1-3.42,2.48,2.48,0,0,1,1-1.7,2.71,2.71,0,0,0,1-2.68,1.59,1.59,0,0,1,.24-1.46,3.17,3.17,0,0,0-.24-1.47,21.54,21.54,0,0,1,.48-3.89c.25-.74.25-1.71.49-2.69a6.84,6.84,0,0,1,2.2-3.16l.73-1c0-.49.24-.49.48-.49a11.62,11.62,0,0,0,2.93.25,52.06,52.06,0,0,0,6.09-.49c2.92-.24,5.85-.49,8.53-.49a36.8,36.8,0,0,1,5.36.25c5.12.24,10.23.73,15.35.73a6.05,6.05,0,0,0,2.93,0c0-.25.24-.25.48-.25s.49.25.25.49a9.85,9.85,0,0,1-.73,2.44c-.25.49-.25,1-.49,1.46,0,.24,0,.49.24.49s.25.24,0,.49c-.48.48-.24,1.46.25,2.19,0,.24.24.49,0,.49a2.18,2.18,0,0,0-.73,1.7v2a1.51,1.51,0,0,0,.24,1c0,.48-.49.48-.49,1a5.45,5.45,0,0,0-.24,1.95c0,.24,0,.49-.25.49l-.73.48c.49.25.49.49,1,.49.24-.24.49,0,.49.25-.25.24,0,.48,0,.73a1.61,1.61,0,0,1-.25,1.46c-.24.49-.24.49.25,1v.25c0,.73.24,1.7-.74,2.19a3.49,3.49,0,0,1-2.68,1.22c-2.43-.24-4.63-.24-6.82-.49a29.94,29.94,0,0,0-4.63-.24c-3.17-.25-5.85-.25-8.77-.25a9.28,9.28,0,0,0-2.68-.24A12.09,12.09,0,0,0,301.19,212.31ZM426.2,310a12.56,12.56,0,0,1-.48,3.17v.73c-.25.24-.25.24-.49.24-.25-.24-.49,0-.49.25s-.24.48-.49.73l-.24.24c-.49,1.71-1.46,3.17-1.95,4.88-.24.48,0,1-.24,1.7a13.84,13.84,0,0,0,1.21-2,5.77,5.77,0,0,1-.73,2.2c-1.95,3.65-4.14,7.31-6.58,11.2-.48,1-1.21,1.71-1.7,2.68a39.1,39.1,0,0,1-5.12,7.32,35.1,35.1,0,0,1-5.85,6.09,5,5,0,0,1-1.46,1,49.12,49.12,0,0,1-9.26,5.61l-6.82,3.65a29,29,0,0,1-2.68,1.22,5,5,0,0,0-1.95,1l-1.95.74a14.58,14.58,0,0,0-2.93,1.22l-4.14,1.94a24.71,24.71,0,0,0-3.41,1.95,17.72,17.72,0,0,1-2.68,1,33.4,33.4,0,0,1-6.34,2.43,65.62,65.62,0,0,1-10,2.2h-1.7c-.25,0-.49,0-.49-.25.24-.24,0-.24-.24-.24a5.33,5.33,0,0,1-1.95,0h-.73c-.49.24-.74.24-.74.73,0,.25-.48.25-.73.25a3.29,3.29,0,0,1-1.95.73c-3.65.24-7.31.48-11.21,1h-1.46c-.24,0-.49.25-.49,0-.48-.24-1,0-1.46,0v-.24a3.85,3.85,0,0,0-1.7,0c.73-.49,1.7-.25,2.43-1a.24.24,0,0,0-.24-.24l-2.44-.24a8.75,8.75,0,0,1-2.43-.49,9,9,0,0,0-2.44-.25c-2.68-.48-5.12-.73-7.55-1.21a28.18,28.18,0,0,1-4.15-1.47,22.1,22.1,0,0,1-4.63-2.68l-.48-.48c-.25,0-.25-.25-.25-.74a1.13,1.13,0,0,0-.24-1.46l-1-1.7a1.5,1.5,0,0,1,0-1.95c.25-.25,0-.49,0-1l-1.21-2c-.49-.73-.49-1.95-1-2.68a.74.74,0,0,0-.24-.48,3.35,3.35,0,0,1-1.22-1.95c-.25-.49,0-.73,0-1.22.24-.49,0-1-.73-1.46a2.29,2.29,0,0,1-1-1.47,25.91,25.91,0,0,1-1.46-2.68c-.49-1-.24-1.46.73-1.7.24-.49.49-.49.73-.49.49,0,.73,0,1.22.73a21.37,21.37,0,0,0,3.41,3.17,5.8,5.8,0,0,0,2.68,1.46c0,.24.25.24.49.24,1.46,1.22,3.66,1.47,5.36,1.95,2.68.74,5.36,1.22,8,1.95a18.64,18.64,0,0,0,3.41.49,21,21,0,0,0,4.15-.49l8-2.19a48.91,48.91,0,0,0,7.31-3.41,59.37,59.37,0,0,0,7.55-4.39,16.12,16.12,0,0,0,5.85-5.6l3.41-5.12a7.25,7.25,0,0,0,.73-4.39,19,19,0,0,0-1-5.36l-1.46-4.38a8.65,8.65,0,0,0-1.95-3.17c-.25-.24-.73-.24-1-.73-.24-.25-.48-.49-.48-.73a3.56,3.56,0,0,0-.25-1.71,4.94,4.94,0,0,1-1-1.46,12.09,12.09,0,0,0-1.46-2.19,49.72,49.72,0,0,0-6.34-6.1,39.47,39.47,0,0,1-5.12-6.09c-1-1-1.7-2.19-2.68-3.17-2.68-2.92-5.85-5.84-8.53-9a47.2,47.2,0,0,1-5.85-10,19.63,19.63,0,0,1-1.7-5.36,12.8,12.8,0,0,1-1-5.12c0-.73-.24-1.46-.24-2.19l.24-2.44v-.49c.25,0,.25,0,.25.25a.74.74,0,0,0,.24.48c.49,0,.49-.48.49-.73.24-.24.49-.49.49-.73.48.24.73.49.73,1a1.34,1.34,0,0,0,1,1.46.46.46,0,0,0,.73,0c0-.25.25-.25.49-.49v1a49.55,49.55,0,0,0,1,5.85,13.46,13.46,0,0,0,1.47,4.39,17.4,17.4,0,0,0,2.19,4.87,46.12,46.12,0,0,0,5.36,7.31,74.46,74.46,0,0,0,6.09,6.34l2.2,2.19c.24.49.48.73.73,1.22.48.24,1,.49,1.22,0,.24-.24.73-.73,0-1a2,2,0,0,0-1.22-1.22c-.49-.49-1.22-.73-1.71-1.22-.49-.24-.73-.73-1.22-.73-.24,0-.48-.25-.73-.49-.24-.49-.73-.73-1-1.22a6.65,6.65,0,0,1-1.95-1.7l-1-1.47c-.24-.24-.24-.24-.24-.48a3.27,3.27,0,0,1-1.71-2.2.84.84,0,0,0-.48-.24,3.45,3.45,0,0,1-1-.73,5,5,0,0,0-1-1.46c0-.25-.25-.25-.25-.49-.73-.49-1.22-1-1-1.71a.83.83,0,0,0-.25-.48,39.52,39.52,0,0,1-2.43-5.61,5.9,5.9,0,0,1-.25-2,1.51,1.51,0,0,0,0-1.46.88.88,0,0,1,.25-.73.9.9,0,0,0,.24-.73c-.24-1-.24-1.95-.49-2.93a27.32,27.32,0,0,1-.48-4.63c0-1,.24-2.19.24-3.41,0-.24.24-.48.24-.73v-.24c.25,0,.25,0,.25.24l.73,1.46c0,.25.24.49.49.25a1.93,1.93,0,0,0,1-1c.24.25.49.49.24,1a4.63,4.63,0,0,0,.25,1.7.89.89,0,0,0,.24.73.24.24,0,0,0,.25.25l.48-.73c.25-.73.25-1.22.49-1.95,0-.49,0-.73.49-1v1.71c0,1.22,0,1.46,1.22,1.7l.48.49c.25.25.49,0,.49-.24a.91.91,0,0,0,.24-.73c0-.73,0-1,.49-.73h.73c.49,0,.49,0,.73-.49,0-.73.25-1.46.25-2a5.83,5.83,0,0,1,.73-2.19c.73-1.71,1.22-3.42,1.95-4.88a19.49,19.49,0,0,1,5.36-7.8c2.19-1.46,3.9-2.92,6.09-4.14l2.19-1.22.25-.24a.24.24,0,0,0,.24-.24c0-.25-.24-.25-.49-.25,1.22-.73,2.44-1,3.66-1.7v-.25c-.49.25-.73.25-1.22.49-.49,0-.73.49-1.22.49a1.87,1.87,0,0,1-1.22.49l-1,.73c-.49,0-.73.24-1.46.48a4.92,4.92,0,0,1,2.19-1.21,17.6,17.6,0,0,1,5.36-2.2c.49,0,.73-.49,1.22-.73.24-.24,0-.24,0-.24a.45.45,0,0,0-.73,0,15.22,15.22,0,0,1-3.17.24h-.49c-.48.24-1,.24-1.46.49l.73-.49c1.22-.49,2.44-.73,3.9-1.22a1.82,1.82,0,0,0,1.22-.49h-1a9.76,9.76,0,0,0-3.66.74,11.31,11.31,0,0,0-3.65,1.46,12.19,12.19,0,0,0-3.42,1.95c0,.24-.24.24-.48.24,0-.73.48-1,.73-1.22a1.27,1.27,0,0,0,1-.48,22,22,0,0,1,4.14-2.2,60.78,60.78,0,0,1,7.07-2,3.45,3.45,0,0,0,1.46-.48,12,12,0,0,0-2.92.24,1.89,1.89,0,0,1-1-.24c-.48-.25-.48-.25,0-.49s1-.25,1.22-.49h.49a.24.24,0,0,0,.24-.24.24.24,0,0,0-.24-.25,5.9,5.9,0,0,1-2.19.25.46.46,0,0,1-.73,0c0-.25.24-.25.48-.25.73-.24,1.71-.24,2.2-.48a26.11,26.11,0,0,1,4.38-.49,5.45,5.45,0,0,1,1.95.24.76.76,0,0,0,.49-.24c0-.25-.24-.25-.24-.49,1.21,0,2.43.24,3.41.24l-3.66-.73c-1.22,0-2.43-.24-3.65-.24a3.1,3.1,0,0,1,1.46-.24h1.71a4.2,4.2,0,0,1,1.7.24,4.06,4.06,0,0,0,1.71,0,8.42,8.42,0,0,1-2.68-.73h1.21a12,12,0,0,1,2.93,0,19.4,19.4,0,0,1,5.6.73l1.95.73c.49,0,.25.49.49.73-.73,0-1.46-.49-2.44-.49l1.95.74c.25.24.49.24.73.48,0,0,.25.25,0,.25h-.24a.76.76,0,0,1-.49-.25,8.69,8.69,0,0,0-2.68-.73,8.69,8.69,0,0,0,2.2,1l.73.48c.24,0,.24.25,0,.25-.25.24,0,.49.24.73a.84.84,0,0,1,.24.49.52.52,0,0,1,.49.48c.24.25-.24.25-.24.49v.73c-.25.73,0,1.22.73,1.71a32.83,32.83,0,0,1,4.39,5.36,10.26,10.26,0,0,0,1,1.7c.24.25.24.49-.24.49-.73.49-1,.73-.49,1.71a3.38,3.38,0,0,0,.49,1.46c.24.49,0,.73-.25,1a.24.24,0,0,0-.24.25c-.49.24-.49.73-.49,1.22a10.33,10.33,0,0,1,.49,2.43,12,12,0,0,1-.49,2.93,18.67,18.67,0,0,0-.24,3.65,10.33,10.33,0,0,0,1,3.9h.25a12.9,12.9,0,0,0-.49-2.68c.24,0,.24.25.49.25v-.49a3.49,3.49,0,0,1,.48,1.46c.25.49.25.73.73,1l.25.25c.24,1.22.73,1.7,1,2.68,0-2.19-.73-3.9-.73-5.85a37.8,37.8,0,0,1,1.46,4.14c.25-1-.24-1.46,0-1.95.49.25.49.73.74,1,.24-.25,0-.73,0-1,.24,0,.24.25.48.25s0-.25.25-.49c.48.73,1.46,1.22,1.46,2.44h.24a12.47,12.47,0,0,1-.49-2.93c.49.25.74,0,.74-.73a11.77,11.77,0,0,1,1.7,3.9c.24-.49,0-1,0-1.22s0-.24.24-.24l.25.24V255c.24.24,0,.73.24.73v1.22c.25.24.25.24.49.24a.24.24,0,0,0,.24-.24v-.73a1.6,1.6,0,0,1,.25-1.46c.24,0,0,.48.48.48a11.89,11.89,0,0,1,0-2.92c.25.49.25,1.22.74,1.7,0,.25.24.49.73.74,0-.74-.25-1.22,0-1.71.24.24.24.49.24,1a24.07,24.07,0,0,0,2.44,5.12l.73,1.71a.46.46,0,0,1,0,.73c-.73.24-.73.73-.25,1.22a23.08,23.08,0,0,0,3.9,4.38c2.2,1.95,4.63,3.9,7.07,5.85a37.55,37.55,0,0,1,3.66,2.93l2.19,2.19a5.83,5.83,0,0,1,2,2.19,12.85,12.85,0,0,1,2.19,2.68c0,.25-.49.25-.73.25-.24.24-.24.24-.49,0a6.39,6.39,0,0,0-1.46-2c-2-2.68-4.39-4.63-6.82-6.83-1.46-1-2.68-2.19-4.39-3.16a47.41,47.41,0,0,1-6.09-6.1c-.49-.24-.49-.73-1.22-.24a.24.24,0,0,0-.24-.24c-.49,0-.73.24-1,.73,0,.48-.24.73-.24,1.22a.24.24,0,0,1-.25.24c-.24-.24-.48-.49-.73-.49-.24.25,0,.49.25.73l2.68,3.41a36.6,36.6,0,0,0,3.17,2.93l2.68,2.19c1.46,1.22,3.16,2.44,4.63,3.66.48.24.73.73,1.22,1,.24.25.24.25.24.49,0,.49.24.73.73,1.22a65.52,65.52,0,0,1,5.12,6.33,16,16,0,0,1,1.95,3.41,5.37,5.37,0,0,1,1.21,1.95,16.78,16.78,0,0,1,1.22,3.17,19,19,0,0,1,.73,3.66c0,1.22.49,2.68.49,3.9-.24.24,0,.73,0,1a.24.24,0,0,0,.25.24.24.24,0,0,0,.24-.24c.73-.73.49-1.7.73-2.68.73.49.49,1.46.73,2.19,0-.48.25-.73.25-1a.89.89,0,0,1-.25-.73c0-.25,0-.49.49-.73.24,0,0-.25.24-.25.49.25,0,.73.25,1a3.14,3.14,0,0,0,.24-1.46,15.26,15.26,0,0,0,.24-3.17c-.24-1-.24-1.71-.48-2.44a7,7,0,0,0-.74-3.41c.25.24.25.49.49.49.49,2.19,1,4.14,1.22,5.84v.49c-.24,1,0,1.95-.24,2.93l.24,2.43c0-2.19.24-4.63.24-6.82.49,2,0,4.14.25,6.34,0-2.44.24-4.63.24-6.83.49.25.49.49.49.73a16.41,16.41,0,0,0-.24,3.42c0,1.94.24,3.89.24,6.09C426,308.57,426.2,309.3,426.2,310Zm-85.29-16.57c-.48-.49-1.21-1-1.46-1.46h-.24c-.25.49-.49,0-.73.24.48.49.73,1.22,1.46,1.71,0,.24.24.24.49.24a.84.84,0,0,0,.48-.24A.33.33,0,0,0,340.91,293.46Zm67,19.74a1.44,1.44,0,0,1-.25-1,10.64,10.64,0,0,0,.25-2.68,42.28,42.28,0,0,0-1-5.36,29.39,29.39,0,0,0-3.9-6.58,44.29,44.29,0,0,0-8.53-8,45.08,45.08,0,0,1-7.06-6.33c-1.22-1.47-1.95-2.93-3.17-4.15l-.73-.73c-.73-1.46-1.71-2.68-2.44-4.14a8.57,8.57,0,0,1-1.95-3.9,56.13,56.13,0,0,0-2.19-6.82,28.77,28.77,0,0,1-1.22-4.39c0-1.7-.24-3.17-.24-4.63s.24-2.92.24-4.38a1.59,1.59,0,0,0,0-1.47c-.24,0-.24-.24-.24-.48a15.64,15.64,0,0,0-1.95-5.61,8.69,8.69,0,0,0-1.22-1.95,6.47,6.47,0,0,0-2.19-1.22l-4.39-.73a10.09,10.09,0,0,0-4.63-.49,23.58,23.58,0,0,0-10.48,3.66,25.17,25.17,0,0,0-2.92,2.44c-1,.48-1.71,1.7-2.44,2.43a13.47,13.47,0,0,0-2.92,4.63,26,26,0,0,0-1.22,4.15l-.73,3.41a26.64,26.64,0,0,0,1.46,10,12.88,12.88,0,0,0,2.92,5.12c1.46,1.7,2.93,2.92,4.39,4.38a44.07,44.07,0,0,1,6.33,5.36,14.08,14.08,0,0,1,3.9,3.66,24.86,24.86,0,0,0,3.9,4.63l4.39,4.14a25.67,25.67,0,0,1,3.65,3.66c1.47,1.95,1.95,3.9,2.93,5.84.24.74-.25,1.22-1,1.22a.89.89,0,0,0-.73.25,2.13,2.13,0,0,1-1.46.73.76.76,0,0,1-.49.24,1.94,1.94,0,0,1-2.19.49,2.1,2.1,0,0,0-1.71,0,7,7,0,0,1-1.95,1,8.85,8.85,0,0,0-2.68.73l-1.7.74a10.91,10.91,0,0,1-1.22.24A1.34,1.34,0,0,0,358,312c-.24.24,0,.49.25.49h.24c.24-.25.49,0,.73.24.24.49,1,.49,1.46.73.25,0,.49.25.73.25l1.22,1.46c0,.24.25.24,0,.49-.24-.25-.49-.74-1-1,.24.49.48.73.48,1.22-.24-.24-.24-.73-.73-1l1.47,3.66c0,.24.24.49.48.24,0-.24.25,0,.25-.24.24-.24,0-.49,0-.73,1,0,1-.24.73-1a9.26,9.26,0,0,0-2.2-3.16c0-.25-.24-.25-.24-.49.49.24,1.22,0,1.46.24.49.49,1,.73,1,1.22,0,.24.24.24.24.49a1.87,1.87,0,0,1,.49,1.22,12.37,12.37,0,0,1,1.22,3.16c0,.49,0,.74.48,1a10,10,0,0,0-.73-3.17.24.24,0,0,1,.25.25,40.84,40.84,0,0,1,1.46,5.11,17.21,17.21,0,0,1,1.46,6.09,4.23,4.23,0,0,0,.24,1.71.88.88,0,0,0,.25.73c0,.25.24.25.49.25l.24-.25V330c-.24-1-.24-2.19-.49-3.16-.49-2.2-.73-4.39-1.22-6.58,0,0-.24-.25,0-.74.25.49.49.49.49,1,.24,1.46.73,2.92,1,4.39,0,1.46.48,3.16.48,4.63a.89.89,0,0,0,.25.73h.24a.24.24,0,0,0,.24-.25v-.48a5.42,5.42,0,0,0-.24-1.95l-1.46-6.83V320c.24,0,.24.25.24.49a33.79,33.79,0,0,1,1,4.14,60.62,60.62,0,0,1,1,9.26c0,.73-.24,1.22,0,1.71a2.25,2.25,0,0,1-.24,1.22,3.31,3.31,0,0,1-.73,2L368,343.42a5.07,5.07,0,0,1-1,1.46c0,.24-.25.48-.25.73a5.37,5.37,0,0,1-1.21,1.95,22.27,22.27,0,0,1-4.15,4.14c-.24.24-.48.49-.48.73,0,.49-.25.73-.74,1-1.94,1.46-4.14,2.43-6.33,4.14a3.45,3.45,0,0,1-1,.73c-1,.24-1.46,1-2.43,1.46a.24.24,0,0,0-.25.25.87.87,0,0,0,.73-.25,1.84,1.84,0,0,0,1-.48,10,10,0,0,1,1.7-1,7.83,7.83,0,0,0,1.95-1.46,37.67,37.67,0,0,0,4.39-2.44l.24-.24h.74a1.23,1.23,0,0,1,1-.49c-.73,1-1.95,1.22-2.68,2.19a30.94,30.94,0,0,0,4.63-3.16c1.22-.74,1.95-2.2,3.17-3.17a11.27,11.27,0,0,0,1.7-1.71,16.24,16.24,0,0,0,1.95-4.14.24.24,0,0,0,.25-.24l2.19-3.66c.24-.73.73-1.46,1-2.19a.87.87,0,0,1,.25-.73,3.89,3.89,0,0,0,1-1.71v.73a10.17,10.17,0,0,1-1,3.66c.49-.25.49-.25.49-.49a3.54,3.54,0,0,0,.48-1.46,3.27,3.27,0,0,1,1-.73,10.45,10.45,0,0,1-1,2.92l-3.41,6.34-.24.24c-.25-.24,0-.73,0-1,.24-.24.24-1,.24-1.46-.49.49-.73,1.22-1.22,1.71-1,1-1.46,2.44-2.68,3.41a.84.84,0,0,0-.24.49c.24.48-.24,1-.49,1.46-.24,0-.24.24,0,.49s0,.24,0,.48c-.24.25-.24.49-.49.49a40.65,40.65,0,0,1-4.87,4.39c-.24.49-.49.49-.24,1a16.3,16.3,0,0,0,2.19-1.46l1.95-1.46c.24-.24.24-.49.49-.24a.33.33,0,0,0,.48,0c.49-.25.49-.74.74-1.22.48.73.48.73,0,1.22l-.74.73v.24c0,.24.25.24.49,0a7.25,7.25,0,0,0,1.71-1.22.53.53,0,0,1,.48-.49c.25,0,.49-.24.74-.48a10.64,10.64,0,0,0,2.19-2.44,15.76,15.76,0,0,0,1.95-3.41l1-1.71c.25-.24.49-.49.49-.73l1.46-3.17a15.44,15.44,0,0,0,1.95-4.63.24.24,0,0,1,.25-.24c0-.24,0-.24.24-.24a.24.24,0,0,1,.24.24c-.24.73-.24,1.71-.48,2.44a35,35,0,0,1-1.95,4.38,13,13,0,0,0-1.22,2.68c-.25.49-.49,1.47-1.22,1.71a.24.24,0,0,0-.24.24c0,.49-.49.73-.74,1.22a11.35,11.35,0,0,0-1.46,1.71c-1,1.22-1.95,2.19-2.92,3.65-.25.49-.73.49-1.22,1-1.46,1.46-2.68,2.92-4.39,3.65,0,.25-.24.25-.24.49-.24,0-.49.24-.24.24,0,.25.24.25.48.25s.49-.25.49,0a4.84,4.84,0,0,0,1.71.24h3.9a32.91,32.91,0,0,0,8.52-1.46c1.22-.24,2.2-1,3.17-1.22V358a8.91,8.91,0,0,0,1.71-2.44,2.46,2.46,0,0,1,1-1.22,52.79,52.79,0,0,0,6.58-8l3.17-4.87A63.67,63.67,0,0,0,400.86,331a39.38,39.38,0,0,0,3.17-5.36,7.42,7.42,0,0,0,1-2.44,15,15,0,0,0,1.71-4.63l1-4.63c0-.24.25-.49.25-.73Zm-56.78-82.12h.24a8.35,8.35,0,0,0-1.95,1.22c-.73.73-1.7.73-2.43,1.22A10.32,10.32,0,0,1,351.15,231.08ZM348,293a1.27,1.27,0,0,0-1-.48C347.25,293.22,347.49,293.22,348,293Zm10.24,66.53c-.49.24-1,.49-1,.73C357.73,360.23,358,360,358.22,359.5Zm3.16-151.33a1.5,1.5,0,0,0,0-1.46v-1.46a3,3,0,0,1,.49-2.2,4,4,0,0,0,.49-2.43c-.49-.25-.25-1-.25-1.46a.9.9,0,0,1,.25-.74.46.46,0,0,0,0-.73,4.34,4.34,0,0,1,.24-2.43c0-1,.25-1.71.25-2.44,0-.24.24-.24.24-.49.24,0,.24-.24.24-.48a6.2,6.2,0,0,1-.24-1.95c.24-.25,0-.49,0-.74v-.48a3.26,3.26,0,0,0,.49-2c0-1,0-1,1-1h3.9a31.53,31.53,0,0,1,15.11,2.44c2.44,1,4.63,2.19,7.06,3.41,1,.25,1.71,1,2.93,1.46a26.22,26.22,0,0,0,6.82,3.66c1.22.49,2.44,1.22,3.9,1.7.49.25.49.49.24,1,0,.24-.24.73,0,1,0,.49-.24.73-.24,1.22a3.14,3.14,0,0,0-.24,1.46v.25c-.49.73-.25,1.46-.25,2.43l-.24,1.71a5.24,5.24,0,0,0-.24,2.68,5.83,5.83,0,0,1-.49,1.95v1.71a2.7,2.7,0,0,1-.24,1.22.32.32,0,0,0,0,.48c0,.25.24.49,0,.73a4.65,4.65,0,0,0-.25,1.95.89.89,0,0,1-.24.73v.25c.24.73-.25,1.7-.25,2.19,0,.73-.48,1-1,.73a13.87,13.87,0,0,1-2.68-1.46,11.12,11.12,0,0,0-2.19-1.46,32.23,32.23,0,0,1-5.12-2.44c-1.22-.73-2.19-1.46-3.17-1.95-1.22-.49-2.19-1.22-3.41-1.7-1.46-.49-2.92-1.22-4.87-1.71a19.82,19.82,0,0,0-3.66-1,28.68,28.68,0,0,0-10.23-1,12.09,12.09,0,0,1-2.93.24C361.38,209.88,361.14,209.15,361.38,208.17Zm14.14,10.72a49.55,49.55,0,0,0-5.85-1c-2.19,0-4.14-.49-6.09-.49a.24.24,0,0,0-.25-.24,9.62,9.62,0,0,1,2.68,0c1.47.24,3.17.24,4.63.49a11.65,11.65,0,0,1,4.88,1,.91.91,0,0,1,.73.24A.45.45,0,0,1,375.52,218.89Zm-9,125.26-.24-.25a8.56,8.56,0,0,1-.73,1.46,5.46,5.46,0,0,1-1,1.22c-.24.49-.73.73-.73,1.22A14.2,14.2,0,0,0,366.5,344.15Zm-1.71,11.94c-.48.24-.73.24-1,.73A3.42,3.42,0,0,0,364.79,356.09ZM364.31,216a5,5,0,0,1,2.68-.24c.24.24.49,0,.73,0a9.28,9.28,0,0,1,2.68.24c1,0,2.19.24,3.17.24.48.25,1.22.49,1.46,1a10.09,10.09,0,0,0-1.22-.25,8.43,8.43,0,0,0-2.44-.24,28.37,28.37,0,0,0-4.63-.24s-.24-.25-.24,0C365.77,216.7,365,216.21,364.31,216Zm1.46,139.14c-.24.25-.49.25-.73.73C365.53,355.6,365.53,355.6,365.77,355.11Zm-.24-135c.24,0,.48,0,.48.25C365.77,220.36,365.77,220.11,365.53,220.11Zm.48.25,1,.24h-.49C366.26,220.6,366.26,220.36,366,220.36Zm1-1.22h0Zm7.06,2.43c-2.19-.48-4.63-.48-7.06-1a2.6,2.6,0,0,0,1.7-.49h.25a11.66,11.66,0,0,0,3.9,1C373.32,221.09,373.57,221.33,374.05,221.57Zm-6.57-3.41v.25l-.25-.25Zm1.46,1.22a1.5,1.5,0,0,0-1-.24,15.55,15.55,0,0,1,3.41,0c.25,0,.25.24.49.24a8.31,8.31,0,0,1-2.44,0Zm0-1c.48-.25.73,0,1.22,0-.49,0-.74.24-1.22,0ZM372.1,338.3a5.06,5.06,0,0,1,1-1.46v.48a7.45,7.45,0,0,1-1.22,2.44,40.49,40.49,0,0,0-2.19,3.41.24.24,0,0,1-.25.25,34,34,0,0,0,2.2-4.15l-.73.73c0-.48,0-.48.48-1.46a5.19,5.19,0,0,1,1-1.46l-.49,1.22a1.84,1.84,0,0,0-.24,1.22C371.86,339,372.1,338.79,372.1,338.3Zm0-118.92h.25C372.35,219.62,372.1,219.38,372.1,219.38Zm.49,119.89h.25l-.25.25Zm1.46,1.46v-.48a.24.24,0,0,0-.24.24v.24Zm1.95,1a7.76,7.76,0,0,1,1.47-3.66A12.7,12.7,0,0,1,376,342ZM378,203.05c.49.25,1,.25,1.47.49A3.55,3.55,0,0,0,378,203.05Zm2.2,31.2a1.77,1.77,0,0,1,1.46,1.7C381.12,235.46,380.88,235,380.15,234.25Zm19.25,43.62s0,.24.24,0C399.64,277.87,399.64,277.62,399.4,277.87Zm2.43,1.7a.87.87,0,0,0,.25.49,13,13,0,0,0,2.19,1.7,44.23,44.23,0,0,1,7.31,8.05,15,15,0,0,0,1.71,2.43,8,8,0,0,1,1.7,3.17,19.65,19.65,0,0,1,1.95,8.29,11.5,11.5,0,0,1,.25,2.92,16.31,16.31,0,0,0,.24-3.41,13.1,13.1,0,0,0-1-5.36,25.67,25.67,0,0,0-2.69-5.85l-.73-1.71c-.24-.73-1-1.46-1.21-2.19-.74,0-.74-.73-1-1-.49-.48-.73-1.21-1.46-1.46a9.32,9.32,0,0,1-2.44-2l-3.9-3.16C402.57,280.3,402.32,279.81,401.83,279.57Zm7.8,11a8.35,8.35,0,0,0-1.22-2l-.24-.25c-.49,0-.73-.48-1-.73a13.21,13.21,0,0,0-2.69-2.19.84.84,0,0,0-.48-.24c0,.48.48.48.73.73,1.7,1.7,3.17,3.16,4.39,4.63.24.24.24.24.24.48.24,0,.24,0,.24-.24Zm-4.87-1.71a.24.24,0,0,0-.25-.24v.24Zm3.9-17.3c.49,0,.49,0,.49.24C408.9,272,408.9,271.77,408.66,271.53Zm3.65,61.41a18.25,18.25,0,0,0,1.46-3.17v-.24h-.24l-.73.73c-.49,1-1,2.19-1.46,2.92l-1.22,1.95v.24c.24.25.24,0,.24,0,.49-.24.49-.24.73-.73C411.58,334.16,411.83,333.42,412.31,332.94Zm-.24-38.51a5.36,5.36,0,0,0-1.46-2.43,4.1,4.1,0,0,0,1.46,2.43Zm-.73-4.38c0-.24,0-.49-.25-.49C411.09,289.81,411.34,289.81,411.34,290.05Zm1.22,2.44c0-.74-.49-1-.73-1.47-.25-.24-.25-.48-.74-.48A6.08,6.08,0,0,0,412.56,292.49Zm3.16-14.87c-1.46-1.22-2.92-2.68-4.38-4.14a6.56,6.56,0,0,0,1.46,1.22l1.71,1.46C414.75,276.65,415.48,276.89,415.72,277.62Zm-3.41,39.72.25-.24a56.43,56.43,0,0,1,1-6.83v-.73A27.54,27.54,0,0,0,412.31,317.34Zm2.44-15.59a1.86,1.86,0,0,0,.24,1c0-2.44-1.46-6.33-2.43-7.31-.25.49,0,.73.24,1A34.91,34.91,0,0,1,414.75,301.75Zm-1.95-13.16a5.29,5.29,0,0,0,1,1.46l.74,1.22c.48,1,1,2,1.46,2.92a10.7,10.7,0,0,1,1.7,4.63,3.9,3.9,0,0,1,.73,2.2c0,.24,0,.73.25.73a1.32,1.32,0,0,1,.49,1.21,13.87,13.87,0,0,0,0-3.16,12.15,12.15,0,0,0-1.47-4.15,22.61,22.61,0,0,0-3.41-7.31c-.24-.24-.49-.48-.73-.48a.9.9,0,0,0-.73.24C412.56,288.1,412.8,288.34,412.8,288.59Zm9.5,26.8a5.24,5.24,0,0,0,.25-1.95c0,.49-.25.73-.49.73s-.24.25-.24.49a.88.88,0,0,1-.49.24v-1.7a2.7,2.7,0,0,1,.24-1.22v-1.46c0-.25,0-.49-.24-.49-.49.24-.24-.24-.24-.49a3,3,0,0,0-.25-1.46c-.24.25-.49.49-.49.73v1.71a26.81,26.81,0,0,1-.24,4.38c-.24,2.2-1.22,4.15-1.95,6.34a4.69,4.69,0,0,0-1.22,2.44,10.26,10.26,0,0,0-1,1.7c0,.25-.25.49-.49.73-.24.74-1,1.22-1.22,1.95,0,.25-.49.49,0,.73.25.25.25,0,.49-.24,0-.24.24-.49.24-.73a4,4,0,0,0,1-1.71,10.26,10.26,0,0,0,1-1.7,11.49,11.49,0,0,1,1.71-1.71c.24.25,0,.25,0,.49-.25,0-.25.24-.25.49.49.24.25.48,0,.73a12.89,12.89,0,0,1-1.46,2.44l-1,1.7c-.25.24-.25.49-.49,1-.24.24-.24.48-.73.48,0-.24.49-.24.24-.48s-.24,0-.24,0l-1,1.7a3.14,3.14,0,0,0-1,1.46v.49c.49,0,.24.24.24.49.25,0,.25-.25.49-.49l1.71-2.92a3.71,3.71,0,0,0,.73-1.71.53.53,0,0,0,.49-.49c.48-.73,1-1.7,1.7-2.68.73-1.22,1.22-2.43,1.95-3.41a20.91,20.91,0,0,0,2.19-4.87.76.76,0,0,0,.25-.49A1.24,1.24,0,0,1,422.3,315.39Zm-8.77-10v-.73a8.87,8.87,0,0,0-.49-2.92c-.24.48.25,1,.25,1.7A6.14,6.14,0,0,0,413.53,305.4Zm.73-9.75c-.24-1-.24-1-.73-1.46C413.77,294.68,413.77,295.41,414.26,295.65Zm0,35.34h.25C414.26,331,414.26,331.23,414.26,331Zm.73-27.54a1.45,1.45,0,0,0,.25,1A1.81,1.81,0,0,0,415,303.45Zm1.71,22.91a12.53,12.53,0,0,0-1.46,2.43A8.19,8.19,0,0,0,416.7,326.36Zm-.24-4.63a6.06,6.06,0,0,0,1-2.2A8.61,8.61,0,0,0,416.46,321.73Zm.24-7.31V313.2A1.12,1.12,0,0,0,416.7,314.42Zm1.7,3.41a16.66,16.66,0,0,0,.74-3.41Zm.74-7.8v3.66A18.65,18.65,0,0,0,419.14,310Zm1-27c.24,0,.49.25.49.73C420.11,283.47,420.11,283.23,420.11,283Zm1,29.24a1.12,1.12,0,0,1,0,1.22C420.84,313,421.09,312.71,421.09,312.22Zm.24-23.63c.24,0,.24,0,.24.24C421.33,288.83,421.57,288.59,421.33,288.59Zm1.7,23.15h-.24V312C423,312,423,312,423,311.74Zm0-19V292A.45.45,0,0,1,423,292.73Z" transform="translate(-282.42 -185.63)"/></svg>