<svg id="Lager_9" data-name="Lager 9" xmlns="http://www.w3.org/2000/svg" viewBox="0 0 201.32 190.18"><title>Privacy_QP</title><path d="M581.9,209.23c0,28.53-30.42,52.43-69.55,52.43H461l-34.23,83.68H442c1.9,0,2.71,1.36,1.9,3.26l-4.08,10.6a2.86,2.86,0,0,1-3,2.17H383c-1.9,0-3-1.36-2.17-3.26l4.35-10.59a2.86,2.86,0,0,1,3-2.18h14.67l63.85-158.12H453.13c-1.91,0-2.72-1.36-1.91-3.26l4.08-10.59a2.87,2.87,0,0,1,3-2.18h78.79C564,171.19,581.9,186.14,581.9,209.23Zm-26.35,1.9c0-17.39-12.77-23.91-26.08-23.91H491.7l-23.9,58.41h42.38C539.25,245.63,555.55,230.42,555.55,211.13Z" transform="translate(-380.58 -171.19)"/></svg>