<?xml version="1.0" encoding="UTF-8"?> <svg xmlns="http://www.w3.org/2000/svg" id="Tele2_Slab_kopia_2" data-name="Tele2 Slab kopia 2" viewBox="0 0 3838.84 152.64"><title>SATS_03</title><path d="M117.12,234.78v112H91.2V324.06H54.87L42.23,346.78H11.35l67.21-112Zm-25.92,64V259.1L69.12,298.78Z" transform="translate(-11.35 -198.94)"></path><path d="M211.35,293.34c6.4,4,10.56,10.08,10.56,19.2,0,16.64-12.16,34.24-37.28,34.24H126.87l32.16-112h47.84c16,0,32.17,7.52,32.17,27C239,275.74,229.92,289.18,211.35,293.34Zm-17.76,17.28c0-6.08-3.84-9.28-11.84-9.28h-13l-6.24,21.44H179C189.59,322.78,193.59,316.7,193.59,310.62ZM181,258.78l-5.6,19.2H196c9.12,0,14.4-4.64,14.4-11.2,0-6.24-5-8-10.24-8Z" transform="translate(-11.35 -198.94)"></path><path d="M236.15,317.66c0-35.68,25.76-85.12,71.52-85.12,22.88,0,33.92,12.32,35.68,26.88l-28.8,9.6c-1.12-5.12-4.16-10.24-11.68-10.24-19.36,0-36.48,32.32-36.48,53,0,6.4,2.88,11,9.28,11,7.52,0,15.36-6.24,21.92-15.84l24.64,13C316,329.5,298.71,349,270.39,349,246.87,349,236.15,336.54,236.15,317.66Z" transform="translate(-11.35 -198.94)"></path><path d="M435.35,273c0,30.24-21.44,73.76-66.56,73.76H328l32.16-112h35C415.67,234.78,435.35,243.9,435.35,273Zm-29.44,3.2c0-14.4-7.84-16.16-15.2-16.16h-8.64L364.31,321.5h3C396.63,321.5,405.91,291.58,405.91,276.22Z" transform="translate(-11.35 -198.94)"></path><path d="M484.15,260.06l-5,17h33.92l-7.2,25.28H472l-5.6,19.2h47.68l-7.2,25.28H430.39l32.16-112H537l-7.2,25.28Z" transform="translate(-11.35 -198.94)"></path><path d="M574.07,260.06l-5.44,18.56H607l-7.2,25.28h-38.4l-12.32,42.88h-28.8l32.16-112h74.4l-7.2,25.28Z" transform="translate(-11.35 -198.94)"></path><path d="M692.47,346.78H672.79v-9.6c-9.6,9-18.56,11.84-28.64,11.84-19.84,0-31-12.8-31-32.32,0-36.16,25.6-84.16,72.16-84.16,22.72,0,33.92,12.16,36,26.56l-28.64,9.76c-1.28-5.12-4.64-10.08-12-10.08-19.52,0-37.28,31.52-37.28,52.32,0,6.88,3.68,11.68,11,11.68,7.52,0,15.52-4.16,21-13H658.07l7.2-25.28h45Z" transform="translate(-11.35 -198.94)"></path><path d="M833,234.78l-32.16,112H772l12.8-44.48h-34.4l-12.8,44.48h-28.8l32.16-112h28.8L757.59,277H792l12.16-42.24Z" transform="translate(-11.35 -198.94)"></path><path d="M851,234.78h28.8l-32.16,112H818.86Z" transform="translate(-11.35 -198.94)"></path><path d="M900,322.62c6.56,0,10.72-3,13.44-12.8l21.44-75h28.8l-23.2,81.12c-5.44,19.2-17.28,32.8-41.6,32.8-21.45,0-33.29-11.68-37.29-20L884,313.18C887.19,317.82,892.47,322.62,900,322.62Z" transform="translate(-11.35 -198.94)"></path><path d="M1017.43,291.26l26.24,55.52h-30.56l-21.29-48.64L977.9,346.78H949.1l32-112h28.81l-12.16,42.56,43.36-42.56h36.8Z" transform="translate(-11.35 -198.94)"></path><path d="M1084.14,234.78h28.8l-25,86.72h44.48l-7.36,25.28H1052Z" transform="translate(-11.35 -198.94)"></path><path d="M1283.82,234.78l-31.84,112h-28.32l21.44-75.2-40.32,75.2H1187v-75.2l-21.76,75.2h-27.52l32.16-112h39v61.6l30.88-61.6Z" transform="translate(-11.35 -198.94)"></path><path d="M1392.14,234.78l-32.16,112h-28.8l-13.44-68.32-19.68,68.32H1269.9l32-112h30.4l12.8,65,18.88-65Z" transform="translate(-11.35 -198.94)"></path><path d="M1385.26,318.14c0-34.56,25.44-85.6,70.24-85.6,24.16,0,34.72,12.48,34.72,31,0,34.56-25.6,85.44-70.24,85.44C1395.82,349,1385.26,336.7,1385.26,318.14ZM1460,270.78c0-7.36-1.6-12-9.6-12-17,0-34.88,33.12-34.88,52,0,7.36,1.6,12,9.6,12C1442.06,322.78,1460,289.66,1460,270.78Z" transform="translate(-11.35 -198.94)"></path><path d="M1591.18,265.34c0,22.24-15.84,39.84-44.64,39.84h-22.72L1512,346.78h-28.8l32-112h40.16C1578.86,234.78,1591.18,247.58,1591.18,265.34Zm-27.36,3c0-5.92-4.48-9.6-11.84-9.6H1537.1l-6.4,22.4h17.6C1559.18,281.18,1563.82,275.9,1563.82,268.38Z" transform="translate(-11.35 -198.94)"></path><path d="M1666.06,330.62l10.24,21h-26.72l-3.37-7.2a55,55,0,0,1-22.4,4.64c-24.16,0-34.72-12.32-34.72-30.88,0-34.56,25.44-85.6,70.24-85.6,24.17,0,34.73,12.48,34.73,31C1694.06,285,1684.14,312.7,1666.06,330.62Zm-30.89-9.28-8-16.48h25c6.89-10.88,11.69-24.32,11.69-34.08,0-7.36-1.6-12-9.61-12-17,0-34.88,33.12-34.88,52,0,7.36,1.6,12,9.6,12A14.78,14.78,0,0,0,1635.17,321.34Z" transform="translate(-11.35 -198.94)"></path><path d="M1757.73,303.42l17,43.36h-30.08l-16-44.64-12.8,44.64H1687l32-112h44c21.92,0,33.6,12.64,33.6,29.92C1796.61,285,1782.53,301.5,1757.73,303.42Zm11.36-36c0-5.28-3.84-8.64-10.72-8.64h-17.44l-5.92,20.8h19.2C1764,279.58,1769.09,274.62,1769.09,267.42Z" transform="translate(-11.35 -198.94)"></path><path d="M1780,330.78l21.92-16.8a28.32,28.32,0,0,0,21.28,9.76c9.76,0,13.92-4.16,13.92-10.24,0-4.32-3.2-7.52-8.32-11.84l-7.36-6.24c-7.68-6.56-14.08-15.2-14.08-26.4,0-20,17-36.48,42.72-36.48,19.36,0,32.16,8.16,37.28,16.32l-22.08,16.64a24.73,24.73,0,0,0-17.6-7.68c-7.2,0-11.2,3.36-11.2,8.8,0,4.48,3.84,7.84,8.16,11.52l7.52,6.4c7.36,6.24,14.24,15,14.24,25.92,0,21.44-14.72,38.56-44.48,38.56C1802.37,349,1788,341.5,1780,330.78Z" transform="translate(-11.35 -198.94)"></path><path d="M1921.41,260.06h-30.08l7.36-25.28h86.4l-7.36,25.28h-27.52l-24.8,86.72h-28.8Z" transform="translate(-11.35 -198.94)"></path><path d="M1979.17,303.26l19.68-68.48h28.8L2007.33,306c-3.2,11.36,1.44,17.12,10.4,17.12,7.36,0,13.12-3.2,16.48-15l21.12-73.28h28.8l-21.92,76.8c-6.72,23.2-20.48,37.44-46.08,37.44C1983.17,349,1971.65,329.5,1979.17,303.26Z" transform="translate(-11.35 -198.94)"></path><path d="M2192.29,234.78l-67.2,112h-36l4.8-112h27l-3.68,77.76,43.84-77.76Z" transform="translate(-11.35 -198.94)"></path><path d="M2335.49,234.78l-54.08,112h-32.8l2.24-63.52-29.6,63.52H2187l8.32-112H2223l-5.92,71,34.24-71h22.72l-2.4,73.76,33-73.76Z" transform="translate(-11.35 -198.94)"></path><path d="M2391.49,292.7l18.88,54.08h-29.44l-11-33.92-28.48,33.92h-33.76l51.68-58.88-18.88-53.12h29.44l11,33,27.52-33h33.76Z" transform="translate(-11.35 -198.94)"></path><path d="M2450.53,308.54l-6.88-73.76H2471l3.52,43.2,32.8-43.2H2540l-61.44,76.64-10.08,35.36h-28.8Z" transform="translate(-11.35 -198.94)"></path><path d="M2622.05,258.46l-64,63h46.08l-7.2,25.28h-82.09l6.72-23.68,64-63h-45.92l7.36-25.28h81.76Z" transform="translate(-11.35 -198.94)"></path><path d="M2671.64,234.78h38.57v112h-25.93V324.06H2648l-12.64,22.72h-30.88Zm12.64,64V259.1l-22.08,39.68Zm-8.16-82.08c0-9.76,8-17.76,20.64-17.76,10.56,0,17.45,6.08,17.45,13.92,0,11.2-9.61,17.76-20.81,17.76S2676.12,224.22,2676.12,216.7Zm11.36-1c0,3.2,2.24,5.6,6.72,5.6,4.8,0,8.64-2.72,8.64-7.36,0-3.52-2.56-5.76-6.88-5.76C2690.84,208.22,2687.48,211.74,2687.48,215.74Z" transform="translate(-11.35 -198.94)"></path><path d="M2779,234.78h38.56v112h-25.92V324.06h-36.32l-12.64,22.72H2711.8Zm12.64,64V259.1l-22.08,39.68ZM2795,227.1h-22.4l10.72-20h22.4Zm42.72-20-10.72,20h-22.4l10.72-20Z" transform="translate(-11.35 -198.94)"></path><path d="M2828.92,318.14c0-34.56,25.44-85.6,70.24-85.6,24.16,0,34.72,12.48,34.72,31,0,34.56-25.6,85.44-70.24,85.44C2839.48,349,2828.92,336.7,2828.92,318.14Zm74.72-47.36c0-7.36-1.6-12-9.6-12-17,0-34.88,33.12-34.88,52,0,7.36,1.6,12,9.6,12C2885.72,322.78,2903.64,289.66,2903.64,270.78Zm-15.2-63.68h22.4l-10.72,20h-22.4Zm32,0h22.4l-10.72,20h-22.4Z" transform="translate(-11.35 -198.94)"></path><path d="M3029.56,234.78l-32.16,112h-28.8l25-86.72h-17l13.76-25.28Z" transform="translate(-11.35 -198.94)"></path><path d="M3068.28,321.5h36l-7.68,25.28h-79l6.4-22.56,35.84-24.8c18.72-13,29.76-21.44,29.76-31.84,0-5.6-3.36-8.8-10.08-8.8-7.84,0-14.72,5.76-20.48,14.56l-20.48-15.68c8.48-14.08,23.52-25.12,44-25.12,23.68,0,37.28,11.68,37.28,29.12,0,24-20.32,39.68-44.16,55Z" transform="translate(-11.35 -198.94)"></path><path d="M3204.92,260.06l-31.36,22.72c12.64,4.16,19.52,14.56,19.52,27.2,0,18.56-14.08,39-43.21,39-22.4,0-35-11.84-39.52-23.84L3133.4,313c3,6.4,8.16,11,16.47,11,9.77,0,14.41-6.72,14.41-13.92,0-5.28-3-11.52-11.84-11.52a18,18,0,0,0-7.52,1.6l-9.6-15.68,33.6-24.48h-35.84l7.67-25.28h71.69Z" transform="translate(-11.35 -198.94)"></path><path d="M3281.4,298.94H3294l-7.2,25.28H3274l-6.4,22.56h-27.21l6.4-22.56h-49.12l7.2-25.28,55.69-64.16h39.2Zm-27.2,0,10.08-35.2-30.57,35.2Z" transform="translate(-11.35 -198.94)"></path><path d="M3345.23,260.06l-6.72,15.2a37.25,37.25,0,0,1,6.08-.64c21.6,0,32.16,13.12,32.16,30.08,0,25.12-17.28,44.32-45,44.32-22.08,0-34.4-11.52-39.36-23.84l23-12.16c3.2,6.72,8.16,11,16.64,11,9.28,0,15.84-7,15.84-16.32,0-6.88-4.16-11.52-11.52-11.52a14.55,14.55,0,0,0-9.76,3.68l-22.56-8.16,24.32-57H3396l-9.45,25.28Z" transform="translate(-11.35 -198.94)"></path><path d="M3470.67,301.82c0,27-21.12,46.88-47.68,46.88-24,0-39-13.12-39-33.28,0-18.4,11.68-33.28,29.76-52.32l27-28.32h35.36l-39.36,40.48a31.72,31.72,0,0,1,5.6-.48C3459.63,274.78,3470.67,285.34,3470.67,301.82Zm-29.28,3.36c0-6.56-4-11-11.52-11-9.44,0-16.8,9-16.8,19,0,6.24,4.16,10.88,11,10.88C3434,324.06,3441.39,314.94,3441.39,305.18Z" transform="translate(-11.35 -198.94)"></path><path d="M3574.67,234.78l-6.4,22.72-66.56,89.28h-34.08l65.92-86.72h-45.92l7.36-25.28Z" transform="translate(-11.35 -198.94)"></path><path d="M3637.55,292.7c5.76,5,9.44,11.52,9.44,20,0,17.44-13.92,36.32-45.44,36.32-25.76,0-38.88-15.36-38.88-31.52,0-12.16,7.2-25.44,23.68-31.52a25,25,0,0,1-8.64-19.2c0-15.68,13.44-34.24,44.16-34.24,24.64,0,38.4,14.24,38.4,29C3660.27,273.66,3653.23,286.46,3637.55,292.7Zm-17,17.6c0-5-3.36-11.2-13.76-11.2-10.08,0-15.84,6.24-15.84,13.44,0,6.24,4.64,11.52,14.24,11.52C3614.35,324.06,3620.59,317.82,3620.59,310.3Zm-16.8-40c0,5,3,11.2,12.8,11.2,8.8,0,15.2-6.4,15.2-13.6,0-6.72-3.84-11.36-13.44-11.36C3609.07,256.54,3603.79,263.1,3603.79,270.3Z" transform="translate(-11.35 -198.94)"></path><path d="M3752.75,266.14c0,18.4-12,33.28-30.08,52.32l-27,28.32h-35L3700,306.3a31.72,31.72,0,0,1-5.6.48c-17.28,0-28.32-10.56-28.32-27,0-27,21.12-46.88,47.68-46.88C3737.71,232.86,3752.75,246,3752.75,266.14Zm-29.12,2.24c0-6.24-4.16-10.88-11-10.88-9.92,0-17.28,9.12-17.28,18.88,0,6.56,4,11,11.52,11C3716.27,287.42,3723.63,278.46,3723.63,268.38Z" transform="translate(-11.35 -198.94)"></path><path d="M3752,317.82c0-34.4,24-85.28,65.28-85.28,23.2,0,33,13.6,33,31.36,0,34.4-24.16,85.12-65.28,85.12C3761.71,349,3752,334.94,3752,317.82Zm68.8-49c0-6.88-2.24-10.56-8.48-10.56-14.56,0-30.88,35.2-30.88,54.4,0,6.08,1.44,10.56,8.48,10.56C3804.43,323.26,3820.75,288.06,3820.75,268.86Z" transform="translate(-11.35 -198.94)"></path></svg> 