<?xml version="1.0" encoding="UTF-8"?> <svg xmlns="http://www.w3.org/2000/svg" id="Tele2_Slab_kopia_2" data-name="Tele2 Slab kopia 2" viewBox="0 0 267.16 289.85"><title>SATS_QP</title><path d="M15.35,342.39,69.9,300.58a70.44,70.44,0,0,0,52.95,24.29c24.29,0,34.64-10.36,34.64-25.48,0-10.75-8-18.72-20.7-29.47l-18.32-15.53c-19.11-16.32-35-37.82-35-65.69,0-49.77,42.2-90.78,106.3-90.78,48.18,0,80,20.31,92.77,40.61l-54.95,41.41c-13.13-13.14-28.66-19.11-43.79-19.11-17.92,0-27.87,8.36-27.87,21.9,0,11.15,9.55,19.51,20.3,28.66l18.72,15.93c18.31,15.53,35.43,37.43,35.43,64.5,0,53.35-36.63,95.95-110.68,95.95C71.09,387.77,35.26,369.06,15.35,342.39Z" transform="translate(-15.35 -97.92)"></path></svg> 