<svg id="Scania" xmlns="http://www.w3.org/2000/svg" viewBox="0 0 3754.69 337.68"><title>Scania-01</title><path d="M187.21,196.62H129L121.29,216H88.81l45.28-113.6h49L228.49,216H194.73Zm-9.44-24.32-19.68-50.08L138.41,172.3Z" transform="translate(-88.81 -71.18)"/><path d="M354.25,183.5c0,20-14.4,32.48-38.24,32.48H232.8V102.38h78.25c22.24,0,38.72,10.24,38.72,30.24,0,13.28-8.16,21-17.6,24C344.33,160,354.25,168.46,354.25,183.5Zm-88.81-57.44V146.7H304c7.52,0,13-3,13-9.6v-1.6c0-6.4-5.12-9.44-12.64-9.44Zm55.69,54.4c0-7.2-5.76-10.72-13.6-10.72H265.44V192.3h42.09c7.84,0,13.6-3.2,13.6-10.56Z" transform="translate(-88.81 -71.18)"/><path d="M360.16,159.18c0-35,23-59.68,67-59.68,38.08,0,62.72,18.24,65.92,46.56H459c-3-13-13.76-22.08-31.84-22.08-22.4,0-33,13.92-33,32.16v6.08c0,18.24,10.56,32.16,33,32.16,19,0,29.76-10.08,32.32-24h33.92c-2.4,29.44-27.2,48.48-66.24,48.48C383.2,218.86,360.16,194.22,360.16,159.18Z" transform="translate(-88.81 -71.18)"/><path d="M625.92,159.18c0,33.28-23,56.8-66.88,56.8H501V102.38H559C602.88,102.38,625.92,125.9,625.92,159.18Zm-34.08-3c0-18.88-11-29.44-32.8-29.44H533.6v65H559c21.76,0,32.8-10.56,32.8-29.44Z" transform="translate(-88.81 -71.18)"/><path d="M666.88,126.7v20.16h67.68v24.32H666.88v20.48h71.84V216H634.24V102.38H738.72V126.7Z" transform="translate(-88.81 -71.18)"/><path d="M779.84,126.7v20.16h67.68v24.32H779.84V216H747.2V102.38H851.68V126.7Z" transform="translate(-88.81 -71.18)"/><path d="M988.48,150.54v19.52A35.15,35.15,0,0,1,987,180c-6.88,23.2-29.12,38.88-63.84,38.88-43.84,0-67-24.64-67-59.68s23.2-59.68,67-59.68c35.52,0,60.16,15.52,64.64,41H953.28C948.8,130.38,938.72,124,923.2,124c-22.56,0-33,13.92-33,32.16v6.08c0,18.24,10.4,32.16,33.76,32.16,18.72,0,28.48-8,32-19.52H917.76V150.54Z" transform="translate(-88.81 -71.18)"/><path d="M1120.64,102.38V216H1088v-44.8h-58.56V216H996.8V102.38h32.64v44.48H1088V102.38Z" transform="translate(-88.81 -71.18)"/><path d="M1131,102.38h32.64V216H1131Z" transform="translate(-88.81 -71.18)"/><path d="M1171.67,178.86h32.48c.8,8.64,6.72,15.52,19,15.52,12.48,0,18.41-7.84,18.41-17.76v-74.4h32.64v70.56c0,26.72-17.12,46.08-51.53,46.08C1188.15,218.86,1173,201.42,1171.67,178.86Z" transform="translate(-88.81 -71.18)"/><path d="M1341.43,167.34l-25,23.2V216h-32.64V102.38h32.64v53.44l55.84-53.44h39.2l-47,43.68L1412.31,216h-37.6Z" transform="translate(-88.81 -71.18)"/><path d="M1417.11,102.38h32.64v89.28h64.16V216h-96.8Z" transform="translate(-88.81 -71.18)"/><path d="M1677.27,102.38V216h-32V132l-29.92,84h-29.76l-31.36-85.6V216h-32V102.38h50.4l28.16,78.08,27.36-78.08Z" transform="translate(-88.81 -71.18)"/><path d="M1813.59,102.38V216h-39l-55.68-79.2V216h-32V102.38h39.84l54.88,78.08V102.38Z" transform="translate(-88.81 -71.18)"/><path d="M1821.91,159.18c0-35,23.36-59.68,67.2-59.68s67.2,24.64,67.2,59.68-23.36,59.68-67.2,59.68S1821.91,194.22,1821.91,159.18Zm100.16,3v-6.08c0-18.24-10.56-32.32-33-32.32s-33,14.08-33,32.32v6.08c0,18.24,10.56,32.32,33,32.32S1922.07,180.46,1922.07,162.22Z" transform="translate(-88.81 -71.18)"/><path d="M2085.59,140.3c0,21.28-15.36,37.92-41,37.92h-47.36V216h-32.65V102.38h80C2070.23,102.38,2085.59,119,2085.59,140.3Zm-32.8-1c0-8.32-6.24-12.64-16.32-12.64h-39.2v27.2h39.2c9.92,0,16.32-4.32,16.32-12.64Z" transform="translate(-88.81 -71.18)"/><path d="M2201.75,208.14l12,16h-34.4l-4.8-6.4a89.78,89.78,0,0,1-15,1.12c-43.84,0-67.2-24.64-67.2-59.68s23.36-59.68,67.2-59.68,67.2,24.64,67.2,59.68C2226.71,180.3,2218.23,197.74,2201.75,208.14Zm-44.48-13.6-12.48-16.8h34.4l5.44,7.2c5.28-5.76,7.84-13.76,7.84-22.72v-6.08c0-18.24-10.56-32.32-33-32.32s-33,14.08-33,32.32v6.08C2126.55,179.82,2136.47,193.58,2157.27,194.54Z" transform="translate(-88.81 -71.18)"/><path d="M2296.62,178.22h-29V216H2235V102.38h78.41c25.6,0,41,16.64,41,37.92,0,16.48-9.12,29.12-25.12,34.08l30.08,41.6h-37Zm-29-24.32h37.61c9.92,0,16.32-4.32,16.32-12.64v-1.92c0-8.32-6.24-12.64-16.32-12.64h-37.61Z" transform="translate(-88.81 -71.18)"/><path d="M2360.3,177.26h33.92c.48,10.4,9.92,18.4,30.08,18.4,15.37,0,25.45-3,25.45-11.36v-1.6c0-5-5.28-7.68-15-9.28l-30.89-5.12c-29-4.8-41-12.32-41-32.16,0-21.28,16-36.48,56.16-36.48,42.73,0,59.85,18.08,60,37.92H2445c-.8-7.68-9.28-15-27.69-15-13.44,0-21.6,3.68-21.6,9.92v1.6c0,5,5.76,6.88,15.68,8.48l28.81,4.8c28.48,4.8,42.4,13.28,42.4,33.6,0,25.92-21.44,37.6-59.52,37.6C2378.06,218.54,2360.3,201.58,2360.3,177.26Z" transform="translate(-88.81 -71.18)"/><path d="M2525.91,126.7H2484V102.38h116.65V126.7h-42.08V216h-32.64Z" transform="translate(-88.81 -71.18)"/><path d="M2608.94,174.22V102.38h32.64v69.44c0,11.52,5.12,22.24,23.21,22.24h5.59c17.77,0,22.89-10.72,22.89-22.24V102.38h32.64v71.84c0,29.6-23.2,44.64-58.41,44.64C2631.82,218.86,2608.94,203.82,2608.94,174.22Z" transform="translate(-88.81 -71.18)"/><path d="M2866.86,102.38,2821.74,216H2775.5l-45.28-113.6h33.6l35.2,90.08,35.36-90.08Z" transform="translate(-88.81 -71.18)"/><path d="M3055,102.38,3022.54,216H2983l-22.4-75.36L2938.22,216h-38.56l-32.32-113.6h33.12l21,77.12,23.36-77.12h33l23.52,77.92,21.28-77.92Z" transform="translate(-88.81 -71.18)"/><path d="M3148.62,216l-28-39.36-28,39.36h-36l42.88-59.2-41.12-54.4h36.8l25.44,35,25.44-35h36.8l-41.12,54.4,42.88,59.2Z" transform="translate(-88.81 -71.18)"/><path d="M3267.82,174.06V216h-32.64V173.74l-50.24-71.36h36l31,44.16,31-44.16h35Z" transform="translate(-88.81 -71.18)"/><path d="M3436.46,126.7l-73,65h73V216H3321.74V190.22l71.84-63.52H3322.7V102.38h113.76Z" transform="translate(-88.81 -71.18)"/><path d="M3538.38,196.62h-58.24L3472.46,216H3440l42.88-107.84A25.22,25.22,0,0,1,3480,96.46c0-15.2,12.64-25.28,29.92-25.28,17.12,0,29.92,10.08,29.92,25.28a22.78,22.78,0,0,1-3.2,12l43,107.52H3545.9Zm-9.44-24.32-19.68-50.08-19.68,50.08Zm-32.8-74.88c0,7.52,6.88,11,13.76,11s13.76-3.52,13.76-11V95.5c0-7.52-6.88-11-13.76-11s-13.76,3.52-13.76,11Z" transform="translate(-88.81 -71.18)"/><path d="M3677.1,196.62h-58.24L3611.18,216h-32.49L3624,102.38h49L3718.38,216h-33.76ZM3642.86,94.38h-29.6V73.26h29.6Zm24.8,77.92L3648,122.22,3628.3,172.3ZM3684,94.38h-29.6V73.26H3684Z" transform="translate(-88.81 -71.18)"/><path d="M3709.09,159.18c0-35,23.37-59.68,67.21-59.68s67.2,24.64,67.2,59.68-23.36,59.68-67.2,59.68S3709.09,194.22,3709.09,159.18Zm31.84-85.92h29.61V94.38h-29.61Zm68.33,89v-6.08c0-18.24-10.56-32.32-33-32.32s-33,14.08-33,32.32v6.08c0,18.24,10.57,32.32,33,32.32S3809.26,180.46,3809.26,162.22Zm-27.2-89h29.6V94.38h-29.6Z" transform="translate(-88.81 -71.18)"/><path d="M154.41,292.38V406H122.73V326.3L92.49,344.38V315.1l33.44-22.72Z" transform="translate(-88.81 -71.18)"/><path d="M201.45,381.66h76.8V406h-112V389.82c0-6.4.48-9,2.08-12,5.28-9.92,18.56-19.52,39-27.68l18.4-7.36c13.6-5.44,19.36-8.32,19.36-15.36V326c0-7.36-8-12.8-20.48-12.8-15.68,0-22.08,7.84-23.2,15.84H167.37c1.28-22.08,20.32-39.52,57.28-39.52,35.2,0,54.08,16.32,54.08,37,0,22.24-13.92,29-41.44,39.84l-20,7.84A132,132,0,0,0,201.45,381.66Z" transform="translate(-88.81 -71.18)"/><path d="M397.13,372.86c0,19.68-17.92,36-54.88,36-41.77,0-58.09-18.4-58.25-37.12h35.36c2.56,8.32,9.12,13.44,23.37,13.44,12.8,0,20.8-4.64,20.8-11.68v-1.28c0-7-8.32-11.52-21.13-11.52H324.48V337.34h17.44c11.2,0,18.57-4.32,18.57-11.36V324.7c0-7.2-7.52-11.52-18.73-11.52-13,0-19.36,3.84-21.92,12.16H285.28c1.6-16.32,15.84-35.84,56.48-35.84,34.89,0,52.33,15,52.33,33.44,0,12.8-7.52,20-18.08,23.84C389.13,351.1,397.13,359.42,397.13,372.86Z" transform="translate(-88.81 -71.18)"/><path d="M529.45,360.06v24.32H511.21V406H479.52v-21.6H404V360.06l61.6-67.68h45.61v67.68Zm-49.93,0V316.7L440,360.06Z" transform="translate(-88.81 -71.18)"/><path d="M650.57,370.46c0,21.44-19.21,38.4-56.17,38.4-41.44,0-57.76-17.44-57.92-37h35.36c2.56,8.32,8.8,13.28,23,13.28,12.48,0,22.08-5.6,22.08-14.08v-1.28c0-8.32-9.12-14.08-23.68-14.08-11.2,0-17.6,2.88-21.28,5.92H537.6l5.92-69.28H644V316.7H572.48l-1.92,21c7.52-3.36,17-5.6,28.8-5.6C634.73,332.06,650.57,349,650.57,370.46Z" transform="translate(-88.81 -71.18)"/><path d="M774.72,369.82c0,23.52-20.16,39-55.52,39-40.32,0-61.92-21.12-61.92-57.12,0-38.72,21.44-62.24,61.6-62.24,33.12,0,51,16.48,54.56,34.56H739c-2.72-5.28-8.8-10.88-21.76-10.88-17.76,0-26.08,13.76-26.08,25.92v1.76c6.72-5.28,17.6-8.64,33.28-8.64C759.2,332.22,774.72,347.26,774.72,369.82Zm-33.6-.16c0-8.48-8.8-13.92-23.52-13.92s-23.52,5.44-23.52,13.92v1.6c0,8.16,9,13.92,23.52,13.92s23.52-5.76,23.52-13.92Z" transform="translate(-88.81 -71.18)"/><path d="M889.6,292.38V316.7l-59,89.28H792.48l59.84-89.28H779.68V292.38Z" transform="translate(-88.81 -71.18)"/><path d="M1011.68,371.74c0,21.44-20.48,37.12-58.4,37.12s-58.4-15.68-58.4-37.12c0-11.84,6.72-21,19-26.72-9.76-5-14.88-12.64-14.88-22.72,0-19.68,21-32.8,54.24-32.8s54.24,13.12,54.24,32.8c0,10.08-5.12,17.76-14.88,22.72C1005,350.78,1011.68,359.9,1011.68,371.74Zm-33.6-.8c0-7.84-7.68-13.6-24.8-13.6s-24.8,5.76-24.8,13.6v1.6c0,7.84,9.44,13.6,24.8,13.6s24.8-5.76,24.8-13.6Zm-45.44-46.56c0,6.56,8,11.36,20.64,11.36s20.64-4.8,20.64-11.36V323.1c0-6.56-6.56-11.36-20.64-11.36s-20.64,4.8-20.64,11.36Z" transform="translate(-88.81 -71.18)"/><path d="M1135.68,346.62c0,38.72-21.44,62.24-61.6,62.24-33.12,0-51-16.48-54.56-34.56h34.4c2.72,5.28,8.8,10.88,21.76,10.88,17.76,0,26.08-13.76,26.08-25.92V357.5c-6.72,5.28-17.6,8.64-33.28,8.64-34.72,0-50.24-15-50.24-37.6,0-23.52,20.16-39,55.52-39C1114.08,289.5,1135.68,310.62,1135.68,346.62Zm-36.8-19.52c0-8.16-9-13.92-23.52-13.92s-23.52,5.76-23.52,13.92v1.6c0,8.48,8.8,13.92,23.52,13.92s23.52-5.44,23.52-13.92Z" transform="translate(-88.81 -71.18)"/><path d="M1142.72,349.18c0-35,21-59.68,60-59.68s60,24.64,60,59.68-21,59.68-60,59.68S1142.72,384.22,1142.72,349.18Zm86.4,3v-6.08c0-18.72-7.52-33-26.4-33s-26.4,14.24-26.4,33v6.08c0,18.72,7.52,33,26.4,33S1229.12,370.94,1229.12,352.22Z" transform="translate(-88.81 -71.18)"/></svg>