<svg id="Scania" xmlns="http://www.w3.org/2000/svg" viewBox="0 0 122.24 118.88"><title>Scania-Quick-Preview</title><path d="M91.53,177.26h33.92c.48,10.4,9.92,18.4,30.08,18.4,15.36,0,25.44-3,25.44-11.36v-1.6c0-5-5.28-7.68-15-9.28l-30.88-5.12c-29-4.8-41-12.32-41-32.16,0-21.28,16-36.48,56.16-36.48,42.72,0,59.84,18.08,60,37.92H176.17c-.8-7.68-9.28-15-27.68-15-13.44,0-21.6,3.68-21.6,9.92v1.6c0,5,5.76,6.88,15.68,8.48l28.8,4.8c28.48,4.8,42.4,13.28,42.4,33.6,0,25.92-21.44,37.6-59.52,37.6C109.29,218.54,91.53,201.58,91.53,177.26Z" transform="translate(-91.53 -99.66)"/></svg>