<svg id="Lager_8" data-name="Lager 8" xmlns="http://www.w3.org/2000/svg" viewBox="0 0 208.2 290.29"><title>Support-Quick-Preview</title><path d="M644.08,176.38l-11.39,14.14c-30.25-25.92-56.57-35.35-87.6-35.35-43.21,0-74.64,24.35-74.64,55.78,0,35.75,29.86,43.6,83.67,55.78,69.53,16.1,94.28,37.32,94.28,79.35,0,51.07-42.42,82.1-95.85,82.1-42.82,0-73.85-13.36-112.35-44.78L452,369.26c45.17,36.14,73.06,42,100.17,42,43.21,0,76.6-24.36,76.6-65.21,0-40.46-32.61-51.07-84.06-62.85-66.78-14.54-93.5-29.46-93.5-69.92,0-48.71,47.14-75.43,93.1-75.43C583.19,137.88,613.83,150.45,644.08,176.38Z" transform="translate(-440.2 -137.88)"/></svg>