<?xml version="1.0" encoding="UTF-8"?> <svg xmlns="http://www.w3.org/2000/svg" id="Tele2_Slab_kopia_2" data-name="Tele2 Slab kopia 2" viewBox="0 0 3254.21 346.96"><title>SvD_02</title><path d="M191.85,215.82V216h-37.6v-.16c6.08-2.08,9.6-6.24,6.24-14.88l-5.76-14.56h-38.4l-5.76,14.72c-3.68,9.12.64,13.12,6.08,14.72V216H86.89v-.16c4.32-2.08,8.48-7,12.64-17.12l40.16-98.56h.48l39.52,97.6C184.17,208.94,188.49,214.22,191.85,215.82Zm-41.28-40-15-37.92-15,37.92Z" transform="translate(-86.89 -74.54)"></path><path d="M279.53,186.38c0,19-14.24,29.6-33.28,29.6H194.56v-.16c3.84-1.6,8.64-5.6,8.64-13.92V118.06c0-8.32-4.8-12.32-8.64-13.92V104h45.61c20.32,0,34.24,10.72,34.24,27.68,0,13.44-8.48,21.92-19.68,25.6C269,160.46,279.53,171.5,279.53,186.38ZM223,152.78h11.21c15.68,0,21.28-8.32,21.28-19,0-15-10.4-20.16-23.36-20.16a49.43,49.43,0,0,0-9.13,1Zm35.53,33.76c0-13.12-6.88-23.36-22.88-23.36H223v32.64c0,9.76,5,11.36,14.41,11.36C249.93,207.18,258.57,200.94,258.57,186.54Z" transform="translate(-86.89 -74.54)"></path><path d="M290.08,160.3c0-35.52,26.89-59.2,61-59.2,11,0,26.24,3.36,35,7v24.8h-.16c-7.84-13-21-21.28-35.68-21.28-24.8,0-38.4,20.48-38.4,47,0,27.84,15.68,49.44,39.52,49.44,13.92,0,26.88-7.36,35.84-20.32h.16v23.52a102,102,0,0,1-37.44,7.52C316.65,218.86,290.08,192.78,290.08,160.3Z" transform="translate(-86.89 -74.54)"></path><path d="M400.32,215.82c3.84-1.6,8.64-5.6,8.64-13.92V118.06c0-8.32-4.8-12.32-8.64-13.92V104H448.8c30.25,0,61.13,16.16,61.13,54.24,0,35.68-25.12,57.76-58.72,57.76H400.32Zm88-53.6c0-29.12-15.2-48.16-44.33-48.16a63.27,63.27,0,0,0-15.2,1.44v80.32c0,8,5.44,10.08,17,10.08C470.25,205.9,488.33,195.5,488.33,162.22Z" transform="translate(-86.89 -74.54)"></path><path d="M595.05,189.58l-2.4,26.4H520v-.16c3.84-1.6,8.64-5.6,8.64-13.92V118.06c0-8.32-4.8-12.32-8.64-13.92V104h70.09v24.64h-.16c-2.4-7.36-7.52-14.08-21.76-14.08H548.48V151h20c9.45,0,15-3.52,17.93-9h.16V169.9h-.16c-2.72-5.28-8.48-8.32-17.93-8.32h-20v32.16c0,10.56,7.2,12.64,17.77,12.64,11.2,0,22.56-3.68,28.64-16.8Z" transform="translate(-86.89 -74.54)"></path><path d="M676.48,104v24.64h-.16c-2.4-7.36-7.52-14.08-21.76-14.08H634.88V153.1h17.76c9.44,0,15-3.52,17.92-9h.16V172h-.16c-2.72-5.28-8.48-8.32-17.92-8.32H634.88V201.9c0,8.32,4.8,12.32,8.64,13.92V216H606.4v-.16c3.84-1.6,8.64-5.6,8.64-13.92V118.06c0-8.32-4.8-12.32-8.64-13.92V104Z" transform="translate(-86.89 -74.54)"></path><path d="M797.29,168.3v.16c-3.84,1.6-8.64,5.6-8.64,13.92v27.36c-12.65,4.8-26.09,9.12-40,9.12-32.8,0-59.84-26.08-59.84-58.56,0-35.52,28.16-59.2,61.76-59.2,11,0,26.25,3.36,36.81,7v24.8h-.16c-7.84-13-22.56-21.28-37.29-21.28-24.64,0-39.36,20.48-39.36,47,0,27.84,16,49.44,39.84,49.44,13.28,0,18.4-4,18.4-9.92V182.38c0-8.32-4.8-12.32-8.64-13.92v-.16Z" transform="translate(-86.89 -74.54)"></path><path d="M902.08,118.06V201.9c0,8.32,4.8,12.32,8.64,13.92V216H873.6v-.16c3.84-1.6,8.64-5.6,8.64-13.92v-40h-49v40c0,8.32,4.8,12.32,8.64,13.92V216H804.8v-.16c3.84-1.6,8.64-5.6,8.64-13.92V118.06c0-8.32-4.8-12.32-8.64-13.92V104h37.12v.16c-3.84,1.6-8.64,5.6-8.64,13.92v33.12h49V118.06c0-8.32-4.8-12.32-8.64-13.92V104h37.12v.16C906.88,105.74,902.08,109.74,902.08,118.06Z" transform="translate(-86.89 -74.54)"></path><path d="M958.08,215.82V216H921v-.16c3.84-1.6,8.64-5.6,8.64-13.92V118.06c0-8.32-4.8-12.32-8.64-13.92V104h37.12v.16c-3.84,1.6-8.64,5.6-8.64,13.92V201.9C949.44,210.22,954.24,214.22,958.08,215.82Z" transform="translate(-86.89 -74.54)"></path><path d="M1024.32,104v.16c-3.84,1.6-8.64,5.6-8.64,13.92v71c0,21-15.52,29-31.52,29-6.24,0-14.4-.48-19.36-2.24V195.18H965c4.48,5.92,10.72,13,19.84,13,6.4,0,11-3.2,11-14.56V118.06c0-8.32-4.8-12.32-8.64-13.92V104Z" transform="translate(-86.89 -74.54)"></path><path d="M1131.36,215.82V216H1093v-.16c3.68-1.92,6.4-5.76,1.28-13l-33.12-46.56v45.6c0,8.32,4.8,12.32,8.64,13.92V216h-37.12v-.16c3.84-1.6,8.64-5.6,8.64-13.92V118.06c0-8.32-4.8-12.32-8.64-13.92V104h37.12v.16c-3.84,1.6-8.64,5.6-8.64,13.92V153.9l33-36c5.92-6.56,6.4-10.88.48-13.76V104h33.6v.16c-5.44,2.72-11.84,7.52-19.52,15.52l-29.12,30.72,33.92,46.4C1120.8,206.86,1126.72,213.42,1131.36,215.82Z" transform="translate(-86.89 -74.54)"></path><path d="M1211.68,189.9l-3.2,26.08H1137.6v-.16c3.84-1.6,8.64-5.6,8.64-13.92V118.06c0-8.32-4.8-12.32-8.64-13.92V104h37.12v.16c-3.84,1.6-8.64,5.6-8.64,13.92v77.28c0,9.28,4.16,11.36,18.56,11.36,13.12,0,21.6-4.8,26.88-16.8Z" transform="translate(-86.89 -74.54)"></path><path d="M1353.92,215.82V216H1316.8v-.16c4.16-1.92,8.8-5.6,8.32-13.92l-4.64-70.4L1281.6,219h-.16l-37.76-89.12-5.28,72c-.64,8.32,4.48,12.32,8.32,13.92V216h-29.28v-.16c4.16-1.92,8.32-5.6,9-13.92l6.4-83.84c.64-8.32-4.8-12.32-8.64-13.92V104h28.32l33.28,79,35-79h27v.16c-3.68,1.6-9.28,5.6-8.64,13.92L1345,201.9C1345.6,210.22,1350.08,214.22,1353.92,215.82Z" transform="translate(-86.89 -74.54)"></path><path d="M1466.56,104v.16c-3.84,1.6-8.64,5.6-8.64,13.92V219.82h-.16L1383,129.58V201.9c0,8.32,4.8,12.32,8.64,13.92V216h-29.76v-.16c3.84-1.6,8.64-5.6,8.64-13.92V123.82c0-9.6-4.32-17-10.72-19.68V104h26.72l58.88,71v-57c0-8.32-4.8-12.32-8.64-13.92V104Z" transform="translate(-86.89 -74.54)"></path><path d="M1475.51,160c0-34.08,25.93-58.88,58.41-58.88s58.4,24.8,58.4,58.88-25.92,58.88-58.4,58.88S1475.51,194.06,1475.51,160Zm95,1.6c0-28.8-14.08-49.92-37.28-49.92-22.4,0-36,18.88-36,46.88,0,28.8,14.24,49.76,37.28,49.76C1556.8,208.3,1570.56,189.42,1570.56,161.58Z" transform="translate(-86.89 -74.54)"></path><path d="M1684.64,134.54c0,21.44-17.44,32.16-39.2,32.16a141.77,141.77,0,0,1-14.57-.64V201.9c0,8.32,4.8,12.32,8.65,13.92V216h-37.13v-.16c3.84-1.6,8.65-5.6,8.65-13.92V118.06c0-8.32-4.81-12.32-8.65-13.92V104h48C1671.68,104,1684.64,117.26,1684.64,134.54Zm-19.84.64c0-16.64-10.56-21.44-25-21.44a49.1,49.1,0,0,0-9,.8v41.28a61.93,61.93,0,0,0,10.57.8C1656,156.62,1664.8,150.86,1664.8,135.18Z" transform="translate(-86.89 -74.54)"></path><path d="M1818.24,222.38v.16a32.37,32.37,0,0,1-22.72,9.6c-7.68,0-16.16-2.88-22.72-6.88l-11.68-6.88a67.78,67.78,0,0,1-8.16.48c-32.48,0-58.41-24.8-58.41-58.88s25.93-58.88,58.41-58.88,58.4,24.8,58.4,58.88c0,22.56-11.36,41.12-28.64,51l4.48,2.72c7.68,4.64,17.12,9.44,24.48,9.44A25.32,25.32,0,0,0,1818.24,222.38ZM1753.6,208.3c22.24,0,36-18.88,36-46.72,0-28.8-14.08-49.92-37.28-49.92-22.4,0-36,18.88-36,46.88C1716.32,187.34,1730.56,208.3,1753.6,208.3Z" transform="translate(-86.89 -74.54)"></path><path d="M1920.48,215v.16a37.9,37.9,0,0,1-13.28,2.4c-10.88,0-17.28-3.36-25.92-14.72l-31.36-41.12V201.9c0,8.32,4.8,12.32,8.64,13.92V216h-37.13v-.16c3.84-1.6,8.65-5.6,8.65-13.92V118.06c0-8.32-4.81-12.32-8.65-13.92V104h47.37c22.08,0,35,12.64,35,29.44,0,17.6-13.76,28.64-30.56,30.08l24.16,30.4C1909.28,208.62,1915.84,213.74,1920.48,215ZM1861,156.62c12.32,0,23-5.76,23-21.44,0-16.64-10.08-21.44-23-21.44a56.93,56.93,0,0,0-11,1v40.64A37.73,37.73,0,0,0,1861,156.62Z" transform="translate(-86.89 -74.54)"></path><path d="M1923.19,212.14V184.78h.16c5.44,11,17.6,23.52,35.36,23.52,13.28,0,22.08-7.84,22.08-20.16,0-11-8-16.16-20.16-19.68l-6.72-1.92c-13.44-3.84-29.44-10.4-29.44-31.84,0-22.4,18.24-33.12,38.72-33.12,9,0,20.81,2.56,27.85,5.12l1.28,24.48h-.16c-6.41-10.72-17.29-19.36-30.57-19.36-10.72,0-20.32,6.08-20.32,18.24,0,10.4,9,14.56,18.08,17.28l7,2.08c19.53,5.76,32.17,13,32.17,32.32,0,25.44-18.56,36.8-41.29,36.8A97.19,97.19,0,0,1,1923.19,212.14Z" transform="translate(-86.89 -74.54)"></path><path d="M2096.48,130.22h-.16c-2.72-7.84-8.49-15.68-23.85-15.68h-11.68V201.9c0,8.32,4.8,12.32,8.64,13.92V216h-37.12v-.16c3.84-1.6,8.64-5.6,8.64-13.92V114.54h-11.68c-15.36,0-21.12,7.84-23.84,15.68h-.16l1.44-26.24H2095Z" transform="translate(-86.89 -74.54)"></path><path d="M2207.83,104v.16c-3.84,1.6-8.64,5.6-8.64,13.92v60.8c0,24.8-13,40-43.36,40-24,0-44-9-44-40.8v-60c0-8.32-4.8-12.32-8.64-13.92V104h37.12v.16c-3.84,1.6-8.64,5.6-8.64,13.92v60.16c0,15.68,7,29.12,27.52,29.12,20.8,0,27.52-11.2,27.52-29.12V118.06c0-8.32-4.8-12.32-8.64-13.92V104Z" transform="translate(-86.89 -74.54)"></path><path d="M2313.59,104v.16c-4.32,2.24-8.48,6.88-12.64,17.12l-40.32,98.56h-.16l-39.68-97.6c-4.48-11.2-8.8-16.48-12.16-18.08V104h37.28v.16c-5.92,2.24-9.12,6.24-5.76,14.88L2265,181.9l24.8-63c3.68-9.12-.48-13.12-5.92-14.72V104Z" transform="translate(-86.89 -74.54)"></path><path d="M2461.75,104v.16c-3.52,1.92-7.68,6.72-11.36,17.12l-35,98.56h-.16l-29.6-77.44-30.08,77.44h-.16l-34.24-97.6c-4-11.2-8-16.48-11-18.08V104H2345v.16c-5.44,2.24-8.16,6.24-5.28,14.88l20,59.84,29.92-77.92h.16l29.12,77.44,20.32-59.52c3.2-9.28-.32-13.12-5.12-14.72V104Z" transform="translate(-86.89 -74.54)"></path><path d="M2567.51,215.82V216h-39.84v-.16c4.48-1.76,8-5.76,2.88-13.92l-20.16-31.68-21.28,31c-5,7.2-.8,13,3.36,14.56V216h-31.84v-.16c3.52-1.92,9.44-7.2,17.12-18.24l26.08-37.28-24.32-38.4c-7.2-11.2-12.8-16-16.8-17.76V104h39.84v.16c-3.68,1.44-8.48,5-2.88,13.92l17.12,27.2L2535,118.7c5.12-7.36.8-13-3.36-14.56V104h31.84v.16c-3.36,1.92-8.48,5.76-16.8,17.76l-23.2,33.28,26.88,42.4C2557.75,209.26,2563.67,214.06,2567.51,215.82Z" transform="translate(-86.89 -74.54)"></path><path d="M2669.75,104v.16c-5.12,1.92-9,5.6-14.4,15.2l-27,47.68V203.5c0,5.92,4.8,10.88,8.64,12.32V216h-37.12v-.16c3.84-1.44,8.64-6.4,8.64-12.32V169.26l-28-49.92c-3.84-7-8-13-13.44-15.2V104h37.28v.16c-5.92,1.6-8.32,6.24-3.68,14.56l21,37.76h.16l21.92-38.88c4-7.2,3-11.68-1.92-13.44V104Z" transform="translate(-86.89 -74.54)"></path><path d="M2761,189.74h.16L2758.23,216H2673l62.56-101.44h-32.64c-15.84,0-20.64,5.44-24.8,15.36h-.16l2.56-25.92h83.36l-62.56,101.44h27.2C2748.79,205.42,2754.23,202.22,2761,189.74Z" transform="translate(-86.89 -74.54)"></path><path d="M2869.59,215.82V216H2832v-.16c6.08-2.08,9.6-6.24,6.24-14.88l-5.76-14.56h-38.4l-5.77,14.72c-3.68,9.12.65,13.12,6.08,14.72V216h-29.76v-.16c4.32-2.08,8.48-7,12.64-17.12l37.61-92.16c-7.84-1.28-14.25-7.68-14.25-15.84,0-9.12,8.17-16.16,17.13-16.16s17.12,7,17.12,16.16c0,8.16-6.56,14.72-14.4,16l37,91C2861.91,208.94,2866.23,214.22,2869.59,215.82Zm-41.28-40-15-37.92-15,37.92Zm-10.56-76.16a9,9,0,1,0-8.64-9A8.68,8.68,0,0,0,2817.75,99.66Z" transform="translate(-86.89 -74.54)"></path><path d="M2972.94,215.82V216h-37.6v-.16c6.08-2.08,9.6-6.24,6.24-14.88l-5.76-14.56h-38.4l-5.76,14.72c-3.68,9.12.64,13.12,6.08,14.72V216H2868v-.16c4.32-2.08,8.48-7,12.64-17.12l40.16-98.56h.48l39.52,97.6C2965.26,208.94,2969.58,214.22,2972.94,215.82ZM2892,87.34a10.56,10.56,0,1,1,10.56,10.24A10.59,10.59,0,0,1,2892,87.34Zm39.68,88.48-15-37.92-15,37.92Zm-2.56-88.48a10.56,10.56,0,1,1,10.56,10.24A10.59,10.59,0,0,1,2929.1,87.34Z" transform="translate(-86.89 -74.54)"></path><path d="M2969.58,160c0-34.08,25.92-58.88,58.4-58.88s58.4,24.8,58.4,58.88-25.92,58.88-58.4,58.88S2969.58,194.06,2969.58,160Zm18.08-72.8a10.57,10.57,0,1,1,10.56,10.24A10.59,10.59,0,0,1,2987.66,87.18Zm77,74.4c0-28.8-14.08-49.92-37.28-49.92-22.4,0-36,18.88-36,46.88,0,28.8,14.24,49.76,37.28,49.76C3050.86,208.3,3064.62,189.42,3064.62,161.58Zm-17.44-74.4a10.57,10.57,0,1,1,10.56,10.24A10.59,10.59,0,0,1,3047.18,87.18Z" transform="translate(-86.89 -74.54)"></path><path d="M170.09,389.82V390H144.65V379.26c-4.16,7.36-12.64,13-24,13-13.76,0-26.56-9-26.56-25.28,0-17.92,15.84-28.16,35-28.16a105.48,105.48,0,0,1,15.2,1.12v-7.36c0-11.52-4.8-17.92-17.44-17.92-12,0-21.28,7.36-25.6,13.28H101l1.76-18.72A89,89,0,0,1,129,304.54c23.2,0,33.28,10.08,33.28,25.12V375.9C162.25,384.22,166.57,388.22,170.09,389.82Zm-25.76-15.68V357.5c0-5.6-4.8-9.76-15.2-9.76-12,0-17.6,7.36-17.6,16.16,0,10.56,7.2,16.64,17.44,16.64A20.26,20.26,0,0,0,144.33,374.14Z" transform="translate(-86.89 -74.54)"></path><path d="M261.13,345.5c0,30.56-19.68,46.88-44,46.88-12.8,0-27.2-4.16-34.24-7.36V288.86c0-8.32-4-12.32-7.85-13.92v-.16l26.09-6.4v49.76a33.12,33.12,0,0,1,26.24-13C243.69,305.18,261.13,318.94,261.13,345.5Zm-19.2,4c0-20.48-10.4-31.84-25-31.84a23.12,23.12,0,0,0-15.84,5.92v46.56c0,6.24,5.28,13,17.76,13C232,383.1,241.93,373.66,241.93,349.5Z" transform="translate(-86.89 -74.54)"></path><path d="M271.36,351.1c0-26.08,18.57-46.72,44.49-46.72A70.35,70.35,0,0,1,339.21,309l.64,20.64h-.16c-6.08-9.12-14.08-15.68-25.6-15.68-13.6,0-24.48,11.52-24.48,31.84,0,23.2,12,33.44,28,33.44,12.16,0,20-5.12,26.56-14.08l.48.32c-4.48,16.64-16.16,27.36-33.6,27.36C288.81,392.86,271.36,377.34,271.36,351.1Z" transform="translate(-86.89 -74.54)"></path><path d="M436.49,389.82V390H410.72v-11A32.88,32.88,0,0,1,384,392.38c-16.32,0-33.6-13.76-33.6-40.32,0-30.56,19.68-46.88,44-46.88a76.59,76.59,0,0,1,16,1.76V288.86c0-8.32-4-12.32-7.84-13.92v-.16l26.09-6.4V375.9C428.65,384.22,433,388.22,436.49,389.82Zm-26.09-16v-46.4c0-6.24-5.44-13-17.76-13-13.12,0-23,9.44-23,33.6,0,20.48,10.4,31.84,25,31.84A22.52,22.52,0,0,0,410.4,373.82Z" transform="translate(-86.89 -74.54)"></path><path d="M520.16,347.74h-57.6c.64,23.68,13.76,31.52,28.32,31.52,12.64,0,20.64-5.28,27.84-14.56l.48.32c-4.32,15.52-16.16,27.84-34.88,27.84-23.36,0-39.84-16.64-39.84-42.56,0-25.76,16.48-45.6,39.68-45.6C507.52,304.7,521.92,324.38,520.16,347.74Zm-57.12-9h38.4c-.8-15.84-7.2-25-18.24-25C473.12,313.82,465,322.78,463,338.78Z" transform="translate(-86.89 -74.54)"></path><path d="M584.16,284.06H584a18.88,18.88,0,0,0-15.2-8.16c-6.88,0-11.68,4.48-11.68,17.6v13.76h20.64l-3,9.92h-17.6V375.9c0,8.32,4.32,12.32,7.84,13.92V390H531v-.16c3.84-1.6,7.84-5.6,7.84-13.92V317.18H523.2v-.48l15.68-9.12V296.22c0-22.4,13.44-29.76,29.12-29.76a68.47,68.47,0,0,1,15.68,2.4Z" transform="translate(-86.89 -74.54)"></path><path d="M654.56,305.18v82.56c0,24.8-19.68,33.76-39.2,33.76a94.11,94.11,0,0,1-27.52-4.32V397.82H588a36.05,36.05,0,0,0,28.16,14.08c13,0,20.16-7.36,20.16-23.2V377.18c-5,7.2-12.8,11.84-23,11.84-17.6,0-34.56-14.4-34.56-39.84,0-29,19.84-44,41.76-44a89.23,89.23,0,0,1,21.6,3.2Zm-18.24,21.44c0-5.6-5.12-12.16-16.32-12.16-12,0-22.4,8.32-22.4,31.68,0,19.2,9.76,30.56,24.16,30.56a24,24,0,0,0,14.56-4.64Z" transform="translate(-86.89 -74.54)"></path><path d="M754.24,389.82V390H720.32v-.16c3.84-1.6,7.84-5.6,7.84-13.92V336.06c0-10.88-4.16-18.24-17-18.24a24.41,24.41,0,0,0-16.64,6.4V375.9c0,8.32,4.32,12.32,7.84,13.92V390H668.48v-.16c3.84-1.6,7.84-5.6,7.84-13.92v-87c0-8.32-4-12.32-7.84-13.92v-.16l26.08-6.4V319.1a32.89,32.89,0,0,1,26.56-13.92c16.64,0,25.28,12,25.28,26.24V375.9C746.4,384.22,750.72,388.22,754.24,389.82Z" transform="translate(-86.89 -74.54)"></path><path d="M762.08,389.82c3.84-1.6,7.84-5.6,7.84-13.92V325.66c0-8.32-4-12.32-7.84-13.92v-.16l26.08-6.4V375.9c0,8.32,4.32,12.32,7.84,13.92V390H762.08ZM768,283.9a10.88,10.88,0,1,1,10.88,10.56A10.94,10.94,0,0,1,768,283.9Z" transform="translate(-86.89 -74.54)"></path><path d="M805.12,311.58l26.08-6.4v90.56c0,19.36-13.44,25.76-27.84,25.76a58.69,58.69,0,0,1-14.08-2.08V405.34h.16c3,3.84,8,7.52,13.92,7.52,6.72,0,9.6-4.16,9.6-15V325.66c0-8.32-4-12.32-7.84-13.92Zm5.28-27.68a10.88,10.88,0,1,1,10.88,10.56A10.94,10.94,0,0,1,810.4,283.9Z" transform="translate(-86.89 -74.54)"></path><path d="M933,389.82V390H895.52v-.16c5.12-1.92,5.92-5.92,2.24-10.72l-25-33.28V375.9c0,8.32,4.32,12.32,7.84,13.92V390H846.72v-.16c3.84-1.6,7.84-5.6,7.84-13.92v-87c0-8.32-4-12.32-7.84-13.92v-.16l26.08-6.4v75.68l22.72-23c6.24-6.24,5.92-10.72,0-13.6v-.16h33.12v.16c-4.48,2.08-13.44,8.48-23.52,18.4l-15.36,15,26.4,33.6C921.76,381.5,928.32,387.9,933,389.82Z" transform="translate(-86.89 -74.54)"></path><path d="M933.44,389.82c3.83-1.6,7.83-5.6,7.83-13.92v-87c0-8.32-4-12.32-7.83-13.92v-.16l26.08-6.4V375.9c0,8.32,4.32,12.32,7.84,13.92V390H933.44Z" transform="translate(-86.89 -74.54)"></path><path d="M1106.08,389.82V390h-33.93v-.16c3.84-1.6,7.85-5.6,7.85-13.92V335.74c0-10.88-3.21-17.92-15-17.92a21.73,21.73,0,0,0-15.68,6.72,25.3,25.3,0,0,1,.64,6.08V375.9c0,8.32,4.32,12.32,7.84,13.92V390h-33.92v-.16c3.84-1.6,7.84-5.6,7.84-13.92V335.74c0-10.88-3.2-17.92-15-17.92a21.71,21.71,0,0,0-15,6.08v52c0,8.32,4.32,12.32,6.24,13.92V390H975.51v-.16c3.84-1.6,7.84-5.6,7.84-13.92V325.66c0-8.32-4-12.32-7.84-13.92v-.16l25.76-6.4v13.6c5.28-7.68,14.24-13.6,24.8-13.6,11,0,18.4,5.92,21.76,14.24,5.6-7.84,15-14.24,26.4-14.24,15.69,0,24,11.68,24,25.44V375.9C1098.24,384.22,1102.56,388.22,1106.08,389.82Z" transform="translate(-86.89 -74.54)"></path><path d="M1199.67,389.82V390h-33.92v-.16c3.84-1.6,7.84-5.6,7.84-13.92V336.06c0-10.88-4-18.24-17-18.24a24.1,24.1,0,0,0-16.64,6.4V375.9c0,8.32,4.32,12.32,7.84,13.92V390h-33.92v-.16c3.84-1.6,7.84-5.6,7.84-13.92V325.66c0-8.32-4-12.32-7.84-13.92v-.16l25.76-6.4v14.08a33.75,33.75,0,0,1,27-14.08c16.64,0,25.12,12,25.12,26.24V375.9C1191.83,384.22,1196.15,388.22,1199.67,389.82Z" transform="translate(-86.89 -74.54)"></path><path d="M1207.19,348.54c0-25.6,19.52-44.16,43.68-44.16,24.32,0,43.84,18.56,43.84,44.16s-19.52,44.32-43.84,44.32C1226.71,392.86,1207.19,374.14,1207.19,348.54Zm67.36,1.28c0-20.48-9-35.52-24.16-35.52-14.56,0-23,13.44-23,33.12,0,20.64,9,35.52,24,35.52C1265.91,382.94,1274.55,369.66,1274.55,349.82Z" transform="translate(-86.89 -74.54)"></path><path d="M1389,345.5c0,30.56-19.68,46.88-44,46.88a79,79,0,0,1-16-1.76V406.3c0,8.32,4.32,12.32,7.84,13.92v.16h-33.92v-.16c3.84-1.6,7.84-5.6,7.84-13.92V325.66c0-8.32-4-12.32-7.84-13.92v-.16l25.76-6.4v14.24a32.71,32.71,0,0,1,26.72-14.24C1371.67,305.18,1389,318.94,1389,345.5Zm-19.2,4c0-20.48-10.4-31.84-25-31.84A22,22,0,0,0,1329,323.9v46.24c0,6.24,5.6,13,17.76,13C1359.83,383.1,1369.75,373.66,1369.75,349.5Z" transform="translate(-86.89 -74.54)"></path><path d="M1485.59,420.22v.16h-33.92v-.16c3.84-1.6,7.84-5.6,7.84-13.92V378.78a33.08,33.08,0,0,1-26.4,13.6c-16.32,0-33.6-13.76-33.6-40.32,0-30.56,19.68-46.88,44-46.88a89.23,89.23,0,0,1,21.6,3.2l12.64-3.2V406.3C1477.75,414.62,1482.07,418.62,1485.59,420.22ZM1459.51,374V327.42c0-6.24-5.6-13-17.76-13-13.12,0-23,9.44-23,33.6,0,20.48,10.4,31.84,25,31.84A23.12,23.12,0,0,0,1459.51,374Z" transform="translate(-86.89 -74.54)"></path><path d="M1546.71,306.94v17.12a31.44,31.44,0,0,0-11.84-2.08c-9.12,0-14.24,2.72-17.28,5.92v48c0,8.32,4.32,12.32,7.84,13.92V390h-33.92v-.16c3.84-1.6,7.84-5.6,7.84-13.92V325.66c0-8.32-4-12.32-7.84-13.92v-.16l25.76-6.4v18.4c3.52-8.16,10.08-17.76,22.56-17.76A21.33,21.33,0,0,1,1546.71,306.94Z" transform="translate(-86.89 -74.54)"></path><path d="M1555,387.58V365.34h.16c6.88,10.88,14.56,17.76,27.52,17.76,10.24,0,15.68-5.12,15.68-13,0-8.8-5.76-11.36-14.88-14.08l-6.08-1.76c-12.32-3.52-22.56-9.92-22.56-24.32,0-16,13.92-25.6,30.4-25.6,8.32,0,17.92,2.56,23.68,4.64l1.12,20.16h-.16c-7.36-10.72-15.36-15-24.64-15-7.84,0-14.4,3.52-14.4,11.52,0,7.2,5.92,10.4,14.4,13l5.44,1.6c16.16,4.8,23.68,11.52,23.68,25.6,0,18.4-15.84,27-31.68,27A83.5,83.5,0,0,1,1555,387.58Z" transform="translate(-86.89 -74.54)"></path><path d="M1673.27,378.62v.32c-4.48,7-14.24,13.12-23.84,13.12-10.72,0-16.64-5.6-16.64-19.84v-55h-14.56v-.48c8.32-5.44,24.16-20.8,32.32-33.6h.48v24.16h21.28l-3,9.92H1651v49.44c0,10.24,3.68,13.6,12.8,13.6A29.17,29.17,0,0,0,1673.27,378.62Z" transform="translate(-86.89 -74.54)"></path><path d="M1762.39,389.82V390h-25.76V377.66c-5.44,8-15.2,14.4-26.4,14.4-15.68,0-23.84-12-23.84-26.24V324.38c0-8.32-4-12.32-7.84-13.92v-.16l26.08-5.12v56c0,10.72,4,17.92,15.68,17.92a23,23,0,0,0,16-6.4V324.38c0-8.32-4-12.32-7.84-13.92v-.16l26.08-5.12V375.9C1754.55,384.22,1758.87,388.22,1762.39,389.82Z" transform="translate(-86.89 -74.54)"></path><path d="M1844.47,307.26v.16c-3.2,1.92-7,6.56-10.72,15l-31,70.72h-.48l-29.92-70.56c-2.88-6.56-5.6-13-9.76-15.2v-.16h32.64v.16c-5.12,1.92-7.68,5.12-4.32,13.6l15.68,38.72,16.48-39c3.36-8,1-11.2-3.52-13.28v-.16Z" transform="translate(-86.89 -74.54)"></path><path d="M1961.59,307.26v.16c-3.36,2.08-6.24,6.72-9.44,15.2L1925.59,393h-.16l-23-55-23.68,55h-.33l-25.28-70.24c-3-8.32-5.6-13.44-9-15.36v-.16h30.24v.16c-5.44,2.08-6.08,6.24-3.51,13.6l12.63,36.16,22.25-53h.16l21.76,53.6,13.6-37.12c2.56-7,1.44-11-3.84-13.28v-.16Z" transform="translate(-86.89 -74.54)"></path><path d="M2044.79,390H2011l-.31-.16c3-1.28,6.55-4,.47-13l-12.8-18.72-13.6,18.4c-5.76,7.84-1.28,12,1.92,13.28V390h-27v-.16c2.56-1.28,6.88-5.44,13.6-14.56l18.88-25.44L1973.42,322c-6.24-9.12-10.72-13.28-13.76-14.56l-.32-.16h33.76l.32.16c-2.88,1.12-6.56,3.68-.64,12.8l11,17.12,12-16.8c5.59-8,1.92-12-1.29-13.12v-.16H2041v.16c-2.72,1.44-6.08,4.32-13.45,14.4l-17.44,23.84,20,29c6.55,9.6,11.52,13.92,14.4,15.2Z" transform="translate(-86.89 -74.54)"></path><path d="M2124.94,307.26v.16c-3.68,2.08-7,6.4-10.72,15l-26.88,63.68c-7.2,17-13.76,34.72-32.32,34.72a34.54,34.54,0,0,1-5.6-.48l-2.56-17.28a21.31,21.31,0,0,0,8.48,1.44c8.8,0,15.2-3.68,22.24-20.48l-26.08-61.44c-3.36-8.16-6.08-13.12-9.76-15.2v-.16h31.36v.16c-6.24,2.08-5.6,7.52-3,13.6l16.48,40.8,16.8-41.12c2.56-6.24,2.4-10.72-3.52-13.28v-.16Z" transform="translate(-86.89 -74.54)"></path><path d="M2192.46,364.86h.16L2189.9,390h-65.76l45.12-72.8h-16.32c-15.2,0-20.16,5.12-23.84,14.72h-.16l2.56-24.64h63.68l-45.12,72.8h12.64C2180.78,380.06,2186.22,377,2192.46,364.86Z" transform="translate(-86.89 -74.54)"></path><path d="M2276.94,389.82V390H2251.5V379.26c-4.16,7.36-12.64,13-24,13-13.76,0-26.56-9-26.56-25.28,0-17.92,15.84-28.16,35-28.16a105.48,105.48,0,0,1,15.2,1.12v-7.36c0-11.52-4.8-17.92-17.44-17.92-12,0-21.28,7.36-25.6,13.28h-.32l1.76-18.72a89,89,0,0,1,26.24-4.64c23.2,0,33.28,10.08,33.28,25.12V375.9C2269.1,384.22,2273.42,388.22,2276.94,389.82Zm-25.76-15.68V357.5c0-5.6-4.8-9.76-15.2-9.76-12,0-17.6,7.36-17.6,16.16,0,10.56,7.2,16.64,17.44,16.64A20.26,20.26,0,0,0,2251.18,374.14ZM2220,280.7c0-9.12,8.16-16.16,17.12-16.16s17.12,7,17.12,16.16-8.16,16.16-17.12,16.16S2220,289.82,2220,280.7Zm8.48,0a8.65,8.65,0,1,0,8.64-9A8.68,8.68,0,0,0,2228.46,280.7Z" transform="translate(-86.89 -74.54)"></path><path d="M2361.58,389.82V390h-25.44V379.26c-4.16,7.36-12.64,13-24,13-13.76,0-26.56-9-26.56-25.28,0-17.92,15.84-28.16,35-28.16a105.48,105.48,0,0,1,15.2,1.12v-7.36c0-11.52-4.8-17.92-17.44-17.92-12,0-21.28,7.36-25.6,13.28h-.32l1.76-18.72a89,89,0,0,1,26.24-4.64c23.2,0,33.28,10.08,33.28,25.12V375.9C2353.74,384.22,2358.06,388.22,2361.58,389.82Zm-66.4-105.6a10.57,10.57,0,1,1,10.56,10.24A10.59,10.59,0,0,1,2295.18,284.22Zm40.64,89.92V357.5c0-5.6-4.8-9.76-15.2-9.76-12,0-17.6,7.36-17.6,16.16,0,10.56,7.2,16.64,17.44,16.64A20.26,20.26,0,0,0,2335.82,374.14Zm-8.64-89.92a10.57,10.57,0,1,1,10.56,10.24A10.59,10.59,0,0,1,2327.18,284.22Z" transform="translate(-86.89 -74.54)"></path><path d="M2368.94,348.54c0-25.6,19.52-44.16,43.68-44.16,24.32,0,43.84,18.56,43.84,44.16s-19.52,44.32-43.84,44.32C2388.46,392.86,2368.94,374.14,2368.94,348.54Zm17.28-64.32a10.56,10.56,0,1,1,10.56,10.24A10.59,10.59,0,0,1,2386.22,284.22Zm50.08,65.6c0-20.48-9-35.52-24.16-35.52-14.56,0-23,13.44-23,33.12,0,20.64,9,35.52,24,35.52C2427.66,382.94,2436.3,369.66,2436.3,349.82Zm-18.08-65.6a10.56,10.56,0,1,1,10.56,10.24A10.59,10.59,0,0,1,2418.22,284.22Z" transform="translate(-86.89 -74.54)"></path><path d="M2501.1,389.82c3.84-1.6,8.64-5.6,8.64-13.92V302.62c0-8-2.72-12-14.56-13.44v-.32L2528,275.1V375.9c0,8.32,4.8,12.32,8.64,13.92V390H2501.1Z" transform="translate(-86.89 -74.54)"></path><path d="M2625.1,361.66,2622.7,390h-73l.32-.48c.16-20.48,12.16-35.84,30.4-49.28,14.72-10.88,24-17.92,24-33.6,0-13-8-21.28-21.44-21.28-13,0-23.68,9.28-28,20.16h-.16V282.62c9-3.84,19.2-7.52,30.72-7.52,19.84,0,38.72,11,38.72,32.64,0,21.12-17.6,31-33.6,41.28-14.56,9.28-23.84,16.48-27,25.6h38.24c13.44,0,19-5.28,23-13Z" transform="translate(-86.89 -74.54)"></path><path d="M2712,357.34c0,23.68-18.56,35.52-42.56,35.52-10.56,0-25.44-2.72-33.12-5.12l1.92-24.16h.16c5.6,12.64,18.24,19.36,31,19.36,15,0,23.36-10.88,23.36-24.8,0-14.88-9.76-23-23.84-23-5.12,0-9,.8-12,2.4V323.26c2.08.64,7.36,1,10.88,1,11.68,0,21.6-7.52,21.6-20,0-13.44-10.24-18.88-20.64-18.88-11.68,0-23.84,6.88-28.16,19h-.16V282.3c7.84-3.68,19.68-7.2,30.56-7.2,18.24,0,36.16,7,36.16,27.2,0,12.64-9.28,22.08-20.64,25.76C2699.66,330.94,2712,340.86,2712,357.34Z" transform="translate(-86.89 -74.54)"></path><path d="M2792.14,361.18V375.9c0,8.32,4.8,12.32,8.64,13.92V390h-34.56v-.16c3.84-1.6,8.64-5.6,8.64-13.92V361.18h-55.52V361l36.16-63.68c5.28-9.28,5.92-16-.16-19.2V278h33.76l-53.92,72h39.68V320.86h17.28V350h16.48l-3.2,11.2Z" transform="translate(-86.89 -74.54)"></path><path d="M2890.86,354.14c0,25.92-19.85,38.4-43.05,38.4-13.44,0-21.76-2.24-30.72-5.76l1.76-24.16h.16c4.64,12.32,14.72,20.32,29,20.32s22.72-10.72,22.72-27.36c0-17.6-11.2-25.28-23.84-25.28a44.87,44.87,0,0,0-26.24,8.64l5.44-61h59v23h-.16c-2.72-5.92-7.51-7.68-17.28-7.68h-32.48l-2.56,29.6a47.51,47.51,0,0,1,18.56-3.36C2872.77,319.58,2890.86,330.14,2890.86,354.14Z" transform="translate(-86.89 -74.54)"></path><path d="M2984.78,354c0,23-18.08,38.88-38.89,38.88-32.32,0-42.72-26.08-42.72-57,0-33.76,17.6-60.8,46.57-60.8,9.59,0,19,2.24,27.2,4.64v22.08h-.16c-6.72-10.4-15.53-16.8-28-16.8-17,0-25.29,19.36-25.45,44.32,5-8.16,15.21-12.48,25.6-12.48C2971.34,316.86,2984.78,330.78,2984.78,354Zm-19.36,1c0-19.68-7.21-28.16-19.68-28.16s-21.45,8.48-21.45,28.16c0,19.36,9,28,21.13,28S2965.42,374.3,2965.42,354.94Z" transform="translate(-86.89 -74.54)"></path><path d="M3034.21,389.66V390h-34.56l51.21-96.64h-32c-13.28,0-22.4,1.76-27.36,13.44h-.16l2.72-28.8h70.73l-36,95.36C3025.25,382.78,3029.58,388.06,3034.21,389.66Z" transform="translate(-86.89 -74.54)"></path><path d="M3149.1,359.42c0,22.88-19.68,33.28-40.64,33.28s-40.65-10.4-40.65-33.28c0-15,10.08-26.24,23.68-29.6-11.84-4.8-18.56-13.92-18.56-26.08,0-18.4,15.52-28.64,35.36-28.64S3144,285.34,3144,303.74c0,12.16-6.72,21.28-18.56,26.08C3139,333.18,3149.1,344.38,3149.1,359.42Zm-19.85,0c0-13.6-7.51-24.32-20.79-24.32s-20.81,10.72-20.81,24.32c0,13.44,7.52,23,20.81,23S3129.25,372.86,3129.25,359.42ZM3091.17,305c0,11.36,5.44,20.8,17.29,20.8s17.28-9.44,17.28-20.8c0-11.2-5.45-20.8-17.28-20.8S3091.17,293.82,3091.17,305Z" transform="translate(-86.89 -74.54)"></path><path d="M3238.37,331.74c0,33.76-17.6,61.12-46.56,61.12-9.6,0-19-2.24-27.2-4.64V366.14h.16c6.72,10.4,15.52,16.8,28,16.8,17,0,25.28-19.68,25.44-44.64-5,8-14.72,12.16-25.12,12.16-22.24,0-36-13.76-36-36.8,0-22.88,18.08-38.56,38.88-38.56C3228,275.1,3238.37,301,3238.37,331.74Zm-21.12-19c0-19.2-8.64-27.68-20.8-27.68-12,0-19.68,8.48-19.68,27.68,0,19.52,7.36,27.84,19.52,27.84C3208.77,340.54,3217.25,332.22,3217.25,312.7Z" transform="translate(-86.89 -74.54)"></path><path d="M3252.45,334c0-35,16.32-58.88,44.32-58.88s44.32,23.84,44.32,58.88-16.32,58.88-44.32,58.88S3252.45,369,3252.45,334Zm68.48,0c0-25.6-5.44-49-24.16-49s-24.16,23.36-24.16,49,5.44,49,24.16,49S3320.93,359.58,3320.93,334Z" transform="translate(-86.89 -74.54)"></path></svg> 