<?xml version="1.0" encoding="UTF-8"?> <svg xmlns="http://www.w3.org/2000/svg" id="Tele2_Slab_kopia_2" data-name="Tele2 Slab kopia 2" viewBox="0 0 468.42 212.92"><title>SvD_QP</title><path d="M102.61,283.29V237.81h.29c9.56,20.27,30.13,41.13,62.57,41.13,26.08,0,43.17-15.93,43.17-39.69,0-22.88-16.8-32.15-37.95-38.52l-14.2-4.35c-23.17-6.66-51.56-18.25-51.56-55.62,0-38.24,31.86-58.23,68.37-58.23,15.64,0,35.92,4.35,48.66,8.69l2.32,40.85H224C212.4,111.5,193.86,97.6,170.4,97.6c-21.73,0-40,12.45-40,36.79,0,20.86,17.09,28.68,34.76,34.18L180,173.21c31,9.27,55.33,21.72,55.33,57.06,0,42.88-32.16,64-72.42,64A180.24,180.24,0,0,1,102.61,283.29Z" transform="translate(-102.61 -82.53)"></path><path d="M377.53,141.05v.29c-5.8,4.06-12.17,11.88-18.83,27.23l-55,126.88h-.87l-53-126.59c-5.79-13-10.43-23.46-17.09-27.52v-.29h50.7v.29c-8.69,3.48-12.75,9.27-6.67,24.62l32.45,79.67,33.6-80.25c5.51-13,3.19-20.27-5.21-24v-.29Z" transform="translate(-102.61 -82.53)"></path><path d="M381.29,289.37c6.66-2.9,13.91-9.56,13.91-24V111.21c0-14.48-7-21.14-13.91-24v-.29h82.27C516.29,86.88,571,117,571,185.08c0,64.6-44,104.58-104,104.58H381.29Zm157.59-98.2c0-54.46-29.26-89.52-84-89.52-13.32,0-22.88.87-30.71,2.61V257.79c0,13.62,9.85,17.1,34.19,17.1C503.83,274.89,538.88,255.19,538.88,191.17Z" transform="translate(-102.61 -82.53)"></path></svg> 