<svg id="Everlane_kopia_2" data-name="Everlane kopia 2" xmlns="http://www.w3.org/2000/svg" viewBox="0 0 2986.38 369.68"><title>Sweco-01</title><path d="M164.65,216h-4a3.88,3.88,0,0,1-4.16-3.36l-8.16-31.2H112.65l-8.16,31.2a3.88,3.88,0,0,1-4.16,3.36H97c-3,0-4-1.6-3.36-4.32l28.32-107.52a3.88,3.88,0,0,1,4.16-3.36h9a3.88,3.88,0,0,1,4.16,3.36L168,211.66C168.65,214.38,167.69,216,164.65,216Zm-19.2-45.6-14.88-57.92-15,57.92Z" transform="translate(-93.42 -69.9)"/><path d="M251.85,180.62v6.24c0,17.28-11.68,29.12-29.92,29.12H189.61q-3.84,0-3.84-3.84V104.62q0-3.84,3.84-3.84h30.08c18.72,0,29.44,11.36,29.44,28.64v4.16c0,10.72-4.32,18.24-12.48,22.24C246.25,159.82,251.85,168.46,251.85,180.62Zm-54.56-68.8V151.5h21.92c12.32,0,18.4-6.88,18.4-18.88v-2.24c0-12-6.08-18.56-18.4-18.56Zm43,69.76c0-12-7-19.36-18.88-19.36H197.29v42.72h24.16c11.84,0,18.88-7,18.88-19Z" transform="translate(-93.42 -69.9)"/><path d="M271,185.26V131.5c0-19.52,13.61-32.32,32.81-32.32,19.68,0,32.8,13.12,32.8,33.28q0,3.84-3.84,3.84h-3.52c-2.88,0-3.84-1.28-4-3.84-1-13.76-8.16-22.24-21.44-22.24-12.8,0-21.28,8.32-21.28,22.24V184.3c0,13.92,8.32,22.24,21.28,22.24,14.08,0,21.44-8.48,21.44-25.44q0-3.84,3.84-3.84h3.68q3.84,0,3.84,3.84v4.16c0,19.52-13.76,32.32-32.8,32.32C284.49,217.58,271,204.78,271,185.26Z" transform="translate(-93.42 -69.9)"/><path d="M424.8,133.26V183.5C424.8,203,410.72,216,390.88,216H363.36q-3.84,0-3.84-3.84V104.62q0-3.84,3.84-3.84h27.52C410.72,100.78,424.8,113.74,424.8,133.26Zm-11.52,1c0-13.92-8.8-22.4-22.4-22.4H371v93.12h19.84c13.6,0,22.4-8.48,22.4-22.4Z" transform="translate(-93.42 -69.9)"/><path d="M509.28,208.78v3.36q0,3.84-3.84,3.84H453.28q-3.84,0-3.84-3.84V104.62q0-3.84,3.84-3.84h50.56q3.84,0,3.84,3.84V108q0,3.84-3.84,3.84H461V151h28.8q3.84,0,3.84,3.84v3.36q0,3.84-3.84,3.84H461v42.88h44.48Q509.28,204.94,509.28,208.78Z" transform="translate(-93.42 -69.9)"/><path d="M529.12,212.14V104.62q0-3.84,3.84-3.84h49q3.84,0,3.84,3.84V108q0,3.84-3.84,3.84H540.64V151h28.8q3.84,0,3.84,3.84v3.36q0,3.84-3.84,3.84h-28.8v50.08q0,3.84-3.84,3.84H533Q529.12,216,529.12,212.14Z" transform="translate(-93.42 -69.9)"/><path d="M664.16,160.3v25c0,19.52-13.76,32.32-32.8,32.32-19.36,0-32.8-12.8-32.8-32.32V131.5c0-19.52,13.6-32.32,32.8-32.32,19.68,0,32.8,13.12,32.8,33.28q0,3.84-3.84,3.84h-3.84c-2.72,0-3.68-1.28-3.84-3.84-.8-13.92-8.32-22.24-21.28-22.24-12.8,0-21.28,8.32-21.28,22.24V184.3c0,13.92,8.32,22.24,21.28,22.24,12.8,0,21.28-8.32,21.28-22.24V167.5H638.4q-3.84,0-3.84-3.84V160.3q0-3.84,3.84-3.84h21.92Q664.16,156.46,664.16,160.3Z" transform="translate(-93.42 -69.9)"/><path d="M754.88,104.62V212.14q0,3.84-3.84,3.84H747.2q-3.84,0-3.84-3.84V161.42H699.2v50.72q0,3.84-3.84,3.84h-3.84q-3.84,0-3.84-3.84V104.62q0-3.84,3.84-3.84h3.84q3.84,0,3.84,3.84v45.76h44.16V104.62q0-3.84,3.84-3.84H751Q754.88,100.78,754.88,104.62Z" transform="translate(-93.42 -69.9)"/><path d="M793.28,104.62V212.14q0,3.84-3.84,3.84H785.6q-3.84,0-3.84-3.84V104.62q0-3.84,3.84-3.84h3.84Q793.28,100.78,793.28,104.62Z" transform="translate(-93.42 -69.9)"/><path d="M869,104.62v84.64c0,16-10.88,28.32-29.12,28.32-17,0-27.36-10.4-29-25.28-.16-2.56,1.12-4,3.68-4h3.84c2.88,0,3.84,1,4.32,3.36,1.76,8.32,6.4,14.88,17.12,14.88,11.2,0,17.6-7.84,17.6-18.24V111.82H834.88q-3.84,0-3.84-3.84v-3.36q0-3.84,3.84-3.84h30.24Q869,100.78,869,104.62Z" transform="translate(-93.42 -69.9)"/><path d="M957.92,216h-4.8a4.54,4.54,0,0,1-4.48-2.72l-28.8-57.44-13.28,17.44v38.88q0,3.84-3.84,3.84h-3.84q-3.84,0-3.84-3.84V104.62q0-3.84,3.84-3.84h3.84q3.84,0,3.84,3.84V157.1l39.84-53.92a5.07,5.07,0,0,1,4.64-2.4h4.64c3.2,0,4.32,2.08,2.4,4.64L927.36,145.9l33.44,65.6C962.08,214.06,961,216,957.92,216Z" transform="translate(-93.42 -69.9)"/><path d="M1032,208.78v3.36q0,3.84-3.84,3.84H981.6q-3.84,0-3.84-3.84V104.62q0-3.84,3.84-3.84h3.84q3.84,0,3.84,3.84V204.94h38.88Q1032,204.94,1032,208.78Z" transform="translate(-93.42 -69.9)"/><path d="M1118.4,100.78h5.6c2.56,0,3.83,1.28,3.83,3.84V212.14c0,2.56-1.27,3.84-3.83,3.84h-3.36c-2.56,0-3.85-1.28-3.85-3.84v-91l-24,49.44c-1.6,3.36-2.88,4.16-5,4.16-1.92,0-3.36-1-4.8-3.84l-24.16-49.92v91.2q0,3.84-3.84,3.84h-3.36q-3.84,0-3.84-3.84V104.62q0-3.84,3.84-3.84h5.6a4.53,4.53,0,0,1,4.64,2.88l25.92,53.44,25.92-53.44A4.53,4.53,0,0,1,1118.4,100.78Z" transform="translate(-93.42 -69.9)"/><path d="M1216.15,100.78h3.36q3.84,0,3.84,3.84V212.14q0,3.84-3.84,3.84h-3.84a4.53,4.53,0,0,1-4.64-2.88l-45.28-91.84v90.88q0,3.84-3.84,3.84h-3.36q-3.84,0-3.84-3.84V104.62q0-3.84,3.84-3.84h5.92a4.53,4.53,0,0,1,4.64,2.88l43.2,87.52V104.62Q1212.31,100.78,1216.15,100.78Z" transform="translate(-93.42 -69.9)"/><path d="M1313.59,131.5v53.76c0,19.52-13.6,32.32-32.8,32.32s-32.8-12.8-32.8-32.32V131.5c0-19.52,13.76-32.32,32.8-32.32S1313.59,112,1313.59,131.5Zm-54.08,1V184.3c0,13.92,8.32,22.24,21.28,22.24s21.28-8.32,21.28-22.24V132.46c0-13.92-8.48-22.24-21.28-22.24S1259.51,118.54,1259.51,132.46Z" transform="translate(-93.42 -69.9)"/><path d="M1400.15,129.9v10.56c0,17.28-11.68,29.12-29.92,29.12h-20.48v42.56q0,3.84-3.84,3.84h-3.84q-3.84,0-3.84-3.84V104.62q0-3.84,3.84-3.84h28.16C1388.47,100.78,1400.15,112.62,1400.15,129.9Zm-11.52.48c0-12-7-18.56-18.88-18.56h-20v46.72h20c11.84,0,18.88-6.56,18.88-18.56Z" transform="translate(-93.42 -69.9)"/><path d="M1469.91,212.3l4.8,10.4c1.28,2.72,0,4.48-2.88,4.48h-4a4.4,4.4,0,0,1-4.48-2.88l-3.52-7.68a40.48,40.48,0,0,1-9,1c-19.2,0-32.8-12.8-32.8-32.32V131.5c0-19.52,13.76-32.32,32.8-32.32s32.8,12.8,32.8,32.32v53.76C1483.67,197.26,1478.39,206.86,1469.91,212.3Zm2.24-79.84c0-13.92-8.48-22.24-21.28-22.24s-21.28,8.32-21.28,22.24V184.3c0,13.92,8.32,22.24,21.28,22.24a33.78,33.78,0,0,0,4.16-.32l-7.68-16.8c-1.28-2.72,0-4.48,2.88-4.48h4a4.27,4.27,0,0,1,4.48,2.88l6.4,13.92c4.48-3.68,7-9.76,7-17.44Z" transform="translate(-93.42 -69.9)"/><path d="M1508.47,212.14V104.62q0-3.84,3.84-3.84h30.88c18.24,0,29.92,11.84,29.92,29.12V136c0,13.92-7.68,24.32-20.16,27.84l21.6,47.68c1.28,2.72,0,4.48-2.88,4.48h-4.32a4.4,4.4,0,0,1-4.48-2.88l-21.92-48h-21v47q0,3.84-3.84,3.84h-3.84Q1508.47,216,1508.47,212.14Zm34.24-58.08c11.84,0,18.88-6.56,18.88-18.56v-5.12c0-12-7-18.56-18.88-18.56H1520v42.24Z" transform="translate(-93.42 -69.9)"/><path d="M1592.14,129.58c0-17.92,12.32-30.08,30.57-30.08,17.12,0,29,10.4,30.56,26.4.16,2.56-1.28,4-3.84,4h-3.84c-2.4,0-3.52-1.28-4-3.68-2.08-9.6-7.2-15.68-18.88-15.68-12.33,0-19,7.68-19,19.2,0,10.56,7.52,15.52,18.56,19.36l5.92,2.08c16.48,5.76,27.52,13.92,27.52,33,0,20.32-13.6,33.44-32.8,33.44-18.25,0-31.2-11.2-32.81-29.76-.16-2.56,1.28-4,3.85-4h3.84c2.39,0,3.51,1.28,4,3.68,2.08,11.84,8.48,19,21.12,19,13.44,0,21.28-9.12,21.28-22.4,0-12.8-8.48-18.24-19.84-22.08l-5.77-1.92C1602.38,154.7,1592.14,146.06,1592.14,129.58Z" transform="translate(-93.42 -69.9)"/><path d="M1732,104.62V108q0,3.84-3.84,3.84h-24V212.14q0,3.84-3.84,3.84h-3.84q-3.84,0-3.84-3.84V111.82h-24q-3.84,0-3.84-3.84v-3.36q0-3.84,3.84-3.84h59.52Q1732,100.78,1732,104.62Z" transform="translate(-93.42 -69.9)"/><path d="M1814.23,104.62v80.64c0,19.52-13.6,32.32-32.8,32.32s-32.8-12.8-32.8-32.32V104.62q0-3.84,3.84-3.84h3.84q3.84,0,3.84,3.84V184.3c0,13.92,8.32,22.24,21.28,22.24,12.8,0,21.28-8.32,21.28-22.24V104.62q0-3.84,3.84-3.84h3.84Q1814.23,100.78,1814.23,104.62Z" transform="translate(-93.42 -69.9)"/><path d="M1905,105.1l-28.48,107.52a3.89,3.89,0,0,1-4.16,3.36H1864a3.87,3.87,0,0,1-4.16-3.36L1831.18,105.1c-.64-2.72.64-4.32,3.36-4.32h3.68a3.88,3.88,0,0,1,4.16,3.36l25.93,97.92,25.6-97.92a3.88,3.88,0,0,1,4.16-3.36h3.52C1904.31,100.78,1905.59,102.38,1905,105.1Z" transform="translate(-93.42 -69.9)"/><path d="M1937.74,212.62l-22.56-107.68c-.48-2.56.8-4.16,3.52-4.16h3.52a3.78,3.78,0,0,1,4.16,3.36l20.8,101.12,21.44-101.12a3.79,3.79,0,0,1,4.17-3.36h7a3.79,3.79,0,0,1,4.16,3.36l21.44,101.12,20.48-101.12a3.78,3.78,0,0,1,4.16-3.36h3.36c2.72,0,4,1.6,3.52,4.16l-22.24,107.68a3.78,3.78,0,0,1-4.16,3.36h-9.76c-2.4,0-3.68-1.12-4.32-3.36l-20.32-96-20.32,96c-.65,2.24-1.93,3.36-4.33,3.36h-9.6A3.78,3.78,0,0,1,1937.74,212.62Z" transform="translate(-93.42 -69.9)"/><path d="M2115.5,216h-4a4.54,4.54,0,0,1-4.48-2.72l-23.68-46.08-23.52,46.08a4.54,4.54,0,0,1-4.48,2.72h-3.84c-3,0-4.16-1.92-2.72-4.64l28.64-54.88-26.56-51c-1.44-2.72-.32-4.64,2.72-4.64h3.84a4.54,4.54,0,0,1,4.48,2.72l21.76,42.24,21.6-42.24a4.54,4.54,0,0,1,4.48-2.72h3.68c3,0,4.16,1.92,2.72,4.64l-26.56,51,28.64,54.88C2119.66,214.06,2118.54,216,2115.5,216Z" transform="translate(-93.42 -69.9)"/><path d="M2198.06,105.26l-28.64,55.36v51.52q0,3.84-3.84,3.84h-3.84q-3.84,0-3.84-3.84v-51.2l-28.8-55.68c-1.44-2.56-.32-4.48,2.72-4.48H2136a4.54,4.54,0,0,1,4.48,2.72l23.2,45.44,23.2-45.44a4.54,4.54,0,0,1,4.48-2.72h4C2198.38,100.78,2199.5,102.7,2198.06,105.26Z" transform="translate(-93.42 -69.9)"/><path d="M2272,112.78l-49.12,92.16h46.4q3.84,0,3.84,3.84v3.36q0,3.84-3.84,3.84h-55.68q-3.84,0-3.84-3.84v-3.36a9.66,9.66,0,0,1,1.12-4.8L2260,111.82h-44.8q-3.84,0-3.84-3.84v-3.36q0-3.84,3.84-3.84h54.08q3.84,0,3.84,3.84V108A9.66,9.66,0,0,1,2272,112.78Z" transform="translate(-93.42 -69.9)"/><path d="M2355.18,216h-4a3.88,3.88,0,0,1-4.16-3.36l-8.16-31.2h-35.68l-8.16,31.2a3.88,3.88,0,0,1-4.16,3.36h-3.36c-3,0-4-1.6-3.36-4.32l29.12-110.24a17,17,0,1,1,15.68,0l29.6,110.24C2359.34,214.38,2358.22,216,2355.18,216Zm-19.2-45.6-14.88-57.92-15,57.92Zm-24.16-83.84c0,5.76,4,9.76,9.44,9.76,5.28,0,9.28-4,9.28-9.76,0-5.6-4-9.6-9.28-9.6A9.2,9.2,0,0,0,2311.82,86.54Z" transform="translate(-93.42 -69.9)"/><path d="M2440.94,216h-4a3.88,3.88,0,0,1-4.16-3.36l-8.16-31.2h-35.68l-8.16,31.2a3.88,3.88,0,0,1-4.16,3.36h-3.36c-3,0-4-1.6-3.36-4.32l28.32-107.52a3.88,3.88,0,0,1,4.16-3.36h9a3.88,3.88,0,0,1,4.16,3.36l28.8,107.52C2444.94,214.38,2444,216,2440.94,216Zm-40.48-138.4v8.48a2.87,2.87,0,0,1-3.2,3.2h-7.36a2.87,2.87,0,0,1-3.2-3.2V77.58a2.87,2.87,0,0,1,3.2-3.2h7.36A2.87,2.87,0,0,1,2400.46,77.58Zm21.28,92.8-14.88-57.92-15,57.92Zm5.6-92.8v8.48a2.87,2.87,0,0,1-3.2,3.2h-7.36a2.87,2.87,0,0,1-3.2-3.2V77.58a2.87,2.87,0,0,1,3.2-3.2h7.36A2.87,2.87,0,0,1,2427.34,77.58Z" transform="translate(-93.42 -69.9)"/><path d="M2523.82,131.5v53.76c0,19.52-13.6,32.32-32.8,32.32s-32.8-12.8-32.8-32.32V131.5c0-19.52,13.76-32.32,32.8-32.32S2523.82,112,2523.82,131.5Zm-54.08,1V184.3c0,13.92,8.32,22.24,21.28,22.24s21.28-8.32,21.28-22.24V132.46c0-13.92-8.48-22.24-21.28-22.24S2469.74,118.54,2469.74,132.46Zm14.72-54.88v8.48a2.87,2.87,0,0,1-3.2,3.2h-7.36a2.87,2.87,0,0,1-3.2-3.2V77.58a2.87,2.87,0,0,1,3.2-3.2h7.36A2.87,2.87,0,0,1,2484.46,77.58Zm26.88,0v8.48a2.87,2.87,0,0,1-3.2,3.2h-7.36a2.87,2.87,0,0,1-3.2-3.2V77.58a2.87,2.87,0,0,1,3.2-3.2h7.36A2.87,2.87,0,0,1,2511.34,77.58Z" transform="translate(-93.42 -69.9)"/><path d="M163.85,399.58v2.56c0,3-.8,4-3,4-7.52,0-12.48-4.8-13.6-9.44-4.48,6.56-12.32,10.56-23,10.56-14.08,0-26.72-7.2-26.72-22.24,0-14.4,9.28-21.28,28.32-24.48l11.52-1.92c7.84-1.28,9-2.56,9-7.2,0-12-6.56-18.72-17.92-18.72-10.56,0-16.48,5.6-18.4,15.52-.48,2.4-1.76,3.68-4.16,3.68h-3.36c-2.56,0-4-1.44-3.84-4,1.76-15.68,13.12-25.76,29.6-25.76,17.6,0,29.28,11.52,29.28,28.48v36.8c0,4.64.64,7,3.52,8.32C162.89,396.54,163.85,396.86,163.85,399.58Zm-17.6-21.76V365.18c-1.92,1.6-4.16,2.08-8.16,2.88l-9.28,1.6c-13.28,2.24-20.16,6.08-20.16,14.88,0,7.84,6.24,12.48,16,12.48C137.45,397,146.25,389.18,146.25,377.82Z" transform="translate(-93.42 -69.9)"/><path d="M242.57,350.94v27.84c0,16.8-12.16,28.8-29.44,28.8-9.6,0-16.8-3.84-21.13-10.24v4.8c0,2.56-1.27,3.84-3.83,3.84h-2.73q-3.84,0-3.84-3.84V294.62q0-3.84,3.84-3.84H189c2.56,0,3.85,1.28,3.85,3.84v36.64c4.48-5.76,11.36-9.12,20.32-9.12C230.57,322.14,242.57,334.14,242.57,350.94Zm-11.2,1.28c0-12.64-8.16-19.52-19.36-19.52s-19.2,6.88-19.2,19.52V377.5c0,12.64,8,19.52,19.2,19.52s19.36-6.72,19.36-19.52Z" transform="translate(-93.42 -69.9)"/><path d="M309.44,381.18c.32-2.4,1.6-3.68,4-3.68H317c2.56,0,4.16,1.44,3.84,4-1.59,16.64-13.44,26.08-30.24,26.08-17.6,0-30.4-12-30.4-28.8V350.94c0-16.8,12.8-28.8,30.4-28.8,17,0,28.65,9.92,30.24,26.08.32,2.56-1.28,4-3.84,4h-3.52c-2.4,0-3.52-1.28-4-3.68-1.92-9.92-7.84-15.84-18.88-15.84-11.52,0-19.2,6.88-19.2,19.52V377.5c0,12.64,7.68,19.52,19.2,19.52C301.28,397,307.84,391.42,309.44,381.18Z" transform="translate(-93.42 -69.9)"/><path d="M336.64,378.78V350.94c0-16.8,12-28.8,29.44-28.8,9,0,15.84,3.36,20.32,9.12V294.62q0-3.84,3.84-3.84h3.52q3.84,0,3.84,3.84V402.14q0,3.84-3.84,3.84H391q-3.84,0-3.84-3.84v-4.8c-4.32,6.4-11.52,10.24-21.12,10.24C348.8,407.58,336.64,395.58,336.64,378.78Zm49.76-1.28V352.22c0-12.64-8-19.52-19.2-19.52s-19.36,6.88-19.36,19.52V377.5c0,12.8,8.16,19.52,19.36,19.52S386.4,390.14,386.4,377.5Z" transform="translate(-93.42 -69.9)"/><path d="M430.24,366.14V377.5c0,12.64,7.68,19.52,19.2,19.52,11.2,0,16.48-5.28,18.88-14.72.64-2.4,1.6-3.68,4-3.68h3.52c2.56,0,4,1.44,3.68,4-2.08,15.68-13.6,25-30.08,25-17.6,0-30.4-12-30.4-28.8V350.94c0-16.8,12.64-28.8,30.4-28.8,17.6,0,30.4,12,30.4,28.8V362.3q0,3.84-3.84,3.84Zm0-13.92v4.32h38.4v-4.32c0-12.64-7.68-19.52-19.2-19.52S430.24,339.58,430.24,352.22Z" transform="translate(-93.42 -69.9)"/><path d="M515.68,315.42v8.32h11q3.84,0,3.84,3.84v2.24q0,3.84-3.84,3.84h-11v68.48q0,3.84-3.84,3.84h-3.52q-3.84,0-3.84-3.84V333.66h-8.64q-3.84,0-3.84-3.84v-2.24q0-3.84,3.84-3.84h8.64V314.3c0-14.72,8.8-24,23.68-24,2.72,0,3.84.8,3.84,3.36v3.52c0,2.56-.8,3.52-3,3.68C521,301.5,515.68,305.34,515.68,315.42Z" transform="translate(-93.42 -69.9)"/><path d="M603,327.58v83.2c0,16.8-12.48,28.8-30.4,28.8-16.48,0-28-9.76-30.08-24.64-.32-2.56,1-4,3.52-4h3.84c2.56,0,3.52,1.28,4,3.52,2.24,9,7.84,14.56,18.72,14.56,11.68,0,19.2-6.88,19.2-19.52V395.42c-4.32,5.6-11.2,9-20.16,9-17.28,0-29.12-12-29.12-28.8V350.94c0-16.8,11.84-28.8,29.12-28.8,9.6,0,16.64,3.84,21,10.08v-4.64q0-3.84,3.84-3.84h2.72Q603,323.74,603,327.58Zm-11.2,46.72V352.22c0-12.64-7.84-19.52-19-19.52s-19,6.88-19,19.52V374.3c0,12.48,7.84,19.52,19,19.52S591.84,386.94,591.84,374.3Z" transform="translate(-93.42 -69.9)"/><path d="M687.36,350.62v51.52q0,3.84-3.84,3.84H680q-3.84,0-3.84-3.84V351.9c0-12.32-7.68-19.2-18.88-19.2s-19,6.88-19,19.2v50.24q0,3.84-3.84,3.84h-3.52q-3.84,0-3.84-3.84V294.62q0-3.84,3.84-3.84h3.52q3.84,0,3.84,3.84v36.64c4.32-5.76,11-9.12,20.16-9.12C675.68,322.14,687.36,334.14,687.36,350.62Z" transform="translate(-93.42 -69.9)"/><path d="M714.08,402.14V333.66h-6.56q-3.84,0-3.84-3.84v-2.24q0-3.84,3.84-3.84h13.92q3.84,0,3.84,3.84v74.56q0,3.84-3.84,3.84h-3.52Q714.08,406,714.08,402.14ZM725,294.3v7.84a3.2,3.2,0,0,1-3.52,3.52h-6.72a3.2,3.2,0,0,1-3.52-3.52V294.3a3.2,3.2,0,0,1,3.52-3.52h6.72A3.2,3.2,0,0,1,725,294.3Z" transform="translate(-93.42 -69.9)"/><path d="M765,327.58V414.3c0,13.44-7.2,23-21.28,23.84-2.72.16-4-1.28-4-3.84v-3c0-2.72,1.28-3.52,3.68-3.84,6.72-1,10.4-5.44,10.4-14.24V333.66H747.2q-3.84,0-3.84-3.84v-2.24q0-3.84,3.84-3.84h13.92Q765,323.74,765,327.58Zm-.64-33.28v7.84a3.2,3.2,0,0,1-3.52,3.52h-6.72a3.2,3.2,0,0,1-3.52-3.52V294.3a3.2,3.2,0,0,1,3.52-3.52h6.72A3.2,3.2,0,0,1,764.32,294.3Z" transform="translate(-93.42 -69.9)"/><path d="M848.16,406H844a5,5,0,0,1-4.64-2.56l-24.64-40.64-13.92,16v23.36q0,3.84-3.84,3.84h-3.52q-3.84,0-3.84-3.84V294.62q0-3.84,3.84-3.84H797q3.84,0,3.84,3.84v69.44l33.12-38.24a6.08,6.08,0,0,1,4.8-2.08H843c3.36,0,4.32,2.24,2.08,4.64L822.4,354.14l28.48,47.2C852.48,404.06,851.36,406,848.16,406Z" transform="translate(-93.42 -69.9)"/><path d="M878.56,294.62v91.52c0,5.76,2.88,8.48,7.36,9.6,2.4.64,3.68,1.12,3.68,3.84v2.72c0,3-1.12,4-4,3.84-11.36-.64-18.24-7.2-18.24-18.88V294.62q0-3.84,3.84-3.84h3.52Q878.56,290.78,878.56,294.62Z" transform="translate(-93.42 -69.9)"/><path d="M1004,348.86v53.28q0,3.84-3.84,3.84h-3.52q-3.84,0-3.84-3.84v-52c0-10.88-6.08-17.44-16-17.44s-16,6.56-16,17.44v52q0,3.84-3.84,3.84h-3.52q-3.84,0-3.84-3.84v-52c0-10.88-6.08-17.44-16-17.44s-16,6.56-16,17.44v52c0,2.56-1.29,3.84-3.85,3.84h-3.52c-2.56,0-3.83-1.28-3.83-3.84V327.58c0-2.56,1.27-3.84,3.83-3.84H913c2.56,0,3.83,1.28,3.83,3.84v3.68c3.52-5.6,9.29-9.12,17.93-9.12,9.76,0,17.28,4.32,21.6,11,4.48-6.72,12-11,21.6-11C994.08,322.14,1004,333.82,1004,348.86Z" transform="translate(-93.42 -69.9)"/><path d="M1088.32,350.62v51.52q0,3.84-3.84,3.84H1081q-3.84,0-3.84-3.84V351.9c0-12.32-7.68-19.2-18.89-19.2s-19,6.88-19,19.2v50.24q0,3.84-3.84,3.84h-3.52q-3.84,0-3.84-3.84V327.58q0-3.84,3.84-3.84h2.72q3.84,0,3.84,3.84v4.8c4.32-6.4,11.36-10.24,21-10.24C1076.64,322.14,1088.32,334.14,1088.32,350.62Z" transform="translate(-93.42 -69.9)"/><path d="M1170.55,350.94v27.84c0,17-13,28.8-30.88,28.8s-30.88-11.84-30.88-28.8V350.94c0-17,12.8-28.8,30.88-28.8S1170.55,334,1170.55,350.94ZM1120,352.22V377.5c0,12.8,7.84,19.52,19.68,19.52s19.68-6.72,19.68-19.52V352.22c0-12.8-7.84-19.52-19.68-19.52S1120,339.42,1120,352.22Z" transform="translate(-93.42 -69.9)"/><path d="M1191.83,434.14V327.58q0-3.84,3.84-3.84h2.72q3.84,0,3.84,3.84v4.8c4.32-6.4,11.52-10.24,21.12-10.24,17.28,0,29.44,12,29.44,28.8v27.84c0,16.8-12,28.8-29.44,28.8-9,0-15.84-3.36-20.32-9.12v35.68q0,3.84-3.84,3.84h-3.52Q1191.83,438,1191.83,434.14Zm49.76-56.64V352.22c0-12.8-8.16-19.52-19.36-19.52s-19.2,6.88-19.2,19.52V377.5c0,12.64,8,19.52,19.2,19.52S1241.59,390.14,1241.59,377.5Z" transform="translate(-93.42 -69.9)"/><path d="M1320.15,434.14V398.46c-4.48,5.76-11.36,9.12-20.32,9.12-17.44,0-29.44-12-29.44-28.8V350.94c0-16.8,12.16-28.8,29.44-28.8,9.6,0,16.8,3.84,21.12,10.24v-4.8q0-3.84,3.84-3.84h2.72q3.84,0,3.84,3.84V434.14q0,3.84-3.84,3.84H1324Q1320.15,438,1320.15,434.14Zm0-56.64V352.22c0-12.64-8-19.52-19.2-19.52s-19.36,6.72-19.36,19.52V377.5c0,12.64,8.16,19.52,19.36,19.52S1320.15,390.14,1320.15,377.5Z" transform="translate(-93.42 -69.9)"/><path d="M1391.67,327.1v4.16c0,2.56-1.12,3.84-3.84,3.84-14.4,0-20.32,7.36-20.32,21.76v45.28q0,3.84-3.84,3.84h-3.52q-3.84,0-3.84-3.84V327.58q0-3.84,3.84-3.84h2.72q3.84,0,3.84,3.84v7.36c4.32-7.84,11.2-11.68,21.12-11.68C1390.71,323.26,1391.67,324.54,1391.67,327.1Z" transform="translate(-93.42 -69.9)"/><path d="M1457.59,342.94c.32,2.88-1.12,4-3.68,4h-3.36c-2.72,0-3.52-1.12-4.32-3.52-2.08-5.76-6.88-10.72-16.32-10.72-10.24,0-15.84,5.12-15.84,13.12,0,8.16,7.2,10.24,13.92,11.68l5.76,1.28c17.92,4,26.08,9.92,26.08,23.84,0,14.24-11,25-29,25-16.32,0-27.84-8.8-29.76-21.92-.32-2.56,1.12-4,3.68-4h3.68c2.4,0,3.2,1,4,3.36,2.24,6.4,7.36,12,18.24,12,11.68,0,17.92-5.44,17.92-13.76,0-8.16-5-11.2-16.64-13.76l-5.76-1.28c-13.28-2.88-23.36-7.68-23.36-21.76,0-13.44,10.72-24.32,27.2-24.32C1445.11,322.14,1456.15,330.62,1457.59,342.94Z" transform="translate(-93.42 -69.9)"/><path d="M1494.07,333.66v47.52c0,9.92,5.44,13.92,13.12,14.56,1.92.16,3.2.8,3.2,3.84v2.88c0,2.88-1,3.84-3.52,3.84-15.2,0-24-9.28-24-24V333.66h-8.48q-3.84,0-3.84-3.84v-2.24q0-3.84,3.84-3.84h8.48V294.62q0-3.84,3.84-3.84h3.52q3.84,0,3.84,3.84v29.12h12.48q3.84,0,3.84,3.84v2.24q0,3.84-3.84,3.84Z" transform="translate(-93.42 -69.9)"/><path d="M1587.51,327.58v74.56q0,3.84-3.84,3.84H1581q-3.84,0-3.84-3.84v-4.32c-4.16,6.08-10.88,9.76-20.32,9.76-17.28,0-28.48-12-28.48-28.16V327.58q0-3.84,3.84-3.84h3.52q3.84,0,3.84,3.84v50.56c0,12,7.2,18.88,18.4,18.88s18.4-7.2,18.4-18.88V327.58q0-3.84,3.84-3.84h3.52Q1587.51,323.74,1587.51,327.58Z" transform="translate(-93.42 -69.9)"/><path d="M1666.87,328.06l-23.53,74.72A4,4,0,0,1,1639,406h-6.08a4,4,0,0,1-4.32-3.2l-23.2-74.72c-.8-2.56.48-4.32,3.2-4.32h3.84a4,4,0,0,1,4.32,3.2l19.52,64.48,19.84-64.48a4,4,0,0,1,4.32-3.2h3.21C1666.54,323.74,1667.83,325.5,1666.87,328.06Z" transform="translate(-93.42 -69.9)"/><path d="M1770.38,323.74h3.2c2.72,0,4,1.6,3.36,4.16l-17.12,74.72q-.72,3.36-4.32,3.36h-5.76a4.16,4.16,0,0,1-4.32-3.2L1728,338.94l-17.44,63.84a4.16,4.16,0,0,1-4.32,3.2h-5.6q-3.6,0-4.32-3.36L1679,327.9c-.64-2.56.64-4.16,3.36-4.16h3.52q3.6,0,4.32,3.36l13.92,63.84,17.28-64a4.16,4.16,0,0,1,4.32-3.2h4.8a4.16,4.16,0,0,1,4.32,3.2l17.28,64.32,13.92-64.16Q1766.78,323.74,1770.38,323.74Z" transform="translate(-93.42 -69.9)"/><path d="M1844.78,406h-4.16a5,5,0,0,1-4.64-2.56l-18.72-30.72-18.88,30.72a5,5,0,0,1-4.64,2.56h-3.52c-3,0-4.16-1.92-2.56-4.64l23.52-37.92-21.76-35c-1.6-2.72-.48-4.64,2.56-4.64h4a5,5,0,0,1,4.64,2.56l17,27.36,16.64-27.36a5,5,0,0,1,4.64-2.56h3.36c3,0,4.16,1.92,2.56,4.64l-21.28,34.56,23.84,38.4C1848.94,404.06,1847.82,406,1844.78,406Z" transform="translate(-93.42 -69.9)"/><path d="M1862.54,434.3v-2.88c0-2.4,1.28-3.52,3.68-4,6.88-1.28,10.4-5.92,13-14.08l2.4-7.68-24.8-77.6c-1-2.56.32-4.32,3.2-4.32h3.84a4,4,0,0,1,4.32,3.2l19,61.44,20-61.44a4,4,0,0,1,4.32-3.2h3.36c2.88,0,4.16,1.76,3.2,4.32l-28.32,86.24c-4.48,13.92-10.08,22.88-23.2,23.84C1864,438.3,1862.54,436.86,1862.54,434.3Z" transform="translate(-93.42 -69.9)"/><path d="M1982.06,334.46l-39.68,61.6h37.44q3.84,0,3.84,3.84v2.24q0,3.84-3.84,3.84h-46.88q-3.84,0-3.84-3.84v-1.92a7.41,7.41,0,0,1,1.44-4.8l39.52-61.76h-35.52q-3.84,0-3.84-3.84v-2.24q0-3.84,3.84-3.84h45.28q3.84,0,3.84,3.84v1.92A7.69,7.69,0,0,1,1982.06,334.46Z" transform="translate(-93.42 -69.9)"/><path d="M2063.82,399.58v2.56c0,3-.8,4-3,4-7.53,0-12.49-4.8-13.61-9.44-4.47,6.56-12.32,10.56-23,10.56-14.08,0-26.72-7.2-26.72-22.24,0-14.4,9.28-21.28,28.32-24.48l11.52-1.92c7.84-1.28,9-2.56,9-7.2,0-12-6.55-18.72-17.92-18.72-10.56,0-16.48,5.6-18.4,15.52-.48,2.4-1.76,3.68-4.16,3.68h-3.36c-2.56,0-4-1.44-3.84-4,1.76-15.68,13.12-25.76,29.6-25.76,17.61,0,29.29,11.52,29.29,28.48v36.8c0,4.64.64,7,3.52,8.32C2062.86,396.54,2063.82,396.86,2063.82,399.58Zm-17.61-21.76V365.18c-1.92,1.6-4.16,2.08-8.16,2.88l-9.28,1.6c-13.28,2.24-20.16,6.08-20.16,14.88,0,7.84,6.24,12.48,16,12.48C2037.42,397,2046.21,389.18,2046.21,377.82Zm-.47-81a16.89,16.89,0,1,1-16.81-16.64A16.7,16.7,0,0,1,2045.74,296.86Zm-26.25,0c0,5.76,4,9.76,9.44,9.76,5.28,0,9.28-4,9.28-9.76,0-5.6-4-9.6-9.28-9.6A9.21,9.21,0,0,0,2019.49,296.86Z" transform="translate(-93.42 -69.9)"/><path d="M2143.65,399.58v2.56c0,3-.8,4-3,4-7.52,0-12.48-4.8-13.6-9.44-4.48,6.56-12.32,10.56-23,10.56-14.08,0-26.72-7.2-26.72-22.24,0-14.4,9.28-21.28,28.32-24.48l11.52-1.92c7.84-1.28,9-2.56,9-7.2,0-12-6.56-18.72-17.92-18.72-10.56,0-16.48,5.6-18.4,15.52-.48,2.4-1.76,3.68-4.16,3.68h-3.36c-2.56,0-4-1.44-3.84-4,1.76-15.68,13.12-25.76,29.6-25.76,17.6,0,29.28,11.52,29.28,28.48v36.8c0,4.64.64,7,3.52,8.32C2142.69,396.54,2143.65,396.86,2143.65,399.58ZM2102.21,294v8.48a2.87,2.87,0,0,1-3.2,3.2h-7.36a2.87,2.87,0,0,1-3.2-3.2V294a2.87,2.87,0,0,1,3.2-3.2H2099A2.87,2.87,0,0,1,2102.21,294Zm23.84,83.84V365.18c-1.92,1.6-4.16,2.08-8.16,2.88l-9.28,1.6c-13.28,2.24-20.16,6.08-20.16,14.88,0,7.84,6.24,12.48,16,12.48C2117.25,397,2126.05,389.18,2126.05,377.82Zm3-83.84v8.48a2.87,2.87,0,0,1-3.2,3.2h-7.36a2.87,2.87,0,0,1-3.2-3.2V294a2.87,2.87,0,0,1,3.2-3.2h7.36A2.87,2.87,0,0,1,2129.09,294Z" transform="translate(-93.42 -69.9)"/><path d="M2219.65,350.94v27.84c0,17-13,28.8-30.88,28.8s-30.88-11.84-30.88-28.8V350.94c0-17,12.8-28.8,30.88-28.8S2219.65,334,2219.65,350.94Zm-37.44-57v8.48a2.87,2.87,0,0,1-3.2,3.2h-7.36a2.87,2.87,0,0,1-3.2-3.2V294a2.87,2.87,0,0,1,3.2-3.2H2179A2.87,2.87,0,0,1,2182.21,294Zm-13.12,58.24V377.5c0,12.8,7.84,19.52,19.68,19.52s19.68-6.72,19.68-19.52V352.22c0-12.8-7.84-19.52-19.68-19.52S2169.09,339.42,2169.09,352.22Zm40-58.24v8.48a2.87,2.87,0,0,1-3.2,3.2h-7.36a2.87,2.87,0,0,1-3.2-3.2V294a2.87,2.87,0,0,1,3.2-3.2h7.36A2.87,2.87,0,0,1,2209.09,294Z" transform="translate(-93.42 -69.9)"/><path d="M2341.25,399.1v3q0,3.84-3.84,3.84H2280q-3.84,0-3.84-3.84v-3q0-3.84,3.84-3.84h23.68V306l-21.6,17.6c-2.4,2.08-4.64,1.28-4.64-1.92v-5a5.76,5.76,0,0,1,2.24-4.8l22.88-19.36a6.63,6.63,0,0,1,4.8-1.76h3.84q3.84,0,3.84,3.84V395.26h22.4Q2341.25,395.26,2341.25,399.1Z" transform="translate(-93.42 -69.9)"/><path d="M2423.65,399.1v3q0,3.84-3.84,3.84h-60.48q-3.84,0-3.84-3.84v-7c0-13.92,5.12-23.84,19.52-34.56l18.88-13.92c10.4-7.68,17.6-15.84,17.6-27,0-11.68-8.64-19.68-21.12-19.68-12.32,0-19.36,7.68-21.28,19.2-.32,2.4-1.6,3.68-4,3.68h-3.68c-2.56,0-4-1.44-3.84-4,1.6-18.24,14.56-29.6,32.8-29.6,19,0,32.48,12.16,32.48,30.4,0,17.28-9.76,26.24-22.24,35.52l-19.68,14.56c-12.16,9.12-14.08,17-14.08,25.6h53Q2423.65,395.26,2423.65,399.1Z" transform="translate(-93.42 -69.9)"/><path d="M2504.61,365.18v11.2c0,18.88-14.4,31.2-33,31.2-17.92,0-31.36-11-32.81-29.44-.15-2.56,1.28-4,3.85-4h3.68c2.88,0,3.67,1.28,4,3.68,1.44,11.52,9.6,19,21.28,19,12.8,0,21.6-8.32,21.6-22.72v-7.52c0-14.56-8.64-22.72-21.44-22.72a27.43,27.43,0,0,0-11.2,2.4c-2.08,1-3.52,1-5.28-.8l-2.56-2.56c-1.76-1.76-1.6-3.68.16-5.44l36.48-36h-43q-3.84,0-3.84-3.84v-3q0-3.84,3.84-3.84h53.44q3.84,0,3.84,3.84v4a6.15,6.15,0,0,1-1.92,4.64l-30.08,30.08C2491.17,333.34,2504.61,345.5,2504.61,365.18Z" transform="translate(-93.42 -69.9)"/><path d="M2594.21,371.58v3c0,2.56-1.29,3.84-3.84,3.84h-12v23.68q0,3.84-3.84,3.84h-3.68q-3.84,0-3.84-3.84V378.46h-45.28q-3.84,0-3.84-3.84V369.5c0-2.72,1-4.64,2.72-7.52l40.16-68.64c1.12-1.76,1.92-2.56,4.64-2.56h4.8c3,0,4.16,1.92,2.56,4.64L2530,367.74h37V344.86q0-3.84,3.84-3.84h3.68q3.84,0,3.84,3.84v22.88h12C2592.92,367.74,2594.21,369,2594.21,371.58Z" transform="translate(-93.42 -69.9)"/><path d="M2671,365.34v9.76c0,19.52-13.92,32.48-33,32.48-18.24,0-30.72-10.88-32.8-29.44-.32-2.88,1.28-4,3.84-4h3.68c3,0,3.36,1.28,3.84,3.68,2.08,11.68,9.28,19,21.44,19,12.8,0,21.6-8.48,21.6-22.56v-7.84c0-14.08-8.8-22.56-21.6-22.56-7.84,0-12.16,2.88-16.16,5.92-1.76,1.44-2.72,2.56-6.08,2.08l-3.2-.48q-3.84-.48-3.36-4.32l6.56-52.8a3.81,3.81,0,0,1,4.16-3.52h43.84q3.84,0,3.84,3.84v3q0,3.84-3.84,3.84h-37.92l-4.64,37.12c4.64-3.52,11.36-5.44,17.76-5.44C2657.24,333.18,2671,345.82,2671,365.34Z" transform="translate(-93.42 -69.9)"/><path d="M2754.2,365.66v9.44c0,19.52-13.92,32.48-33,32.48s-33-13-33-32.48v-9.44c0-9.28,3-15,7.2-22.56l26.88-49.6a4.54,4.54,0,0,1,4.48-2.72h4.64c3,0,4.16,1.92,2.72,4.64l-21.28,38.88a29,29,0,0,1,8.32-1.12C2740.28,333.18,2754.2,346.14,2754.2,365.66Zm-11.36.8c0-14.08-8.8-22.56-21.6-22.56s-21.6,8.48-21.6,22.56v7.84c0,14.08,8.8,22.56,21.6,22.56s21.6-8.48,21.6-22.56Z" transform="translate(-93.42 -69.9)"/><path d="M2835.64,294.62v4.16a9.66,9.66,0,0,1-1.12,4.8L2803,362.78c-6.56,12.16-8.16,18.08-8.16,33.28v6.08q0,3.84-3.84,3.84h-3.68q-3.84,0-3.84-3.84v-7.2c0-14.72,1.28-21.92,9.44-37l30.56-56.48h-54.56q-3.84,0-3.84-3.84v-3q0-3.84,3.84-3.84h62.88Q2835.64,290.78,2835.64,294.62Z" transform="translate(-93.42 -69.9)"/><path d="M2848.92,373.82A33.29,33.29,0,0,1,2864.6,345c-7.84-5.44-12.8-14.4-12.8-25.28,0-17.76,13.12-30.56,31-30.56s31,12.8,31,30.56c0,10.88-5,19.84-12.8,25.28a33.29,33.29,0,0,1,15.68,28.8c0,20-14.72,33.76-33.92,33.76S2848.92,393.82,2848.92,373.82Zm56.48,0c0-13.28-9.76-23-22.56-23s-22.56,9.76-22.56,23,9.76,23,22.56,23S2905.4,387.1,2905.4,373.82Zm-2.88-53.76c0-11.84-8-20.16-19.68-20.16s-19.68,8.32-19.68,20.16,8,20,19.68,20S2902.52,331.9,2902.52,320.06Z" transform="translate(-93.42 -69.9)"/><path d="M2999,321.66v9.44c0,9.28-3,15-7.2,22.56l-26.88,49.6a4.54,4.54,0,0,1-4.48,2.72h-4.32c-3,0-4.16-1.92-2.72-4.64l21.28-39a26.32,26.32,0,0,1-8.64,1.28c-19,0-33-13-33-32.48v-9.44c0-19.52,13.92-32.48,33-32.48S2999,302.14,2999,321.66Zm-11.36.8c0-14.08-8.8-22.56-21.6-22.56s-21.61,8.48-21.61,22.56v7.84c0,14.08,8.81,22.56,21.61,22.56s21.6-8.48,21.6-22.56Z" transform="translate(-93.42 -69.9)"/><path d="M3018.67,378.78V318c0-16.8,12.64-28.8,30.56-28.8s30.56,12,30.56,28.8v60.8c0,16.8-12.8,28.8-30.56,28.8S3018.67,395.58,3018.67,378.78Zm49.76-1.6v-57.6c0-12.8-7.52-19.68-19.2-19.68s-19.2,6.88-19.2,19.68v57.6c0,12.8,7.52,19.68,19.2,19.68S3068.43,390,3068.43,377.18Z" transform="translate(-93.42 -69.9)"/></svg>