<svg id="Everlane_kopia_2" data-name="Everlane kopia 2" xmlns="http://www.w3.org/2000/svg" viewBox="0 0 361.2 244.53"><title>Sweco_QP</title><path d="M107.84,184.41c0-37.11,25.51-62.29,63.29-62.29,35.45,0,60,21.54,63.28,54.67.34,5.3-2.65,8.29-7.95,8.29h-8c-5,0-7.29-2.66-8.28-7.63-4.31-19.88-14.91-32.47-39.1-32.47-25.52,0-39.43,15.91-39.43,39.76,0,21.87,15.57,32.14,38.43,40.1l12.26,4.3c34.13,11.93,57,28.83,57,68.26,0,42.08-28.16,69.25-67.92,69.25-37.77,0-64.61-23.19-67.93-61.63-.33-5.3,2.65-8.28,8-8.28h8c5,0,7.29,2.65,8.28,7.62,4.31,24.52,17.56,39.43,43.74,39.43,27.83,0,44.07-18.89,44.07-46.39,0-26.51-17.56-37.77-41.09-45.72l-11.93-4C129.05,236.43,107.84,218.54,107.84,184.41Z" transform="translate(-103.51 -122.12)"/><path d="M450.79,193h6.62c5.63,0,8.29,3.31,7,8.61L428.92,356.38q-1.5,7-8.95,7H408c-4.64,0-7.62-2.32-8.94-6.63L363,224.5,326.86,356.71c-1.32,4.31-4.3,6.63-8.94,6.63h-11.6q-7.45,0-8.95-7L261.59,201.64c-1.33-5.3,1.32-8.61,7-8.61h7.29q7.46,0,8.94,7l28.83,132.2,35.78-132.54c1.33-4.3,4.31-6.62,8.95-6.62h9.94c4.64,0,7.62,2.32,9,6.62L413,332.85,441.84,200Q443.33,193,450.79,193Z" transform="translate(-103.51 -122.12)"/></svg>