<svg id="Tele2_Slab" data-name="Tele2 Slab" xmlns="http://www.w3.org/2000/svg" viewBox="0 0 95.04 132.64"><title>Tele2-Quick-Preview</title><path d="M186.57,216h-43.2v-25.6h6.56l-1.44-7.52H127.05l-1.6,7.52h6.08V216h-40v-25.6h5l14.56-55.84h-6.4v-25.6h13.28a16.88,16.88,0,0,1-.64-5c0-11.68,9.12-20.64,21.6-20.64s21.6,9,21.6,20.64a16.88,16.88,0,0,1-.64,5h13.92v25.6H168l13.6,55.84h5ZM130.25,104a8.64,8.64,0,1,0,8.64-8.64A8.41,8.41,0,0,0,130.25,104Zm7.84,27.84-6.24,28.64h12Z" transform="translate(-91.53 -83.34)"/></svg>