<svg id="Tele2_Headline" data-name="Tele2 Headline" xmlns="http://www.w3.org/2000/svg" viewBox="0 0 3682.04 150.08"><title>Tele2-01</title><path d="M144.49,216v-25.6h6.56L149.61,183H128.17l-1.6,7.36h6.08V216H91.53v-25.6h5.28l16.32-62.24h-6.72v-25.6H173v25.6h-6.4l16,62.24h5.12V216Zm-11.84-55.36h12.48l-6.24-30.56Z" transform="translate(-91.53 -83.34)"/><path d="M280.81,182.06c0,21.92-12.16,33.92-37.12,33.92H193.13v-25.6h7.2V128.14h-7.2v-25.6h48.48c22.4,0,35.52,10.4,35.52,28.8,0,12-5.44,19.52-14.56,23.68C274.25,159.5,280.81,168.78,280.81,182.06Zm-44.16-35.68c6.08,0,10.88-1.92,10.88-9.44,0-6.72-4.8-8.8-10.88-8.8h-5.28v18.24Zm.16,44c7.84,0,12.8-3.68,12.8-11.68s-5-11.36-12.8-11.36h-5.44v23Z" transform="translate(-91.53 -83.34)"/><path d="M371.21,170.22c0,31.52-13.12,48.16-40.81,48.16-32.32,0-45.76-23.36-45.76-59,0-38.24,14.56-59,40.16-59,9.93,0,16.49,3.2,20.65,7.84l.15-5.92h24v40.16H344c-1-9-4.15-15.84-12.32-15.84-10.08,0-14.08,11.2-14.08,32.8,0,20.64,4,31.52,14.24,31.52,9.28,0,12-9,12.81-20.64Z" transform="translate(-91.53 -83.34)"/><path d="M423.36,102.54c27.36,0,44.8,21.44,44.8,56.64S450.72,216,423.36,216H376v-25.6h7.2V128.14H376v-25.6Zm-4,87.84c9.92,0,15.84-9,15.84-31s-5.92-31.2-15.84-31.2h-5.12v62.24Z" transform="translate(-91.53 -83.34)"/><path d="M528.8,145.26l-1.44-17.12H509.6V147h17.12v23.2H509.6v20.16h17.6l1.6-18.72h24.32V216H471.36v-25.6h7.2V128.14h-7.2v-25.6h81.76v42.72Z" transform="translate(-91.53 -83.34)"/><path d="M614.56,145.26l-1.44-17.12H597.76v22.72h25.76v23.2H597.76v16.32H605V216H559.52v-25.6h7.2V128.14h-7.2v-25.6h79.36v42.72Z" transform="translate(-91.53 -83.34)"/><path d="M675.84,159.34c0,22.56,4.8,32.32,17.12,32.32a16,16,0,0,0,9.12-2.56V175.5H689.76V149.9h41.77V216H704.8v-7c-4.48,5.28-11.36,9-22.08,9-27,0-39.84-23-39.84-58.4,0-37.76,16.16-59.2,42.56-59.2,10.56,0,17.44,3.2,21.77,8.16l.31-6.24h24v38.56H705.77c-1.77-10.4-6.57-14.24-13.93-14.24C682.4,126.54,675.84,134.7,675.84,159.34Z" transform="translate(-91.53 -83.34)"/><path d="M838.08,190.38V216H792.64v-25.6h7.2v-21H776.48v21h7.2V216H738.24v-25.6h7.2V128.14h-7.2v-25.6h45.44v25.6h-7.2v18.08h23.36V128.14h-7.2v-25.6h45.44v25.6h-7.2v62.24Z" transform="translate(-91.53 -83.34)"/><path d="M889.92,190.38V216H844.48v-25.6h7.2V128.14h-7.2v-25.6h45.44v25.6h-7.2v62.24Z" transform="translate(-91.53 -83.34)"/><path d="M949.76,128.14V183c0,24.16-12.64,34.24-31.68,34.24-11.84,0-19.36-2.4-22.24-4.16V189.58a44.07,44.07,0,0,0,10.56,1.28c8,0,12.48-3.36,12.48-14.08V128.14h-8.16v-25.6H957v25.6Z" transform="translate(-91.53 -83.34)"/><path d="M1025.92,216l-24.8-48.32v22.72h5.6V216H962.88v-25.6h7.2V128.14h-7.2v-25.6h43.84v25.6h-5.6v22.4l17-22.4h-3.2v-25.6h39.68v25.6h-5.76l-20.48,25.76,20,36.48h6.56V216Z" transform="translate(-91.53 -83.34)"/><path d="M1060.64,216v-25.6h7.2V128.14h-7.2v-25.6h45.44v25.6h-7.2v62.24H1111l1.6-18.72H1137V216Z" transform="translate(-91.53 -83.34)"/><path d="M1266.72,190.38V216h-42.24v-25.6h6.4v-55.2L1212,216h-18.24l-18.08-81.12v55.52h6.4V216h-39v-25.6h6.4V128.14H1143v-25.6h52.16l10.08,50.88,10.88-50.88h50.56v25.6h-6.4v62.24Z" transform="translate(-91.53 -83.34)"/><path d="M1368.64,128.14V216h-31.21l-29.28-65.28v39.68h7.2V216h-42.24v-25.6h7.2V128.14h-7.2v-25.6h42.4l25.28,57.6v-32h-7.2v-25.6h42.25v25.6Z" transform="translate(-91.53 -83.34)"/><path d="M1472.79,159.34c0,36.32-15.2,59-47,59s-47-22.72-47-59,15.2-59.2,47-59.2S1472.79,123,1472.79,159.34Zm-61.12,0c0,21.28,3.68,32.64,14.08,32.64s14.08-11.36,14.08-32.64c0-21.44-3.68-32.8-14.08-32.8S1411.67,137.9,1411.67,159.34Z" transform="translate(-91.53 -83.34)"/><path d="M1527.19,102.54c21.28,0,36.16,14.08,36.16,36.32s-14.88,36.32-36.16,36.32h-13v15.2h8V216H1476v-25.6h7.2V128.14H1476v-25.6Zm-5,47c4.8,0,10.4-2.88,10.4-10.72s-5.6-10.72-10.4-10.72h-8v21.44Z" transform="translate(-91.53 -83.34)"/><path d="M1648.63,211.66a33.19,33.19,0,0,0,9.92-1.28v20.16c-3.2,1.6-8.8,2.88-15.36,2.88-13.92,0-24-5-29.28-15-31.2-.48-46.08-23-46.08-59,0-36.32,15.2-59.2,47-59.2s47,22.88,47,59.2c0,24-6.56,41.92-20.16,51.52A31.2,31.2,0,0,0,1648.63,211.66ZM1614.87,192c10.4,0,14.08-11.36,14.08-32.64,0-21.44-3.68-32.8-14.08-32.8s-14.08,11.36-14.08,32.8C1600.79,180.62,1604.47,192,1614.87,192Z" transform="translate(-91.53 -83.34)"/><path d="M1725.43,216l-22.08-47.2v21.6h6.4V216h-44.64v-25.6h7.2V128.14h-7.2v-25.6H1716c21.28,0,36.16,11.52,36.16,33.76,0,15.2-7.52,24.8-18.56,29.44L1747,190.38h6.24V216Zm-14.4-66.4c4.8,0,10.56-2.72,10.56-10.56s-5.76-10.88-10.56-10.88h-7.68v21.44Z" transform="translate(-91.53 -83.34)"/><path d="M1840.47,183.66c0,21.92-13.76,34.4-33.44,34.4-10.56,0-18.4-3-23.68-8l-.32,6.24h-24V175h26.08c1,8.64,6.08,17.44,15.36,17.44,5.44,0,8.64-2.56,8.64-7.68,0-6.4-5-9.12-21.6-16-21.92-9.12-27.84-19.36-27.84-34.56,0-19.52,12.32-33.6,32.8-33.6,10.4,0,17.12,3,21.92,7.36l.16-5.76h24V141.1H1813c-1-10.4-7.2-15.52-14.08-15.52-5.76,0-8.48,3.36-8.48,7.2,0,4.16,2.08,6.88,15.84,12.16C1832.47,155,1840.47,164.94,1840.47,183.66Z" transform="translate(-91.53 -83.34)"/><path d="M1918.39,152l-1.92-23.84h-7.84v62.24h8.8V216h-48.64v-25.6h8.8V128.14h-7.84L1867.83,152h-23.36V102.54h97.28V152Z" transform="translate(-91.53 -83.34)"/><path d="M2034.39,128.14V179.5c0,25.92-12,38.72-40.64,38.72-28.48,0-39.36-12.32-39.36-38.72V128.14h-7.2v-25.6H1991v25.6h-5.6V180c0,5.92,2.56,10.4,9,10.4,6.56,0,9-4.48,9-10.4V128.14h-5.6v-25.6h43.84v25.6Z" transform="translate(-91.53 -83.34)"/><path d="M2113.43,216h-38.88l-22.88-87.84h-5.12v-25.6h44v25.6h-6.4l11.36,53.44,11.36-53.44h-6.08v-25.6h40.8v25.6h-5Z" transform="translate(-91.53 -83.34)"/><path d="M2262.71,216h-35.52L2217,160.46l-11,55.52h-36.32l-18.4-87.84h-5.12v-25.6h44.16v25.6h-7.68l8.16,47.52L2204,102.54h27.68l13.76,70.56,8-45h-7.2v-25.6h42.4v25.6h-7.2Z" transform="translate(-91.53 -83.34)"/><path d="M2380.31,190.38h4.8V216h-43.2v-25.6h5l-8.48-16.8-8.64,16.8h4.79V216h-41.12v-25.6h4.48l21-31.84-20.65-30.4h-4.8v-25.6H2337v25.6h-4.64l7.84,14.08,8.16-14.08h-4.48v-25.6h41.28v25.6h-4.64l-20.64,29.28Z" transform="translate(-91.53 -83.34)"/><path d="M2457.26,190.38V216h-47v-25.6h7.2V169.9L2395,128.14h-5.12v-25.6h42.4v25.6h-4l7.2,15.2,7.36-15.2h-3.36v-25.6h38.73v25.6h-5.44l-22.73,40.64v21.6Z" transform="translate(-91.53 -83.34)"/><path d="M2541.42,171.66h24.32V216h-82.08V190.06l45.12-61.92h-17.6l-1.6,17.12h-24.32V102.54h80.48v25.92l-45.12,61.92h19Z" transform="translate(-91.53 -83.34)"/><path d="M2666.22,216H2623v-25.6h6.56l-1.44-7.52H2606.7l-1.6,7.52h6.08V216h-40v-25.6h5l14.56-55.84h-6.4v-25.6h13.28a16.88,16.88,0,0,1-.64-5c0-11.68,9.12-20.64,21.6-20.64s21.6,9,21.6,20.64a16.88,16.88,0,0,1-.64,5h13.92v25.6h-5.76l13.6,55.84h5ZM2609.9,104a8.64,8.64,0,1,0,8.64-8.64A8.41,8.41,0,0,0,2609.9,104Zm7.84,27.84-6.24,28.64h12Z" transform="translate(-91.53 -83.34)"/><path d="M2765.74,216h-43.2v-25.6h6.56l-1.44-7.52h-21.44l-1.6,7.52h6.08V216h-40v-25.6h5l14.56-55.84h-6.72v-25.6h6.24V93.42h23.68v15.52h9.76V93.42h23.68v15.52h6.4v25.6h-6.08l13.6,55.84h5Zm-48.64-84.16L2711,160.46h12Z" transform="translate(-91.53 -83.34)"/><path d="M2840.46,115.18c12.32,9.28,18.56,25.76,18.56,47.36,0,34.56-16,55.84-47,55.84s-47-21.28-47-55.84c0-21.6,6.24-38.08,18.56-47.36V93.42h23.68V106.7c1.6-.16,3.2-.16,4.8-.16s3.2,0,4.8.16V93.42h23.68Zm-14.4,47.36c0-18.88-3.84-29.6-14.08-29.6s-14.08,10.72-14.08,29.6c0,18.72,3.84,29.44,14.08,29.44S2826.06,181.26,2826.06,162.54Z" transform="translate(-91.53 -83.34)"/><path d="M2955.18,190.38V216h-59v-25.6h14.4V136.3l-14.4,6.88v-27l23.68-13.6h21.76v87.84Z" transform="translate(-91.53 -83.34)"/><path d="M3046.22,175.5V216h-83.68V204.46c0-28.16,13.44-38.72,34.4-50.88,15.2-8.8,17.6-12.8,17.6-18.56,0-4.8-3.52-8.32-9.92-8.32-9.12,0-13.12,6.56-14.72,17.92h-25.28c-.8-29.12,14.56-44.48,42.24-44.48,27,0,39.36,15.52,39.36,33.92,0,18.72-9.92,28.16-29.28,39-15.52,8.64-20.8,11.84-22.4,17.28h27.2l1.12-14.88Z" transform="translate(-91.53 -83.34)"/><path d="M3137.26,182.7c0,20.16-13.76,35.52-41.76,35.52-25.92,0-44.32-12-43.52-44.8h25.28c.64,12,6.08,19.2,16,19.2,8,0,12-5,12-11.84,0-10.4-9.12-13.44-21.28-13.44V147.66c14.72,0,20-4.8,20-12.48,0-6.08-4.16-9.6-10.72-9.6-7,0-13,4-14.56,15.68h-24.16c-.8-28.32,17-41,41.6-41,25.28,0,38.4,13.12,38.4,30.56,0,13.92-6.88,21.44-16.48,25.12C3129.9,159.82,3137.26,168.14,3137.26,182.7Z" transform="translate(-91.53 -83.34)"/><path d="M3216.46,190.38H3223V216h-45v-25.6h8.64v-6.24h-44.8V156.62l30.4-54.08h44.16V160.3h11v23.84h-11Zm-29.76-64.8-18.4,34.72h18.4Z" transform="translate(-91.53 -83.34)"/><path d="M3317.1,180.62c0,18.72-12.48,37.76-41.93,37.76-24,0-43-10.24-42.24-40.16h25.44c1.13,10.4,6.09,15.2,14.57,15.2,7.68,0,12.64-6.08,12.64-14.88,0-7.84-4.33-13.76-12.8-13.76a13.37,13.37,0,0,0-10.89,5.28l-25.76-3.36,6.56-64.16h71.53v37h-23.36l-1-11.36h-23.53l-2.24,20c4.33-2.72,9.93-4.48,17.61-4.48C3303.82,143.66,3317.1,158.06,3317.1,180.62Z" transform="translate(-91.53 -83.34)"/><path d="M3409.42,178.06c0,24.32-16.16,40.32-40.64,40.32-29.28,0-46.09-17.44-46.09-54.08,0-40.32,15.52-64,47.53-64,18.4,0,37.92,10.08,37.12,38.08h-25c-1.28-6.88-4.32-11.68-12-11.68-8.32,0-13.92,6.4-15.68,24.64,4.16-4.32,10.72-8.16,21.76-8.16C3396.14,143.18,3409.42,156.94,3409.42,178.06Zm-31.84.48c0-8.64-4.32-13.76-12.32-13.76a18.23,18.23,0,0,0-11.2,3.84c.31,14.72,3.36,24.48,12.64,24.48C3374.22,193.1,3377.58,186.22,3377.58,178.54Z" transform="translate(-91.53 -83.34)"/><path d="M3497.41,128.14c-23.68,25.76-32.48,43.52-32.48,87.84h-34.56c0-33.92,11.68-61,35-87.84h-27l-1,13.28h-23.36V102.54h83.36Z" transform="translate(-91.53 -83.34)"/><path d="M3588.61,184.94c0,18.24-13,33.44-44,33.44-29.12,0-44.64-12.8-44.64-31.84,0-12.64,6.08-22.24,19.68-28-11.84-8.32-15.36-16.32-15.36-26.72,0-18.24,15.2-31.68,40.64-31.68,23.84,0,40.32,11.52,40.32,30.24,0,11.68-5.6,20-15.84,25C3580.45,162.06,3588.61,170.22,3588.61,184.94Zm-31.68.48c0-7.36-9.76-12-20-17-5.44,4-7.68,9-7.68,14.24,0,7.36,5.92,12.16,14.72,12.16C3552.61,194.86,3556.93,191.18,3556.93,185.42ZM3535.17,131c0,5.6,5.6,9.28,14.4,13.92,5-3.2,8-6.72,8-12.32,0-6.88-5.44-10.24-11.84-10.24C3539.65,122.38,3535.17,125.58,3535.17,131Z" transform="translate(-91.53 -83.34)"/><path d="M3679.81,154.22c0,40.32-14.88,64-46.88,64-18.08,0-38.4-9.28-37.6-36.8h25c1.6,6.88,5.6,10.4,12.16,10.4,9.76,0,14.08-5.92,15.52-24.16-4.32,4.16-11,7.68-21.92,7.68-19.68,0-33-13.76-33-34.88,0-24.48,15.68-40.32,40.8-40.32C3663,100.14,3679.81,117.74,3679.81,154.22Zm-42.56-.48a18.23,18.23,0,0,0,11.2-3.84c-.16-14.24-2.88-24.48-12.64-24.48-7.52,0-10.88,6.88-10.88,14.56C3624.93,148.62,3629.25,153.74,3637.25,153.74Z" transform="translate(-91.53 -83.34)"/><path d="M3773.57,159.34c0,39.52-14.4,59-43.52,59s-43.52-19.52-43.52-59,14.4-59.2,43.52-59.2S3773.57,119.82,3773.57,159.34Zm-54.08,0c0,24.48,2.4,32.64,10.56,32.64s10.56-8.16,10.56-32.64c0-24.64-2.4-32.8-10.56-32.8S3719.49,134.7,3719.49,159.34Z" transform="translate(-91.53 -83.34)"/></svg>