<?xml version="1.0" encoding="UTF-8"?> <svg xmlns="http://www.w3.org/2000/svg" id="Tele2_Slab_kopia_2" data-name="Tele2 Slab kopia 2" viewBox="0 0 162.4 109.46"><title>Voyado_QP</title><path d="M187.37,195.5v21.12c-38.08.8-62.56-32.48-65.28-61.28H144c8.8,0,16.16-4.8,16.16-14.08,0-9.12-7.36-13.92-16.16-13.92h-26.4V216H94.25V107.18h54.4c19.52,0,34.56,14.56,34.56,33.44,0,17.92-13,30.72-31.36,32.16A41.71,41.71,0,0,0,187.37,195.5Z" transform="translate(-94.25 -107.18)"></path><path d="M256.65,136.46V158.7c-26.89-.32-41,25-41,51.68V216H194.56v-79h21.12v22.4C222.08,147.82,234.56,135.82,256.65,136.46Z" transform="translate(-94.25 -107.18)"></path></svg> 