<svg id="VSCO" xmlns="http://www.w3.org/2000/svg" viewBox="0 0 3512.12 368.56"><title>VSCO-01</title><path d="M167.85,194.06H124.33L117,216H91.37l40.16-113.6h30.4L202.09,216H175.21Zm-7.52-22.72-1-3c-4-12-9.6-29.28-13.28-41.12-3.68,11.84-9.28,29.12-13.28,41.12l-1,3Z" transform="translate(-91.37 -68.14)"/><path d="M312.81,183c0,19.84-15.2,33-36.48,33h-59V102.38h54.57c21.28,0,36.48,10.56,36.48,29.28,0,12-6.24,19.84-16.32,23.84C304.65,159.34,312.81,168.78,312.81,183Zm-68.65-36.48h23c7.68,0,15-2.88,15-11.36s-7.36-11.36-15-11.36h-23Zm42.57,34.72c0-9.12-8-13.28-15.69-13.28H244.16v26.56H271C278.73,194.54,286.73,190.38,286.73,181.26Z" transform="translate(-91.37 -68.14)"/><path d="M426.88,137.1l-26.24,5.28c-3.36-12-10.24-19.84-21.76-19.84-15.68,0-24.48,13.6-24.48,36.64,0,23.2,9.28,36.64,24,36.64,13.12,0,21.44-7.52,25.28-26.56l23.2,3.68c-4.48,30.24-22.56,45-48.64,45-31,0-52.32-23.84-52.32-58.72s21.44-58.72,53-58.72C402.4,100.46,420,113.9,426.88,137.1Z" transform="translate(-91.37 -68.14)"/><path d="M542.88,159.18c0,34.88-20.48,56.8-52.48,56.8H445.92V102.38H490.4C522.4,102.38,542.88,124.3,542.88,159.18Zm-28.48,0c0-23-10.4-34.72-24-34.72H472.8V193.9h17.6C504,193.9,514.4,182.38,514.4,159.18Z" transform="translate(-91.37 -68.14)"/><path d="M643.84,124.78h-54.4v20.8h34.88V168H589.44v25.6H644.8V216H562.56V102.38h81.28Z" transform="translate(-91.37 -68.14)"/><path d="M747.2,124.78H692.8v22.88h36.48v22.4H692.8V216H665.92V102.38H747.2Z" transform="translate(-91.37 -68.14)"/><path d="M809.92,153.58h45.76V216H844.8l-6.88-12.32c-6.4,8.64-16.16,14.24-30.4,14.24-31.52,0-51.84-23.84-51.84-58.72s21.44-58.72,53-58.72c23.52,0,41,12.64,47.68,35l-25.92,5.28c-3.36-11.52-10.24-18.24-21.76-18.24-15.68,0-24.48,13.6-24.48,36.64,0,23.2,9.6,36.64,25.6,36.64,14.88,0,21.28-11,21.28-18.24V176H809.92Z" transform="translate(-91.37 -68.14)"/><path d="M968.8,216H941.92V168H905.6v48H878.72V102.38H905.6v43.2h36.32v-43.2H968.8Z" transform="translate(-91.37 -68.14)"/><path d="M1022.72,216H995.84V102.38h26.88Z" transform="translate(-91.37 -68.14)"/><path d="M1101.92,182.38c0,23-10.4,35-36.8,35a67.62,67.62,0,0,1-25.92-5l6.08-18.88a53,53,0,0,0,16.64,3.2c8.32,0,13.12-2.88,13.12-16.8v-77.6h26.88Z" transform="translate(-91.37 -68.14)"/><path d="M1169,161.74l-15.84,18.08V216h-26.24V102.38h26.24V148.3L1192,102.38h29.6l-34.56,39L1228,216h-29.44Z" transform="translate(-91.37 -68.14)"/><path d="M1268,193.58h42.56V216h-69.45V102.38H1268Z" transform="translate(-91.37 -68.14)"/><path d="M1451,216h-26.88v-36.8c0-21.92.16-38.72.64-48.64-2.56,9.44-7.2,24-15.36,48.48l-12.32,37h-18.4l-12.64-37c-8.33-24.48-13.13-39.2-15.85-48.8.48,10.24.64,27,.64,48.8v37h-24.64V102.38h38.88l10.72,31.52c5.77,16.8,9.77,29.28,12.49,38.72,2.88-9.44,6.88-21.92,12.48-38.56l10.56-31.68H1451Z" transform="translate(-91.37 -68.14)"/><path d="M1575.35,216h-24.8l-25.92-41.12c-10.88-17.28-17.76-28.48-23.2-38.08.32,11.52.48,25.44.48,42.24v37h-24.64V102.38h30.08l20.16,32.16c10.08,16.16,17.28,27.52,23.68,38.72-.16-13.6-.32-28.32-.32-44.32V102.38h24.48Z" transform="translate(-91.37 -68.14)"/><path d="M1699.83,159.18c0,34.88-21,58.72-52.16,58.72-31,0-52.64-23.84-52.64-58.72s21.6-58.72,52.64-58.72C1678.87,100.46,1699.83,124.3,1699.83,159.18Zm-76.32,0c0,22.72,8.48,36.64,24.16,36.64,15.52,0,23.68-13.92,23.68-36.64s-8.16-36.64-23.68-36.64C1632,122.54,1623.51,136.46,1623.51,159.18Z" transform="translate(-91.37 -68.14)"/><path d="M1813.43,137.1c0,19.84-14.72,34.72-36,34.72h-31V216h-26.88V102.38h57.92C1798.71,102.38,1813.43,117.26,1813.43,137.1Zm-25.44,0c0-9.12-7.52-12.32-15.2-12.32h-26.4v24.64h26.4C1780.47,149.42,1788,146.22,1788,137.1Z" transform="translate(-91.37 -68.14)"/><path d="M1930.07,159.18c0,20-6.88,36.48-18.72,46.72,9,3.2,14.56,8.16,17.76,12.8l-18.4,16.8c-5.44-7.84-12.64-17.76-28.64-17.76l-5.76.16c-29.44,0-51-23.84-51-58.72s21.6-58.72,52.64-58.72C1909.11,100.46,1930.07,124.3,1930.07,159.18Zm-76.32,0c0,22.72,8.48,36.64,24.16,36.64,15.52,0,23.68-13.92,23.68-36.64s-8.16-36.64-23.68-36.64C1862.23,122.54,1853.75,136.46,1853.75,159.18Z" transform="translate(-91.37 -68.14)"/><path d="M1994.55,169.9h-17.92V216h-26.88V102.38h59.52c21.28,0,36,13.92,36,33.76,0,15.84-9.28,27.84-23.84,32.16L2046.55,216h-28.64Zm-17.92-21.44h28c7.68,0,15.2-3.2,15.2-12.32s-7.52-12.32-15.2-12.32h-28Z" transform="translate(-91.37 -68.14)"/><path d="M2070.39,179.66c13.28,13.76,24,16.48,34.88,16.48,11.36,0,20-5.6,20-13.6,0-8.32-6.08-9.76-18.4-12.48l-12.64-2.72c-25.12-5.44-34.08-14.88-34.08-32.16,0-19.84,18.4-34.72,43.68-34.72,19.2,0,33.92,5.92,45.92,20l-17.92,13.76c-10.08-9.76-17.6-12.16-28.32-12.16-9.6,0-17.44,5.12-17.44,11.52,0,5.6,3,7.84,14.72,10.4l14.56,3.2c25.28,5.6,35.84,14.4,35.84,33.12,0,23.52-21,37.6-45.44,37.6-20,0-37.28-6.56-52.32-23.84Z" transform="translate(-91.37 -68.14)"/><path d="M2248.31,124.78h-29.92V216h-26.88v-91.2h-29.76v-22.4h86.56Z" transform="translate(-91.37 -68.14)"/><path d="M2358.07,176.3c0,27.52-17.6,41.6-45.28,41.6s-46.56-14.08-46.56-41.6V102.38h26.88v71.2c0,12.16,4.64,21.28,19.68,21.28,14.88,0,19.68-9.12,19.68-21.28v-71.2h25.6Z" transform="translate(-91.37 -68.14)"/><path d="M2399.67,102.38l12.95,37.12c7.21,20.48,11.53,33.44,15.21,45.12,3.68-11.36,8-24.32,15.2-45l13-37.28h26.72L2440.47,216h-26.4L2372,102.38Z" transform="translate(-91.37 -68.14)"/><path d="M2607.67,216h-28.8l-8.8-34.24c-2.73-10.56-5.61-22.4-8.16-33.28-2.57,10.88-5.61,22.72-8.33,33.28l-8.8,34.24H2516.3l-27.84-113.6h26.88l8.16,35c3,13,6.24,27.52,9,40.8,3-13.28,6.88-28,10.24-41l9.28-34.88h21l9,34.88c3.36,13,7,27.52,10.08,40.8,2.72-13.28,5.92-27.84,9-40.8l8.16-34.88h26.24Z" transform="translate(-91.37 -68.14)"/><path d="M2724.62,216l-26.88-41.76L2670.86,216h-27.68L2683,154.86l-34.72-52.48h28.32l21.76,33.76,21.6-33.76h27.68L2712.94,155l39.84,61Z" transform="translate(-91.37 -68.14)"/><path d="M2822.86,164.94v51H2796V163.82l-37.92-61.44h29l23.36,39.52,23.36-39.52h27.52Z" transform="translate(-91.37 -68.14)"/><path d="M2957.58,121.42l-55.2,72.16h55V216H2869.1v-19.2l55.2-72h-53v-22.4h86.24Z" transform="translate(-91.37 -68.14)"/><path d="M3044.3,194.06h-43.52L2993.42,216h-25.6l40-113.28a19.49,19.49,0,0,1-6.4-14.4c0-11.2,9.92-20.16,21.76-20.16s21.76,9,21.76,20.16a19.49,19.49,0,0,1-6.4,14.4l40,113.28h-26.88Zm-7.52-22.72-1-3c-4-12-9.6-29.28-13.28-41.12-3.68,11.84-9.28,29.12-13.28,41.12l-1,3Zm-24.16-83a10.56,10.56,0,0,0,21.12,0c0-6.24-4.64-10.4-10.56-10.4S3012.62,82.06,3012.62,88.3Z" transform="translate(-91.37 -68.14)"/><path d="M3159.18,194.06h-43.52L3108.3,216h-25.6l40.16-113.6h30.4L3193.42,216h-26.88ZM3132.62,91.18h-21.44V71.66h21.44Zm19,80.16-1-3c-4-12-9.6-29.28-13.28-41.12-3.68,11.84-9.28,29.12-13.28,41.12l-1,3Zm13.28-80.16H3143.5V71.66h21.44Z" transform="translate(-91.37 -68.14)"/><path d="M3303.82,159.18c0,34.88-21,58.72-52.16,58.72-31,0-52.64-23.84-52.64-58.72s21.6-58.72,52.64-58.72C3282.86,100.46,3303.82,124.3,3303.82,159.18Zm-57.76-68h-21.44V71.66h21.44Zm-18.56,68c0,22.72,8.48,36.64,24.16,36.64,15.52,0,23.68-13.92,23.68-36.64s-8.16-36.64-23.68-36.64C3236,122.54,3227.5,136.46,3227.5,159.18Zm50.88-68h-21.44V71.66h21.44Z" transform="translate(-91.37 -68.14)"/><path d="M152.65,406a51.31,51.31,0,0,1-1.92-10.08c-5.76,8.48-14.4,12-25.6,12-16.32,0-29.92-8.32-29.92-25,0-16.32,12.8-28.48,41.12-28.48h13.12v-4.32c0-9.12-4.8-13.28-14.4-13.28-10.24,0-16.32,5.28-21.44,13.28l-17.92-9c7-12.48,20-22.24,41.12-22.24,25.12,0,36.32,12.32,36.32,28.32v41c0,10.08,1.12,15,1.92,17.76Zm-3.2-34.4v-1.76H141c-17.76,0-22.24,5.6-22.24,11.84s5.28,9.28,12.48,9.28C139.53,390.94,149.45,386.62,149.45,371.58Z" transform="translate(-91.37 -68.14)"/><path d="M273.29,363.42c0,26.88-13.29,44.48-34.25,44.48-12.16,0-21.12-4.8-26.4-14.24L202.4,406h-9.12V292.38h25V328.7a26,26,0,0,1,20.8-9.76C260.33,318.94,273.29,336.54,273.29,363.42Zm-25.61,0c0-16.16-4.64-26.88-14.88-26.88-10.72,0-15.2,10.72-15.2,26.88,0,16.32,4.48,26.88,15.2,26.88C243,390.3,247.68,379.74,247.68,363.42Z" transform="translate(-91.37 -68.14)"/><path d="M325,407.9c-24,0-40.8-17.6-40.8-44.48S301,318.94,325,318.94c17.76,0,32.32,9.12,37.44,29l-23.84,3.2c-1.6-8.64-6.24-14.56-13.6-14.56-11,0-15.2,10.56-15.2,26.88s4.16,26.88,15.2,26.88c9.12,0,13.76-7.2,16.48-19.68l20.8,3C358.24,394.78,345.44,407.9,325,407.9Z" transform="translate(-91.37 -68.14)"/><path d="M452,292.38V406H431.2l-1.6-10.4c-5.44,7.84-13.28,12.32-23.36,12.32C385,407.9,372,390.3,372,363.42s13-44.48,34.24-44.48c8.64,0,15.52,2.88,20.8,8.16V292.38Zm-24.32,71c0-16.32-4.48-26.88-15.2-26.88-10.4,0-14.88,10.56-14.88,26.88,0,16.16,4.48,26.88,14.88,26.88C423.2,390.3,427.68,379.58,427.68,363.42Z" transform="translate(-91.37 -68.14)"/><path d="M548.64,379.74c-6.72,21.76-22.24,28.16-37.92,28.16-25.6,0-42.4-17-42.4-44,0-26.24,16.32-45,41.44-45,25.28,0,38.72,18.88,38.72,40.32,0,2.56-.16,6.88-.32,8.64H493.44c1.28,13,7.36,22.08,18.88,22.08,8.48,0,14.56-4,18.4-14.88Zm-54.72-26.88h31.2c-1.28-10.72-5.76-17.44-14.88-17.44C501.28,335.42,495.84,342,493.92,352.86Z" transform="translate(-91.37 -68.14)"/><path d="M593.44,316.54v4.32h14.88v16H593.44V406h-25V336.86H557.12v-16h11.36v-4.48c0-18.24,8.64-25.92,28.16-25.92a71.33,71.33,0,0,1,12.16,1v16.8a37.25,37.25,0,0,0-4.64-.32C597,307.9,593.44,310.78,593.44,316.54Z" transform="translate(-91.37 -68.14)"/><path d="M686.88,330.62a23.66,23.66,0,0,1,5.76,15.68c0,17-16,27.36-37.6,27.36a62.73,62.73,0,0,1-13.92-1.6c-3,1.6-5,3.52-5,5.92,0,3.68,5.44,5.12,13.6,5.6l16.16,1c21.92,1.28,33.28,9,33.28,23.36,0,20.32-19,28.8-45.44,28.8-27.52,0-43.36-7.52-43.36-21.28,0-7.68,5.28-13.12,12.32-17-5.6-3.84-8.32-9-8.32-14.72,0-6.88,5.28-12.64,14.08-17.12-6.88-4.8-10.88-11.68-10.88-20.32,0-17,15.84-27.36,37.44-27.36a53,53,0,0,1,22.24,4.48c2.08-8,7.36-14.24,18.56-14.24a35.76,35.76,0,0,1,6.72.48v17.6c-1.44-.16-4.32-.32-5.28-.32C693.44,326.94,689,327.42,686.88,330.62Zm-40.64,74.56a49.42,49.42,0,0,1-10.4-1.44c-3.84,2.56-5.6,5-5.6,8.64,0,6.4,10.24,9.92,23.84,9.92,14.08,0,22.24-3.68,22.24-10.24,0-4.32-3.36-5.28-13.44-5.92ZM668.8,346.3c0-7.36-5.44-12.64-13.76-12.64-8.16,0-13.92,5.28-13.92,12.64s5.76,12.64,13.92,12.64C663.36,358.94,668.8,353.66,668.8,346.3Z" transform="translate(-91.37 -68.14)"/><path d="M787.36,346v60h-25V351.26c0-8-2.56-13.6-10.56-13.6s-12,6.24-12,13.76V406h-25V292.38h23V331.1c4.64-7,12.16-12.16,23.36-12.16C778.88,318.94,787.36,331.1,787.36,346Z" transform="translate(-91.37 -68.14)"/><path d="M833.76,309.66h-25v-19.2h25Zm0,96.32h-25V320.86h25Z" transform="translate(-91.37 -68.14)"/><path d="M840.16,435.42v-16.8a37.25,37.25,0,0,0,4.64.32c7.2,0,10.72-2.88,10.72-8.64V320.86h25v89.6c0,18.24-8.64,25.92-28.16,25.92A68.34,68.34,0,0,1,840.16,435.42ZM880.48,310.3h-25V290.78h25Z" transform="translate(-91.37 -68.14)"/><path d="M936,366l-8.8,8.64V406h-25V292.38h25v58.08l30.08-29.6h24.8l-28.16,28.32L984.48,406H957.92Z" transform="translate(-91.37 -68.14)"/><path d="M1021,406H996V292.38h25Z" transform="translate(-91.37 -68.14)"/><path d="M1157.92,347.1V406h-25v-55c0-7.68-2.4-13.28-9.6-13.28-7.36,0-10.56,6.24-10.56,13.44V406h-25v-55c0-7.68-2.4-13.28-9.6-13.28-7.36,0-10.56,6.24-10.56,13.44V406h-25V320.86h21.93l.64,10.24c4.16-7,11.2-12.16,21.92-12.16,10.56,0,18.24,5.28,22.24,13.6,4-7.68,11.2-13.6,22.88-13.6C1149.92,318.94,1157.92,331.1,1157.92,347.1Z" transform="translate(-91.37 -68.14)"/><path d="M1251.83,346v60h-25V351.26c0-8-2.56-13.6-10.4-13.6s-12.16,6.24-12.16,13.76V406h-25V320.86h21.92l.64,10.56c4.48-7.36,12.48-12.48,24-12.48C1243.51,318.94,1251.83,331.1,1251.83,346Z" transform="translate(-91.37 -68.14)"/><path d="M1308.63,407.9c-24,0-40.8-17.6-40.8-44.48s16.8-44.48,40.8-44.48,40.48,17.6,40.48,44.48S1332.63,407.9,1308.63,407.9Zm0-17.6c10.88,0,14.88-10.56,14.88-26.88s-4-26.88-14.88-26.88c-11,0-15.2,10.56-15.2,26.88S1297.59,390.3,1308.63,390.3Z" transform="translate(-91.37 -68.14)"/><path d="M1445.43,363.42c0,26.88-13,44.48-34.24,44.48-8.64,0-15.52-2.88-20.8-8.16v35h-25V320.86h20.8l1.6,10.4c5.44-7.84,13.28-12.32,23.36-12.32C1432.47,318.94,1445.43,336.54,1445.43,363.42Zm-25.6,0c0-16.16-4.48-26.88-14.88-26.88-10.72,0-15.2,10.72-15.2,26.88,0,16.32,4.48,26.88,15.2,26.88C1415.35,390.3,1419.83,379.74,1419.83,363.42Z" transform="translate(-91.37 -68.14)"/><path d="M1536.31,320.86V434.78h-25V398.14a26,26,0,0,1-20.8,9.76c-21.28,0-34.24-17.6-34.24-44.48s13.28-44.48,34.24-44.48c12.16,0,21.12,4.8,26.4,14.24l10.24-12.32ZM1512,363.42c0-16.32-4.48-26.88-15.2-26.88-10.24,0-14.88,10.56-14.88,26.88,0,16.16,4.64,26.88,14.88,26.88C1507.51,390.3,1512,379.58,1512,363.42Z" transform="translate(-91.37 -68.14)"/><path d="M1612.31,320.54v22.72a68.35,68.35,0,0,0-8.64-.48c-11,0-20.64,5-20.64,21.28V406h-25V320.86H1580l1.28,18.08c2.24-9.92,7.2-19,22.56-19A57.76,57.76,0,0,1,1612.31,320.54Z" transform="translate(-91.37 -68.14)"/><path d="M1615.51,389.5l14.24-12.16c8.64,9.28,17.44,13,26.72,13,8.16,0,12.8-3.68,12.8-8.48,0-4.48-3-6.72-11.68-8.32l-10.88-2.08c-19.68-3.68-27.2-12.16-27.2-23.84,0-16.64,14.88-28.64,35-28.64,15.52,0,26.24,4.64,35.52,16l-14.4,10.72c-6.72-7-13.12-9.12-21.28-9.12-6.88,0-12,2.88-12,7.36,0,2.88,1.6,5.28,10.56,7l12.16,2.4c20.32,4,26.88,11.84,26.88,25,0,18.72-16.32,29.6-35.2,29.6C1640.63,407.9,1627.51,402.94,1615.51,389.5Z" transform="translate(-91.37 -68.14)"/><path d="M1752.63,387.9v17.28a46.46,46.46,0,0,1-13.92,2.08c-19.36,0-26.56-7.2-26.56-25.76V336.86h-12v-16h2.72c9,0,11.84-2.72,12.32-15l.32-8.64h21.6v23.68h15.52v16h-15.52v43c0,6.56,2.72,8.48,9.92,8.48A36.1,36.1,0,0,0,1752.63,387.9Z" transform="translate(-91.37 -68.14)"/><path d="M1840.62,320.86V406H1818.7l-.64-11c-4.32,7.68-12.32,13-24,13-17.6,0-25.92-12.16-25.92-27v-60h25v54.72c0,8,2.56,13.6,10.4,13.6s12.16-6.24,12.16-13.76V320.86Z" transform="translate(-91.37 -68.14)"/><path d="M1907,406h-24l-29.44-85.12h24.32l6.88,21.76c3.52,11.36,7.52,24.64,10.72,36,3-11.36,7.2-24.64,10.72-36l6.88-21.76h23.36Z" transform="translate(-91.37 -68.14)"/><path d="M2041.1,406h-26.24l-5-18.4c-2.56-9.76-5-19.36-7.2-29.28-2.24,10.08-4.48,19.52-7,29.44L1991,406h-26.4l-22.72-85.12h23.36l6.56,26.72c2.4,9.6,5.12,21.28,7,30.88,2.24-9.6,5-21.12,7.52-30.72l7-26.88h19.2l7,26.72c2.56,9.76,5.44,21.44,7.52,31.36,2.08-9.76,4.8-21.44,7.2-31.2l6.56-26.88h22.88Z" transform="translate(-91.37 -68.14)"/><path d="M2130.22,406,2113.1,378.3,2095.5,406h-25.12l29.76-45-26.56-40.16h25.28l14.4,22.72,14.08-22.72h25.12l-26.24,39.36,29.6,45.76Z" transform="translate(-91.37 -68.14)"/><path d="M2167.18,434.3V416.06a53.31,53.31,0,0,0,9.44.8c9.12,0,13.44-4.16,13.44-10.88,0-5-1.76-10.24-6.4-22.88l-22.56-62.24h24.32l7.36,21.92c3.52,10.4,7.2,21.92,10.24,32.32,3-10.56,6.72-22.24,9.92-32.48l6.88-21.76h23.36l-31.52,90.88c-5.92,17.12-13.12,24.16-31.36,24.16A54.18,54.18,0,0,1,2167.18,434.3Z" transform="translate(-91.37 -68.14)"/><path d="M2319.5,337.34l-39.36,51h39.36V406h-68.64V389.66l39.36-51.2h-36.8v-17.6h66.08Z" transform="translate(-91.37 -68.14)"/><path d="M2388.3,406a51.31,51.31,0,0,1-1.92-10.08c-5.76,8.48-14.4,12-25.6,12-16.32,0-29.92-8.32-29.92-25,0-16.32,12.8-28.48,41.12-28.48h13.12v-4.32c0-9.12-4.8-13.28-14.4-13.28-10.24,0-16.32,5.28-21.44,13.28l-17.92-9c7-12.48,20-22.24,41.12-22.24,25.12,0,36.32,12.32,36.32,28.32v41c0,10.08,1.12,15,1.92,17.76Zm-37.76-114.4c0-11.2,10.24-20.16,21.92-20.16s21.92,9,21.92,20.16c0,11.36-10.24,20.32-21.92,20.32S2350.54,302.94,2350.54,291.58Zm34.56,80v-1.76h-8.48c-17.76,0-22.24,5.6-22.24,11.84s5.28,9.28,12.48,9.28C2375.18,390.94,2385.1,386.62,2385.1,371.58Zm-23.2-80a10.56,10.56,0,1,0,21.12,0c0-6.24-4.64-10.4-10.56-10.4S2361.9,285.34,2361.9,291.58Z" transform="translate(-91.37 -68.14)"/><path d="M2481.42,406a51.31,51.31,0,0,1-1.92-10.08c-5.76,8.48-14.41,12-25.61,12-16.32,0-29.92-8.32-29.92-25,0-16.32,12.8-28.48,41.12-28.48h13.12v-4.32c0-9.12-4.79-13.28-14.4-13.28-10.24,0-16.32,5.28-21.44,13.28l-17.92-9c7-12.48,20-22.24,41.13-22.24,25.12,0,36.32,12.32,36.32,28.32v41c0,10.08,1.12,15,1.92,17.76Zm-21.29-96.32h-21.44v-19.2h21.44Zm18.08,61.92v-1.76h-8.47c-17.77,0-22.25,5.6-22.25,11.84s5.28,9.28,12.48,9.28C2468.29,390.94,2478.21,386.62,2478.21,371.58Zm14.25-61.92H2471v-19.2h21.45Z" transform="translate(-91.37 -68.14)"/><path d="M2557.41,407.9c-24,0-40.8-17.6-40.8-44.48s16.8-44.48,40.8-44.48,40.48,17.6,40.48,44.48S2581.41,407.9,2557.41,407.9Zm-5.6-98.24h-21.44v-19.2h21.44Zm5.6,80.64c10.88,0,14.88-10.56,14.88-26.88s-4-26.88-14.88-26.88c-11,0-15.2,10.56-15.2,26.88S2546.37,390.3,2557.41,390.3Zm26.72-80.64h-21.44v-19.2h21.44Z" transform="translate(-91.37 -68.14)"/><path d="M2700.61,292.38V406h-25.28V319.9l-24.64,14.88V311.42l29.6-19Z" transform="translate(-91.37 -68.14)"/><path d="M2813.09,385.18V406h-85.44v-7c0-24.64,11-35.36,34.88-49.12,13.12-7.52,25.6-14.56,25.6-25.28,0-8.8-6.24-13.92-15.36-13.92-13.28,0-20.32,12-23.2,24.32l-22.24-5.76c3.84-22.72,19.36-38.4,45.44-38.4s40.16,14.88,40.16,33.6c0,22.08-17,31.36-36.64,42.4-10.56,5.92-19.2,11-22.4,18.4Z" transform="translate(-91.37 -68.14)"/><path d="M2912.77,372.7c0,18.56-14.24,35-42.4,35-23,0-41.44-10.72-45.44-33.12l21.6-6.24c2.72,12.32,11.84,19.52,23.84,19.52,11.52,0,17.92-6.24,17.92-15.84,0-10.24-9-15-21.44-15h-8.64V337.34h8.48c13,0,19.36-6.24,19.36-13.76,0-7.36-5.12-13.12-16.16-13.12-12.64,0-18.88,9.12-21.92,18.24l-20.8-6.08c5-19.36,19.84-32,43.68-32,25.44,0,38.88,15,38.88,31,0,11.52-5.76,19.68-15.68,24.16C2905.25,350.14,2912.77,358.62,2912.77,372.7Z" transform="translate(-91.37 -68.14)"/><path d="M3014.53,359.58v20.8h-13.44V406h-24.64v-25.6h-52.16V359.9l41-67.52h35.84v67.2Zm-38.08,0V312.22l-28.64,47.36Z" transform="translate(-91.37 -68.14)"/><path d="M3111.49,367.9c0,22.4-16.16,40-42.24,40-18.56,0-36.48-6.72-44.32-29.44l21.6-7.52c3,10.4,10.56,17.76,21.6,17.76,12.64,0,18.56-9.12,18.56-19.2,0-11.36-7.2-18.4-18.56-18.4a20.07,20.07,0,0,0-16.32,8l-21.92-2.56,7.52-64.16h69.44v20.8h-50.24l-3.2,25.6c4.48-4,10.88-7.2,20.8-7.2C3097.09,331.58,3111.49,348.86,3111.49,367.9Z" transform="translate(-91.37 -68.14)"/><path d="M3212.61,368.06c0,19.52-14.88,39.84-41.92,39.84-26.4,0-45.13-21.12-45.13-56,0-30.4,13.93-60.8,47.21-60.8,24.32,0,35.2,14.88,37.92,27.84l-21.6,5.12c-1.92-6.72-6.56-13.76-16.48-13.76-16,0-21,17.28-21.92,33,4.8-6.4,13.12-11.52,26.08-11.52C3195.81,331.74,3212.61,344.86,3212.61,368.06Zm-24.64,2.4c0-11-6.56-19-17.12-19s-17.28,8-17.28,18.88c0,11,6.72,18.88,17.28,18.88C3181.25,389.18,3188,381.34,3188,370.46Z" transform="translate(-91.37 -68.14)"/><path d="M3304.93,292.38v19.36L3255.32,406h-27.2l49.76-92.8h-55.36v-20.8Z" transform="translate(-91.37 -68.14)"/><path d="M3405.08,373c0,20-16.8,34.88-44.8,34.88s-44.64-14.88-44.64-34.72c0-12.48,6.4-22.24,17.44-27.84-8-5.44-12.48-13.44-12.48-22.56,0-17.44,14.72-32,39.68-32,25.12,0,39.68,14.56,39.68,32,0,9.12-4.48,17.12-12.32,22.4C3398.68,350.94,3405.08,360.54,3405.08,373Zm-25.6-1.12c0-9-7.36-16.48-19.2-16.48s-19,7.52-19,16.48c0,8.8,7.2,16.48,19,16.48S3379.48,380.7,3379.48,371.9Zm-35.2-48.64c0,7.2,6.4,13.6,16,13.6s16-6.4,16-13.6c0-7.36-6.4-13.76-16-13.76S3344.28,315.9,3344.28,323.26Z" transform="translate(-91.37 -68.14)"/><path d="M3502.2,346.78c0,30.4-13.92,60.8-47.2,60.8-24.32,0-35.2-14.88-37.92-27.84l21.6-5.12c1.92,6.72,6.56,13.76,16.48,13.76,16,0,21-17.28,21.92-33-4.8,6.4-13.12,11.52-26.08,11.52-19,0-35.84-13.12-35.84-36.32,0-19.52,14.88-39.84,41.92-39.84C3483.48,290.78,3502.2,311.9,3502.2,346.78Zm-28-18.4c0-11-6.72-18.88-17.28-18.88-10.4,0-17.12,7.84-17.12,18.72,0,11,6.56,19,17.12,19S3474.2,339.26,3474.2,328.38Z" transform="translate(-91.37 -68.14)"/><path d="M3603.48,349.34c0,31.2-13.44,58.56-44.8,58.56s-44.8-27.36-44.8-58.56c0-31.36,13.44-58.72,44.8-58.72S3603.48,318,3603.48,349.34Zm-62.4,0c0,22.88,5.28,38.72,17.6,38.72s17.6-15.84,17.6-38.72c0-22.56-4.64-38.88-17.6-38.88S3541.08,326.78,3541.08,349.34Z" transform="translate(-91.37 -68.14)"/></svg>