<svg id="VSCO" xmlns="http://www.w3.org/2000/svg" viewBox="0 0 168.32 113.6"><title>VSCO-Quick-Preview</title><path d="M147.21,169.9H129.29V216H102.41V102.38h59.52c21.28,0,36,13.92,36,33.76,0,15.84-9.28,27.84-23.84,32.16L199.21,216H170.57Zm-17.92-21.44h28c7.68,0,15.2-3.2,15.2-12.32s-7.52-12.32-15.2-12.32h-28Z" transform="translate(-102.41 -102.38)"/><path d="M270.73,130.54v22.72a68.35,68.35,0,0,0-8.64-.48c-11,0-20.65,5-20.65,21.28V216h-25V130.86H238.4l1.28,18.08c2.24-9.92,7.2-19,22.57-19A57.76,57.76,0,0,1,270.73,130.54Z" transform="translate(-102.41 -102.38)"/></svg>